<svg width="32" height="32" viewBox="0 0 32 32" fill="none" xmlns="http://www.w3.org/2000/svg">
<path d="M0 4C0 1.79086 1.79086 0 4 0H28C30.2091 0 32 1.79086 32 4V28C32 30.2091 30.2091 32 28 32H4C1.79086 32 0 30.2091 0 28V4Z" fill="#D1E9EF"/>
<path d="M13 8.45962C13.9115 8.16968 14.9104 8 16 8C20.1819 8 23.028 10.4996 24.7251 12.7043C25.575 13.8085 26 14.3606 26 16C26 17.6394 25.575 18.1915 24.7251 19.2957C23.028 21.5004 20.1819 24 16 24C11.8181 24 8.97196 21.5004 7.27489 19.2957C6.42496 18.1915 6 17.6394 6 16C6 14.3606 6.42496 13.8085 7.27489 12.7043C7.75612 12.0791 8.32973 11.4303 9 10.8214" stroke="#1A90B0" stroke-width="1.5" stroke-linecap="round"/>
<path d="M19 16C19 17.6569 17.6569 19 16 19C14.3431 19 13 17.6569 13 16C13 14.3431 14.3431 13 16 13C17.6569 13 19 14.3431 19 16Z" stroke="#1A90B0" stroke-width="1.5"/>
</svg>
