<?xml version="1.0" encoding="UTF-8" standalone="no"?>
<!DOCTYPE svg PUBLIC "-//W3C//DTD SVG 1.1//EN"
 "http://www.w3.org/Graphics/SVG/1.1/DTD/svg11.dtd">
<!-- Generated by graphviz version 2.47.0 (20210316.0004)
 -->
<!-- Title: dependencies Pages: 1 -->
<svg width="504pt" height="211pt"
 viewBox="0.00 0.00 504.00 211.00" xmlns="http://www.w3.org/2000/svg" xmlns:xlink="http://www.w3.org/1999/xlink">
<g id="graph0" class="graph" transform="scale(1 1) rotate(0) translate(4 207)">
<title>dependencies</title>
<polygon fill="white" stroke="transparent" points="-4,4 -4,-207 500,-207 500,4 -4,4"/>
<text text-anchor="start" x="227.01" y="-42.4" font-family="Times-12" font-weight="bold" font-size="14.00">Legend</text>
<polygon fill="#ffffb3" stroke="transparent" points="14,-10 14,-30 34,-30 34,-10 14,-10"/>
<text text-anchor="start" x="37.63" y="-15.4" font-family="Times-12" font-size="14.00"> &#160;Declarations</text>
<polygon fill="#8dd3c7" stroke="transparent" points="127,-10 127,-30 147,-30 147,-10 127,-10"/>
<text text-anchor="start" x="150.73" y="-15.4" font-family="Times-12" font-size="14.00"> &#160;Module</text>
<polygon fill="#80b1d3" stroke="transparent" points="213,-10 213,-30 233,-30 233,-10 213,-10"/>
<text text-anchor="start" x="236.78" y="-15.4" font-family="Times-12" font-size="14.00"> &#160;Bootstrap</text>
<polygon fill="#fdb462" stroke="transparent" points="310,-10 310,-30 330,-30 330,-10 310,-10"/>
<text text-anchor="start" x="333.67" y="-15.4" font-family="Times-12" font-size="14.00"> &#160;Providers</text>
<polygon fill="#fb8072" stroke="transparent" points="406,-10 406,-30 426,-30 426,-10 406,-10"/>
<text text-anchor="start" x="429.73" y="-15.4" font-family="Times-12" font-size="14.00"> &#160;Exports</text>
<g id="clust1" class="cluster">
<title>cluster_BusinessOwnerModule</title>
<polygon fill="none" stroke="black" stroke-dasharray="1,5" points="136,-70 136,-195 360,-195 360,-70 136,-70"/>
</g>
<g id="clust3" class="cluster">
<title>cluster_BusinessOwnerModule_imports</title>
<polygon fill="none" stroke="black" points="144,-78 144,-130 352,-130 352,-78 144,-78"/>
</g>
<!-- BusinessOwnerRoutingModule -->
<g id="node1" class="node">
<title>BusinessOwnerRoutingModule</title>
<polygon fill="#8dd3c7" stroke="black" points="344.03,-122 341.03,-126 320.03,-126 317.03,-122 151.97,-122 151.97,-86 344.03,-86 344.03,-122"/>
<text text-anchor="middle" x="248" y="-99.8" font-family="Times,serif" font-size="14.00">BusinessOwnerRoutingModule</text>
</g>
<!-- BusinessOwnerModule -->
<g id="node2" class="node">
<title>BusinessOwnerModule</title>
<polygon fill="#8dd3c7" stroke="black" points="321.91,-187 318.91,-191 297.91,-191 294.91,-187 174.09,-187 174.09,-151 321.91,-151 321.91,-187"/>
<text text-anchor="middle" x="248" y="-164.8" font-family="Times,serif" font-size="14.00">BusinessOwnerModule</text>
</g>
<!-- BusinessOwnerRoutingModule&#45;&gt;BusinessOwnerModule -->
<g id="edge1" class="edge">
<title>BusinessOwnerRoutingModule&#45;&gt;BusinessOwnerModule</title>
<path fill="none" stroke="black" d="M248,-122.11C248,-122.11 248,-140.99 248,-140.99"/>
<polygon fill="black" stroke="black" points="244.5,-140.99 248,-150.99 251.5,-140.99 244.5,-140.99"/>
</g>
</g>
</svg>
