<?xml version="1.0" encoding="UTF-8" standalone="no"?>
<!DOCTYPE svg PUBLIC "-//W3C//DTD SVG 1.1//EN"
 "http://www.w3.org/Graphics/SVG/1.1/DTD/svg11.dtd">
<!-- Generated by graphviz version 2.47.0 (20210316.0004)
 -->
<!-- Title: dependencies Pages: 1 -->
<svg width="1038pt" height="284pt"
 viewBox="0.00 0.00 1038.00 284.00" xmlns="http://www.w3.org/2000/svg" xmlns:xlink="http://www.w3.org/1999/xlink">
<g id="graph0" class="graph" transform="scale(1 1) rotate(0) translate(4 280)">
<title>dependencies</title>
<polygon fill="white" stroke="transparent" points="-4,4 -4,-280 1034,-280 1034,4 -4,4"/>
<text text-anchor="start" x="494.01" y="-42.4" font-family="Times-12" font-weight="bold" font-size="14.00">Legend</text>
<polygon fill="#ffffb3" stroke="transparent" points="281,-10 281,-30 301,-30 301,-10 281,-10"/>
<text text-anchor="start" x="304.63" y="-15.4" font-family="Times-12" font-size="14.00"> &#160;Declarations</text>
<polygon fill="#8dd3c7" stroke="transparent" points="394,-10 394,-30 414,-30 414,-10 394,-10"/>
<text text-anchor="start" x="417.73" y="-15.4" font-family="Times-12" font-size="14.00"> &#160;Module</text>
<polygon fill="#80b1d3" stroke="transparent" points="480,-10 480,-30 500,-30 500,-10 480,-10"/>
<text text-anchor="start" x="503.78" y="-15.4" font-family="Times-12" font-size="14.00"> &#160;Bootstrap</text>
<polygon fill="#fdb462" stroke="transparent" points="577,-10 577,-30 597,-30 597,-10 577,-10"/>
<text text-anchor="start" x="600.67" y="-15.4" font-family="Times-12" font-size="14.00"> &#160;Providers</text>
<polygon fill="#fb8072" stroke="transparent" points="673,-10 673,-30 693,-30 693,-10 673,-10"/>
<text text-anchor="start" x="696.73" y="-15.4" font-family="Times-12" font-size="14.00"> &#160;Exports</text>
<g id="clust1" class="cluster">
<title>cluster_CardsModule</title>
<polygon fill="none" stroke="black" stroke-dasharray="1,5" points="8,-70 8,-268 1022,-268 1022,-70 8,-70"/>
</g>
<g id="clust9" class="cluster">
<title>cluster_CardsModule_imports</title>
<polygon fill="none" stroke="black" points="840,-78 840,-130 1014,-130 1014,-78 840,-78"/>
</g>
<g id="clust10" class="cluster">
<title>cluster_CardsModule_exports</title>
<polygon fill="none" stroke="black" points="79,-208 79,-260 914,-260 914,-208 79,-208"/>
</g>
<g id="clust2" class="cluster">
<title>cluster_CardsModule_declarations</title>
<polygon fill="none" stroke="black" points="16,-78 16,-130 832,-130 832,-78 16,-78"/>
</g>
<!-- Card1Component -->
<g id="node1" class="node">
<title>Card1Component</title>
<polygon fill="#ffffb3" stroke="black" points="823.55,-122 708.45,-122 708.45,-86 823.55,-86 823.55,-122"/>
<text text-anchor="middle" x="766" y="-99.8" font-family="Times,serif" font-size="14.00">Card1Component</text>
</g>
<!-- CardsModule -->
<g id="node7" class="node">
<title>CardsModule</title>
<polygon fill="#8dd3c7" stroke="black" points="544.21,-187 541.21,-191 520.21,-191 517.21,-187 451.79,-187 451.79,-151 544.21,-151 544.21,-187"/>
<text text-anchor="middle" x="498" y="-164.8" font-family="Times,serif" font-size="14.00">CardsModule</text>
</g>
<!-- Card1Component&#45;&gt;CardsModule -->
<g id="edge1" class="edge">
<title>Card1Component&#45;&gt;CardsModule</title>
<path fill="none" stroke="black" d="M738.38,-122.02C738.38,-139.37 738.38,-163 738.38,-163 738.38,-163 554.35,-163 554.35,-163"/>
<polygon fill="black" stroke="black" points="554.35,-159.5 544.35,-163 554.35,-166.5 554.35,-159.5"/>
</g>
<!-- Card2Component -->
<g id="node2" class="node">
<title>Card2Component</title>
<polygon fill="#ffffb3" stroke="black" points="689.55,-122 574.45,-122 574.45,-86 689.55,-86 689.55,-122"/>
<text text-anchor="middle" x="632" y="-99.8" font-family="Times,serif" font-size="14.00">Card2Component</text>
</g>
<!-- Card2Component&#45;&gt;CardsModule -->
<g id="edge2" class="edge">
<title>Card2Component&#45;&gt;CardsModule</title>
<path fill="none" stroke="black" d="M602.88,-122.24C602.88,-137.57 602.88,-157 602.88,-157 602.88,-157 554.3,-157 554.3,-157"/>
<polygon fill="black" stroke="black" points="554.31,-153.5 544.3,-157 554.3,-160.5 554.31,-153.5"/>
</g>
<!-- Card3Component -->
<g id="node3" class="node">
<title>Card3Component</title>
<polygon fill="#ffffb3" stroke="black" points="555.55,-122 440.45,-122 440.45,-86 555.55,-86 555.55,-122"/>
<text text-anchor="middle" x="498" y="-99.8" font-family="Times,serif" font-size="14.00">Card3Component</text>
</g>
<!-- Card3Component&#45;&gt;CardsModule -->
<g id="edge3" class="edge">
<title>Card3Component&#45;&gt;CardsModule</title>
<path fill="none" stroke="black" d="M498,-122.11C498,-122.11 498,-140.99 498,-140.99"/>
<polygon fill="black" stroke="black" points="494.5,-140.99 498,-150.99 501.5,-140.99 494.5,-140.99"/>
</g>
<!-- Card4Component -->
<g id="node4" class="node">
<title>Card4Component</title>
<polygon fill="#ffffb3" stroke="black" points="421.55,-122 306.45,-122 306.45,-86 421.55,-86 421.55,-122"/>
<text text-anchor="middle" x="364" y="-99.8" font-family="Times,serif" font-size="14.00">Card4Component</text>
</g>
<!-- Card4Component&#45;&gt;CardsModule -->
<g id="edge4" class="edge">
<title>Card4Component&#45;&gt;CardsModule</title>
<path fill="none" stroke="black" d="M398.62,-122.24C398.62,-137.57 398.62,-157 398.62,-157 398.62,-157 441.8,-157 441.8,-157"/>
<polygon fill="black" stroke="black" points="441.8,-160.5 451.8,-157 441.8,-153.5 441.8,-160.5"/>
</g>
<!-- Card5Component -->
<g id="node5" class="node">
<title>Card5Component</title>
<polygon fill="#ffffb3" stroke="black" points="287.55,-122 172.45,-122 172.45,-86 287.55,-86 287.55,-122"/>
<text text-anchor="middle" x="230" y="-99.8" font-family="Times,serif" font-size="14.00">Card5Component</text>
</g>
<!-- Card5Component&#45;&gt;CardsModule -->
<g id="edge5" class="edge">
<title>Card5Component&#45;&gt;CardsModule</title>
<path fill="none" stroke="black" d="M263.12,-122.02C263.12,-139.37 263.12,-163 263.12,-163 263.12,-163 441.88,-163 441.88,-163"/>
<polygon fill="black" stroke="black" points="441.88,-166.5 451.88,-163 441.88,-159.5 441.88,-166.5"/>
</g>
<!-- UserListComponent -->
<g id="node6" class="node">
<title>UserListComponent</title>
<polygon fill="#ffffb3" stroke="black" points="153.54,-122 24.46,-122 24.46,-86 153.54,-86 153.54,-122"/>
<text text-anchor="middle" x="89" y="-99.8" font-family="Times,serif" font-size="14.00">UserListComponent</text>
</g>
<!-- UserListComponent&#45;&gt;CardsModule -->
<g id="edge6" class="edge">
<title>UserListComponent&#45;&gt;CardsModule</title>
<path fill="none" stroke="black" d="M120.62,-122.11C120.62,-141.34 120.62,-169 120.62,-169 120.62,-169 441.73,-169 441.73,-169"/>
<polygon fill="black" stroke="black" points="441.73,-172.5 451.73,-169 441.73,-165.5 441.73,-172.5"/>
</g>
<!-- Card1Component  -->
<g id="node9" class="node">
<title>Card1Component </title>
<polygon fill="#fb8072" stroke="black" points="905.54,-252 786.46,-252 786.46,-216 905.54,-216 905.54,-252"/>
<text text-anchor="middle" x="846" y="-229.8" font-family="Times,serif" font-size="14.00">Card1Component </text>
</g>
<!-- CardsModule&#45;&gt;Card1Component  -->
<g id="edge8" class="edge">
<title>CardsModule&#45;&gt;Card1Component </title>
<path fill="none" stroke="black" stroke-dasharray="5,2" d="M544.31,-175C630.11,-175 805.12,-175 805.12,-175 805.12,-175 805.12,-205.98 805.12,-205.98"/>
<polygon fill="black" stroke="black" points="801.63,-205.98 805.12,-215.98 808.63,-205.98 801.63,-205.98"/>
</g>
<!-- Card2Component  -->
<g id="node10" class="node">
<title>Card2Component </title>
<polygon fill="#fb8072" stroke="black" points="768.54,-252 649.46,-252 649.46,-216 768.54,-216 768.54,-252"/>
<text text-anchor="middle" x="709" y="-229.8" font-family="Times,serif" font-size="14.00">Card2Component </text>
</g>
<!-- CardsModule&#45;&gt;Card2Component  -->
<g id="edge9" class="edge">
<title>CardsModule&#45;&gt;Card2Component </title>
<path fill="none" stroke="black" stroke-dasharray="5,2" d="M544.44,-181C595.27,-181 669.62,-181 669.62,-181 669.62,-181 669.62,-205.76 669.62,-205.76"/>
<polygon fill="black" stroke="black" points="666.13,-205.76 669.62,-215.76 673.13,-205.76 666.13,-205.76"/>
</g>
<!-- Card3Component  -->
<g id="node11" class="node">
<title>Card3Component </title>
<polygon fill="#fb8072" stroke="black" points="631.54,-252 512.46,-252 512.46,-216 631.54,-216 631.54,-252"/>
<text text-anchor="middle" x="572" y="-229.8" font-family="Times,serif" font-size="14.00">Card3Component </text>
</g>
<!-- CardsModule&#45;&gt;Card3Component  -->
<g id="edge10" class="edge">
<title>CardsModule&#45;&gt;Card3Component </title>
<path fill="none" stroke="black" stroke-dasharray="5,2" d="M528.29,-187.11C528.29,-187.11 528.29,-205.99 528.29,-205.99"/>
<polygon fill="black" stroke="black" points="524.79,-205.99 528.29,-215.99 531.79,-205.99 524.79,-205.99"/>
</g>
<!-- Card4Component  -->
<g id="node12" class="node">
<title>Card4Component </title>
<polygon fill="#fb8072" stroke="black" points="494.54,-252 375.46,-252 375.46,-216 494.54,-216 494.54,-252"/>
<text text-anchor="middle" x="435" y="-229.8" font-family="Times,serif" font-size="14.00">Card4Component </text>
</g>
<!-- CardsModule&#45;&gt;Card4Component  -->
<g id="edge11" class="edge">
<title>CardsModule&#45;&gt;Card4Component </title>
<path fill="none" stroke="black" stroke-dasharray="5,2" d="M473.21,-187.11C473.21,-187.11 473.21,-205.99 473.21,-205.99"/>
<polygon fill="black" stroke="black" points="469.71,-205.99 473.21,-215.99 476.71,-205.99 469.71,-205.99"/>
</g>
<!-- Card5Component  -->
<g id="node13" class="node">
<title>Card5Component </title>
<polygon fill="#fb8072" stroke="black" points="357.54,-252 238.46,-252 238.46,-216 357.54,-216 357.54,-252"/>
<text text-anchor="middle" x="298" y="-229.8" font-family="Times,serif" font-size="14.00">Card5Component </text>
</g>
<!-- CardsModule&#45;&gt;Card5Component  -->
<g id="edge12" class="edge">
<title>CardsModule&#45;&gt;Card5Component </title>
<path fill="none" stroke="black" stroke-dasharray="5,2" d="M451.72,-181C402.57,-181 331.88,-181 331.88,-181 331.88,-181 331.88,-205.76 331.88,-205.76"/>
<polygon fill="black" stroke="black" points="328.38,-205.76 331.88,-215.76 335.38,-205.76 328.38,-205.76"/>
</g>
<!-- UserListComponent  -->
<g id="node14" class="node">
<title>UserListComponent </title>
<polygon fill="#fb8072" stroke="black" points="220.54,-252 87.46,-252 87.46,-216 220.54,-216 220.54,-252"/>
<text text-anchor="middle" x="154" y="-229.8" font-family="Times,serif" font-size="14.00">UserListComponent </text>
</g>
<!-- CardsModule&#45;&gt;UserListComponent  -->
<g id="edge13" class="edge">
<title>CardsModule&#45;&gt;UserListComponent </title>
<path fill="none" stroke="black" stroke-dasharray="5,2" d="M451.86,-175C367.37,-175 196.37,-175 196.37,-175 196.37,-175 196.37,-205.98 196.37,-205.98"/>
<polygon fill="black" stroke="black" points="192.87,-205.98 196.37,-215.98 199.87,-205.98 192.87,-205.98"/>
</g>
<!-- DropdownMenusModule -->
<g id="node8" class="node">
<title>DropdownMenusModule</title>
<polygon fill="#8dd3c7" stroke="black" points="1005.53,-122 1002.53,-126 981.53,-126 978.53,-122 848.47,-122 848.47,-86 1005.53,-86 1005.53,-122"/>
<text text-anchor="middle" x="927" y="-99.8" font-family="Times,serif" font-size="14.00">DropdownMenusModule</text>
</g>
<!-- DropdownMenusModule&#45;&gt;CardsModule -->
<g id="edge7" class="edge">
<title>DropdownMenusModule&#45;&gt;CardsModule</title>
<path fill="none" stroke="black" d="M876.88,-122.11C876.88,-141.34 876.88,-169 876.88,-169 876.88,-169 554.46,-169 554.46,-169"/>
<polygon fill="black" stroke="black" points="554.46,-165.5 544.46,-169 554.46,-172.5 554.46,-165.5"/>
</g>
</g>
</svg>
