<svg width="40" height="40" viewBox="0 0 40 40" fill="none" xmlns="http://www.w3.org/2000/svg">
<rect width="40" height="40" rx="20" fill="#D7ECEB"/>
<path d="M10.6679 13.3496C10.5587 13.7139 10.5 14.1001 10.5 14.5C10.5 16.7091 12.2909 18.5 14.5 18.5C16.7091 18.5 18.5 16.7091 18.5 14.5C18.5 12.2909 16.7091 10.5 14.5 10.5C14.1001 10.5 13.7139 10.5587 13.3496 10.6679" stroke="#36A19B" stroke-width="1.5" stroke-linecap="round"/>
<path d="M29.8321 27.1504C29.9413 26.7861 30 26.3999 30 26C30 23.7909 28.2091 22 26 22C23.7909 22 22 23.7909 22 26C22 28.2091 23.7909 30 26 30C26.3999 30 26.7861 29.9413 27.1504 29.8321" stroke="#36A19B" stroke-width="1.5" stroke-linecap="round"/>
<path d="M10.5 25.5C10.5 23.6144 10.5 22.6716 11.0858 22.0858C11.6716 21.5 12.6144 21.5 14.5 21.5C16.3856 21.5 17.3284 21.5 17.9142 22.0858C18.5 22.6716 18.5 23.6144 18.5 25.5C18.5 27.3856 18.5 28.3284 17.9142 28.9142C17.3284 29.5 16.3856 29.5 14.5 29.5C12.6144 29.5 11.6716 29.5 11.0858 28.9142C10.5 28.3284 10.5 27.3856 10.5 25.5Z" stroke="#36A19B" stroke-width="1.5"/>
<path d="M21.5 14.5C21.5 12.6144 21.5 11.6716 22.0858 11.0858C22.6716 10.5 23.6144 10.5 25.5 10.5C27.3856 10.5 28.3284 10.5 28.9142 11.0858C29.5 11.6716 29.5 12.6144 29.5 14.5C29.5 16.3856 29.5 17.3284 28.9142 17.9142C28.3284 18.5 27.3856 18.5 25.5 18.5C23.6144 18.5 22.6716 18.5 22.0858 17.9142C21.5 17.3284 21.5 16.3856 21.5 14.5Z" stroke="#36A19B" stroke-width="1.5"/>
</svg>
