<svg width="40" height="40" viewBox="0 0 40 40" fill="none" xmlns="http://www.w3.org/2000/svg">
<rect width="40" height="40" rx="20" fill="#F9E5D3"/>
<g clip-path="url(#clip0_9879_45728)">
<path d="M27.182 16.7453L28.5862 22.5949C28.7428 23.2397 28.7503 23.9117 28.6081 24.5598C28.4658 25.2078 28.1776 25.815 27.7654 26.3349C27.6571 26.4723 27.5409 26.6031 27.4171 26.7267C26.7831 27.3591 25.9691 27.7799 25.0866 27.9318C24.9526 28.8666 24.4881 29.7224 23.7774 30.3443C23.0667 30.9662 22.1568 31.3129 21.2125 31.3217C20.2681 31.3304 19.3519 31.0006 18.6298 30.3921C17.9077 29.7835 17.4274 28.9364 17.2761 28.0042L15.7275 28.0054C15.0657 28.0054 14.4126 27.8557 13.8169 27.5674C13.2212 27.2792 12.6984 26.8599 12.2878 26.341C11.8771 25.822 11.5892 25.2169 11.4455 24.5709C11.3019 23.925 11.3063 23.2548 11.4583 22.6108L12.7553 17.1113C13.0859 15.6008 13.8824 14.2322 15.0324 13.1986C16.1825 12.165 17.6281 11.5187 19.1652 11.3507L19.1652 9.39556C19.1633 9.28492 19.1834 9.17501 19.2244 9.07223C19.2654 8.96946 19.3265 8.87588 19.4041 8.79696C19.4816 8.71804 19.5741 8.65536 19.6762 8.61257C19.7782 8.56978 19.8878 8.54774 19.9984 8.54774C20.1091 8.54774 20.2186 8.56978 20.3207 8.61257C20.4227 8.65536 20.5152 8.71804 20.5928 8.79696C20.6703 8.87588 20.7314 8.96946 20.7724 9.07223C20.8134 9.17501 20.8335 9.28492 20.8316 9.39556L20.8322 11.3489C22.3075 11.5145 23.6998 12.1164 24.831 13.0777C25.9622 14.0391 26.7808 15.3161 27.182 16.7453ZM23.3648 28.006L18.9814 28.0054C19.1164 28.483 19.4043 28.903 19.801 29.2011C20.1977 29.4993 20.6813 29.659 21.1775 29.6559C21.6686 29.6433 22.1435 29.4775 22.5357 29.1816C22.9279 28.8858 23.2178 28.4748 23.3648 28.006ZM20.0184 12.9676C18.7035 12.9613 17.4262 13.4068 16.4003 14.2295C15.3745 15.0522 14.6622 16.2022 14.3828 17.4872L13.08 22.9926C12.9857 23.3921 12.983 23.8077 13.0721 24.2084C13.1613 24.609 13.3399 24.9843 13.5946 25.3062C13.8493 25.628 14.1736 25.888 14.543 26.0668C14.9125 26.2456 15.3176 26.3384 15.7281 26.3384L24.32 26.339C24.7314 26.3392 25.1374 26.2462 25.5076 26.0669C25.8778 25.8876 26.2025 25.6267 26.4574 25.3038C26.7122 24.9809 26.8905 24.6044 26.9789 24.2027C27.0672 23.8009 27.0634 23.3844 26.9675 22.9844L25.571 17.1625C25.227 15.9542 24.4986 14.8908 23.4962 14.1333C22.4938 13.3759 21.2719 12.9656 20.0155 12.9647L20.0184 12.9676ZM31.351 22.7929C31.2268 22.9175 31.0663 22.9997 30.8925 23.0275C30.7188 23.0554 30.5406 23.0275 30.3837 22.9479C30.2267 22.8682 30.099 22.741 30.0188 22.5843C29.9387 22.4276 29.9102 22.2496 29.9374 22.0757C30.1935 20.2682 29.7528 18.431 28.7047 16.9363C28.6438 16.8441 28.6018 16.7407 28.5813 16.6321C28.5607 16.5236 28.562 16.412 28.5849 16.304C28.6079 16.1959 28.6521 16.0935 28.715 16.0026C28.7779 15.9118 28.8582 15.8344 28.9513 15.7749C29.0444 15.7154 29.1484 15.675 29.2572 15.6561C29.3661 15.6371 29.4776 15.64 29.5853 15.6646C29.693 15.6891 29.7948 15.7349 29.8847 15.7991C29.9746 15.8634 30.0508 15.9449 30.1089 16.0388C31.3709 17.8783 31.8975 20.1239 31.5849 22.3327C31.5577 22.507 31.4757 22.6681 31.351 22.7929ZM9.82786 22.7952C9.71854 22.9036 9.58135 22.9795 9.4315 23.0147C9.28165 23.0498 9.125 23.0428 8.97891 22.9943C8.83282 22.9459 8.703 22.8579 8.60385 22.7402C8.5047 22.6224 8.44009 22.4796 8.41718 22.3274C8.09402 20.0821 8.63942 17.798 9.94218 15.941C10.0641 15.7566 10.2542 15.6282 10.4708 15.584C10.6874 15.5398 10.9127 15.5834 11.0971 15.7053C11.2815 15.8272 11.41 16.0174 11.4542 16.234C11.4984 16.4506 11.4547 16.6758 11.3328 16.8602C10.2495 18.3721 9.7936 20.2446 10.0606 22.0852C10.0798 22.2135 10.0687 22.3445 10.0283 22.4678C9.98788 22.591 9.91925 22.7032 9.82786 22.7952Z" fill="#E17F24"/>
</g>
<defs>
<clipPath id="clip0_9879_45728">
<rect width="20" height="20" fill="white" transform="translate(5.85742 20) rotate(-45)"/>
</clipPath>
</defs>
</svg>
