<?xml version="1.0" encoding="UTF-8" standalone="no"?>
<!DOCTYPE svg PUBLIC "-//W3C//DTD SVG 1.1//EN"
 "http://www.w3.org/Graphics/SVG/1.1/DTD/svg11.dtd">
<!-- Generated by graphviz version 2.47.0 (20210316.0004)
 -->
<!-- Title: dependencies Pages: 1 -->
<svg width="723pt" height="211pt"
 viewBox="0.00 0.00 723.00 211.00" xmlns="http://www.w3.org/2000/svg" xmlns:xlink="http://www.w3.org/1999/xlink">
<g id="graph0" class="graph" transform="scale(1 1) rotate(0) translate(4 207)">
<title>dependencies</title>
<polygon fill="white" stroke="transparent" points="-4,4 -4,-207 719,-207 719,4 -4,4"/>
<text text-anchor="start" x="336.51" y="-42.4" font-family="Times-12" font-weight="bold" font-size="14.00">Legend</text>
<polygon fill="#ffffb3" stroke="transparent" points="123.5,-10 123.5,-30 143.5,-30 143.5,-10 123.5,-10"/>
<text text-anchor="start" x="147.13" y="-15.4" font-family="Times-12" font-size="14.00"> &#160;Declarations</text>
<polygon fill="#8dd3c7" stroke="transparent" points="236.5,-10 236.5,-30 256.5,-30 256.5,-10 236.5,-10"/>
<text text-anchor="start" x="260.23" y="-15.4" font-family="Times-12" font-size="14.00"> &#160;Module</text>
<polygon fill="#80b1d3" stroke="transparent" points="322.5,-10 322.5,-30 342.5,-30 342.5,-10 322.5,-10"/>
<text text-anchor="start" x="346.28" y="-15.4" font-family="Times-12" font-size="14.00"> &#160;Bootstrap</text>
<polygon fill="#fdb462" stroke="transparent" points="419.5,-10 419.5,-30 439.5,-30 439.5,-10 419.5,-10"/>
<text text-anchor="start" x="443.17" y="-15.4" font-family="Times-12" font-size="14.00"> &#160;Providers</text>
<polygon fill="#fb8072" stroke="transparent" points="515.5,-10 515.5,-30 535.5,-30 535.5,-10 515.5,-10"/>
<text text-anchor="start" x="539.23" y="-15.4" font-family="Times-12" font-size="14.00"> &#160;Exports</text>
<g id="clust1" class="cluster">
<title>cluster_DashboardModule</title>
<polygon fill="none" stroke="black" stroke-dasharray="1,5" points="8,-70 8,-195 707,-195 707,-70 8,-70"/>
</g>
<g id="clust6" class="cluster">
<title>cluster_DashboardModule_imports</title>
<polygon fill="none" stroke="black" points="565,-78 565,-130 699,-130 699,-78 565,-78"/>
</g>
<g id="clust2" class="cluster">
<title>cluster_DashboardModule_declarations</title>
<polygon fill="none" stroke="black" points="16,-78 16,-130 557,-130 557,-78 16,-78"/>
</g>
<!-- AccountingDashboardComponent -->
<g id="node1" class="node">
<title>AccountingDashboardComponent</title>
<polygon fill="#ffffb3" stroke="black" points="548.79,-122 341.21,-122 341.21,-86 548.79,-86 548.79,-122"/>
<text text-anchor="middle" x="445" y="-99.8" font-family="Times,serif" font-size="14.00">AccountingDashboardComponent</text>
</g>
<!-- DashboardModule -->
<g id="node4" class="node">
<title>DashboardModule</title>
<polygon fill="#8dd3c7" stroke="black" points="409.19,-187 406.19,-191 385.19,-191 382.19,-187 288.81,-187 288.81,-151 409.19,-151 409.19,-187"/>
<text text-anchor="middle" x="349" y="-164.8" font-family="Times,serif" font-size="14.00">DashboardModule</text>
</g>
<!-- AccountingDashboardComponent&#45;&gt;DashboardModule -->
<g id="edge1" class="edge">
<title>AccountingDashboardComponent&#45;&gt;DashboardModule</title>
<path fill="none" stroke="black" d="M375.23,-122.11C375.23,-122.11 375.23,-140.99 375.23,-140.99"/>
<polygon fill="black" stroke="black" points="371.73,-140.99 375.23,-150.99 378.73,-140.99 371.73,-140.99"/>
</g>
<!-- ChartCardComponent -->
<g id="node2" class="node">
<title>ChartCardComponent</title>
<polygon fill="#ffffb3" stroke="black" points="323.65,-122 184.35,-122 184.35,-86 323.65,-86 323.65,-122"/>
<text text-anchor="middle" x="254" y="-99.8" font-family="Times,serif" font-size="14.00">ChartCardComponent</text>
</g>
<!-- ChartCardComponent&#45;&gt;DashboardModule -->
<g id="edge2" class="edge">
<title>ChartCardComponent&#45;&gt;DashboardModule</title>
<path fill="none" stroke="black" d="M306.36,-122.11C306.36,-122.11 306.36,-140.99 306.36,-140.99"/>
<polygon fill="black" stroke="black" points="302.86,-140.99 306.36,-150.99 309.86,-140.99 302.86,-140.99"/>
</g>
<!-- DecimalSeperatorPipe -->
<g id="node3" class="node">
<title>DecimalSeperatorPipe</title>
<polygon fill="#ffffb3" stroke="black" points="165.95,-122 24.05,-122 24.05,-86 165.95,-86 165.95,-122"/>
<text text-anchor="middle" x="95" y="-99.8" font-family="Times,serif" font-size="14.00">DecimalSeperatorPipe</text>
</g>
<!-- DecimalSeperatorPipe&#45;&gt;DashboardModule -->
<g id="edge3" class="edge">
<title>DecimalSeperatorPipe&#45;&gt;DashboardModule</title>
<path fill="none" stroke="black" d="M95,-122.11C95,-141.34 95,-169 95,-169 95,-169 278.81,-169 278.81,-169"/>
<polygon fill="black" stroke="black" points="278.81,-172.5 288.81,-169 278.81,-165.5 278.81,-172.5"/>
</g>
<!-- SharedLibModule -->
<g id="node5" class="node">
<title>SharedLibModule</title>
<polygon fill="#8dd3c7" stroke="black" points="690.87,-122 687.87,-126 666.87,-126 663.87,-122 573.13,-122 573.13,-86 690.87,-86 690.87,-122"/>
<text text-anchor="middle" x="632" y="-99.8" font-family="Times,serif" font-size="14.00">SharedLibModule</text>
</g>
<!-- SharedLibModule&#45;&gt;DashboardModule -->
<g id="edge4" class="edge">
<title>SharedLibModule&#45;&gt;DashboardModule</title>
<path fill="none" stroke="black" d="M632,-122.11C632,-141.34 632,-169 632,-169 632,-169 419.36,-169 419.36,-169"/>
<polygon fill="black" stroke="black" points="419.36,-165.5 409.36,-169 419.36,-172.5 419.36,-165.5"/>
</g>
</g>
</svg>
