<?xml version="1.0" encoding="UTF-8" standalone="no"?>
<!DOCTYPE svg PUBLIC "-//W3C//DTD SVG 1.1//EN"
 "http://www.w3.org/Graphics/SVG/1.1/DTD/svg11.dtd">
<!-- Generated by graphviz version 2.47.0 (20210316.0004)
 -->
<!-- Title: dependencies Pages: 1 -->
<svg width="1313pt" height="211pt"
 viewBox="0.00 0.00 1313.00 211.00" xmlns="http://www.w3.org/2000/svg" xmlns:xlink="http://www.w3.org/1999/xlink">
<g id="graph0" class="graph" transform="scale(1 1) rotate(0) translate(4 207)">
<title>dependencies</title>
<polygon fill="white" stroke="transparent" points="-4,4 -4,-207 1309,-207 1309,4 -4,4"/>
<text text-anchor="start" x="631.51" y="-42.4" font-family="Times-12" font-weight="bold" font-size="14.00">Legend</text>
<polygon fill="#ffffb3" stroke="transparent" points="418.5,-10 418.5,-30 438.5,-30 438.5,-10 418.5,-10"/>
<text text-anchor="start" x="442.13" y="-15.4" font-family="Times-12" font-size="14.00"> &#160;Declarations</text>
<polygon fill="#8dd3c7" stroke="transparent" points="531.5,-10 531.5,-30 551.5,-30 551.5,-10 531.5,-10"/>
<text text-anchor="start" x="555.23" y="-15.4" font-family="Times-12" font-size="14.00"> &#160;Module</text>
<polygon fill="#80b1d3" stroke="transparent" points="617.5,-10 617.5,-30 637.5,-30 637.5,-10 617.5,-10"/>
<text text-anchor="start" x="641.28" y="-15.4" font-family="Times-12" font-size="14.00"> &#160;Bootstrap</text>
<polygon fill="#fdb462" stroke="transparent" points="714.5,-10 714.5,-30 734.5,-30 734.5,-10 714.5,-10"/>
<text text-anchor="start" x="738.17" y="-15.4" font-family="Times-12" font-size="14.00"> &#160;Providers</text>
<polygon fill="#fb8072" stroke="transparent" points="810.5,-10 810.5,-30 830.5,-30 830.5,-10 810.5,-10"/>
<text text-anchor="start" x="834.23" y="-15.4" font-family="Times-12" font-size="14.00"> &#160;Exports</text>
<g id="clust1" class="cluster">
<title>cluster_UserModule</title>
<polygon fill="none" stroke="black" stroke-dasharray="1,5" points="8,-70 8,-195 1297,-195 1297,-70 8,-70"/>
</g>
<g id="clust7" class="cluster">
<title>cluster_UserModule_imports</title>
<polygon fill="none" stroke="black" points="862,-78 862,-130 1289,-130 1289,-78 862,-78"/>
</g>
<g id="clust10" class="cluster">
<title>cluster_UserModule_providers</title>
<polygon fill="none" stroke="black" points="706,-78 706,-130 854,-130 854,-78 706,-78"/>
</g>
<g id="clust2" class="cluster">
<title>cluster_UserModule_declarations</title>
<polygon fill="none" stroke="black" points="16,-78 16,-130 698,-130 698,-78 16,-78"/>
</g>
<!-- UserDetailsComponent -->
<g id="node1" class="node">
<title>UserDetailsComponent</title>
<polygon fill="#ffffb3" stroke="black" points="689.91,-122 542.09,-122 542.09,-86 689.91,-86 689.91,-122"/>
<text text-anchor="middle" x="616" y="-99.8" font-family="Times,serif" font-size="14.00">UserDetailsComponent</text>
</g>
<!-- UserModule -->
<g id="node5" class="node">
<title>UserModule</title>
<polygon fill="#8dd3c7" stroke="black" points="740.98,-187 737.98,-191 716.98,-191 713.98,-187 655.02,-187 655.02,-151 740.98,-151 740.98,-187"/>
<text text-anchor="middle" x="698" y="-164.8" font-family="Times,serif" font-size="14.00">UserModule</text>
</g>
<!-- UserDetailsComponent&#45;&gt;UserModule -->
<g id="edge1" class="edge">
<title>UserDetailsComponent&#45;&gt;UserModule</title>
<path fill="none" stroke="black" d="M672.36,-122.11C672.36,-122.11 672.36,-140.99 672.36,-140.99"/>
<polygon fill="black" stroke="black" points="668.86,-140.99 672.36,-150.99 675.86,-140.99 668.86,-140.99"/>
</g>
<!-- UserInviteFormComponent -->
<g id="node2" class="node">
<title>UserInviteFormComponent</title>
<polygon fill="#ffffb3" stroke="black" points="524.25,-122 353.75,-122 353.75,-86 524.25,-86 524.25,-122"/>
<text text-anchor="middle" x="439" y="-99.8" font-family="Times,serif" font-size="14.00">UserInviteFormComponent</text>
</g>
<!-- UserInviteFormComponent&#45;&gt;UserModule -->
<g id="edge2" class="edge">
<title>UserInviteFormComponent&#45;&gt;UserModule</title>
<path fill="none" stroke="black" d="M439,-122.03C439,-138.4 439,-160 439,-160 439,-160 644.94,-160 644.94,-160"/>
<polygon fill="black" stroke="black" points="644.94,-163.5 654.94,-160 644.94,-156.5 644.94,-163.5"/>
</g>
<!-- UserconfirmationComponent -->
<g id="node3" class="node">
<title>UserconfirmationComponent</title>
<polygon fill="#ffffb3" stroke="black" points="336.07,-122 155.93,-122 155.93,-86 336.07,-86 336.07,-122"/>
<text text-anchor="middle" x="246" y="-99.8" font-family="Times,serif" font-size="14.00">UserconfirmationComponent</text>
</g>
<!-- UserconfirmationComponent&#45;&gt;UserModule -->
<g id="edge3" class="edge">
<title>UserconfirmationComponent&#45;&gt;UserModule</title>
<path fill="none" stroke="black" d="M246,-122.11C246,-141.34 246,-169 246,-169 246,-169 644.66,-169 644.66,-169"/>
<polygon fill="black" stroke="black" points="644.66,-172.5 654.66,-169 644.66,-165.5 644.66,-172.5"/>
</g>
<!-- UsersComponent -->
<g id="node4" class="node">
<title>UsersComponent</title>
<polygon fill="#ffffb3" stroke="black" points="137.7,-122 24.3,-122 24.3,-86 137.7,-86 137.7,-122"/>
<text text-anchor="middle" x="81" y="-99.8" font-family="Times,serif" font-size="14.00">UsersComponent</text>
</g>
<!-- UsersComponent&#45;&gt;UserModule -->
<g id="edge4" class="edge">
<title>UsersComponent&#45;&gt;UserModule</title>
<path fill="none" stroke="black" d="M81,-122.29C81,-144.21 81,-178 81,-178 81,-178 644.61,-178 644.61,-178"/>
<polygon fill="black" stroke="black" points="644.61,-181.5 654.61,-178 644.61,-174.5 644.61,-181.5"/>
</g>
<!-- LayoutModule -->
<g id="node6" class="node">
<title>LayoutModule</title>
<polygon fill="#8dd3c7" stroke="black" points="1280.71,-122 1277.71,-126 1256.71,-126 1253.71,-122 1181.29,-122 1181.29,-86 1280.71,-86 1280.71,-122"/>
<text text-anchor="middle" x="1231" y="-99.8" font-family="Times,serif" font-size="14.00">LayoutModule</text>
</g>
<!-- LayoutModule&#45;&gt;UserModule -->
<g id="edge5" class="edge">
<title>LayoutModule&#45;&gt;UserModule</title>
<path fill="none" stroke="black" d="M1231,-122.29C1231,-144.21 1231,-178 1231,-178 1231,-178 751.17,-178 751.17,-178"/>
<polygon fill="black" stroke="black" points="751.17,-174.5 741.17,-178 751.17,-181.5 751.17,-174.5"/>
</g>
<!-- MicrotecAuthLibModule -->
<g id="node7" class="node">
<title>MicrotecAuthLibModule</title>
<polygon fill="#8dd3c7" stroke="black" points="1163.52,-122 1160.52,-126 1139.52,-126 1136.52,-122 1006.48,-122 1006.48,-86 1163.52,-86 1163.52,-122"/>
<text text-anchor="middle" x="1085" y="-99.8" font-family="Times,serif" font-size="14.00">MicrotecAuthLibModule</text>
</g>
<!-- MicrotecAuthLibModule&#45;&gt;UserModule -->
<g id="edge6" class="edge">
<title>MicrotecAuthLibModule&#45;&gt;UserModule</title>
<path fill="none" stroke="black" d="M1085,-122.11C1085,-141.34 1085,-169 1085,-169 1085,-169 751.27,-169 751.27,-169"/>
<polygon fill="black" stroke="black" points="751.27,-165.5 741.27,-169 751.27,-172.5 751.27,-165.5"/>
</g>
<!-- SharedLibModule -->
<g id="node8" class="node">
<title>SharedLibModule</title>
<polygon fill="#8dd3c7" stroke="black" points="987.87,-122 984.87,-126 963.87,-126 960.87,-122 870.13,-122 870.13,-86 987.87,-86 987.87,-122"/>
<text text-anchor="middle" x="929" y="-99.8" font-family="Times,serif" font-size="14.00">SharedLibModule</text>
</g>
<!-- SharedLibModule&#45;&gt;UserModule -->
<g id="edge7" class="edge">
<title>SharedLibModule&#45;&gt;UserModule</title>
<path fill="none" stroke="black" d="M929,-122.03C929,-138.4 929,-160 929,-160 929,-160 751.18,-160 751.18,-160"/>
<polygon fill="black" stroke="black" points="751.18,-156.5 741.18,-160 751.18,-163.5 751.18,-156.5"/>
</g>
<!-- RouterService -->
<g id="node9" class="node">
<title>RouterService</title>
<ellipse fill="#fdb462" stroke="black" cx="780" cy="-104" rx="66.05" ry="18"/>
<text text-anchor="middle" x="780" y="-99.8" font-family="Times,serif" font-size="14.00">RouterService</text>
</g>
<!-- RouterService&#45;&gt;UserModule -->
<g id="edge8" class="edge">
<title>RouterService&#45;&gt;UserModule</title>
<path fill="none" stroke="black" d="M727.36,-115.03C727.36,-115.03 727.36,-140.78 727.36,-140.78"/>
<polygon fill="black" stroke="black" points="723.86,-140.78 727.36,-150.78 730.86,-140.78 723.86,-140.78"/>
</g>
</g>
</svg>
