<?xml version="1.0" encoding="UTF-8" standalone="no"?>
<!DOCTYPE svg PUBLIC "-//W3C//DTD SVG 1.1//EN"
 "http://www.w3.org/Graphics/SVG/1.1/DTD/svg11.dtd">
<!-- Generated by graphviz version 2.47.0 (20210316.0004)
 -->
<!-- Title: dependencies Pages: 1 -->
<svg width="1490pt" height="211pt"
 viewBox="0.00 0.00 1490.00 211.00" xmlns="http://www.w3.org/2000/svg" xmlns:xlink="http://www.w3.org/1999/xlink">
<g id="graph0" class="graph" transform="scale(1 1) rotate(0) translate(4 207)">
<title>dependencies</title>
<polygon fill="white" stroke="transparent" points="-4,4 -4,-207 1486,-207 1486,4 -4,4"/>
<text text-anchor="start" x="720.01" y="-42.4" font-family="Times-12" font-weight="bold" font-size="14.00">Legend</text>
<polygon fill="#ffffb3" stroke="transparent" points="507,-10 507,-30 527,-30 527,-10 507,-10"/>
<text text-anchor="start" x="530.63" y="-15.4" font-family="Times-12" font-size="14.00"> &#160;Declarations</text>
<polygon fill="#8dd3c7" stroke="transparent" points="620,-10 620,-30 640,-30 640,-10 620,-10"/>
<text text-anchor="start" x="643.73" y="-15.4" font-family="Times-12" font-size="14.00"> &#160;Module</text>
<polygon fill="#80b1d3" stroke="transparent" points="706,-10 706,-30 726,-30 726,-10 706,-10"/>
<text text-anchor="start" x="729.78" y="-15.4" font-family="Times-12" font-size="14.00"> &#160;Bootstrap</text>
<polygon fill="#fdb462" stroke="transparent" points="803,-10 803,-30 823,-30 823,-10 803,-10"/>
<text text-anchor="start" x="826.67" y="-15.4" font-family="Times-12" font-size="14.00"> &#160;Providers</text>
<polygon fill="#fb8072" stroke="transparent" points="899,-10 899,-30 919,-30 919,-10 899,-10"/>
<text text-anchor="start" x="922.73" y="-15.4" font-family="Times-12" font-size="14.00"> &#160;Exports</text>
<g id="clust1" class="cluster">
<title>cluster_AppStoreModule</title>
<polygon fill="none" stroke="black" stroke-dasharray="1,5" points="8,-70 8,-195 1474,-195 1474,-70 8,-70"/>
</g>
<g id="clust12" class="cluster">
<title>cluster_AppStoreModule_providers</title>
<polygon fill="none" stroke="black" points="1318,-78 1318,-130 1466,-130 1466,-78 1318,-78"/>
</g>
<g id="clust9" class="cluster">
<title>cluster_AppStoreModule_imports</title>
<polygon fill="none" stroke="black" points="1000,-78 1000,-130 1310,-130 1310,-78 1000,-78"/>
</g>
<g id="clust2" class="cluster">
<title>cluster_AppStoreModule_declarations</title>
<polygon fill="none" stroke="black" points="16,-78 16,-130 992,-130 992,-78 16,-78"/>
</g>
<!-- AppDetailsComponent -->
<g id="node1" class="node">
<title>AppDetailsComponent</title>
<polygon fill="#ffffb3" stroke="black" points="983.59,-122 838.41,-122 838.41,-86 983.59,-86 983.59,-122"/>
<text text-anchor="middle" x="911" y="-99.8" font-family="Times,serif" font-size="14.00">AppDetailsComponent</text>
</g>
<!-- AppStoreModule -->
<g id="node7" class="node">
<title>AppStoreModule</title>
<polygon fill="#8dd3c7" stroke="black" points="824.7,-187 821.7,-191 800.7,-191 797.7,-187 711.3,-187 711.3,-151 824.7,-151 824.7,-187"/>
<text text-anchor="middle" x="768" y="-164.8" font-family="Times,serif" font-size="14.00">AppStoreModule</text>
</g>
<!-- AppDetailsComponent&#45;&gt;AppStoreModule -->
<g id="edge1" class="edge">
<title>AppDetailsComponent&#45;&gt;AppStoreModule</title>
<path fill="none" stroke="black" d="M911,-122.01C911,-138.05 911,-159 911,-159 911,-159 834.93,-159 834.93,-159"/>
<polygon fill="black" stroke="black" points="834.93,-155.5 824.93,-159 834.93,-162.5 834.93,-155.5"/>
</g>
<!-- CartComponent -->
<g id="node2" class="node">
<title>CartComponent</title>
<polygon fill="#ffffb3" stroke="black" points="820.94,-122 715.06,-122 715.06,-86 820.94,-86 820.94,-122"/>
<text text-anchor="middle" x="768" y="-99.8" font-family="Times,serif" font-size="14.00">CartComponent</text>
</g>
<!-- CartComponent&#45;&gt;AppStoreModule -->
<g id="edge2" class="edge">
<title>CartComponent&#45;&gt;AppStoreModule</title>
<path fill="none" stroke="black" d="M768,-122.11C768,-122.11 768,-140.99 768,-140.99"/>
<polygon fill="black" stroke="black" points="764.5,-140.99 768,-150.99 771.5,-140.99 764.5,-140.99"/>
</g>
<!-- CartItemDetailComponent -->
<g id="node3" class="node">
<title>CartItemDetailComponent</title>
<polygon fill="#ffffb3" stroke="black" points="697.8,-122 532.2,-122 532.2,-86 697.8,-86 697.8,-122"/>
<text text-anchor="middle" x="615" y="-99.8" font-family="Times,serif" font-size="14.00">CartItemDetailComponent</text>
</g>
<!-- CartItemDetailComponent&#45;&gt;AppStoreModule -->
<g id="edge3" class="edge">
<title>CartItemDetailComponent&#45;&gt;AppStoreModule</title>
<path fill="none" stroke="black" d="M615,-122.01C615,-138.05 615,-159 615,-159 615,-159 701.03,-159 701.03,-159"/>
<polygon fill="black" stroke="black" points="701.03,-162.5 711.03,-159 701.03,-155.5 701.03,-162.5"/>
</g>
<!-- ListAppsComponent -->
<g id="node4" class="node">
<title>ListAppsComponent</title>
<polygon fill="#ffffb3" stroke="black" points="514.16,-122 381.84,-122 381.84,-86 514.16,-86 514.16,-122"/>
<text text-anchor="middle" x="448" y="-99.8" font-family="Times,serif" font-size="14.00">ListAppsComponent</text>
</g>
<!-- ListAppsComponent&#45;&gt;AppStoreModule -->
<g id="edge4" class="edge">
<title>ListAppsComponent&#45;&gt;AppStoreModule</title>
<path fill="none" stroke="black" d="M448,-122.27C448,-140.56 448,-166 448,-166 448,-166 701.16,-166 701.16,-166"/>
<polygon fill="black" stroke="black" points="701.16,-169.5 711.16,-166 701.16,-162.5 701.16,-169.5"/>
</g>
<!-- MainPageComponent -->
<g id="node5" class="node">
<title>MainPageComponent</title>
<polygon fill="#ffffb3" stroke="black" points="364.09,-122 225.91,-122 225.91,-86 364.09,-86 364.09,-122"/>
<text text-anchor="middle" x="295" y="-99.8" font-family="Times,serif" font-size="14.00">MainPageComponent</text>
</g>
<!-- MainPageComponent&#45;&gt;AppStoreModule -->
<g id="edge5" class="edge">
<title>MainPageComponent&#45;&gt;AppStoreModule</title>
<path fill="none" stroke="black" d="M295,-122.13C295,-142.57 295,-173 295,-173 295,-173 700.95,-173 700.95,-173"/>
<polygon fill="black" stroke="black" points="700.95,-176.5 710.95,-173 700.95,-169.5 700.95,-176.5"/>
</g>
<!-- PaymentSuccesfulComponent -->
<g id="node6" class="node">
<title>PaymentSuccesfulComponent</title>
<polygon fill="#ffffb3" stroke="black" points="208.25,-122 23.75,-122 23.75,-86 208.25,-86 208.25,-122"/>
<text text-anchor="middle" x="116" y="-99.8" font-family="Times,serif" font-size="14.00">PaymentSuccesfulComponent</text>
</g>
<!-- PaymentSuccesfulComponent&#45;&gt;AppStoreModule -->
<g id="edge6" class="edge">
<title>PaymentSuccesfulComponent&#45;&gt;AppStoreModule</title>
<path fill="none" stroke="black" d="M116,-122.01C116,-144.49 116,-180 116,-180 116,-180 701.28,-180 701.28,-180"/>
<polygon fill="black" stroke="black" points="701.28,-183.5 711.28,-180 701.28,-176.5 701.28,-183.5"/>
</g>
<!-- MicrotecAuthLibModule -->
<g id="node8" class="node">
<title>MicrotecAuthLibModule</title>
<polygon fill="#8dd3c7" stroke="black" points="1301.52,-122 1298.52,-126 1277.52,-126 1274.52,-122 1144.48,-122 1144.48,-86 1301.52,-86 1301.52,-122"/>
<text text-anchor="middle" x="1223" y="-99.8" font-family="Times,serif" font-size="14.00">MicrotecAuthLibModule</text>
</g>
<!-- MicrotecAuthLibModule&#45;&gt;AppStoreModule -->
<g id="edge7" class="edge">
<title>MicrotecAuthLibModule&#45;&gt;AppStoreModule</title>
<path fill="none" stroke="black" d="M1223,-122.13C1223,-142.57 1223,-173 1223,-173 1223,-173 834.71,-173 834.71,-173"/>
<polygon fill="black" stroke="black" points="834.71,-169.5 824.71,-173 834.71,-176.5 834.71,-169.5"/>
</g>
<!-- SharedLibModule -->
<g id="node9" class="node">
<title>SharedLibModule</title>
<polygon fill="#8dd3c7" stroke="black" points="1125.87,-122 1122.87,-126 1101.87,-126 1098.87,-122 1008.13,-122 1008.13,-86 1125.87,-86 1125.87,-122"/>
<text text-anchor="middle" x="1067" y="-99.8" font-family="Times,serif" font-size="14.00">SharedLibModule</text>
</g>
<!-- SharedLibModule&#45;&gt;AppStoreModule -->
<g id="edge8" class="edge">
<title>SharedLibModule&#45;&gt;AppStoreModule</title>
<path fill="none" stroke="black" d="M1067,-122.27C1067,-140.56 1067,-166 1067,-166 1067,-166 834.94,-166 834.94,-166"/>
<polygon fill="black" stroke="black" points="834.94,-162.5 824.94,-166 834.94,-169.5 834.94,-162.5"/>
</g>
<!-- RouterService -->
<g id="node10" class="node">
<title>RouterService</title>
<ellipse fill="#fdb462" stroke="black" cx="1392" cy="-104" rx="66.05" ry="18"/>
<text text-anchor="middle" x="1392" y="-99.8" font-family="Times,serif" font-size="14.00">RouterService</text>
</g>
<!-- RouterService&#45;&gt;AppStoreModule -->
<g id="edge9" class="edge">
<title>RouterService&#45;&gt;AppStoreModule</title>
<path fill="none" stroke="black" d="M1392,-122.01C1392,-144.49 1392,-180 1392,-180 1392,-180 834.75,-180 834.75,-180"/>
<polygon fill="black" stroke="black" points="834.75,-176.5 824.75,-180 834.75,-183.5 834.75,-176.5"/>
</g>
</g>
</svg>
