<?xml version="1.0" encoding="UTF-8" standalone="no"?>
<!DOCTYPE svg PUBLIC "-//W3C//DTD SVG 1.1//EN"
 "http://www.w3.org/Graphics/SVG/1.1/DTD/svg11.dtd">
<!-- Generated by graphviz version 2.47.0 (20210316.0004)
 -->
<!-- Title: dependencies Pages: 1 -->
<svg width="3142pt" height="211pt"
 viewBox="0.00 0.00 3142.00 211.00" xmlns="http://www.w3.org/2000/svg" xmlns:xlink="http://www.w3.org/1999/xlink">
<g id="graph0" class="graph" transform="scale(1 1) rotate(0) translate(4 207)">
<title>dependencies</title>
<polygon fill="white" stroke="transparent" points="-4,4 -4,-207 3138,-207 3138,4 -4,4"/>
<text text-anchor="start" x="1546.01" y="-42.4" font-family="Times-12" font-weight="bold" font-size="14.00">Legend</text>
<polygon fill="#ffffb3" stroke="transparent" points="1333,-10 1333,-30 1353,-30 1353,-10 1333,-10"/>
<text text-anchor="start" x="1356.63" y="-15.4" font-family="Times-12" font-size="14.00"> &#160;Declarations</text>
<polygon fill="#8dd3c7" stroke="transparent" points="1446,-10 1446,-30 1466,-30 1466,-10 1446,-10"/>
<text text-anchor="start" x="1469.73" y="-15.4" font-family="Times-12" font-size="14.00"> &#160;Module</text>
<polygon fill="#80b1d3" stroke="transparent" points="1532,-10 1532,-30 1552,-30 1552,-10 1532,-10"/>
<text text-anchor="start" x="1555.78" y="-15.4" font-family="Times-12" font-size="14.00"> &#160;Bootstrap</text>
<polygon fill="#fdb462" stroke="transparent" points="1629,-10 1629,-30 1649,-30 1649,-10 1629,-10"/>
<text text-anchor="start" x="1652.67" y="-15.4" font-family="Times-12" font-size="14.00"> &#160;Providers</text>
<polygon fill="#fb8072" stroke="transparent" points="1725,-10 1725,-30 1745,-30 1745,-10 1725,-10"/>
<text text-anchor="start" x="1748.73" y="-15.4" font-family="Times-12" font-size="14.00"> &#160;Exports</text>
<g id="clust1" class="cluster">
<title>cluster_TranscationsModule</title>
<polygon fill="none" stroke="black" stroke-dasharray="1,5" points="8,-70 8,-195 3126,-195 3126,-70 8,-70"/>
</g>
<g id="clust2" class="cluster">
<title>cluster_TranscationsModule_declarations</title>
<polygon fill="none" stroke="black" points="158,-78 158,-130 3118,-130 3118,-78 158,-78"/>
</g>
<g id="clust18" class="cluster">
<title>cluster_TranscationsModule_imports</title>
<polygon fill="none" stroke="black" points="16,-78 16,-130 150,-130 150,-78 16,-78"/>
</g>
<!-- AddPaymentInComponent -->
<g id="node1" class="node">
<title>AddPaymentInComponent</title>
<polygon fill="#ffffb3" stroke="black" points="3110.09,-122 2943.91,-122 2943.91,-86 3110.09,-86 3110.09,-122"/>
<text text-anchor="middle" x="3027" y="-99.8" font-family="Times,serif" font-size="14.00">AddPaymentInComponent</text>
</g>
<!-- TranscationsModule -->
<g id="node16" class="node">
<title>TranscationsModule</title>
<polygon fill="#8dd3c7" stroke="black" points="1601.58,-187 1598.58,-191 1577.58,-191 1574.58,-187 1470.42,-187 1470.42,-151 1601.58,-151 1601.58,-187"/>
<text text-anchor="middle" x="1536" y="-164.8" font-family="Times,serif" font-size="14.00">TranscationsModule</text>
</g>
<!-- AddPaymentInComponent&#45;&gt;TranscationsModule -->
<g id="edge1" class="edge">
<title>AddPaymentInComponent&#45;&gt;TranscationsModule</title>
<path fill="none" stroke="black" d="M3027,-122.32C3027,-145.66 3027,-183 3027,-183 3027,-183 1611.99,-183 1611.99,-183"/>
<polygon fill="black" stroke="black" points="1611.99,-179.5 1601.99,-183 1611.99,-186.5 1611.99,-179.5"/>
</g>
<!-- AddPaymentOutComponent -->
<g id="node2" class="node">
<title>AddPaymentOutComponent</title>
<polygon fill="#ffffb3" stroke="black" points="2925.93,-122 2750.07,-122 2750.07,-86 2925.93,-86 2925.93,-122"/>
<text text-anchor="middle" x="2838" y="-99.8" font-family="Times,serif" font-size="14.00">AddPaymentOutComponent</text>
</g>
<!-- AddPaymentOutComponent&#45;&gt;TranscationsModule -->
<g id="edge2" class="edge">
<title>AddPaymentOutComponent&#45;&gt;TranscationsModule</title>
<path fill="none" stroke="black" d="M2838,-122.29C2838,-144.21 2838,-178 2838,-178 2838,-178 1611.91,-178 1611.91,-178"/>
<polygon fill="black" stroke="black" points="1611.91,-174.5 1601.91,-178 1611.91,-181.5 1611.91,-174.5"/>
</g>
<!-- AddPaymentOutCostCenterComponent -->
<g id="node3" class="node">
<title>AddPaymentOutCostCenterComponent</title>
<polygon fill="#ffffb3" stroke="black" points="2732.42,-122 2493.58,-122 2493.58,-86 2732.42,-86 2732.42,-122"/>
<text text-anchor="middle" x="2613" y="-99.8" font-family="Times,serif" font-size="14.00">AddPaymentOutCostCenterComponent</text>
</g>
<!-- AddPaymentOutCostCenterComponent&#45;&gt;TranscationsModule -->
<g id="edge3" class="edge">
<title>AddPaymentOutCostCenterComponent&#45;&gt;TranscationsModule</title>
<path fill="none" stroke="black" d="M2613,-122.03C2613,-142.77 2613,-174 2613,-174 2613,-174 1611.75,-174 1611.75,-174"/>
<polygon fill="black" stroke="black" points="1611.75,-170.5 1601.75,-174 1611.75,-177.5 1611.75,-170.5"/>
</g>
<!-- EditPaymentInComponent -->
<g id="node4" class="node">
<title>EditPaymentInComponent</title>
<polygon fill="#ffffb3" stroke="black" points="2475.82,-122 2310.18,-122 2310.18,-86 2475.82,-86 2475.82,-122"/>
<text text-anchor="middle" x="2393" y="-99.8" font-family="Times,serif" font-size="14.00">EditPaymentInComponent</text>
</g>
<!-- EditPaymentInComponent&#45;&gt;TranscationsModule -->
<g id="edge4" class="edge">
<title>EditPaymentInComponent&#45;&gt;TranscationsModule</title>
<path fill="none" stroke="black" d="M2393,-122.11C2393,-141.34 2393,-169 2393,-169 2393,-169 1611.82,-169 1611.82,-169"/>
<polygon fill="black" stroke="black" points="1611.82,-165.5 1601.82,-169 1611.82,-172.5 1611.82,-165.5"/>
</g>
<!-- EditPaymentOutComponent -->
<g id="node5" class="node">
<title>EditPaymentOutComponent</title>
<polygon fill="#ffffb3" stroke="black" points="2292.16,-122 2117.84,-122 2117.84,-86 2292.16,-86 2292.16,-122"/>
<text text-anchor="middle" x="2205" y="-99.8" font-family="Times,serif" font-size="14.00">EditPaymentOutComponent</text>
</g>
<!-- EditPaymentOutComponent&#45;&gt;TranscationsModule -->
<g id="edge5" class="edge">
<title>EditPaymentOutComponent&#45;&gt;TranscationsModule</title>
<path fill="none" stroke="black" d="M2205,-122.3C2205,-140.27 2205,-165 2205,-165 2205,-165 1611.67,-165 1611.67,-165"/>
<polygon fill="black" stroke="black" points="1611.67,-161.5 1601.67,-165 1611.67,-168.5 1611.67,-161.5"/>
</g>
<!-- MainPaymentInComponent -->
<g id="node6" class="node">
<title>MainPaymentInComponent</title>
<polygon fill="#ffffb3" stroke="black" points="2099.54,-122 1928.46,-122 1928.46,-86 2099.54,-86 2099.54,-122"/>
<text text-anchor="middle" x="2014" y="-99.8" font-family="Times,serif" font-size="14.00">MainPaymentInComponent</text>
</g>
<!-- MainPaymentInComponent&#45;&gt;TranscationsModule -->
<g id="edge6" class="edge">
<title>MainPaymentInComponent&#45;&gt;TranscationsModule</title>
<path fill="none" stroke="black" d="M2014,-122.03C2014,-138.4 2014,-160 2014,-160 2014,-160 1611.71,-160 1611.71,-160"/>
<polygon fill="black" stroke="black" points="1611.71,-156.5 1601.71,-160 1611.71,-163.5 1611.71,-156.5"/>
</g>
<!-- MainPaymentOutComponent -->
<g id="node7" class="node">
<title>MainPaymentOutComponent</title>
<polygon fill="#ffffb3" stroke="black" points="1910.37,-122 1729.63,-122 1729.63,-86 1910.37,-86 1910.37,-122"/>
<text text-anchor="middle" x="1820" y="-99.8" font-family="Times,serif" font-size="14.00">MainPaymentOutComponent</text>
</g>
<!-- MainPaymentOutComponent&#45;&gt;TranscationsModule -->
<g id="edge7" class="edge">
<title>MainPaymentOutComponent&#45;&gt;TranscationsModule</title>
<path fill="none" stroke="black" d="M1820,-122.19C1820,-137.18 1820,-156 1820,-156 1820,-156 1611.87,-156 1611.87,-156"/>
<polygon fill="black" stroke="black" points="1611.87,-152.5 1601.87,-156 1611.87,-159.5 1611.87,-152.5"/>
</g>
<!-- PaymentInListComponent -->
<g id="node8" class="node">
<title>PaymentInListComponent</title>
<polygon fill="#ffffb3" stroke="black" points="1711.76,-122 1548.24,-122 1548.24,-86 1711.76,-86 1711.76,-122"/>
<text text-anchor="middle" x="1630" y="-99.8" font-family="Times,serif" font-size="14.00">PaymentInListComponent</text>
</g>
<!-- PaymentInListComponent&#45;&gt;TranscationsModule -->
<g id="edge8" class="edge">
<title>PaymentInListComponent&#45;&gt;TranscationsModule</title>
<path fill="none" stroke="black" d="M1574.83,-122.11C1574.83,-122.11 1574.83,-140.99 1574.83,-140.99"/>
<polygon fill="black" stroke="black" points="1571.33,-140.99 1574.83,-150.99 1578.33,-140.99 1571.33,-140.99"/>
</g>
<!-- PaymentMethodComponent -->
<g id="node9" class="node">
<title>PaymentMethodComponent</title>
<polygon fill="#ffffb3" stroke="black" points="1529.88,-122 1356.12,-122 1356.12,-86 1529.88,-86 1529.88,-122"/>
<text text-anchor="middle" x="1443" y="-99.8" font-family="Times,serif" font-size="14.00">PaymentMethodComponent</text>
</g>
<!-- PaymentMethodComponent&#45;&gt;TranscationsModule -->
<g id="edge9" class="edge">
<title>PaymentMethodComponent&#45;&gt;TranscationsModule</title>
<path fill="none" stroke="black" d="M1500.2,-122.11C1500.2,-122.11 1500.2,-140.99 1500.2,-140.99"/>
<polygon fill="black" stroke="black" points="1496.7,-140.99 1500.2,-150.99 1503.7,-140.99 1496.7,-140.99"/>
</g>
<!-- PaymentOutListComponent -->
<g id="node10" class="node">
<title>PaymentOutListComponent</title>
<polygon fill="#ffffb3" stroke="black" points="1338.6,-122 1165.4,-122 1165.4,-86 1338.6,-86 1338.6,-122"/>
<text text-anchor="middle" x="1252" y="-99.8" font-family="Times,serif" font-size="14.00">PaymentOutListComponent</text>
</g>
<!-- PaymentOutListComponent&#45;&gt;TranscationsModule -->
<g id="edge10" class="edge">
<title>PaymentOutListComponent&#45;&gt;TranscationsModule</title>
<path fill="none" stroke="black" d="M1252,-122.19C1252,-137.18 1252,-156 1252,-156 1252,-156 1460.13,-156 1460.13,-156"/>
<polygon fill="black" stroke="black" points="1460.13,-159.5 1470.13,-156 1460.13,-152.5 1460.13,-159.5"/>
</g>
<!-- PaymentOutPaymentMethodComponent -->
<g id="node11" class="node">
<title>PaymentOutPaymentMethodComponent</title>
<polygon fill="#ffffb3" stroke="black" points="1147.87,-122 904.13,-122 904.13,-86 1147.87,-86 1147.87,-122"/>
<text text-anchor="middle" x="1026" y="-99.8" font-family="Times,serif" font-size="14.00">PaymentOutPaymentMethodComponent</text>
</g>
<!-- PaymentOutPaymentMethodComponent&#45;&gt;TranscationsModule -->
<g id="edge11" class="edge">
<title>PaymentOutPaymentMethodComponent&#45;&gt;TranscationsModule</title>
<path fill="none" stroke="black" d="M1026,-122.03C1026,-138.4 1026,-160 1026,-160 1026,-160 1460.37,-160 1460.37,-160"/>
<polygon fill="black" stroke="black" points="1460.37,-163.5 1470.37,-160 1460.37,-156.5 1460.37,-163.5"/>
</g>
<!-- PopupAccountsComponent -->
<g id="node12" class="node">
<title>PopupAccountsComponent</title>
<polygon fill="#ffffb3" stroke="black" points="885.99,-122 716.01,-122 716.01,-86 885.99,-86 885.99,-122"/>
<text text-anchor="middle" x="801" y="-99.8" font-family="Times,serif" font-size="14.00">PopupAccountsComponent</text>
</g>
<!-- PopupAccountsComponent&#45;&gt;TranscationsModule -->
<g id="edge12" class="edge">
<title>PopupAccountsComponent&#45;&gt;TranscationsModule</title>
<path fill="none" stroke="black" d="M801,-122.3C801,-140.27 801,-165 801,-165 801,-165 1460.45,-165 1460.45,-165"/>
<polygon fill="black" stroke="black" points="1460.45,-168.5 1470.45,-165 1460.45,-161.5 1460.45,-168.5"/>
</g>
<!-- ReadExcelComponent -->
<g id="node13" class="node">
<title>ReadExcelComponent</title>
<polygon fill="#ffffb3" stroke="black" points="697.97,-122 556.03,-122 556.03,-86 697.97,-86 697.97,-122"/>
<text text-anchor="middle" x="627" y="-99.8" font-family="Times,serif" font-size="14.00">ReadExcelComponent</text>
</g>
<!-- ReadExcelComponent&#45;&gt;TranscationsModule -->
<g id="edge13" class="edge">
<title>ReadExcelComponent&#45;&gt;TranscationsModule</title>
<path fill="none" stroke="black" d="M627,-122.11C627,-141.34 627,-169 627,-169 627,-169 1460.26,-169 1460.26,-169"/>
<polygon fill="black" stroke="black" points="1460.26,-172.5 1470.26,-169 1460.26,-165.5 1460.26,-172.5"/>
</g>
<!-- ViewPaymentInComponent -->
<g id="node14" class="node">
<title>ViewPaymentInComponent</title>
<polygon fill="#ffffb3" stroke="black" points="538.3,-122 365.7,-122 365.7,-86 538.3,-86 538.3,-122"/>
<text text-anchor="middle" x="452" y="-99.8" font-family="Times,serif" font-size="14.00">ViewPaymentInComponent</text>
</g>
<!-- ViewPaymentInComponent&#45;&gt;TranscationsModule -->
<g id="edge14" class="edge">
<title>ViewPaymentInComponent&#45;&gt;TranscationsModule</title>
<path fill="none" stroke="black" d="M452,-122.03C452,-142.77 452,-174 452,-174 452,-174 1460.23,-174 1460.23,-174"/>
<polygon fill="black" stroke="black" points="1460.23,-177.5 1470.23,-174 1460.23,-170.5 1460.23,-177.5"/>
</g>
<!-- ViewPaymentOutComponent -->
<g id="node15" class="node">
<title>ViewPaymentOutComponent</title>
<polygon fill="#ffffb3" stroke="black" points="347.64,-122 166.36,-122 166.36,-86 347.64,-86 347.64,-122"/>
<text text-anchor="middle" x="257" y="-99.8" font-family="Times,serif" font-size="14.00">ViewPaymentOutComponent</text>
</g>
<!-- ViewPaymentOutComponent&#45;&gt;TranscationsModule -->
<g id="edge15" class="edge">
<title>ViewPaymentOutComponent&#45;&gt;TranscationsModule</title>
<path fill="none" stroke="black" d="M257,-122.29C257,-144.21 257,-178 257,-178 257,-178 1460.37,-178 1460.37,-178"/>
<polygon fill="black" stroke="black" points="1460.37,-181.5 1470.37,-178 1460.37,-174.5 1460.37,-181.5"/>
</g>
<!-- SharedLibModule -->
<g id="node17" class="node">
<title>SharedLibModule</title>
<polygon fill="#8dd3c7" stroke="black" points="141.87,-122 138.87,-126 117.87,-126 114.87,-122 24.13,-122 24.13,-86 141.87,-86 141.87,-122"/>
<text text-anchor="middle" x="83" y="-99.8" font-family="Times,serif" font-size="14.00">SharedLibModule</text>
</g>
<!-- SharedLibModule&#45;&gt;TranscationsModule -->
<g id="edge16" class="edge">
<title>SharedLibModule&#45;&gt;TranscationsModule</title>
<path fill="none" stroke="black" d="M83,-122.32C83,-145.66 83,-183 83,-183 83,-183 1460.27,-183 1460.27,-183"/>
<polygon fill="black" stroke="black" points="1460.27,-186.5 1470.27,-183 1460.27,-179.5 1460.27,-186.5"/>
</g>
</g>
</svg>
