<?xml version="1.0" encoding="UTF-8" standalone="no"?>
<!DOCTYPE svg PUBLIC "-//W3C//DTD SVG 1.1//EN"
 "http://www.w3.org/Graphics/SVG/1.1/DTD/svg11.dtd">
<!-- Generated by graphviz version 2.47.0 (20210316.0004)
 -->
<!-- Title: dependencies Pages: 1 -->
<svg width="626pt" height="284pt"
 viewBox="0.00 0.00 626.00 284.00" xmlns="http://www.w3.org/2000/svg" xmlns:xlink="http://www.w3.org/1999/xlink">
<g id="graph0" class="graph" transform="scale(1 1) rotate(0) translate(4 280)">
<title>dependencies</title>
<polygon fill="white" stroke="transparent" points="-4,4 -4,-280 622,-280 622,4 -4,4"/>
<text text-anchor="start" x="288.01" y="-42.4" font-family="Times-12" font-weight="bold" font-size="14.00">Legend</text>
<polygon fill="#ffffb3" stroke="transparent" points="75,-10 75,-30 95,-30 95,-10 75,-10"/>
<text text-anchor="start" x="98.63" y="-15.4" font-family="Times-12" font-size="14.00"> &#160;Declarations</text>
<polygon fill="#8dd3c7" stroke="transparent" points="188,-10 188,-30 208,-30 208,-10 188,-10"/>
<text text-anchor="start" x="211.73" y="-15.4" font-family="Times-12" font-size="14.00"> &#160;Module</text>
<polygon fill="#80b1d3" stroke="transparent" points="274,-10 274,-30 294,-30 294,-10 274,-10"/>
<text text-anchor="start" x="297.78" y="-15.4" font-family="Times-12" font-size="14.00"> &#160;Bootstrap</text>
<polygon fill="#fdb462" stroke="transparent" points="371,-10 371,-30 391,-30 391,-10 371,-10"/>
<text text-anchor="start" x="394.67" y="-15.4" font-family="Times-12" font-size="14.00"> &#160;Providers</text>
<polygon fill="#fb8072" stroke="transparent" points="467,-10 467,-30 487,-30 487,-10 467,-10"/>
<text text-anchor="start" x="490.73" y="-15.4" font-family="Times-12" font-size="14.00"> &#160;Exports</text>
<g id="clust1" class="cluster">
<title>cluster_EngagesModule</title>
<polygon fill="none" stroke="black" stroke-dasharray="1,5" points="8,-70 8,-268 610,-268 610,-70 8,-70"/>
</g>
<g id="clust7" class="cluster">
<title>cluster_EngagesModule_exports</title>
<polygon fill="none" stroke="black" points="16,-208 16,-260 602,-260 602,-208 16,-208"/>
</g>
<g id="clust2" class="cluster">
<title>cluster_EngagesModule_declarations</title>
<polygon fill="none" stroke="black" points="22,-78 22,-130 598,-130 598,-78 22,-78"/>
</g>
<!-- ExploreMainDrawerComponent -->
<g id="node1" class="node">
<title>ExploreMainDrawerComponent</title>
<polygon fill="#ffffb3" stroke="black" points="589.66,-122 392.34,-122 392.34,-86 589.66,-86 589.66,-122"/>
<text text-anchor="middle" x="491" y="-99.8" font-family="Times,serif" font-size="14.00">ExploreMainDrawerComponent</text>
</g>
<!-- EngagesModule -->
<g id="node4" class="node">
<title>EngagesModule</title>
<polygon fill="#8dd3c7" stroke="black" points="352.48,-187 349.48,-191 328.48,-191 325.48,-187 245.52,-187 245.52,-151 352.48,-151 352.48,-187"/>
<text text-anchor="middle" x="299" y="-164.8" font-family="Times,serif" font-size="14.00">EngagesModule</text>
</g>
<!-- ExploreMainDrawerComponent&#45;&gt;EngagesModule -->
<g id="edge1" class="edge">
<title>ExploreMainDrawerComponent&#45;&gt;EngagesModule</title>
<path fill="none" stroke="black" d="M524.28,-122.02C524.28,-139.37 524.28,-163 524.28,-163 524.28,-163 362.67,-163 362.67,-163"/>
<polygon fill="black" stroke="black" points="362.67,-159.5 352.67,-163 362.67,-166.5 362.67,-159.5"/>
</g>
<!-- HelpDrawerComponent -->
<g id="node2" class="node">
<title>HelpDrawerComponent</title>
<polygon fill="#ffffb3" stroke="black" points="374.01,-122 223.99,-122 223.99,-86 374.01,-86 374.01,-122"/>
<text text-anchor="middle" x="299" y="-99.8" font-family="Times,serif" font-size="14.00">HelpDrawerComponent</text>
</g>
<!-- HelpDrawerComponent&#45;&gt;EngagesModule -->
<g id="edge2" class="edge">
<title>HelpDrawerComponent&#45;&gt;EngagesModule</title>
<path fill="none" stroke="black" d="M299,-122.11C299,-122.11 299,-140.99 299,-140.99"/>
<polygon fill="black" stroke="black" points="295.5,-140.99 299,-150.99 302.5,-140.99 295.5,-140.99"/>
</g>
<!-- PurchaseToolbarComponent -->
<g id="node3" class="node">
<title>PurchaseToolbarComponent</title>
<polygon fill="#ffffb3" stroke="black" points="206.18,-122 29.82,-122 29.82,-86 206.18,-86 206.18,-122"/>
<text text-anchor="middle" x="118" y="-99.8" font-family="Times,serif" font-size="14.00">PurchaseToolbarComponent</text>
</g>
<!-- PurchaseToolbarComponent&#45;&gt;EngagesModule -->
<g id="edge3" class="edge">
<title>PurchaseToolbarComponent&#45;&gt;EngagesModule</title>
<path fill="none" stroke="black" d="M145.86,-122.02C145.86,-139.37 145.86,-163 145.86,-163 145.86,-163 235.44,-163 235.44,-163"/>
<polygon fill="black" stroke="black" points="235.44,-166.5 245.44,-163 235.44,-159.5 235.44,-166.5"/>
</g>
<!-- ExploreMainDrawerComponent  -->
<g id="node5" class="node">
<title>ExploreMainDrawerComponent </title>
<polygon fill="#fb8072" stroke="black" points="594.16,-252 393.84,-252 393.84,-216 594.16,-216 594.16,-252"/>
<text text-anchor="middle" x="494" y="-229.8" font-family="Times,serif" font-size="14.00">ExploreMainDrawerComponent </text>
</g>
<!-- EngagesModule&#45;&gt;ExploreMainDrawerComponent  -->
<g id="edge4" class="edge">
<title>EngagesModule&#45;&gt;ExploreMainDrawerComponent </title>
<path fill="none" stroke="black" stroke-dasharray="5,2" d="M352.71,-175C399.19,-175 458.97,-175 458.97,-175 458.97,-175 458.97,-205.98 458.97,-205.98"/>
<polygon fill="black" stroke="black" points="455.47,-205.98 458.97,-215.98 462.47,-205.98 455.47,-205.98"/>
</g>
<!-- HelpDrawerComponent  -->
<g id="node6" class="node">
<title>HelpDrawerComponent </title>
<polygon fill="#fb8072" stroke="black" points="376.01,-252 221.99,-252 221.99,-216 376.01,-216 376.01,-252"/>
<text text-anchor="middle" x="299" y="-229.8" font-family="Times,serif" font-size="14.00">HelpDrawerComponent </text>
</g>
<!-- EngagesModule&#45;&gt;HelpDrawerComponent  -->
<g id="edge5" class="edge">
<title>EngagesModule&#45;&gt;HelpDrawerComponent </title>
<path fill="none" stroke="black" stroke-dasharray="5,2" d="M299,-187.11C299,-187.11 299,-205.99 299,-205.99"/>
<polygon fill="black" stroke="black" points="295.5,-205.99 299,-215.99 302.5,-205.99 295.5,-205.99"/>
</g>
<!-- PurchaseToolbarComponent  -->
<g id="node7" class="node">
<title>PurchaseToolbarComponent </title>
<polygon fill="#fb8072" stroke="black" points="203.68,-252 24.32,-252 24.32,-216 203.68,-216 203.68,-252"/>
<text text-anchor="middle" x="114" y="-229.8" font-family="Times,serif" font-size="14.00">PurchaseToolbarComponent </text>
</g>
<!-- EngagesModule&#45;&gt;PurchaseToolbarComponent  -->
<g id="edge6" class="edge">
<title>EngagesModule&#45;&gt;PurchaseToolbarComponent </title>
<path fill="none" stroke="black" stroke-dasharray="5,2" d="M245.45,-175C182.91,-175 87.89,-175 87.89,-175 87.89,-175 87.89,-205.98 87.89,-205.98"/>
<polygon fill="black" stroke="black" points="84.39,-205.98 87.89,-215.98 91.39,-205.98 84.39,-205.98"/>
</g>
</g>
</svg>
