<?xml version="1.0" encoding="UTF-8" standalone="no"?>
<!DOCTYPE svg PUBLIC "-//W3C//DTD SVG 1.1//EN"
 "http://www.w3.org/Graphics/SVG/1.1/DTD/svg11.dtd">
<!-- Generated by graphviz version 2.47.0 (20210316.0004)
 -->
<!-- Title: dependencies Pages: 1 -->
<svg width="781pt" height="211pt"
 viewBox="0.00 0.00 781.00 211.00" xmlns="http://www.w3.org/2000/svg" xmlns:xlink="http://www.w3.org/1999/xlink">
<g id="graph0" class="graph" transform="scale(1 1) rotate(0) translate(4 207)">
<title>dependencies</title>
<polygon fill="white" stroke="transparent" points="-4,4 -4,-207 777,-207 777,4 -4,4"/>
<text text-anchor="start" x="365.51" y="-42.4" font-family="Times-12" font-weight="bold" font-size="14.00">Legend</text>
<polygon fill="#ffffb3" stroke="transparent" points="152.5,-10 152.5,-30 172.5,-30 172.5,-10 152.5,-10"/>
<text text-anchor="start" x="176.13" y="-15.4" font-family="Times-12" font-size="14.00"> &#160;Declarations</text>
<polygon fill="#8dd3c7" stroke="transparent" points="265.5,-10 265.5,-30 285.5,-30 285.5,-10 265.5,-10"/>
<text text-anchor="start" x="289.23" y="-15.4" font-family="Times-12" font-size="14.00"> &#160;Module</text>
<polygon fill="#80b1d3" stroke="transparent" points="351.5,-10 351.5,-30 371.5,-30 371.5,-10 351.5,-10"/>
<text text-anchor="start" x="375.28" y="-15.4" font-family="Times-12" font-size="14.00"> &#160;Bootstrap</text>
<polygon fill="#fdb462" stroke="transparent" points="448.5,-10 448.5,-30 468.5,-30 468.5,-10 448.5,-10"/>
<text text-anchor="start" x="472.17" y="-15.4" font-family="Times-12" font-size="14.00"> &#160;Providers</text>
<polygon fill="#fb8072" stroke="transparent" points="544.5,-10 544.5,-30 564.5,-30 564.5,-10 544.5,-10"/>
<text text-anchor="start" x="568.23" y="-15.4" font-family="Times-12" font-size="14.00"> &#160;Exports</text>
<g id="clust1" class="cluster">
<title>cluster_ERPUserModule</title>
<polygon fill="none" stroke="black" stroke-dasharray="1,5" points="8,-70 8,-195 765,-195 765,-70 8,-70"/>
</g>
<g id="clust4" class="cluster">
<title>cluster_ERPUserModule_imports</title>
<polygon fill="none" stroke="black" points="330,-78 330,-130 757,-130 757,-78 330,-78"/>
</g>
<g id="clust2" class="cluster">
<title>cluster_ERPUserModule_declarations</title>
<polygon fill="none" stroke="black" points="172,-78 172,-130 322,-130 322,-78 172,-78"/>
</g>
<g id="clust7" class="cluster">
<title>cluster_ERPUserModule_providers</title>
<polygon fill="none" stroke="black" points="16,-78 16,-130 164,-130 164,-78 16,-78"/>
</g>
<!-- ERPUserComponent -->
<g id="node1" class="node">
<title>ERPUserComponent</title>
<polygon fill="#ffffb3" stroke="black" points="313.93,-122 180.07,-122 180.07,-86 313.93,-86 313.93,-122"/>
<text text-anchor="middle" x="247" y="-99.8" font-family="Times,serif" font-size="14.00">ERPUserComponent</text>
</g>
<!-- ERPUserModule -->
<g id="node2" class="node">
<title>ERPUserModule</title>
<polygon fill="#8dd3c7" stroke="black" points="452.65,-187 449.65,-191 428.65,-191 425.65,-187 341.35,-187 341.35,-151 452.65,-151 452.65,-187"/>
<text text-anchor="middle" x="397" y="-164.8" font-family="Times,serif" font-size="14.00">ERPUserModule</text>
</g>
<!-- ERPUserComponent&#45;&gt;ERPUserModule -->
<g id="edge1" class="edge">
<title>ERPUserComponent&#45;&gt;ERPUserModule</title>
<path fill="none" stroke="black" d="M247,-122.02C247,-139.37 247,-163 247,-163 247,-163 331.15,-163 331.15,-163"/>
<polygon fill="black" stroke="black" points="331.15,-166.5 341.15,-163 331.15,-159.5 331.15,-166.5"/>
</g>
<!-- LayoutModule -->
<g id="node3" class="node">
<title>LayoutModule</title>
<polygon fill="#8dd3c7" stroke="black" points="748.71,-122 745.71,-126 724.71,-126 721.71,-122 649.29,-122 649.29,-86 748.71,-86 748.71,-122"/>
<text text-anchor="middle" x="699" y="-99.8" font-family="Times,serif" font-size="14.00">LayoutModule</text>
</g>
<!-- LayoutModule&#45;&gt;ERPUserModule -->
<g id="edge2" class="edge">
<title>LayoutModule&#45;&gt;ERPUserModule</title>
<path fill="none" stroke="black" d="M699,-122.28C699,-143.32 699,-175 699,-175 699,-175 462.74,-175 462.74,-175"/>
<polygon fill="black" stroke="black" points="462.74,-171.5 452.74,-175 462.74,-178.5 462.74,-171.5"/>
</g>
<!-- MicrotecAuthLibModule -->
<g id="node4" class="node">
<title>MicrotecAuthLibModule</title>
<polygon fill="#8dd3c7" stroke="black" points="631.52,-122 628.52,-126 607.52,-126 604.52,-122 474.48,-122 474.48,-86 631.52,-86 631.52,-122"/>
<text text-anchor="middle" x="553" y="-99.8" font-family="Times,serif" font-size="14.00">MicrotecAuthLibModule</text>
</g>
<!-- MicrotecAuthLibModule&#45;&gt;ERPUserModule -->
<g id="edge3" class="edge">
<title>MicrotecAuthLibModule&#45;&gt;ERPUserModule</title>
<path fill="none" stroke="black" d="M553,-122.02C553,-139.37 553,-163 553,-163 553,-163 462.88,-163 462.88,-163"/>
<polygon fill="black" stroke="black" points="462.88,-159.5 452.88,-163 462.88,-166.5 462.88,-159.5"/>
</g>
<!-- SharedLibModule -->
<g id="node5" class="node">
<title>SharedLibModule</title>
<polygon fill="#8dd3c7" stroke="black" points="455.87,-122 452.87,-126 431.87,-126 428.87,-122 338.13,-122 338.13,-86 455.87,-86 455.87,-122"/>
<text text-anchor="middle" x="397" y="-99.8" font-family="Times,serif" font-size="14.00">SharedLibModule</text>
</g>
<!-- SharedLibModule&#45;&gt;ERPUserModule -->
<g id="edge4" class="edge">
<title>SharedLibModule&#45;&gt;ERPUserModule</title>
<path fill="none" stroke="black" d="M397,-122.11C397,-122.11 397,-140.99 397,-140.99"/>
<polygon fill="black" stroke="black" points="393.5,-140.99 397,-150.99 400.5,-140.99 393.5,-140.99"/>
</g>
<!-- RouterService -->
<g id="node6" class="node">
<title>RouterService</title>
<ellipse fill="#fdb462" stroke="black" cx="90" cy="-104" rx="66.05" ry="18"/>
<text text-anchor="middle" x="90" y="-99.8" font-family="Times,serif" font-size="14.00">RouterService</text>
</g>
<!-- RouterService&#45;&gt;ERPUserModule -->
<g id="edge5" class="edge">
<title>RouterService&#45;&gt;ERPUserModule</title>
<path fill="none" stroke="black" d="M90,-122.28C90,-143.32 90,-175 90,-175 90,-175 331.05,-175 331.05,-175"/>
<polygon fill="black" stroke="black" points="331.05,-178.5 341.05,-175 331.05,-171.5 331.05,-178.5"/>
</g>
</g>
</svg>
