<?xml version="1.0" encoding="UTF-8" standalone="no"?>
<!DOCTYPE svg PUBLIC "-//W3C//DTD SVG 1.1//EN"
 "http://www.w3.org/Graphics/SVG/1.1/DTD/svg11.dtd">
<!-- Generated by graphviz version 2.47.0 (20210316.0004)
 -->
<!-- Title: dependencies Pages: 1 -->
<svg width="2190pt" height="211pt"
 viewBox="0.00 0.00 2190.00 211.00" xmlns="http://www.w3.org/2000/svg" xmlns:xlink="http://www.w3.org/1999/xlink">
<g id="graph0" class="graph" transform="scale(1 1) rotate(0) translate(4 207)">
<title>dependencies</title>
<polygon fill="white" stroke="transparent" points="-4,4 -4,-207 2186,-207 2186,4 -4,4"/>
<text text-anchor="start" x="1070.01" y="-42.4" font-family="Times-12" font-weight="bold" font-size="14.00">Legend</text>
<polygon fill="#ffffb3" stroke="transparent" points="857,-10 857,-30 877,-30 877,-10 857,-10"/>
<text text-anchor="start" x="880.63" y="-15.4" font-family="Times-12" font-size="14.00"> &#160;Declarations</text>
<polygon fill="#8dd3c7" stroke="transparent" points="970,-10 970,-30 990,-30 990,-10 970,-10"/>
<text text-anchor="start" x="993.73" y="-15.4" font-family="Times-12" font-size="14.00"> &#160;Module</text>
<polygon fill="#80b1d3" stroke="transparent" points="1056,-10 1056,-30 1076,-30 1076,-10 1056,-10"/>
<text text-anchor="start" x="1079.78" y="-15.4" font-family="Times-12" font-size="14.00"> &#160;Bootstrap</text>
<polygon fill="#fdb462" stroke="transparent" points="1153,-10 1153,-30 1173,-30 1173,-10 1153,-10"/>
<text text-anchor="start" x="1176.67" y="-15.4" font-family="Times-12" font-size="14.00"> &#160;Providers</text>
<polygon fill="#fb8072" stroke="transparent" points="1249,-10 1249,-30 1269,-30 1269,-10 1249,-10"/>
<text text-anchor="start" x="1272.73" y="-15.4" font-family="Times-12" font-size="14.00"> &#160;Exports</text>
<g id="clust1" class="cluster">
<title>cluster_PurchaseTransactionsModule</title>
<polygon fill="none" stroke="black" stroke-dasharray="1,5" points="8,-70 8,-195 2174,-195 2174,-70 8,-70"/>
</g>
<g id="clust12" class="cluster">
<title>cluster_PurchaseTransactionsModule_imports</title>
<polygon fill="none" stroke="black" points="2032,-78 2032,-130 2166,-130 2166,-78 2032,-78"/>
</g>
<g id="clust2" class="cluster">
<title>cluster_PurchaseTransactionsModule_declarations</title>
<polygon fill="none" stroke="black" points="16,-78 16,-130 2024,-130 2024,-78 16,-78"/>
</g>
<!-- AddPurchaseInvoiceComponent -->
<g id="node1" class="node">
<title>AddPurchaseInvoiceComponent</title>
<polygon fill="#ffffb3" stroke="black" points="2015.95,-122 1818.05,-122 1818.05,-86 2015.95,-86 2015.95,-122"/>
<text text-anchor="middle" x="1917" y="-99.8" font-family="Times,serif" font-size="14.00">AddPurchaseInvoiceComponent</text>
</g>
<!-- PurchaseTransactionsModule -->
<g id="node10" class="node">
<title>PurchaseTransactionsModule</title>
<polygon fill="#8dd3c7" stroke="black" points="1150.61,-187 1147.61,-191 1126.61,-191 1123.61,-187 969.39,-187 969.39,-151 1150.61,-151 1150.61,-187"/>
<text text-anchor="middle" x="1060" y="-164.8" font-family="Times,serif" font-size="14.00">PurchaseTransactionsModule</text>
</g>
<!-- AddPurchaseInvoiceComponent&#45;&gt;PurchaseTransactionsModule -->
<g id="edge1" class="edge">
<title>AddPurchaseInvoiceComponent&#45;&gt;PurchaseTransactionsModule</title>
<path fill="none" stroke="black" d="M1917,-122.13C1917,-142.57 1917,-173 1917,-173 1917,-173 1160.9,-173 1160.9,-173"/>
<polygon fill="black" stroke="black" points="1160.9,-169.5 1150.9,-173 1160.9,-176.5 1160.9,-169.5"/>
</g>
<!-- EditPurchaseInvoiceComponent -->
<g id="node2" class="node">
<title>EditPurchaseInvoiceComponent</title>
<polygon fill="#ffffb3" stroke="black" points="1799.68,-122 1602.32,-122 1602.32,-86 1799.68,-86 1799.68,-122"/>
<text text-anchor="middle" x="1701" y="-99.8" font-family="Times,serif" font-size="14.00">EditPurchaseInvoiceComponent</text>
</g>
<!-- EditPurchaseInvoiceComponent&#45;&gt;PurchaseTransactionsModule -->
<g id="edge2" class="edge">
<title>EditPurchaseInvoiceComponent&#45;&gt;PurchaseTransactionsModule</title>
<path fill="none" stroke="black" d="M1701,-122.27C1701,-140.56 1701,-166 1701,-166 1701,-166 1160.82,-166 1160.82,-166"/>
<polygon fill="black" stroke="black" points="1160.82,-162.5 1150.82,-166 1160.82,-169.5 1160.82,-162.5"/>
</g>
<!-- ItemAdvancedSearchEditComponent -->
<g id="node3" class="node">
<title>ItemAdvancedSearchEditComponent</title>
<polygon fill="#ffffb3" stroke="black" points="1584.66,-122 1359.34,-122 1359.34,-86 1584.66,-86 1584.66,-122"/>
<text text-anchor="middle" x="1472" y="-99.8" font-family="Times,serif" font-size="14.00">ItemAdvancedSearchEditComponent</text>
</g>
<!-- ItemAdvancedSearchEditComponent&#45;&gt;PurchaseTransactionsModule -->
<g id="edge3" class="edge">
<title>ItemAdvancedSearchEditComponent&#45;&gt;PurchaseTransactionsModule</title>
<path fill="none" stroke="black" d="M1472,-122.01C1472,-138.05 1472,-159 1472,-159 1472,-159 1160.67,-159 1160.67,-159"/>
<polygon fill="black" stroke="black" points="1160.67,-155.5 1150.67,-159 1160.67,-162.5 1160.67,-155.5"/>
</g>
<!-- ItemAdvancedSearchPurchaseInvoiceComponent -->
<g id="node4" class="node">
<title>ItemAdvancedSearchPurchaseInvoiceComponent</title>
<polygon fill="#ffffb3" stroke="black" points="1341.34,-122 1046.66,-122 1046.66,-86 1341.34,-86 1341.34,-122"/>
<text text-anchor="middle" x="1194" y="-99.8" font-family="Times,serif" font-size="14.00">ItemAdvancedSearchPurchaseInvoiceComponent</text>
</g>
<!-- ItemAdvancedSearchPurchaseInvoiceComponent&#45;&gt;PurchaseTransactionsModule -->
<g id="edge4" class="edge">
<title>ItemAdvancedSearchPurchaseInvoiceComponent&#45;&gt;PurchaseTransactionsModule</title>
<path fill="none" stroke="black" d="M1098.82,-122.11C1098.82,-122.11 1098.82,-140.99 1098.82,-140.99"/>
<polygon fill="black" stroke="black" points="1095.32,-140.99 1098.82,-150.99 1102.32,-140.99 1095.32,-140.99"/>
</g>
<!-- MainPurchaseInvoiceComponent -->
<g id="node5" class="node">
<title>MainPurchaseInvoiceComponent</title>
<polygon fill="#ffffb3" stroke="black" points="1028.89,-122 825.11,-122 825.11,-86 1028.89,-86 1028.89,-122"/>
<text text-anchor="middle" x="927" y="-99.8" font-family="Times,serif" font-size="14.00">MainPurchaseInvoiceComponent</text>
</g>
<!-- MainPurchaseInvoiceComponent&#45;&gt;PurchaseTransactionsModule -->
<g id="edge5" class="edge">
<title>MainPurchaseInvoiceComponent&#45;&gt;PurchaseTransactionsModule</title>
<path fill="none" stroke="black" d="M998.95,-122.11C998.95,-122.11 998.95,-140.99 998.95,-140.99"/>
<polygon fill="black" stroke="black" points="995.45,-140.99 998.95,-150.99 1002.45,-140.99 995.45,-140.99"/>
</g>
<!-- PurchaseInvoiceListComponent -->
<g id="node6" class="node">
<title>PurchaseInvoiceListComponent</title>
<polygon fill="#ffffb3" stroke="black" points="806.62,-122 611.38,-122 611.38,-86 806.62,-86 806.62,-122"/>
<text text-anchor="middle" x="709" y="-99.8" font-family="Times,serif" font-size="14.00">PurchaseInvoiceListComponent</text>
</g>
<!-- PurchaseInvoiceListComponent&#45;&gt;PurchaseTransactionsModule -->
<g id="edge6" class="edge">
<title>PurchaseInvoiceListComponent&#45;&gt;PurchaseTransactionsModule</title>
<path fill="none" stroke="black" d="M709,-122.01C709,-138.05 709,-159 709,-159 709,-159 959.15,-159 959.15,-159"/>
<polygon fill="black" stroke="black" points="959.15,-162.5 969.15,-159 959.15,-155.5 959.15,-162.5"/>
</g>
<!-- PurchaseInvoiceTrackingComponent -->
<g id="node7" class="node">
<title>PurchaseInvoiceTrackingComponent</title>
<polygon fill="#ffffb3" stroke="black" points="593.38,-122 368.62,-122 368.62,-86 593.38,-86 593.38,-122"/>
<text text-anchor="middle" x="481" y="-99.8" font-family="Times,serif" font-size="14.00">PurchaseInvoiceTrackingComponent</text>
</g>
<!-- PurchaseInvoiceTrackingComponent&#45;&gt;PurchaseTransactionsModule -->
<g id="edge7" class="edge">
<title>PurchaseInvoiceTrackingComponent&#45;&gt;PurchaseTransactionsModule</title>
<path fill="none" stroke="black" d="M481,-122.27C481,-140.56 481,-166 481,-166 481,-166 959.21,-166 959.21,-166"/>
<polygon fill="black" stroke="black" points="959.21,-169.5 969.21,-166 959.21,-162.5 959.21,-169.5"/>
</g>
<!-- TrackingEditComponent -->
<g id="node8" class="node">
<title>TrackingEditComponent</title>
<polygon fill="#ffffb3" stroke="black" points="350.7,-122 195.3,-122 195.3,-86 350.7,-86 350.7,-122"/>
<text text-anchor="middle" x="273" y="-99.8" font-family="Times,serif" font-size="14.00">TrackingEditComponent</text>
</g>
<!-- TrackingEditComponent&#45;&gt;PurchaseTransactionsModule -->
<g id="edge8" class="edge">
<title>TrackingEditComponent&#45;&gt;PurchaseTransactionsModule</title>
<path fill="none" stroke="black" d="M273,-122.13C273,-142.57 273,-173 273,-173 273,-173 959.34,-173 959.34,-173"/>
<polygon fill="black" stroke="black" points="959.34,-176.5 969.34,-173 959.34,-169.5 959.34,-176.5"/>
</g>
<!-- ViewInvoiceComponent -->
<g id="node9" class="node">
<title>ViewInvoiceComponent</title>
<polygon fill="#ffffb3" stroke="black" points="177.63,-122 24.37,-122 24.37,-86 177.63,-86 177.63,-122"/>
<text text-anchor="middle" x="101" y="-99.8" font-family="Times,serif" font-size="14.00">ViewInvoiceComponent</text>
</g>
<!-- ViewInvoiceComponent&#45;&gt;PurchaseTransactionsModule -->
<g id="edge9" class="edge">
<title>ViewInvoiceComponent&#45;&gt;PurchaseTransactionsModule</title>
<path fill="none" stroke="black" d="M101,-122.01C101,-144.49 101,-180 101,-180 101,-180 959.35,-180 959.35,-180"/>
<polygon fill="black" stroke="black" points="959.35,-183.5 969.35,-180 959.35,-176.5 959.35,-183.5"/>
</g>
<!-- SharedLibModule -->
<g id="node11" class="node">
<title>SharedLibModule</title>
<polygon fill="#8dd3c7" stroke="black" points="2157.87,-122 2154.87,-126 2133.87,-126 2130.87,-122 2040.13,-122 2040.13,-86 2157.87,-86 2157.87,-122"/>
<text text-anchor="middle" x="2099" y="-99.8" font-family="Times,serif" font-size="14.00">SharedLibModule</text>
</g>
<!-- SharedLibModule&#45;&gt;PurchaseTransactionsModule -->
<g id="edge10" class="edge">
<title>SharedLibModule&#45;&gt;PurchaseTransactionsModule</title>
<path fill="none" stroke="black" d="M2099,-122.01C2099,-144.49 2099,-180 2099,-180 2099,-180 1160.84,-180 1160.84,-180"/>
<polygon fill="black" stroke="black" points="1160.84,-176.5 1150.84,-180 1160.84,-183.5 1160.84,-176.5"/>
</g>
</g>
</svg>
