<svg width="20" height="18" viewBox="0 0 20 18" fill="none" xmlns="http://www.w3.org/2000/svg">
<path d="M1.37695 6.52918V10.4708C1.37695 14.0765 4.32908 17 7.97004 17H11.6844C15.3254 17 18.2775 14.0765 18.2775 10.4708V6.52918C18.2775 2.92351 15.3254 5.42482e-07 11.6844 5.42482e-07H7.97004C4.32908 -0.00145394 1.37695 2.92206 1.37695 6.52918ZM7.82464 2.57153H11.8313C14.1137 2.57153 15.9643 4.40418 15.9643 6.66444V10.4926C15.9643 12.7529 14.1137 14.5856 11.8313 14.5856H7.82464C5.54224 14.5856 3.69166 12.7529 3.69166 10.4926V6.66444C3.69166 4.40272 5.54224 2.57153 7.82464 2.57153Z" fill="#1B90B0"/>
<path d="M7.60331 7.91797H2.03516V8.27526H7.60331V7.91797Z" fill="#737374"/>
<path d="M18.1297 7.60156H12.5615V7.95885H18.1297V7.60156Z" fill="#737374"/>
<path d="M17.9186 10.1055H11.8359V10.4874H17.9186V10.1055Z" fill="#737374"/>
<path d="M8.9366 10.4844H2.03516V10.8417H8.9366V10.4844Z" fill="#737374"/>
<path d="M10.4091 7.88281L9.81663 8.47296L9.38003 8.90786C9.20564 9.08158 8.96941 9.17891 8.72328 9.17891H1.03027V9.65571H8.62928H8.82222C9.13143 9.65571 9.42827 9.53374 9.64718 9.31567L10.7616 8.20561C10.7071 8.04667 10.5748 7.92224 10.4091 7.88281Z" fill="#737374"/>
<path d="M11.7287 8.6692C11.4133 8.6692 11.1103 8.79487 10.8864 9.01663L10.5809 9.32095L9.97363 9.92588C10.0206 10.0885 10.148 10.2166 10.3125 10.2622L10.9186 9.65852L11.1597 9.41828C11.3354 9.24333 11.5741 9.14477 11.8227 9.14477H19.4415V8.66797H11.7287V8.6692Z" fill="#737374"/>
<path d="M10.9371 9.7938C10.9371 10.0636 10.717 10.2829 10.4461 10.2829C10.3991 10.2829 10.3546 10.2768 10.3125 10.2644C10.1493 10.2189 10.0206 10.092 9.97363 9.9281C9.96126 9.88497 9.95508 9.83939 9.95508 9.7938C9.95508 9.52399 10.1752 9.30469 10.4461 9.30469C10.4931 9.30469 10.5376 9.31208 10.5809 9.32317C10.7442 9.36999 10.8728 9.49688 10.9186 9.66074C10.9309 9.7014 10.9371 9.74699 10.9371 9.7938Z" fill="#737374"/>
<path d="M18.7018 10.2977C18.7018 10.5675 18.4816 10.7868 18.2107 10.7868C18.1637 10.7868 18.1192 10.7807 18.0772 10.7683C17.9139 10.7228 17.7853 10.5959 17.7383 10.432C17.7259 10.3889 17.7197 10.3433 17.7197 10.2977C17.7197 10.0279 17.9399 9.80859 18.2107 9.80859C18.2577 9.80859 18.3023 9.81599 18.3456 9.82707C18.5088 9.87389 18.6375 10.0008 18.6832 10.1647C18.6956 10.2053 18.7018 10.2509 18.7018 10.2977Z" fill="#737374"/>
<path d="M10.7821 8.36021C10.7821 8.63003 10.5619 8.84933 10.2911 8.84933C10.2367 8.84933 10.186 8.8407 10.1377 8.82592C9.97693 8.77294 9.85325 8.64111 9.81367 8.47602C9.80377 8.43906 9.79883 8.39964 9.79883 8.36021C9.79883 8.09039 10.019 7.87109 10.2898 7.87109C10.3294 7.87109 10.369 7.87602 10.4061 7.88588C10.5718 7.9253 10.7054 8.04851 10.7574 8.20867C10.7734 8.25549 10.7821 8.306 10.7821 8.36021Z" fill="#737374"/>
<path d="M1.38029 9.44138C1.38029 9.82085 1.07109 10.1289 0.690144 10.1289C0.614698 10.1289 0.542964 10.1165 0.474939 10.0956C0.249837 10.0217 0.0754428 9.83686 0.0197858 9.60401C0.00618078 9.55226 0 9.49682 0 9.44138C0 9.06191 0.309204 8.75391 0.690144 8.75391C0.745801 8.75391 0.801459 8.76007 0.853406 8.77362C1.08716 8.82906 1.27269 9.00278 1.3469 9.22701C1.36792 9.29477 1.38029 9.36623 1.38029 9.44138Z" fill="#737374"/>
<path d="M19.999 8.83663C19.999 9.17174 19.7269 9.44279 19.3905 9.44279C19.3237 9.44279 19.2606 9.43293 19.2012 9.41322C19.0034 9.34792 18.8487 9.18529 18.8005 8.97954C18.7881 8.93396 18.7832 8.88468 18.7832 8.83663C18.7832 8.50152 19.0553 8.23047 19.3917 8.23047C19.44 8.23047 19.4894 8.23663 19.5352 8.24772C19.7405 8.29577 19.905 8.44977 19.9705 8.6469C19.9891 8.70603 19.999 8.7701 19.999 8.83663Z" fill="#737374"/>
<path d="M9.73132 10.6649C9.73132 10.9347 9.51116 11.154 9.2403 11.154C9.18588 11.154 9.13517 11.1454 9.08694 11.1306C8.92615 11.0776 8.80247 10.9458 8.76289 10.7807C8.75299 10.7437 8.74805 10.7043 8.74805 10.6649C8.74805 10.3951 8.9682 10.1758 9.23906 10.1758C9.27864 10.1758 9.31822 10.1807 9.35532 10.1906C9.52106 10.23 9.65463 10.3532 9.70658 10.5134C9.72266 10.5602 9.73132 10.6119 9.73132 10.6649Z" fill="#737374"/>
<path d="M12.9237 7.78209C12.9237 8.0519 12.7035 8.2712 12.4327 8.2712C12.3783 8.2712 12.3276 8.26258 12.2793 8.24779C12.1185 8.19482 11.9948 8.06299 11.9553 7.8979C11.9454 7.86094 11.9404 7.82151 11.9404 7.78209C11.9404 7.51227 12.1606 7.29297 12.4314 7.29297C12.471 7.29297 12.5106 7.2979 12.5477 7.30775C12.7134 7.34718 12.847 7.47038 12.899 7.63055C12.915 7.67736 12.9237 7.72788 12.9237 7.78209Z" fill="#737374"/>
<path d="M2.41003 8.09849C2.41003 8.36831 2.18987 8.58761 1.91901 8.58761C1.86459 8.58761 1.81388 8.57898 1.76564 8.5642C1.60486 8.51122 1.48118 8.3794 1.4416 8.2143C1.4317 8.17734 1.42676 8.13792 1.42676 8.09849C1.42676 7.82868 1.64691 7.60938 1.91777 7.60938C1.95735 7.60938 1.99693 7.6143 2.03404 7.62416C2.19977 7.66358 2.33334 7.78679 2.38529 7.94695C2.40137 7.99377 2.41003 8.04428 2.41003 8.09849Z" fill="#737374"/>
<path d="M8.01515 8.0962C8.01515 8.28717 7.85931 8.4424 7.6676 8.4424C7.62926 8.4424 7.59339 8.43624 7.55999 8.42515C7.44744 8.38819 7.3584 8.29456 7.33119 8.17752C7.325 8.15164 7.32129 8.12331 7.32129 8.0962C7.32129 7.90524 7.47713 7.75 7.66883 7.75C7.69728 7.75 7.72449 7.7537 7.75047 7.75986C7.86796 7.78819 7.96196 7.87567 7.99907 7.98778C8.00896 8.02228 8.01515 8.05801 8.01515 8.0962Z" fill="#737374"/>
<path d="M18.5532 7.7837C18.5532 7.97467 18.3974 8.1299 18.2057 8.1299C18.1673 8.1299 18.1315 8.12374 18.0981 8.11265C17.9855 8.07569 17.8965 7.98206 17.8693 7.86502C17.8631 7.83914 17.8594 7.81081 17.8594 7.7837C17.8594 7.59274 18.0152 7.4375 18.2069 7.4375C18.2354 7.4375 18.2626 7.4412 18.2886 7.44736C18.406 7.47569 18.5 7.56317 18.5372 7.67528C18.547 7.70978 18.5532 7.74551 18.5532 7.7837Z" fill="#737374"/>
<path d="M2.29542 10.6157C2.29542 10.8067 2.13958 10.9619 1.94787 10.9619C1.90953 10.9619 1.87366 10.9558 1.84027 10.9447C1.72772 10.9077 1.63867 10.8141 1.61146 10.697C1.60528 10.6712 1.60156 10.6428 1.60156 10.6157C1.60156 10.4248 1.7574 10.2695 1.94911 10.2695C1.97756 10.2695 2.00477 10.2732 2.03074 10.2794C2.14824 10.3077 2.24224 10.3952 2.27934 10.5073C2.29047 10.5418 2.29542 10.5788 2.29542 10.6157Z" fill="#737374"/>
<path d="M12.0386 10.2954C12.0386 10.4864 11.8827 10.6416 11.691 10.6416C11.6527 10.6416 11.6168 10.6355 11.5834 10.6244C11.4709 10.5874 11.3818 10.4938 11.3546 10.3767C11.3484 10.3509 11.3447 10.3225 11.3447 10.2954C11.3447 10.1045 11.5006 9.94922 11.6923 9.94922C11.7207 9.94922 11.7479 9.95291 11.7739 9.95907C11.8914 9.98741 11.9854 10.0749 12.0225 10.187C12.0324 10.2203 12.0386 10.2572 12.0386 10.2954Z" fill="#737374"/>
</svg>
