<?xml version="1.0" encoding="UTF-8" standalone="no"?>
<!DOCTYPE svg PUBLIC "-//W3C//DTD SVG 1.1//EN"
 "http://www.w3.org/Graphics/SVG/1.1/DTD/svg11.dtd">
<!-- Generated by graphviz version 2.47.0 (20210316.0004)
 -->
<!-- Title: dependencies Pages: 1 -->
<svg width="1390pt" height="211pt"
 viewBox="0.00 0.00 1390.00 211.00" xmlns="http://www.w3.org/2000/svg" xmlns:xlink="http://www.w3.org/1999/xlink">
<g id="graph0" class="graph" transform="scale(1 1) rotate(0) translate(4 207)">
<title>dependencies</title>
<polygon fill="white" stroke="transparent" points="-4,4 -4,-207 1386,-207 1386,4 -4,4"/>
<text text-anchor="start" x="670.01" y="-42.4" font-family="Times-12" font-weight="bold" font-size="14.00">Legend</text>
<polygon fill="#ffffb3" stroke="transparent" points="457,-10 457,-30 477,-30 477,-10 457,-10"/>
<text text-anchor="start" x="480.63" y="-15.4" font-family="Times-12" font-size="14.00"> &#160;Declarations</text>
<polygon fill="#8dd3c7" stroke="transparent" points="570,-10 570,-30 590,-30 590,-10 570,-10"/>
<text text-anchor="start" x="593.73" y="-15.4" font-family="Times-12" font-size="14.00"> &#160;Module</text>
<polygon fill="#80b1d3" stroke="transparent" points="656,-10 656,-30 676,-30 676,-10 656,-10"/>
<text text-anchor="start" x="679.78" y="-15.4" font-family="Times-12" font-size="14.00"> &#160;Bootstrap</text>
<polygon fill="#fdb462" stroke="transparent" points="753,-10 753,-30 773,-30 773,-10 753,-10"/>
<text text-anchor="start" x="776.67" y="-15.4" font-family="Times-12" font-size="14.00"> &#160;Providers</text>
<polygon fill="#fb8072" stroke="transparent" points="849,-10 849,-30 869,-30 869,-10 849,-10"/>
<text text-anchor="start" x="872.73" y="-15.4" font-family="Times-12" font-size="14.00"> &#160;Exports</text>
<g id="clust1" class="cluster">
<title>cluster_ProfileModule</title>
<polygon fill="none" stroke="black" stroke-dasharray="1,5" points="8,-70 8,-195 1374,-195 1374,-70 8,-70"/>
</g>
<g id="clust8" class="cluster">
<title>cluster_ProfileModule_imports</title>
<polygon fill="none" stroke="black" points="798,-78 798,-130 1366,-130 1366,-78 798,-78"/>
</g>
<g id="clust2" class="cluster">
<title>cluster_ProfileModule_declarations</title>
<polygon fill="none" stroke="black" points="16,-78 16,-130 790,-130 790,-78 16,-78"/>
</g>
<!-- CampaignsComponent -->
<g id="node1" class="node">
<title>CampaignsComponent</title>
<polygon fill="#ffffb3" stroke="black" points="782.32,-122 637.68,-122 637.68,-86 782.32,-86 782.32,-122"/>
<text text-anchor="middle" x="710" y="-99.8" font-family="Times,serif" font-size="14.00">CampaignsComponent</text>
</g>
<!-- ProfileModule -->
<g id="node6" class="node">
<title>ProfileModule</title>
<polygon fill="#8dd3c7" stroke="black" points="758.65,-187 755.65,-191 734.65,-191 731.65,-187 661.35,-187 661.35,-151 758.65,-151 758.65,-187"/>
<text text-anchor="middle" x="710" y="-164.8" font-family="Times,serif" font-size="14.00">ProfileModule</text>
</g>
<!-- CampaignsComponent&#45;&gt;ProfileModule -->
<g id="edge1" class="edge">
<title>CampaignsComponent&#45;&gt;ProfileModule</title>
<path fill="none" stroke="black" d="M710,-122.11C710,-122.11 710,-140.99 710,-140.99"/>
<polygon fill="black" stroke="black" points="706.5,-140.99 710,-150.99 713.5,-140.99 706.5,-140.99"/>
</g>
<!-- ConnectionsComponent -->
<g id="node2" class="node">
<title>ConnectionsComponent</title>
<polygon fill="#ffffb3" stroke="black" points="619.82,-122 468.18,-122 468.18,-86 619.82,-86 619.82,-122"/>
<text text-anchor="middle" x="544" y="-99.8" font-family="Times,serif" font-size="14.00">ConnectionsComponent</text>
</g>
<!-- ConnectionsComponent&#45;&gt;ProfileModule -->
<g id="edge2" class="edge">
<title>ConnectionsComponent&#45;&gt;ProfileModule</title>
<path fill="none" stroke="black" d="M544,-122.01C544,-138.05 544,-159 544,-159 544,-159 651.09,-159 651.09,-159"/>
<polygon fill="black" stroke="black" points="651.09,-162.5 661.09,-159 651.09,-155.5 651.09,-162.5"/>
</g>
<!-- DocumentsComponent -->
<g id="node3" class="node">
<title>DocumentsComponent</title>
<polygon fill="#ffffb3" stroke="black" points="450.59,-122 305.41,-122 305.41,-86 450.59,-86 450.59,-122"/>
<text text-anchor="middle" x="378" y="-99.8" font-family="Times,serif" font-size="14.00">DocumentsComponent</text>
</g>
<!-- DocumentsComponent&#45;&gt;ProfileModule -->
<g id="edge3" class="edge">
<title>DocumentsComponent&#45;&gt;ProfileModule</title>
<path fill="none" stroke="black" d="M378,-122.27C378,-140.56 378,-166 378,-166 378,-166 651.01,-166 651.01,-166"/>
<polygon fill="black" stroke="black" points="651.01,-169.5 661.01,-166 651.01,-162.5 651.01,-169.5"/>
</g>
<!-- ProfileComponent -->
<g id="node4" class="node">
<title>ProfileComponent</title>
<polygon fill="#ffffb3" stroke="black" points="287.93,-122 168.07,-122 168.07,-86 287.93,-86 287.93,-122"/>
<text text-anchor="middle" x="228" y="-99.8" font-family="Times,serif" font-size="14.00">ProfileComponent</text>
</g>
<!-- ProfileComponent&#45;&gt;ProfileModule -->
<g id="edge4" class="edge">
<title>ProfileComponent&#45;&gt;ProfileModule</title>
<path fill="none" stroke="black" d="M228,-122.13C228,-142.57 228,-173 228,-173 228,-173 651.13,-173 651.13,-173"/>
<polygon fill="black" stroke="black" points="651.13,-176.5 661.13,-173 651.13,-169.5 651.13,-176.5"/>
</g>
<!-- ProjectsComponent -->
<g id="node5" class="node">
<title>ProjectsComponent</title>
<polygon fill="#ffffb3" stroke="black" points="150.43,-122 23.57,-122 23.57,-86 150.43,-86 150.43,-122"/>
<text text-anchor="middle" x="87" y="-99.8" font-family="Times,serif" font-size="14.00">ProjectsComponent</text>
</g>
<!-- ProjectsComponent&#45;&gt;ProfileModule -->
<g id="edge5" class="edge">
<title>ProjectsComponent&#45;&gt;ProfileModule</title>
<path fill="none" stroke="black" d="M87,-122.01C87,-144.49 87,-180 87,-180 87,-180 651.11,-180 651.11,-180"/>
<polygon fill="black" stroke="black" points="651.11,-183.5 661.11,-180 651.11,-176.5 651.11,-183.5"/>
</g>
<!-- CardsModule -->
<g id="node7" class="node">
<title>CardsModule</title>
<polygon fill="#8dd3c7" stroke="black" points="1358.21,-122 1355.21,-126 1334.21,-126 1331.21,-122 1265.79,-122 1265.79,-86 1358.21,-86 1358.21,-122"/>
<text text-anchor="middle" x="1312" y="-99.8" font-family="Times,serif" font-size="14.00">CardsModule</text>
</g>
<!-- CardsModule&#45;&gt;ProfileModule -->
<g id="edge6" class="edge">
<title>CardsModule&#45;&gt;ProfileModule</title>
<path fill="none" stroke="black" d="M1312,-122.01C1312,-144.49 1312,-180 1312,-180 1312,-180 768.75,-180 768.75,-180"/>
<polygon fill="black" stroke="black" points="768.75,-176.5 758.75,-180 768.75,-183.5 768.75,-176.5"/>
</g>
<!-- DropdownMenusModule -->
<g id="node8" class="node">
<title>DropdownMenusModule</title>
<polygon fill="#8dd3c7" stroke="black" points="1247.53,-122 1244.53,-126 1223.53,-126 1220.53,-122 1090.47,-122 1090.47,-86 1247.53,-86 1247.53,-122"/>
<text text-anchor="middle" x="1169" y="-99.8" font-family="Times,serif" font-size="14.00">DropdownMenusModule</text>
</g>
<!-- DropdownMenusModule&#45;&gt;ProfileModule -->
<g id="edge7" class="edge">
<title>DropdownMenusModule&#45;&gt;ProfileModule</title>
<path fill="none" stroke="black" d="M1169,-122.13C1169,-142.57 1169,-173 1169,-173 1169,-173 768.69,-173 768.69,-173"/>
<polygon fill="black" stroke="black" points="768.69,-169.5 758.69,-173 768.69,-176.5 768.69,-169.5"/>
</g>
<!-- ProfileRoutingModule -->
<g id="node9" class="node">
<title>ProfileRoutingModule</title>
<polygon fill="#8dd3c7" stroke="black" points="1072.27,-122 1069.27,-126 1048.27,-126 1045.27,-122 929.73,-122 929.73,-86 1072.27,-86 1072.27,-122"/>
<text text-anchor="middle" x="1001" y="-99.8" font-family="Times,serif" font-size="14.00">ProfileRoutingModule</text>
</g>
<!-- ProfileRoutingModule&#45;&gt;ProfileModule -->
<g id="edge8" class="edge">
<title>ProfileRoutingModule&#45;&gt;ProfileModule</title>
<path fill="none" stroke="black" d="M1001,-122.27C1001,-140.56 1001,-166 1001,-166 1001,-166 768.71,-166 768.71,-166"/>
<polygon fill="black" stroke="black" points="768.71,-162.5 758.71,-166 768.71,-169.5 768.71,-162.5"/>
</g>
<!-- WidgetsModule -->
<g id="node10" class="node">
<title>WidgetsModule</title>
<polygon fill="#8dd3c7" stroke="black" points="912.2,-122 909.2,-126 888.2,-126 885.2,-122 805.8,-122 805.8,-86 912.2,-86 912.2,-122"/>
<text text-anchor="middle" x="859" y="-99.8" font-family="Times,serif" font-size="14.00">WidgetsModule</text>
</g>
<!-- WidgetsModule&#45;&gt;ProfileModule -->
<g id="edge9" class="edge">
<title>WidgetsModule&#45;&gt;ProfileModule</title>
<path fill="none" stroke="black" d="M859,-122.01C859,-138.05 859,-159 859,-159 859,-159 768.79,-159 768.79,-159"/>
<polygon fill="black" stroke="black" points="768.79,-155.5 758.79,-159 768.79,-162.5 768.79,-155.5"/>
</g>
</g>
</svg>
