<?xml version="1.0" encoding="UTF-8" standalone="no"?>
<!DOCTYPE svg PUBLIC "-//W3C//DTD SVG 1.1//EN"
 "http://www.w3.org/Graphics/SVG/1.1/DTD/svg11.dtd">
<!-- Generated by graphviz version 2.47.0 (20210316.0004)
 -->
<!-- Title: dependencies Pages: 1 -->
<svg width="904pt" height="211pt"
 viewBox="0.00 0.00 904.00 211.00" xmlns="http://www.w3.org/2000/svg" xmlns:xlink="http://www.w3.org/1999/xlink">
<g id="graph0" class="graph" transform="scale(1 1) rotate(0) translate(4 207)">
<title>dependencies</title>
<polygon fill="white" stroke="transparent" points="-4,4 -4,-207 900,-207 900,4 -4,4"/>
<text text-anchor="start" x="427.01" y="-42.4" font-family="Times-12" font-weight="bold" font-size="14.00">Legend</text>
<polygon fill="#ffffb3" stroke="transparent" points="214,-10 214,-30 234,-30 234,-10 214,-10"/>
<text text-anchor="start" x="237.63" y="-15.4" font-family="Times-12" font-size="14.00"> &#160;Declarations</text>
<polygon fill="#8dd3c7" stroke="transparent" points="327,-10 327,-30 347,-30 347,-10 327,-10"/>
<text text-anchor="start" x="350.73" y="-15.4" font-family="Times-12" font-size="14.00"> &#160;Module</text>
<polygon fill="#80b1d3" stroke="transparent" points="413,-10 413,-30 433,-30 433,-10 413,-10"/>
<text text-anchor="start" x="436.78" y="-15.4" font-family="Times-12" font-size="14.00"> &#160;Bootstrap</text>
<polygon fill="#fdb462" stroke="transparent" points="510,-10 510,-30 530,-30 530,-10 510,-10"/>
<text text-anchor="start" x="533.67" y="-15.4" font-family="Times-12" font-size="14.00"> &#160;Providers</text>
<polygon fill="#fb8072" stroke="transparent" points="606,-10 606,-30 626,-30 626,-10 606,-10"/>
<text text-anchor="start" x="629.73" y="-15.4" font-family="Times-12" font-size="14.00"> &#160;Exports</text>
<g id="clust1" class="cluster">
<title>cluster_HelpPagesModule</title>
<polygon fill="none" stroke="black" stroke-dasharray="1,5" points="8,-70 8,-195 888,-195 888,-70 8,-70"/>
</g>
<g id="clust6" class="cluster">
<title>cluster_HelpPagesModule_imports</title>
<polygon fill="none" stroke="black" points="564,-78 564,-130 880,-130 880,-78 564,-78"/>
</g>
<g id="clust2" class="cluster">
<title>cluster_HelpPagesModule_declarations</title>
<polygon fill="none" stroke="black" points="16,-78 16,-130 556,-130 556,-78 16,-78"/>
</g>
<!-- AddHelpPageComponent -->
<g id="node1" class="node">
<title>AddHelpPageComponent</title>
<polygon fill="#ffffb3" stroke="black" points="547.86,-122 388.14,-122 388.14,-86 547.86,-86 547.86,-122"/>
<text text-anchor="middle" x="468" y="-99.8" font-family="Times,serif" font-size="14.00">AddHelpPageComponent</text>
</g>
<!-- HelpPagesModule -->
<g id="node4" class="node">
<title>HelpPagesModule</title>
<polygon fill="#8dd3c7" stroke="black" points="527.92,-187 524.92,-191 503.92,-191 500.92,-187 408.08,-187 408.08,-151 527.92,-151 527.92,-187"/>
<text text-anchor="middle" x="468" y="-164.8" font-family="Times,serif" font-size="14.00">HelpPagesModule</text>
</g>
<!-- AddHelpPageComponent&#45;&gt;HelpPagesModule -->
<g id="edge1" class="edge">
<title>AddHelpPageComponent&#45;&gt;HelpPagesModule</title>
<path fill="none" stroke="black" d="M468,-122.11C468,-122.11 468,-140.99 468,-140.99"/>
<polygon fill="black" stroke="black" points="464.5,-140.99 468,-150.99 471.5,-140.99 464.5,-140.99"/>
</g>
<!-- EditHelpsPagesComponent -->
<g id="node2" class="node">
<title>EditHelpsPagesComponent</title>
<polygon fill="#ffffb3" stroke="black" points="369.98,-122 200.02,-122 200.02,-86 369.98,-86 369.98,-122"/>
<text text-anchor="middle" x="285" y="-99.8" font-family="Times,serif" font-size="14.00">EditHelpsPagesComponent</text>
</g>
<!-- EditHelpsPagesComponent&#45;&gt;HelpPagesModule -->
<g id="edge2" class="edge">
<title>EditHelpsPagesComponent&#45;&gt;HelpPagesModule</title>
<path fill="none" stroke="black" d="M285,-122.02C285,-139.37 285,-163 285,-163 285,-163 398.08,-163 398.08,-163"/>
<polygon fill="black" stroke="black" points="398.08,-166.5 408.08,-163 398.08,-159.5 398.08,-166.5"/>
</g>
<!-- ListHelpPageComponent -->
<g id="node3" class="node">
<title>ListHelpPageComponent</title>
<polygon fill="#ffffb3" stroke="black" points="181.54,-122 24.46,-122 24.46,-86 181.54,-86 181.54,-122"/>
<text text-anchor="middle" x="103" y="-99.8" font-family="Times,serif" font-size="14.00">ListHelpPageComponent</text>
</g>
<!-- ListHelpPageComponent&#45;&gt;HelpPagesModule -->
<g id="edge3" class="edge">
<title>ListHelpPageComponent&#45;&gt;HelpPagesModule</title>
<path fill="none" stroke="black" d="M103,-122.28C103,-143.32 103,-175 103,-175 103,-175 398.14,-175 398.14,-175"/>
<polygon fill="black" stroke="black" points="398.14,-178.5 408.14,-175 398.14,-171.5 398.14,-178.5"/>
</g>
<!-- HelpPagesRoutingModule -->
<g id="node5" class="node">
<title>HelpPagesRoutingModule</title>
<polygon fill="#8dd3c7" stroke="black" points="872.04,-122 869.04,-126 848.04,-126 845.04,-122 707.96,-122 707.96,-86 872.04,-86 872.04,-122"/>
<text text-anchor="middle" x="790" y="-99.8" font-family="Times,serif" font-size="14.00">HelpPagesRoutingModule</text>
</g>
<!-- HelpPagesRoutingModule&#45;&gt;HelpPagesModule -->
<g id="edge4" class="edge">
<title>HelpPagesRoutingModule&#45;&gt;HelpPagesModule</title>
<path fill="none" stroke="black" d="M790,-122.28C790,-143.32 790,-175 790,-175 790,-175 537.81,-175 537.81,-175"/>
<polygon fill="black" stroke="black" points="537.81,-171.5 527.81,-175 537.81,-178.5 537.81,-171.5"/>
</g>
<!-- SharedLibModule -->
<g id="node6" class="node">
<title>SharedLibModule</title>
<polygon fill="#8dd3c7" stroke="black" points="689.87,-122 686.87,-126 665.87,-126 662.87,-122 572.13,-122 572.13,-86 689.87,-86 689.87,-122"/>
<text text-anchor="middle" x="631" y="-99.8" font-family="Times,serif" font-size="14.00">SharedLibModule</text>
</g>
<!-- SharedLibModule&#45;&gt;HelpPagesModule -->
<g id="edge5" class="edge">
<title>SharedLibModule&#45;&gt;HelpPagesModule</title>
<path fill="none" stroke="black" d="M631,-122.02C631,-139.37 631,-163 631,-163 631,-163 537.77,-163 537.77,-163"/>
<polygon fill="black" stroke="black" points="537.77,-159.5 527.77,-163 537.77,-166.5 537.77,-159.5"/>
</g>
</g>
</svg>
