<?xml version="1.0" encoding="UTF-8" standalone="no"?>
<!DOCTYPE svg PUBLIC "-//W3C//DTD SVG 1.1//EN"
 "http://www.w3.org/Graphics/SVG/1.1/DTD/svg11.dtd">
<!-- Generated by graphviz version 2.47.0 (20210316.0004)
 -->
<!-- Title: dependencies Pages: 1 -->
<svg width="618pt" height="211pt"
 viewBox="0.00 0.00 618.00 211.00" xmlns="http://www.w3.org/2000/svg" xmlns:xlink="http://www.w3.org/1999/xlink">
<g id="graph0" class="graph" transform="scale(1 1) rotate(0) translate(4 207)">
<title>dependencies</title>
<polygon fill="white" stroke="transparent" points="-4,4 -4,-207 614,-207 614,4 -4,4"/>
<text text-anchor="start" x="284.01" y="-42.4" font-family="Times-12" font-weight="bold" font-size="14.00">Legend</text>
<polygon fill="#ffffb3" stroke="transparent" points="71,-10 71,-30 91,-30 91,-10 71,-10"/>
<text text-anchor="start" x="94.63" y="-15.4" font-family="Times-12" font-size="14.00"> &#160;Declarations</text>
<polygon fill="#8dd3c7" stroke="transparent" points="184,-10 184,-30 204,-30 204,-10 184,-10"/>
<text text-anchor="start" x="207.73" y="-15.4" font-family="Times-12" font-size="14.00"> &#160;Module</text>
<polygon fill="#80b1d3" stroke="transparent" points="270,-10 270,-30 290,-30 290,-10 270,-10"/>
<text text-anchor="start" x="293.78" y="-15.4" font-family="Times-12" font-size="14.00"> &#160;Bootstrap</text>
<polygon fill="#fdb462" stroke="transparent" points="367,-10 367,-30 387,-30 387,-10 367,-10"/>
<text text-anchor="start" x="390.67" y="-15.4" font-family="Times-12" font-size="14.00"> &#160;Providers</text>
<polygon fill="#fb8072" stroke="transparent" points="463,-10 463,-30 483,-30 483,-10 463,-10"/>
<text text-anchor="start" x="486.73" y="-15.4" font-family="Times-12" font-size="14.00"> &#160;Exports</text>
<g id="clust1" class="cluster">
<title>cluster_ReportsModule</title>
<polygon fill="none" stroke="black" stroke-dasharray="1,5" points="8,-70 8,-195 602,-195 602,-70 8,-70"/>
</g>
<g id="clust5" class="cluster">
<title>cluster_ReportsModule_imports</title>
<polygon fill="none" stroke="black" points="460,-78 460,-130 594,-130 594,-78 460,-78"/>
</g>
<g id="clust2" class="cluster">
<title>cluster_ReportsModule_declarations</title>
<polygon fill="none" stroke="black" points="16,-78 16,-130 452,-130 452,-78 16,-78"/>
</g>
<!-- BankAccountStatementComponent -->
<g id="node1" class="node">
<title>BankAccountStatementComponent</title>
<polygon fill="#ffffb3" stroke="black" points="444.3,-122 229.7,-122 229.7,-86 444.3,-86 444.3,-122"/>
<text text-anchor="middle" x="337" y="-99.8" font-family="Times,serif" font-size="14.00">BankAccountStatementComponent</text>
</g>
<!-- ReportsModule -->
<g id="node3" class="node">
<title>ReportsModule</title>
<polygon fill="#8dd3c7" stroke="black" points="388.6,-187 385.6,-191 364.6,-191 361.6,-187 285.4,-187 285.4,-151 388.6,-151 388.6,-187"/>
<text text-anchor="middle" x="337" y="-164.8" font-family="Times,serif" font-size="14.00">ReportsModule</text>
</g>
<!-- BankAccountStatementComponent&#45;&gt;ReportsModule -->
<g id="edge1" class="edge">
<title>BankAccountStatementComponent&#45;&gt;ReportsModule</title>
<path fill="none" stroke="black" d="M337,-122.11C337,-122.11 337,-140.99 337,-140.99"/>
<polygon fill="black" stroke="black" points="333.5,-140.99 337,-150.99 340.5,-140.99 333.5,-140.99"/>
</g>
<!-- TreasuryStatementComponent -->
<g id="node2" class="node">
<title>TreasuryStatementComponent</title>
<polygon fill="#ffffb3" stroke="black" points="211.57,-122 24.43,-122 24.43,-86 211.57,-86 211.57,-122"/>
<text text-anchor="middle" x="118" y="-99.8" font-family="Times,serif" font-size="14.00">TreasuryStatementComponent</text>
</g>
<!-- TreasuryStatementComponent&#45;&gt;ReportsModule -->
<g id="edge2" class="edge">
<title>TreasuryStatementComponent&#45;&gt;ReportsModule</title>
<path fill="none" stroke="black" d="M118,-122.11C118,-141.34 118,-169 118,-169 118,-169 275.38,-169 275.38,-169"/>
<polygon fill="black" stroke="black" points="275.38,-172.5 285.38,-169 275.38,-165.5 275.38,-172.5"/>
</g>
<!-- SharedLibModule -->
<g id="node4" class="node">
<title>SharedLibModule</title>
<polygon fill="#8dd3c7" stroke="black" points="585.87,-122 582.87,-126 561.87,-126 558.87,-122 468.13,-122 468.13,-86 585.87,-86 585.87,-122"/>
<text text-anchor="middle" x="527" y="-99.8" font-family="Times,serif" font-size="14.00">SharedLibModule</text>
</g>
<!-- SharedLibModule&#45;&gt;ReportsModule -->
<g id="edge3" class="edge">
<title>SharedLibModule&#45;&gt;ReportsModule</title>
<path fill="none" stroke="black" d="M527,-122.11C527,-141.34 527,-169 527,-169 527,-169 398.67,-169 398.67,-169"/>
<polygon fill="black" stroke="black" points="398.67,-165.5 388.67,-169 398.67,-172.5 398.67,-165.5"/>
</g>
</g>
</svg>
