<?xml version="1.0" encoding="UTF-8" standalone="no"?>
<!DOCTYPE svg PUBLIC "-//W3C//DTD SVG 1.1//EN"
 "http://www.w3.org/Graphics/SVG/1.1/DTD/svg11.dtd">
<!-- Generated by graphviz version 2.47.0 (20210316.0004)
 -->
<!-- Title: dependencies Pages: 1 -->
<svg width="1258pt" height="211pt"
 viewBox="0.00 0.00 1258.00 211.00" xmlns="http://www.w3.org/2000/svg" xmlns:xlink="http://www.w3.org/1999/xlink">
<g id="graph0" class="graph" transform="scale(1 1) rotate(0) translate(4 207)">
<title>dependencies</title>
<polygon fill="white" stroke="transparent" points="-4,4 -4,-207 1254,-207 1254,4 -4,4"/>
<text text-anchor="start" x="604.01" y="-42.4" font-family="Times-12" font-weight="bold" font-size="14.00">Legend</text>
<polygon fill="#ffffb3" stroke="transparent" points="391,-10 391,-30 411,-30 411,-10 391,-10"/>
<text text-anchor="start" x="414.63" y="-15.4" font-family="Times-12" font-size="14.00"> &#160;Declarations</text>
<polygon fill="#8dd3c7" stroke="transparent" points="504,-10 504,-30 524,-30 524,-10 504,-10"/>
<text text-anchor="start" x="527.73" y="-15.4" font-family="Times-12" font-size="14.00"> &#160;Module</text>
<polygon fill="#80b1d3" stroke="transparent" points="590,-10 590,-30 610,-30 610,-10 590,-10"/>
<text text-anchor="start" x="613.78" y="-15.4" font-family="Times-12" font-size="14.00"> &#160;Bootstrap</text>
<polygon fill="#fdb462" stroke="transparent" points="687,-10 687,-30 707,-30 707,-10 687,-10"/>
<text text-anchor="start" x="710.67" y="-15.4" font-family="Times-12" font-size="14.00"> &#160;Providers</text>
<polygon fill="#fb8072" stroke="transparent" points="783,-10 783,-30 803,-30 803,-10 783,-10"/>
<text text-anchor="start" x="806.73" y="-15.4" font-family="Times-12" font-size="14.00"> &#160;Exports</text>
<g id="clust1" class="cluster">
<title>cluster_EmployeeModule</title>
<polygon fill="none" stroke="black" stroke-dasharray="1,5" points="8,-70 8,-195 1242,-195 1242,-70 8,-70"/>
</g>
<g id="clust11" class="cluster">
<title>cluster_EmployeeModule_providers</title>
<polygon fill="none" stroke="black" points="1086,-78 1086,-130 1234,-130 1234,-78 1086,-78"/>
</g>
<g id="clust2" class="cluster">
<title>cluster_EmployeeModule_declarations</title>
<polygon fill="none" stroke="black" points="158,-78 158,-130 1078,-130 1078,-78 158,-78"/>
</g>
<g id="clust8" class="cluster">
<title>cluster_EmployeeModule_imports</title>
<polygon fill="none" stroke="black" points="16,-78 16,-130 150,-130 150,-78 16,-78"/>
</g>
<!-- CreateEmployeeComponent -->
<g id="node1" class="node">
<title>CreateEmployeeComponent</title>
<polygon fill="#ffffb3" stroke="black" points="1070.13,-122 895.87,-122 895.87,-86 1070.13,-86 1070.13,-122"/>
<text text-anchor="middle" x="983" y="-99.8" font-family="Times,serif" font-size="14.00">CreateEmployeeComponent</text>
</g>
<!-- EmployeeModule -->
<g id="node6" class="node">
<title>EmployeeModule</title>
<polygon fill="#8dd3c7" stroke="black" points="676.31,-187 673.31,-191 652.31,-191 649.31,-187 559.69,-187 559.69,-151 676.31,-151 676.31,-187"/>
<text text-anchor="middle" x="618" y="-164.8" font-family="Times,serif" font-size="14.00">EmployeeModule</text>
</g>
<!-- CreateEmployeeComponent&#45;&gt;EmployeeModule -->
<g id="edge1" class="edge">
<title>CreateEmployeeComponent&#45;&gt;EmployeeModule</title>
<path fill="none" stroke="black" d="M983,-122.11C983,-141.34 983,-169 983,-169 983,-169 686.24,-169 686.24,-169"/>
<polygon fill="black" stroke="black" points="686.24,-165.5 676.24,-169 686.24,-172.5 686.24,-165.5"/>
</g>
<!-- EditEmployeeComponent -->
<g id="node2" class="node">
<title>EditEmployeeComponent</title>
<polygon fill="#ffffb3" stroke="black" points="877.93,-122 716.07,-122 716.07,-86 877.93,-86 877.93,-122"/>
<text text-anchor="middle" x="797" y="-99.8" font-family="Times,serif" font-size="14.00">EditEmployeeComponent</text>
</g>
<!-- EditEmployeeComponent&#45;&gt;EmployeeModule -->
<g id="edge2" class="edge">
<title>EditEmployeeComponent&#45;&gt;EmployeeModule</title>
<path fill="none" stroke="black" d="M797,-122.03C797,-138.4 797,-160 797,-160 797,-160 686.61,-160 686.61,-160"/>
<polygon fill="black" stroke="black" points="686.61,-156.5 676.61,-160 686.61,-163.5 686.61,-156.5"/>
</g>
<!-- EmployeeListComponent -->
<g id="node3" class="node">
<title>EmployeeListComponent</title>
<polygon fill="#ffffb3" stroke="black" points="697.87,-122 538.13,-122 538.13,-86 697.87,-86 697.87,-122"/>
<text text-anchor="middle" x="618" y="-99.8" font-family="Times,serif" font-size="14.00">EmployeeListComponent</text>
</g>
<!-- EmployeeListComponent&#45;&gt;EmployeeModule -->
<g id="edge3" class="edge">
<title>EmployeeListComponent&#45;&gt;EmployeeModule</title>
<path fill="none" stroke="black" d="M618,-122.11C618,-122.11 618,-140.99 618,-140.99"/>
<polygon fill="black" stroke="black" points="614.5,-140.99 618,-150.99 621.5,-140.99 614.5,-140.99"/>
</g>
<!-- MainEmployeeComponent -->
<g id="node4" class="node">
<title>MainEmployeeComponent</title>
<polygon fill="#ffffb3" stroke="black" points="519.65,-122 352.35,-122 352.35,-86 519.65,-86 519.65,-122"/>
<text text-anchor="middle" x="436" y="-99.8" font-family="Times,serif" font-size="14.00">MainEmployeeComponent</text>
</g>
<!-- MainEmployeeComponent&#45;&gt;EmployeeModule -->
<g id="edge4" class="edge">
<title>MainEmployeeComponent&#45;&gt;EmployeeModule</title>
<path fill="none" stroke="black" d="M436,-122.03C436,-138.4 436,-160 436,-160 436,-160 549.66,-160 549.66,-160"/>
<polygon fill="black" stroke="black" points="549.66,-163.5 559.66,-160 549.66,-156.5 549.66,-163.5"/>
</g>
<!-- ViewEmployeeComponent -->
<g id="node5" class="node">
<title>ViewEmployeeComponent</title>
<polygon fill="#ffffb3" stroke="black" points="334.41,-122 165.59,-122 165.59,-86 334.41,-86 334.41,-122"/>
<text text-anchor="middle" x="250" y="-99.8" font-family="Times,serif" font-size="14.00">ViewEmployeeComponent</text>
</g>
<!-- ViewEmployeeComponent&#45;&gt;EmployeeModule -->
<g id="edge5" class="edge">
<title>ViewEmployeeComponent&#45;&gt;EmployeeModule</title>
<path fill="none" stroke="black" d="M250,-122.11C250,-141.34 250,-169 250,-169 250,-169 549.69,-169 549.69,-169"/>
<polygon fill="black" stroke="black" points="549.69,-172.5 559.69,-169 549.69,-165.5 549.69,-172.5"/>
</g>
<!-- SharedLibModule -->
<g id="node7" class="node">
<title>SharedLibModule</title>
<polygon fill="#8dd3c7" stroke="black" points="141.87,-122 138.87,-126 117.87,-126 114.87,-122 24.13,-122 24.13,-86 141.87,-86 141.87,-122"/>
<text text-anchor="middle" x="83" y="-99.8" font-family="Times,serif" font-size="14.00">SharedLibModule</text>
</g>
<!-- SharedLibModule&#45;&gt;EmployeeModule -->
<g id="edge6" class="edge">
<title>SharedLibModule&#45;&gt;EmployeeModule</title>
<path fill="none" stroke="black" d="M83,-122.29C83,-144.21 83,-178 83,-178 83,-178 549.73,-178 549.73,-178"/>
<polygon fill="black" stroke="black" points="549.73,-181.5 559.73,-178 549.73,-174.5 549.73,-181.5"/>
</g>
<!-- RouterService -->
<g id="node8" class="node">
<title>RouterService</title>
<ellipse fill="#fdb462" stroke="black" cx="1160" cy="-104" rx="66.05" ry="18"/>
<text text-anchor="middle" x="1160" y="-99.8" font-family="Times,serif" font-size="14.00">RouterService</text>
</g>
<!-- RouterService&#45;&gt;EmployeeModule -->
<g id="edge7" class="edge">
<title>RouterService&#45;&gt;EmployeeModule</title>
<path fill="none" stroke="black" d="M1160,-122.29C1160,-144.21 1160,-178 1160,-178 1160,-178 686.26,-178 686.26,-178"/>
<polygon fill="black" stroke="black" points="686.26,-174.5 676.26,-178 686.26,-181.5 686.26,-174.5"/>
</g>
</g>
</svg>
