<?xml version="1.0" encoding="UTF-8" standalone="no"?>
<!DOCTYPE svg PUBLIC "-//W3C//DTD SVG 1.1//EN"
 "http://www.w3.org/Graphics/SVG/1.1/DTD/svg11.dtd">
<!-- Generated by graphviz version 2.47.0 (20210316.0004)
 -->
<!-- Title: dependencies Pages: 1 -->
<svg width="1319pt" height="211pt"
 viewBox="0.00 0.00 1319.00 211.00" xmlns="http://www.w3.org/2000/svg" xmlns:xlink="http://www.w3.org/1999/xlink">
<g id="graph0" class="graph" transform="scale(1 1) rotate(0) translate(4 207)">
<title>dependencies</title>
<polygon fill="white" stroke="transparent" points="-4,4 -4,-207 1315,-207 1315,4 -4,4"/>
<text text-anchor="start" x="634.51" y="-42.4" font-family="Times-12" font-weight="bold" font-size="14.00">Legend</text>
<polygon fill="#ffffb3" stroke="transparent" points="421.5,-10 421.5,-30 441.5,-30 441.5,-10 421.5,-10"/>
<text text-anchor="start" x="445.13" y="-15.4" font-family="Times-12" font-size="14.00"> &#160;Declarations</text>
<polygon fill="#8dd3c7" stroke="transparent" points="534.5,-10 534.5,-30 554.5,-30 554.5,-10 534.5,-10"/>
<text text-anchor="start" x="558.23" y="-15.4" font-family="Times-12" font-size="14.00"> &#160;Module</text>
<polygon fill="#80b1d3" stroke="transparent" points="620.5,-10 620.5,-30 640.5,-30 640.5,-10 620.5,-10"/>
<text text-anchor="start" x="644.28" y="-15.4" font-family="Times-12" font-size="14.00"> &#160;Bootstrap</text>
<polygon fill="#fdb462" stroke="transparent" points="717.5,-10 717.5,-30 737.5,-30 737.5,-10 717.5,-10"/>
<text text-anchor="start" x="741.17" y="-15.4" font-family="Times-12" font-size="14.00"> &#160;Providers</text>
<polygon fill="#fb8072" stroke="transparent" points="813.5,-10 813.5,-30 833.5,-30 833.5,-10 813.5,-10"/>
<text text-anchor="start" x="837.23" y="-15.4" font-family="Times-12" font-size="14.00"> &#160;Exports</text>
<g id="clust1" class="cluster">
<title>cluster_WizardsModule</title>
<polygon fill="none" stroke="black" stroke-dasharray="1,5" points="8,-70 8,-195 1303,-195 1303,-70 8,-70"/>
</g>
<g id="clust2" class="cluster">
<title>cluster_WizardsModule_declarations</title>
<polygon fill="none" stroke="black" points="192,-78 192,-130 1295,-130 1295,-78 192,-78"/>
</g>
<g id="clust11" class="cluster">
<title>cluster_WizardsModule_imports</title>
<polygon fill="none" stroke="black" points="16,-78 16,-130 184,-130 184,-78 16,-78"/>
</g>
<!-- HorizontalComponent -->
<g id="node1" class="node">
<title>HorizontalComponent</title>
<polygon fill="#ffffb3" stroke="black" points="1286.7,-122 1145.3,-122 1145.3,-86 1286.7,-86 1286.7,-122"/>
<text text-anchor="middle" x="1216" y="-99.8" font-family="Times,serif" font-size="14.00">HorizontalComponent</text>
</g>
<!-- WizardsModule -->
<g id="node9" class="node">
<title>WizardsModule</title>
<polygon fill="#8dd3c7" stroke="black" points="731.19,-187 728.19,-191 707.19,-191 704.19,-187 624.81,-187 624.81,-151 731.19,-151 731.19,-187"/>
<text text-anchor="middle" x="678" y="-164.8" font-family="Times,serif" font-size="14.00">WizardsModule</text>
</g>
<!-- HorizontalComponent&#45;&gt;WizardsModule -->
<g id="edge1" class="edge">
<title>HorizontalComponent&#45;&gt;WizardsModule</title>
<path fill="none" stroke="black" d="M1216,-122.01C1216,-144.49 1216,-180 1216,-180 1216,-180 741.55,-180 741.55,-180"/>
<polygon fill="black" stroke="black" points="741.55,-176.5 731.55,-180 741.55,-183.5 741.55,-176.5"/>
</g>
<!-- Step1Component -->
<g id="node2" class="node">
<title>Step1Component</title>
<polygon fill="#ffffb3" stroke="black" points="1127.72,-122 1014.28,-122 1014.28,-86 1127.72,-86 1127.72,-122"/>
<text text-anchor="middle" x="1071" y="-99.8" font-family="Times,serif" font-size="14.00">Step1Component</text>
</g>
<!-- Step1Component&#45;&gt;WizardsModule -->
<g id="edge2" class="edge">
<title>Step1Component&#45;&gt;WizardsModule</title>
<path fill="none" stroke="black" d="M1071,-122.13C1071,-142.57 1071,-173 1071,-173 1071,-173 741.41,-173 741.41,-173"/>
<polygon fill="black" stroke="black" points="741.41,-169.5 731.41,-173 741.41,-176.5 741.41,-169.5"/>
</g>
<!-- Step2Component -->
<g id="node3" class="node">
<title>Step2Component</title>
<polygon fill="#ffffb3" stroke="black" points="996.72,-122 883.28,-122 883.28,-86 996.72,-86 996.72,-122"/>
<text text-anchor="middle" x="940" y="-99.8" font-family="Times,serif" font-size="14.00">Step2Component</text>
</g>
<!-- Step2Component&#45;&gt;WizardsModule -->
<g id="edge3" class="edge">
<title>Step2Component&#45;&gt;WizardsModule</title>
<path fill="none" stroke="black" d="M940,-122.27C940,-140.56 940,-166 940,-166 940,-166 741.34,-166 741.34,-166"/>
<polygon fill="black" stroke="black" points="741.34,-162.5 731.34,-166 741.34,-169.5 741.34,-162.5"/>
</g>
<!-- Step3Component -->
<g id="node4" class="node">
<title>Step3Component</title>
<polygon fill="#ffffb3" stroke="black" points="865.72,-122 752.28,-122 752.28,-86 865.72,-86 865.72,-122"/>
<text text-anchor="middle" x="809" y="-99.8" font-family="Times,serif" font-size="14.00">Step3Component</text>
</g>
<!-- Step3Component&#45;&gt;WizardsModule -->
<g id="edge4" class="edge">
<title>Step3Component&#45;&gt;WizardsModule</title>
<path fill="none" stroke="black" d="M809,-122.01C809,-138.05 809,-159 809,-159 809,-159 741.28,-159 741.28,-159"/>
<polygon fill="black" stroke="black" points="741.28,-155.5 731.28,-159 741.28,-162.5 741.28,-155.5"/>
</g>
<!-- Step4Component -->
<g id="node5" class="node">
<title>Step4Component</title>
<polygon fill="#ffffb3" stroke="black" points="734.72,-122 621.28,-122 621.28,-86 734.72,-86 734.72,-122"/>
<text text-anchor="middle" x="678" y="-99.8" font-family="Times,serif" font-size="14.00">Step4Component</text>
</g>
<!-- Step4Component&#45;&gt;WizardsModule -->
<g id="edge5" class="edge">
<title>Step4Component&#45;&gt;WizardsModule</title>
<path fill="none" stroke="black" d="M678,-122.11C678,-122.11 678,-140.99 678,-140.99"/>
<polygon fill="black" stroke="black" points="674.5,-140.99 678,-150.99 681.5,-140.99 674.5,-140.99"/>
</g>
<!-- Step5Component -->
<g id="node6" class="node">
<title>Step5Component</title>
<polygon fill="#ffffb3" stroke="black" points="603.72,-122 490.28,-122 490.28,-86 603.72,-86 603.72,-122"/>
<text text-anchor="middle" x="547" y="-99.8" font-family="Times,serif" font-size="14.00">Step5Component</text>
</g>
<!-- Step5Component&#45;&gt;WizardsModule -->
<g id="edge6" class="edge">
<title>Step5Component&#45;&gt;WizardsModule</title>
<path fill="none" stroke="black" d="M547,-122.01C547,-138.05 547,-159 547,-159 547,-159 614.72,-159 614.72,-159"/>
<polygon fill="black" stroke="black" points="614.72,-162.5 624.72,-159 614.72,-155.5 614.72,-162.5"/>
</g>
<!-- VerticalComponent -->
<g id="node7" class="node">
<title>VerticalComponent</title>
<polygon fill="#ffffb3" stroke="black" points="472.42,-122 345.58,-122 345.58,-86 472.42,-86 472.42,-122"/>
<text text-anchor="middle" x="409" y="-99.8" font-family="Times,serif" font-size="14.00">VerticalComponent</text>
</g>
<!-- VerticalComponent&#45;&gt;WizardsModule -->
<g id="edge7" class="edge">
<title>VerticalComponent&#45;&gt;WizardsModule</title>
<path fill="none" stroke="black" d="M409,-122.27C409,-140.56 409,-166 409,-166 409,-166 614.85,-166 614.85,-166"/>
<polygon fill="black" stroke="black" points="614.85,-169.5 624.85,-166 614.85,-162.5 614.85,-169.5"/>
</g>
<!-- WizardsComponent -->
<g id="node8" class="node">
<title>WizardsComponent</title>
<polygon fill="#ffffb3" stroke="black" points="327.97,-122 200.03,-122 200.03,-86 327.97,-86 327.97,-122"/>
<text text-anchor="middle" x="264" y="-99.8" font-family="Times,serif" font-size="14.00">WizardsComponent</text>
</g>
<!-- WizardsComponent&#45;&gt;WizardsModule -->
<g id="edge8" class="edge">
<title>WizardsComponent&#45;&gt;WizardsModule</title>
<path fill="none" stroke="black" d="M264,-122.13C264,-142.57 264,-173 264,-173 264,-173 614.72,-173 614.72,-173"/>
<polygon fill="black" stroke="black" points="614.72,-176.5 624.72,-173 614.72,-169.5 614.72,-176.5"/>
</g>
<!-- WizardsRoutingModule -->
<g id="node10" class="node">
<title>WizardsRoutingModule</title>
<polygon fill="#8dd3c7" stroke="black" points="175.81,-122 172.81,-126 151.81,-126 148.81,-122 24.19,-122 24.19,-86 175.81,-86 175.81,-122"/>
<text text-anchor="middle" x="100" y="-99.8" font-family="Times,serif" font-size="14.00">WizardsRoutingModule</text>
</g>
<!-- WizardsRoutingModule&#45;&gt;WizardsModule -->
<g id="edge9" class="edge">
<title>WizardsRoutingModule&#45;&gt;WizardsModule</title>
<path fill="none" stroke="black" d="M100,-122.01C100,-144.49 100,-180 100,-180 100,-180 614.66,-180 614.66,-180"/>
<polygon fill="black" stroke="black" points="614.66,-183.5 624.66,-180 614.66,-176.5 614.66,-183.5"/>
</g>
</g>
</svg>
