<svg width="33" height="33" viewBox="0 0 33 33" fill="none" xmlns="http://www.w3.org/2000/svg">
<rect x="0.540039" y="0.5" width="32" height="32" rx="16" fill="#CB3F2D" fill-opacity="0.2"/>
<path d="M21.5399 11.5018C21.3836 11.3456 21.1717 11.2578 20.9507 11.2578C20.7298 11.2578 20.5178 11.3456 20.3616 11.5018L16.5399 15.3235L12.7182 11.5018C12.5619 11.3456 12.35 11.2578 12.1291 11.2578C11.9081 11.2578 11.6962 11.3456 11.5399 11.5018C11.3837 11.6581 11.2959 11.87 11.2959 12.091C11.2959 12.3119 11.3837 12.5239 11.5399 12.6801L15.3616 16.5018L11.5399 20.3235C11.3837 20.4797 11.2959 20.6917 11.2959 20.9126C11.2959 21.1336 11.3837 21.3455 11.5399 21.5018C11.6962 21.658 11.9081 21.7458 12.1291 21.7458C12.35 21.7458 12.5619 21.658 12.7182 21.5018L16.5399 17.6801L20.3616 21.5018C20.5178 21.658 20.7298 21.7458 20.9507 21.7458C21.1717 21.7458 21.3836 21.658 21.5399 21.5018C21.6961 21.3455 21.7839 21.1336 21.7839 20.9126C21.7839 20.6917 21.6961 20.4797 21.5399 20.3235L17.7182 16.5018L21.5399 12.6801C21.6961 12.5239 21.7839 12.3119 21.7839 12.091C21.7839 11.87 21.6961 11.6581 21.5399 11.5018Z" fill="#CB3F2D"/>
</svg>
