<svg width="119" height="16" viewBox="0 0 119 16" fill="none" xmlns="http://www.w3.org/2000/svg">
<g clip-path="url(#clip0_9795_118152)">
<path d="M52.1309 6.48675V9.84626C52.1309 12.9194 54.6701 15.4111 57.8019 15.4111H60.9969C64.1287 15.4111 66.6679 12.9194 66.6679 9.84626V6.48675C66.6679 3.41361 64.1287 0.921875 60.9969 0.921875H57.8019C54.6701 0.920636 52.1309 3.41237 52.1309 6.48675ZM57.6769 3.11361H61.1232C63.0864 3.11361 64.6782 4.67559 64.6782 6.60204V9.86485C64.6782 11.7913 63.0864 13.3533 61.1232 13.3533H57.6769C55.7137 13.3533 54.1219 11.7913 54.1219 9.86485V6.60204C54.1219 4.67435 55.7137 3.11361 57.6769 3.11361Z" fill="white"/>
<path d="M81.7987 1.26775C82.0274 1.49833 82.1424 1.7723 82.1424 2.08717C82.1424 2.40329 82.0274 2.67354 81.7987 2.89792C81.5701 3.1223 81.2947 3.23511 80.9725 3.23511H76.3513V14.3178C76.3513 14.645 76.2363 14.9215 76.0077 15.1459C75.779 15.3702 75.5036 15.483 75.1814 15.483C74.8593 15.483 74.5814 15.3715 74.3464 15.1459C74.1114 14.9215 73.9939 14.645 73.9939 14.3178V3.23511H69.3916C69.0695 3.23511 68.7915 3.12354 68.5566 2.89792C68.3216 2.67354 68.2041 2.40329 68.2041 2.08717C68.2041 1.77106 68.3216 1.49833 68.5566 1.26775C68.7915 1.03717 69.0695 0.921885 69.3916 0.921885H80.9725C81.2947 0.920645 81.5701 1.03717 81.7987 1.26775Z" fill="white"/>
<path d="M95.9844 0.921875C96.3066 0.921875 96.5845 1.03716 96.8195 1.26774C97.0545 1.49832 97.172 1.77229 97.172 2.08716C97.172 2.40328 97.0545 2.67353 96.8195 2.89791C96.5845 3.12229 96.3053 3.2351 95.9844 3.2351H84.4023C84.0801 3.2351 83.8047 3.12353 83.576 2.89791C83.3474 2.67353 83.2324 2.40328 83.2324 2.08716C83.2324 1.77105 83.3461 1.49832 83.576 1.26774C83.8047 1.03716 84.0801 0.921875 84.4023 0.921875H95.9844Z" fill="white"/>
<path d="M48.0605 7.7554C48.7098 8.31945 49.1836 9.07317 49.3958 9.9273V14.2215C49.3958 14.5364 49.2783 14.8104 49.0433 15.0409C48.8083 15.2715 48.5304 15.3868 48.2095 15.3868C47.8874 15.3868 47.612 15.2703 47.3833 15.0409C47.2924 14.9504 47.2191 14.8513 47.166 14.7459C47.0814 14.586 47.0397 14.4112 47.0397 14.2215V10.7294C47.0397 10.5087 46.9993 10.2992 46.9235 10.1046C46.7112 9.54796 46.2223 9.12523 45.6222 8.99631C45.4959 8.96903 45.3658 8.95416 45.2319 8.95416H37.7353V14.2215C37.7353 14.5364 37.6178 14.8104 37.3841 15.0409C37.2881 15.1339 37.1857 15.2083 37.0758 15.2641C36.9154 15.3471 36.7398 15.388 36.5478 15.388C36.2256 15.388 35.9502 15.2715 35.7228 15.0422C35.4929 14.8104 35.3779 14.5376 35.3779 14.2228V7.89176C35.3779 7.65498 35.4424 7.44424 35.5712 7.25953C35.6142 7.19755 35.6647 7.13804 35.7228 7.08226C35.7708 7.03515 35.8188 6.99424 35.8706 6.95705C36.093 6.74879 36.3557 6.64341 36.6615 6.64341H45.2306C45.2571 6.64341 45.2837 6.64341 45.3089 6.64093C46.2223 6.60374 46.9601 5.90085 47.0321 5.01201C47.0359 4.9649 47.0384 4.91779 47.0384 4.86945V3.14011H36.6615C36.3406 3.14011 36.0639 3.0273 35.8365 2.80292C35.6066 2.5773 35.4929 2.30829 35.4929 1.99341C35.4929 1.6773 35.6066 1.40333 35.8365 1.17399C36.0652 0.942174 36.3406 0.828125 36.6615 0.828125H48.2424C48.5633 0.828125 48.8425 0.943413 49.0774 1.17399C49.3124 1.40457 49.4299 1.6773 49.4299 1.99341C49.4299 2.08639 49.4185 3.76118 49.411 5.24383C49.2669 6.23184 48.7755 7.10953 48.0605 7.7554Z" fill="white"/>
<path d="M95.9844 6.625C96.3066 6.625 96.5845 6.74029 96.8195 6.97087C97.0545 7.20145 97.172 7.47541 97.172 7.79029C97.172 8.10641 97.0545 8.37665 96.8195 8.60103C96.5845 8.82541 96.3053 8.93822 95.9844 8.93822H84.4023C84.0801 8.93822 83.8047 8.82665 83.576 8.60103C83.3474 8.37665 83.2324 8.10641 83.2324 7.79029C83.2324 7.47417 83.3461 7.20145 83.576 6.97087C83.8047 6.74029 84.0801 6.625 84.4023 6.625H95.9844Z" fill="white"/>
<path d="M19.2197 14.1529C19.2197 14.469 19.1022 14.7417 18.8672 14.9723C18.6322 15.2029 18.353 15.3182 18.0321 15.3182C17.71 15.3182 17.4346 15.2029 17.2059 14.9723C16.9773 14.7417 16.8623 14.4677 16.8623 14.1529V2.06981C16.8623 1.75369 16.976 1.48345 17.2059 1.25907C17.4346 1.03469 17.71 0.921875 18.0321 0.921875C18.3543 0.921875 18.6322 1.03345 18.8672 1.25907C19.1022 1.48345 19.2197 1.75369 19.2197 2.06981V14.1529Z" fill="white"/>
<path d="M15.7788 14.1534C15.7788 14.4695 15.6613 14.7435 15.4263 14.9729C15.1914 15.2047 14.9134 15.3187 14.5925 15.3187C14.2704 15.3187 13.995 15.2034 13.7663 14.9729C13.5377 14.7423 13.4227 14.4695 13.4227 14.1534V4.49392L9.45207 9.44021L8.82167 10.2262C8.37824 10.7778 7.52676 10.7778 7.08333 10.2262L6.45293 9.44021L2.44692 4.45054V14.1534C2.44692 14.4695 2.32817 14.7435 2.09446 14.9729C1.85821 15.2047 1.58028 15.3187 1.2594 15.3187C0.938513 15.3187 0.661844 15.2034 0.434445 14.9729C0.20452 14.7423 0.0908203 14.4695 0.0908203 14.1534C0.0908203 14.1534 0.0908203 5.38649 0.0920837 2.13111C0.0920837 1.46913 0.639104 0.933594 1.31372 0.933594H1.83042C2.24606 0.933594 2.64021 1.1183 2.90172 1.43566L7.95376 7.57202L12.9388 1.44186C13.2004 1.12078 13.597 0.933594 14.0152 0.933594H14.5812C15.2571 0.933594 15.8041 1.47161 15.8028 2.13359C15.7965 5.39021 15.7788 14.1534 15.7788 14.1534Z" fill="white"/>
<path d="M95.9844 13.1406C96.3066 13.1406 96.5845 13.2559 96.8195 13.4865C97.0545 13.7171 97.172 13.991 97.172 14.3059C97.172 14.622 97.0545 14.8923 96.8195 15.1167C96.5845 15.341 96.3053 15.4538 95.9844 15.4538H84.4023C84.0801 15.4538 83.8047 15.3423 83.576 15.1167C83.3474 14.8923 83.2324 14.622 83.2324 14.3059C83.2324 13.9898 83.3461 13.7171 83.576 13.4865C83.8047 13.2559 84.0801 13.1406 84.4023 13.1406H95.9844Z" fill="white"/>
<path d="M111.086 13.1425H102.943C101.69 13.1425 100.675 12.1458 100.675 10.9161V5.46898C100.675 4.23923 101.69 3.24254 102.943 3.24254H111.086C111.408 3.24254 111.686 3.13097 111.921 2.90535C112.156 2.68097 112.273 2.41072 112.273 2.0946C112.273 1.77849 112.156 1.50576 111.921 1.27518C111.686 1.0446 111.407 0.921875 111.086 0.921875H102.768C100.376 0.921875 98.4385 2.82353 98.4385 5.17022V11.2025C98.4385 13.5491 100.376 15.4508 102.768 15.4508H111.086C111.408 15.4508 111.686 15.3417 111.921 15.1173C112.156 14.8929 112.273 14.6227 112.273 14.3066C112.273 13.9905 112.156 13.7177 111.921 13.4872C111.686 13.2578 111.408 13.1425 111.086 13.1425Z" fill="white"/>
<path d="M33.0944 13.1425H24.9523C23.6991 13.1425 22.6834 12.1458 22.6834 10.9161V5.46898C22.6834 4.23923 23.6991 3.24254 24.9523 3.24254H33.0944C33.4166 3.24254 33.6945 3.13097 33.9295 2.90535C34.1645 2.68097 34.2819 2.41072 34.2819 2.0946C34.2819 1.77849 34.1645 1.50576 33.9295 1.27518C33.6945 1.0446 33.4153 0.921875 33.0944 0.921875H24.7767C22.3852 0.921875 20.4473 2.82353 20.4473 5.17022V11.2025C20.4473 13.5491 22.3852 15.4508 24.7767 15.4508H33.0944C33.4166 15.4508 33.6945 15.3417 33.9295 15.1173C34.1645 14.8929 34.2819 14.6227 34.2819 14.3066C34.2819 13.9905 34.1645 13.7177 33.9295 13.4872C33.6945 13.2578 33.4166 13.1425 33.0944 13.1425Z" fill="white"/>
<path d="M56.9346 6.86719H51.2471V7.22669H56.9346V6.86719Z" fill="white"/>
<path d="M67.6865 6.55078H61.999V6.91028H67.6865V6.55078Z" fill="white"/>
<path d="M67.4718 9.07031H61.2588V9.45461H67.4718V9.07031Z" fill="white"/>
<path d="M58.2964 9.45312H51.2471V9.81263H58.2964V9.45312Z" fill="white"/>
<path d="M59.8015 6.83203L59.1964 7.42583L58.7504 7.86344C58.5723 8.03823 58.331 8.13616 58.0796 8.13616H50.2217V8.61592H57.9836H58.1806C58.4965 8.61592 58.7997 8.49319 59.0233 8.27377L60.1615 7.15683C60.1059 6.99691 59.9708 6.8717 59.8015 6.83203Z" fill="white"/>
<path d="M61.1481 7.62233C60.826 7.62233 60.5165 7.74878 60.2878 7.97192L59.9758 8.27812L59.3555 8.8868C59.4035 9.05043 59.5336 9.17936 59.7016 9.22523L60.3207 8.61779L60.567 8.37605C60.7464 8.20002 60.9902 8.10085 61.2441 8.10085H69.0262V7.62109H61.1481V7.62233Z" fill="white"/>
<path d="M60.339 8.75387C60.339 9.02536 60.1141 9.24602 59.8375 9.24602C59.7895 9.24602 59.744 9.23982 59.701 9.22742C59.5343 9.18155 59.4029 9.05387 59.3549 8.88899C59.3423 8.8456 59.3359 8.79974 59.3359 8.75387C59.3359 8.48238 59.5608 8.26172 59.8375 8.26172C59.8855 8.26172 59.931 8.26916 59.9752 8.28031C60.1419 8.32742 60.2733 8.45511 60.3201 8.61998C60.3327 8.66089 60.339 8.70676 60.339 8.75387Z" fill="white"/>
<path d="M68.2716 9.26168C68.2716 9.53317 68.0468 9.75383 67.7701 9.75383C67.7221 9.75383 67.6766 9.74763 67.6337 9.73523C67.4669 9.68937 67.3355 9.56168 67.2875 9.3968C67.2749 9.35342 67.2686 9.30755 67.2686 9.26168C67.2686 8.99019 67.4934 8.76953 67.7701 8.76953C67.8181 8.76953 67.8636 8.77697 67.9078 8.78813C68.0746 8.83523 68.2059 8.96292 68.2527 9.1278C68.2653 9.1687 68.2716 9.21457 68.2716 9.26168Z" fill="white"/>
<path d="M60.184 7.31246C60.184 7.58395 59.9592 7.80461 59.6825 7.80461C59.6269 7.80461 59.5751 7.79593 59.5258 7.78106C59.3616 7.72775 59.2353 7.59511 59.1948 7.42899C59.1847 7.3918 59.1797 7.35213 59.1797 7.31246C59.1797 7.04097 59.4046 6.82031 59.6812 6.82031C59.7217 6.82031 59.7621 6.82527 59.8 6.83519C59.9693 6.87486 60.1057 6.99882 60.1588 7.15998C60.1752 7.20709 60.184 7.25791 60.184 7.31246Z" fill="white"/>
<path d="M50.5788 8.39877C50.5788 8.78059 50.263 9.0905 49.8739 9.0905C49.7968 9.0905 49.7235 9.07811 49.6541 9.05703C49.4241 8.98265 49.246 8.7967 49.1892 8.5624C49.1753 8.51034 49.1689 8.45455 49.1689 8.39877C49.1689 8.01695 49.4848 7.70703 49.8739 7.70703C49.9307 7.70703 49.9876 7.71323 50.0406 7.72687C50.2794 7.78265 50.4689 7.95744 50.5447 8.18306C50.5662 8.25125 50.5788 8.32315 50.5788 8.39877Z" fill="white"/>
<path d="M69.5983 7.79351C69.5983 8.1307 69.3204 8.40343 68.9767 8.40343C68.9085 8.40343 68.8441 8.39351 68.7835 8.37368C68.5813 8.30797 68.4234 8.14434 68.3741 7.93731C68.3615 7.89145 68.3564 7.84186 68.3564 7.79351C68.3564 7.45632 68.6344 7.18359 68.978 7.18359C69.0273 7.18359 69.0778 7.18979 69.1245 7.20095C69.3343 7.2493 69.5023 7.40426 69.5692 7.6026C69.5882 7.66211 69.5983 7.72657 69.5983 7.79351Z" fill="white"/>
<path d="M59.1088 9.63277C59.1088 9.90426 58.884 10.1249 58.6073 10.1249C58.5517 10.1249 58.4999 10.1162 58.4506 10.1014C58.2864 10.0481 58.1601 9.91542 58.1197 9.7493C58.1095 9.71211 58.1045 9.67244 58.1045 9.63277C58.1045 9.36129 58.3294 9.14062 58.606 9.14062C58.6465 9.14062 58.6869 9.14558 58.7248 9.1555C58.8941 9.19517 59.0305 9.31914 59.0836 9.4803C59.1 9.5274 59.1088 9.57947 59.1088 9.63277Z" fill="white"/>
<path d="M62.3706 6.73043C62.3706 7.00192 62.1457 7.22258 61.869 7.22258C61.8134 7.22258 61.7616 7.2139 61.7124 7.19902C61.5481 7.14572 61.4218 7.01308 61.3814 6.84696C61.3713 6.80977 61.3662 6.7701 61.3662 6.73043C61.3662 6.45894 61.5911 6.23828 61.8677 6.23828C61.9082 6.23828 61.9486 6.24324 61.9865 6.25316C62.1558 6.29283 62.2922 6.41679 62.3453 6.57795C62.3617 6.62506 62.3706 6.67588 62.3706 6.73043Z" fill="white"/>
<path d="M51.6293 7.04684C51.6293 7.31832 51.4045 7.53899 51.1278 7.53899C51.0722 7.53899 51.0204 7.53031 50.9711 7.51543C50.8069 7.46213 50.6806 7.32948 50.6402 7.16337C50.6301 7.12618 50.625 7.08651 50.625 7.04684C50.625 6.77535 50.8499 6.55469 51.1265 6.55469C51.167 6.55469 51.2074 6.55965 51.2453 6.56956C51.4146 6.60923 51.551 6.7332 51.6041 6.89436C51.6205 6.94147 51.6293 6.99229 51.6293 7.04684Z" fill="white"/>
<path d="M57.3572 7.04757C57.3572 7.23971 57.198 7.39591 57.0022 7.39591C56.963 7.39591 56.9264 7.38971 56.8923 7.37856C56.7773 7.34137 56.6863 7.24715 56.6585 7.12938C56.6522 7.10335 56.6484 7.07484 56.6484 7.04757C56.6484 6.85542 56.8076 6.69922 57.0034 6.69922C57.0325 6.69922 57.0603 6.70294 57.0868 6.70914C57.2068 6.73765 57.3028 6.82567 57.3407 6.93847C57.3508 6.97319 57.3572 7.00914 57.3572 7.04757Z" fill="white"/>
<path d="M68.1218 6.73116C68.1218 6.92331 67.9626 7.07951 67.7668 7.07951C67.7276 7.07951 67.691 7.07331 67.6569 7.06215C67.5419 7.02496 67.451 6.93075 67.4232 6.81298C67.4169 6.78694 67.4131 6.75843 67.4131 6.73116C67.4131 6.53901 67.5723 6.38281 67.7681 6.38281C67.7971 6.38281 67.8249 6.38653 67.8515 6.39273C67.9715 6.42124 68.0675 6.50926 68.1054 6.62207C68.1155 6.65678 68.1218 6.69273 68.1218 6.73116Z" fill="white"/>
<path d="M51.5134 9.57882C51.5134 9.77096 51.3542 9.92716 51.1584 9.92716C51.1193 9.92716 51.0826 9.92096 51.0485 9.90981C50.9335 9.87262 50.8426 9.7784 50.8148 9.66063C50.8085 9.6346 50.8047 9.60609 50.8047 9.57882C50.8047 9.38667 50.9639 9.23047 51.1597 9.23047C51.1887 9.23047 51.2165 9.23419 51.2431 9.24039C51.3631 9.2689 51.4591 9.35692 51.497 9.46973C51.5084 9.50444 51.5134 9.54163 51.5134 9.57882Z" fill="white"/>
<path d="M61.4665 9.26241C61.4665 9.45456 61.3074 9.61076 61.1115 9.61076C61.0724 9.61076 61.0357 9.60456 61.0016 9.5934C60.8867 9.55621 60.7957 9.462 60.7679 9.34423C60.7616 9.31819 60.7578 9.28968 60.7578 9.26241C60.7578 9.07026 60.917 8.91406 61.1128 8.91406C61.1419 8.91406 61.1697 8.91778 61.1962 8.92398C61.3162 8.95249 61.4122 9.04051 61.4501 9.15332C61.4602 9.18679 61.4665 9.22398 61.4665 9.26241Z" fill="white"/>
<path d="M116.786 3.75453C116.484 3.75453 116.205 3.68635 115.951 3.55123C115.696 3.4161 115.497 3.22519 115.349 2.97974C115.202 2.73676 115.129 2.46652 115.129 2.17024C115.129 1.87148 115.201 1.59999 115.345 1.35949C115.489 1.11776 115.692 0.928086 115.954 0.789243C116.213 0.654119 116.491 0.585938 116.788 0.585938C116.941 0.585938 117.087 0.603293 117.229 0.636764C117.37 0.670235 117.501 0.721062 117.624 0.786764C117.747 0.853706 117.859 0.933045 117.963 1.0285C118.066 1.12271 118.155 1.23181 118.227 1.35205C118.373 1.59751 118.446 1.87024 118.446 2.17024C118.446 2.32024 118.427 2.46404 118.388 2.60288C118.349 2.74172 118.294 2.86941 118.222 2.98842C118.15 3.10743 118.062 3.21404 117.96 3.31073C117.858 3.40743 117.741 3.48924 117.613 3.55619C117.355 3.68883 117.081 3.75453 116.786 3.75453ZM116.786 3.4161C116.959 3.4161 117.12 3.38387 117.268 3.32065C117.416 3.25743 117.544 3.16941 117.654 3.05784C117.764 2.94627 117.849 2.81486 117.911 2.66362C117.973 2.51238 118.004 2.34751 118.004 2.17024C118.004 1.99544 117.973 1.83181 117.911 1.68057C117.849 1.52933 117.763 1.39792 117.654 1.28387C117.544 1.17106 117.416 1.08305 117.265 1.01858C117.116 0.95536 116.954 0.923128 116.781 0.923128C116.608 0.923128 116.449 0.95536 116.303 1.01858C116.156 1.08181 116.027 1.16858 115.918 1.27891C115.809 1.38924 115.724 1.52065 115.662 1.67313C115.6 1.82561 115.569 1.99048 115.569 2.169C115.569 2.34751 115.599 2.51238 115.662 2.66486C115.724 2.81734 115.81 2.94999 115.918 3.06156C116.028 3.17313 116.156 3.2599 116.305 3.32189C116.454 3.38387 116.613 3.4161 116.786 3.4161ZM116.847 3.10247C116.709 3.10247 116.583 3.07891 116.469 3.03057C116.356 2.98222 116.258 2.91652 116.176 2.83346C116.094 2.7504 116.031 2.65123 115.987 2.53718C115.942 2.42313 115.92 2.29792 115.92 2.1628C115.92 2.019 115.942 1.88759 115.987 1.77106C116.031 1.65329 116.094 1.55412 116.175 1.4723C116.256 1.39048 116.352 1.32726 116.464 1.28139C116.577 1.23676 116.702 1.21321 116.839 1.21321C117.049 1.21321 117.226 1.27148 117.369 1.38924C117.512 1.50701 117.595 1.66693 117.621 1.87024H117.284C117.261 1.76858 117.208 1.69048 117.126 1.6347C117.044 1.58015 116.948 1.55164 116.839 1.55164C116.675 1.55164 116.55 1.60743 116.464 1.719C116.378 1.83057 116.335 1.97561 116.335 2.15288C116.335 2.2409 116.348 2.32147 116.375 2.39709C116.4 2.47147 116.435 2.53594 116.481 2.59048C116.525 2.64379 116.579 2.68594 116.642 2.71817C116.706 2.74916 116.775 2.76528 116.85 2.76528C116.965 2.76528 117.062 2.73676 117.141 2.68098C117.221 2.62395 117.269 2.54214 117.287 2.43553H117.637C117.619 2.53718 117.587 2.63015 117.542 2.71321C117.495 2.79627 117.438 2.86693 117.369 2.92519C117.299 2.98346 117.221 3.02809 117.134 3.05908C117.042 3.08759 116.948 3.10247 116.847 3.10247Z" fill="white"/>
</g>
<defs>
<clipPath id="clip0_9795_118152">
<rect width="118.5" height="15" fill="white" transform="translate(0 0.5)"/>
</clipPath>
</defs>
</svg>
