<?xml version="1.0" encoding="UTF-8" standalone="no"?>
<!DOCTYPE svg PUBLIC "-//W3C//DTD SVG 1.1//EN"
 "http://www.w3.org/Graphics/SVG/1.1/DTD/svg11.dtd">
<!-- Generated by graphviz version 2.47.0 (20210316.0004)
 -->
<!-- Title: dependencies Pages: 1 -->
<svg width="4486pt" height="211pt"
 viewBox="0.00 0.00 4486.00 211.00" xmlns="http://www.w3.org/2000/svg" xmlns:xlink="http://www.w3.org/1999/xlink">
<g id="graph0" class="graph" transform="scale(1 1) rotate(0) translate(4 207)">
<title>dependencies</title>
<polygon fill="white" stroke="transparent" points="-4,4 -4,-207 4482,-207 4482,4 -4,4"/>
<text text-anchor="start" x="2218.01" y="-42.4" font-family="Times-12" font-weight="bold" font-size="14.00">Legend</text>
<polygon fill="#ffffb3" stroke="transparent" points="2005,-10 2005,-30 2025,-30 2025,-10 2005,-10"/>
<text text-anchor="start" x="2028.63" y="-15.4" font-family="Times-12" font-size="14.00"> &#160;Declarations</text>
<polygon fill="#8dd3c7" stroke="transparent" points="2118,-10 2118,-30 2138,-30 2138,-10 2118,-10"/>
<text text-anchor="start" x="2141.73" y="-15.4" font-family="Times-12" font-size="14.00"> &#160;Module</text>
<polygon fill="#80b1d3" stroke="transparent" points="2204,-10 2204,-30 2224,-30 2224,-10 2204,-10"/>
<text text-anchor="start" x="2227.78" y="-15.4" font-family="Times-12" font-size="14.00"> &#160;Bootstrap</text>
<polygon fill="#fdb462" stroke="transparent" points="2301,-10 2301,-30 2321,-30 2321,-10 2301,-10"/>
<text text-anchor="start" x="2324.67" y="-15.4" font-family="Times-12" font-size="14.00"> &#160;Providers</text>
<polygon fill="#fb8072" stroke="transparent" points="2397,-10 2397,-30 2417,-30 2417,-10 2397,-10"/>
<text text-anchor="start" x="2420.73" y="-15.4" font-family="Times-12" font-size="14.00"> &#160;Exports</text>
<g id="clust1" class="cluster">
<title>cluster_FinanceModule</title>
<polygon fill="none" stroke="black" stroke-dasharray="1,5" points="8,-70 8,-195 4470,-195 4470,-70 8,-70"/>
</g>
<g id="clust24" class="cluster">
<title>cluster_FinanceModule_imports</title>
<polygon fill="none" stroke="black" points="4328,-78 4328,-130 4462,-130 4462,-78 4328,-78"/>
</g>
<g id="clust2" class="cluster">
<title>cluster_FinanceModule_declarations</title>
<polygon fill="none" stroke="black" points="16,-78 16,-130 4320,-130 4320,-78 16,-78"/>
</g>
<!-- AddBankDefinitionComponent -->
<g id="node1" class="node">
<title>AddBankDefinitionComponent</title>
<polygon fill="#ffffb3" stroke="black" points="4312.03,-122 4119.97,-122 4119.97,-86 4312.03,-86 4312.03,-122"/>
<text text-anchor="middle" x="4216" y="-99.8" font-family="Times,serif" font-size="14.00">AddBankDefinitionComponent</text>
</g>
<!-- FinanceModule -->
<g id="node22" class="node">
<title>FinanceModule</title>
<polygon fill="#8dd3c7" stroke="black" points="2356.87,-187 2353.87,-191 2332.87,-191 2329.87,-187 2253.13,-187 2253.13,-151 2356.87,-151 2356.87,-187"/>
<text text-anchor="middle" x="2305" y="-164.8" font-family="Times,serif" font-size="14.00">FinanceModule</text>
</g>
<!-- AddBankDefinitionComponent&#45;&gt;FinanceModule -->
<g id="edge1" class="edge">
<title>AddBankDefinitionComponent&#45;&gt;FinanceModule</title>
<path fill="none" stroke="black" d="M4216,-122.25C4216,-145.02 4216,-181 4216,-181 4216,-181 2367.11,-181 2367.11,-181"/>
<polygon fill="black" stroke="black" points="2367.11,-177.5 2357.11,-181 2367.11,-184.5 2367.11,-177.5"/>
</g>
<!-- AddPaymentMethodComponent -->
<g id="node2" class="node">
<title>AddPaymentMethodComponent</title>
<polygon fill="#ffffb3" stroke="black" points="4101.98,-122 3904.02,-122 3904.02,-86 4101.98,-86 4101.98,-122"/>
<text text-anchor="middle" x="4003" y="-99.8" font-family="Times,serif" font-size="14.00">AddPaymentMethodComponent</text>
</g>
<!-- AddPaymentMethodComponent&#45;&gt;FinanceModule -->
<g id="edge2" class="edge">
<title>AddPaymentMethodComponent&#45;&gt;FinanceModule</title>
<path fill="none" stroke="black" d="M4003,-122.29C4003,-144.21 4003,-178 4003,-178 4003,-178 2367.21,-178 2367.21,-178"/>
<polygon fill="black" stroke="black" points="2367.21,-174.5 2357.21,-178 2367.21,-181.5 2367.21,-174.5"/>
</g>
<!-- AddPaymentTermComponent -->
<g id="node3" class="node">
<title>AddPaymentTermComponent</title>
<polygon fill="#ffffb3" stroke="black" points="3886.25,-122 3701.75,-122 3701.75,-86 3886.25,-86 3886.25,-122"/>
<text text-anchor="middle" x="3794" y="-99.8" font-family="Times,serif" font-size="14.00">AddPaymentTermComponent</text>
</g>
<!-- AddPaymentTermComponent&#45;&gt;FinanceModule -->
<g id="edge3" class="edge">
<title>AddPaymentTermComponent&#45;&gt;FinanceModule</title>
<path fill="none" stroke="black" d="M3794,-122.03C3794,-142.77 3794,-174 3794,-174 3794,-174 2367.12,-174 2367.12,-174"/>
<polygon fill="black" stroke="black" points="2367.12,-170.5 2357.12,-174 2367.12,-177.5 2367.12,-170.5"/>
</g>
<!-- AddTreasuryComponent -->
<g id="node4" class="node">
<title>AddTreasuryComponent</title>
<polygon fill="#ffffb3" stroke="black" points="3683.69,-122 3528.31,-122 3528.31,-86 3683.69,-86 3683.69,-122"/>
<text text-anchor="middle" x="3606" y="-99.8" font-family="Times,serif" font-size="14.00">AddTreasuryComponent</text>
</g>
<!-- AddTreasuryComponent&#45;&gt;FinanceModule -->
<g id="edge4" class="edge">
<title>AddTreasuryComponent&#45;&gt;FinanceModule</title>
<path fill="none" stroke="black" d="M3606,-122.31C3606,-142.15 3606,-171 3606,-171 3606,-171 2367.21,-171 2367.21,-171"/>
<polygon fill="black" stroke="black" points="2367.21,-167.5 2357.21,-171 2367.21,-174.5 2367.21,-167.5"/>
</g>
<!-- BankDefinitionListComponent -->
<g id="node5" class="node">
<title>BankDefinitionListComponent</title>
<polygon fill="#ffffb3" stroke="black" points="3510.21,-122 3319.79,-122 3319.79,-86 3510.21,-86 3510.21,-122"/>
<text text-anchor="middle" x="3415" y="-99.8" font-family="Times,serif" font-size="14.00">BankDefinitionListComponent</text>
</g>
<!-- BankDefinitionListComponent&#45;&gt;FinanceModule -->
<g id="edge5" class="edge">
<title>BankDefinitionListComponent&#45;&gt;FinanceModule</title>
<path fill="none" stroke="black" d="M3415,-122.17C3415,-141.09 3415,-168 3415,-168 3415,-168 2367.05,-168 2367.05,-168"/>
<polygon fill="black" stroke="black" points="2367.05,-164.5 2357.05,-168 2367.05,-171.5 2367.05,-164.5"/>
</g>
<!-- ConfirmComponent -->
<g id="node6" class="node">
<title>ConfirmComponent</title>
<polygon fill="#ffffb3" stroke="black" points="3302.27,-122 3173.73,-122 3173.73,-86 3302.27,-86 3302.27,-122"/>
<text text-anchor="middle" x="3238" y="-99.8" font-family="Times,serif" font-size="14.00">ConfirmComponent</text>
</g>
<!-- ConfirmComponent&#45;&gt;FinanceModule -->
<g id="edge6" class="edge">
<title>ConfirmComponent&#45;&gt;FinanceModule</title>
<path fill="none" stroke="black" d="M3238,-122.3C3238,-140.27 3238,-165 3238,-165 3238,-165 2367.16,-165 2367.16,-165"/>
<polygon fill="black" stroke="black" points="2367.16,-161.5 2357.16,-165 2367.16,-168.5 2367.16,-161.5"/>
</g>
<!-- ConfirmOpeningBalanceComponent -->
<g id="node7" class="node">
<title>ConfirmOpeningBalanceComponent</title>
<polygon fill="#ffffb3" stroke="black" points="3156.07,-122 2933.93,-122 2933.93,-86 3156.07,-86 3156.07,-122"/>
<text text-anchor="middle" x="3045" y="-99.8" font-family="Times,serif" font-size="14.00">ConfirmOpeningBalanceComponent</text>
</g>
<!-- ConfirmOpeningBalanceComponent&#45;&gt;FinanceModule -->
<g id="edge7" class="edge">
<title>ConfirmOpeningBalanceComponent&#45;&gt;FinanceModule</title>
<path fill="none" stroke="black" d="M3045,-122.04C3045,-138.73 3045,-161 3045,-161 3045,-161 2367.04,-161 2367.04,-161"/>
<polygon fill="black" stroke="black" points="2367.04,-157.5 2357.04,-161 2367.04,-164.5 2367.04,-157.5"/>
</g>
<!-- EditBankDefinitionComponent -->
<g id="node8" class="node">
<title>EditBankDefinitionComponent</title>
<polygon fill="#ffffb3" stroke="black" points="2915.76,-122 2724.24,-122 2724.24,-86 2915.76,-86 2915.76,-122"/>
<text text-anchor="middle" x="2820" y="-99.8" font-family="Times,serif" font-size="14.00">EditBankDefinitionComponent</text>
</g>
<!-- EditBankDefinitionComponent&#45;&gt;FinanceModule -->
<g id="edge8" class="edge">
<title>EditBankDefinitionComponent&#45;&gt;FinanceModule</title>
<path fill="none" stroke="black" d="M2820,-122.28C2820,-137.95 2820,-158 2820,-158 2820,-158 2367.22,-158 2367.22,-158"/>
<polygon fill="black" stroke="black" points="2367.22,-154.5 2357.22,-158 2367.22,-161.5 2367.22,-154.5"/>
</g>
<!-- EditPaymentMethodComponent -->
<g id="node9" class="node">
<title>EditPaymentMethodComponent</title>
<polygon fill="#ffffb3" stroke="black" points="2706.71,-122 2509.29,-122 2509.29,-86 2706.71,-86 2706.71,-122"/>
<text text-anchor="middle" x="2608" y="-99.8" font-family="Times,serif" font-size="14.00">EditPaymentMethodComponent</text>
</g>
<!-- EditPaymentMethodComponent&#45;&gt;FinanceModule -->
<g id="edge9" class="edge">
<title>EditPaymentMethodComponent&#45;&gt;FinanceModule</title>
<path fill="none" stroke="black" d="M2608,-122.12C2608,-136.78 2608,-155 2608,-155 2608,-155 2367.09,-155 2367.09,-155"/>
<polygon fill="black" stroke="black" points="2367.09,-151.5 2357.09,-155 2367.09,-158.5 2367.09,-151.5"/>
</g>
<!-- EditPaymentTermComponent -->
<g id="node10" class="node">
<title>EditPaymentTermComponent</title>
<polygon fill="#ffffb3" stroke="black" points="2490.98,-122 2307.02,-122 2307.02,-86 2490.98,-86 2490.98,-122"/>
<text text-anchor="middle" x="2399" y="-99.8" font-family="Times,serif" font-size="14.00">EditPaymentTermComponent</text>
</g>
<!-- EditPaymentTermComponent&#45;&gt;FinanceModule -->
<g id="edge10" class="edge">
<title>EditPaymentTermComponent&#45;&gt;FinanceModule</title>
<path fill="none" stroke="black" d="M2331.97,-122.11C2331.97,-122.11 2331.97,-140.99 2331.97,-140.99"/>
<polygon fill="black" stroke="black" points="2328.47,-140.99 2331.97,-150.99 2335.47,-140.99 2328.47,-140.99"/>
</g>
<!-- EditTreasuryComponent -->
<g id="node11" class="node">
<title>EditTreasuryComponent</title>
<polygon fill="#ffffb3" stroke="black" points="2289.41,-122 2134.59,-122 2134.59,-86 2289.41,-86 2289.41,-122"/>
<text text-anchor="middle" x="2212" y="-99.8" font-family="Times,serif" font-size="14.00">EditTreasuryComponent</text>
</g>
<!-- EditTreasuryComponent&#45;&gt;FinanceModule -->
<g id="edge11" class="edge">
<title>EditTreasuryComponent&#45;&gt;FinanceModule</title>
<path fill="none" stroke="black" d="M2271.14,-122.11C2271.14,-122.11 2271.14,-140.99 2271.14,-140.99"/>
<polygon fill="black" stroke="black" points="2267.64,-140.99 2271.14,-150.99 2274.64,-140.99 2267.64,-140.99"/>
</g>
<!-- MainBankDefinitionComponent -->
<g id="node12" class="node">
<title>MainBankDefinitionComponent</title>
<polygon fill="#ffffb3" stroke="black" points="2116.98,-122 1919.02,-122 1919.02,-86 2116.98,-86 2116.98,-122"/>
<text text-anchor="middle" x="2018" y="-99.8" font-family="Times,serif" font-size="14.00">MainBankDefinitionComponent</text>
</g>
<!-- MainBankDefinitionComponent&#45;&gt;FinanceModule -->
<g id="edge12" class="edge">
<title>MainBankDefinitionComponent&#45;&gt;FinanceModule</title>
<path fill="none" stroke="black" d="M2018,-122.12C2018,-136.78 2018,-155 2018,-155 2018,-155 2243.03,-155 2243.03,-155"/>
<polygon fill="black" stroke="black" points="2243.03,-158.5 2253.03,-155 2243.03,-151.5 2243.03,-158.5"/>
</g>
<!-- MainPaymentMethodComponent -->
<g id="node13" class="node">
<title>MainPaymentMethodComponent</title>
<polygon fill="#ffffb3" stroke="black" points="1900.93,-122 1697.07,-122 1697.07,-86 1900.93,-86 1900.93,-122"/>
<text text-anchor="middle" x="1799" y="-99.8" font-family="Times,serif" font-size="14.00">MainPaymentMethodComponent</text>
</g>
<!-- MainPaymentMethodComponent&#45;&gt;FinanceModule -->
<g id="edge13" class="edge">
<title>MainPaymentMethodComponent&#45;&gt;FinanceModule</title>
<path fill="none" stroke="black" d="M1799,-122.28C1799,-137.95 1799,-158 1799,-158 1799,-158 2242.75,-158 2242.75,-158"/>
<polygon fill="black" stroke="black" points="2242.75,-161.5 2252.75,-158 2242.75,-154.5 2242.75,-161.5"/>
</g>
<!-- MainPaymentTermComponent -->
<g id="node14" class="node">
<title>MainPaymentTermComponent</title>
<polygon fill="#ffffb3" stroke="black" points="1679.19,-122 1488.81,-122 1488.81,-86 1679.19,-86 1679.19,-122"/>
<text text-anchor="middle" x="1584" y="-99.8" font-family="Times,serif" font-size="14.00">MainPaymentTermComponent</text>
</g>
<!-- MainPaymentTermComponent&#45;&gt;FinanceModule -->
<g id="edge14" class="edge">
<title>MainPaymentTermComponent&#45;&gt;FinanceModule</title>
<path fill="none" stroke="black" d="M1584,-122.04C1584,-138.73 1584,-161 1584,-161 1584,-161 2242.86,-161 2242.86,-161"/>
<polygon fill="black" stroke="black" points="2242.86,-164.5 2252.86,-161 2242.86,-157.5 2242.86,-164.5"/>
</g>
<!-- PaymentMethodListComponent -->
<g id="node15" class="node">
<title>PaymentMethodListComponent</title>
<polygon fill="#ffffb3" stroke="black" points="1470.65,-122 1275.35,-122 1275.35,-86 1470.65,-86 1470.65,-122"/>
<text text-anchor="middle" x="1373" y="-99.8" font-family="Times,serif" font-size="14.00">PaymentMethodListComponent</text>
</g>
<!-- PaymentMethodListComponent&#45;&gt;FinanceModule -->
<g id="edge15" class="edge">
<title>PaymentMethodListComponent&#45;&gt;FinanceModule</title>
<path fill="none" stroke="black" d="M1373,-122.3C1373,-140.27 1373,-165 1373,-165 1373,-165 2242.89,-165 2242.89,-165"/>
<polygon fill="black" stroke="black" points="2242.89,-168.5 2252.89,-165 2242.89,-161.5 2242.89,-168.5"/>
</g>
<!-- PaymentTermListComponent -->
<g id="node16" class="node">
<title>PaymentTermListComponent</title>
<polygon fill="#ffffb3" stroke="black" points="1257.42,-122 1074.58,-122 1074.58,-86 1257.42,-86 1257.42,-122"/>
<text text-anchor="middle" x="1166" y="-99.8" font-family="Times,serif" font-size="14.00">PaymentTermListComponent</text>
</g>
<!-- PaymentTermListComponent&#45;&gt;FinanceModule -->
<g id="edge16" class="edge">
<title>PaymentTermListComponent&#45;&gt;FinanceModule</title>
<path fill="none" stroke="black" d="M1166,-122.17C1166,-141.09 1166,-168 1166,-168 1166,-168 2243.1,-168 2243.1,-168"/>
<polygon fill="black" stroke="black" points="2243.1,-171.5 2253.1,-168 2243.1,-164.5 2243.1,-171.5"/>
</g>
<!-- TreauryDefinitionListComponent -->
<g id="node17" class="node">
<title>TreauryDefinitionListComponent</title>
<polygon fill="#ffffb3" stroke="black" points="1056.46,-122 851.54,-122 851.54,-86 1056.46,-86 1056.46,-122"/>
<text text-anchor="middle" x="954" y="-99.8" font-family="Times,serif" font-size="14.00">TreauryDefinitionListComponent</text>
</g>
<!-- TreauryDefinitionListComponent&#45;&gt;FinanceModule -->
<g id="edge17" class="edge">
<title>TreauryDefinitionListComponent&#45;&gt;FinanceModule</title>
<path fill="none" stroke="black" d="M954,-122.31C954,-142.15 954,-171 954,-171 954,-171 2242.87,-171 2242.87,-171"/>
<polygon fill="black" stroke="black" points="2242.87,-174.5 2252.87,-171 2242.87,-167.5 2242.87,-174.5"/>
</g>
<!-- ViewBankDefinitionComponent -->
<g id="node18" class="node">
<title>ViewBankDefinitionComponent</title>
<polygon fill="#ffffb3" stroke="black" points="833.25,-122 634.75,-122 634.75,-86 833.25,-86 833.25,-122"/>
<text text-anchor="middle" x="734" y="-99.8" font-family="Times,serif" font-size="14.00">ViewBankDefinitionComponent</text>
</g>
<!-- ViewBankDefinitionComponent&#45;&gt;FinanceModule -->
<g id="edge18" class="edge">
<title>ViewBankDefinitionComponent&#45;&gt;FinanceModule</title>
<path fill="none" stroke="black" d="M734,-122.03C734,-142.77 734,-174 734,-174 734,-174 2242.73,-174 2242.73,-174"/>
<polygon fill="black" stroke="black" points="2242.73,-177.5 2252.73,-174 2242.73,-170.5 2242.73,-177.5"/>
</g>
<!-- ViewPaymentMethodComponent -->
<g id="node19" class="node">
<title>ViewPaymentMethodComponent</title>
<polygon fill="#ffffb3" stroke="black" points="617.19,-122 412.81,-122 412.81,-86 617.19,-86 617.19,-122"/>
<text text-anchor="middle" x="515" y="-99.8" font-family="Times,serif" font-size="14.00">ViewPaymentMethodComponent</text>
</g>
<!-- ViewPaymentMethodComponent&#45;&gt;FinanceModule -->
<g id="edge19" class="edge">
<title>ViewPaymentMethodComponent&#45;&gt;FinanceModule</title>
<path fill="none" stroke="black" d="M515,-122.29C515,-144.21 515,-178 515,-178 515,-178 2242.88,-178 2242.88,-178"/>
<polygon fill="black" stroke="black" points="2242.88,-181.5 2252.88,-178 2242.88,-174.5 2242.88,-181.5"/>
</g>
<!-- ViewPaymentTermComponent -->
<g id="node20" class="node">
<title>ViewPaymentTermComponent</title>
<polygon fill="#ffffb3" stroke="black" points="394.46,-122 203.54,-122 203.54,-86 394.46,-86 394.46,-122"/>
<text text-anchor="middle" x="299" y="-99.8" font-family="Times,serif" font-size="14.00">ViewPaymentTermComponent</text>
</g>
<!-- ViewPaymentTermComponent&#45;&gt;FinanceModule -->
<g id="edge20" class="edge">
<title>ViewPaymentTermComponent&#45;&gt;FinanceModule</title>
<path fill="none" stroke="black" d="M299,-122.25C299,-145.02 299,-181 299,-181 299,-181 2242.89,-181 2242.89,-181"/>
<polygon fill="black" stroke="black" points="2242.89,-184.5 2252.89,-181 2242.89,-177.5 2242.89,-184.5"/>
</g>
<!-- ViewTreasuryComponent -->
<g id="node21" class="node">
<title>ViewTreasuryComponent</title>
<polygon fill="#ffffb3" stroke="black" points="185.9,-122 24.1,-122 24.1,-86 185.9,-86 185.9,-122"/>
<text text-anchor="middle" x="105" y="-99.8" font-family="Times,serif" font-size="14.00">ViewTreasuryComponent</text>
</g>
<!-- ViewTreasuryComponent&#45;&gt;FinanceModule -->
<g id="edge21" class="edge">
<title>ViewTreasuryComponent&#45;&gt;FinanceModule</title>
<path fill="none" stroke="black" d="M105,-122.15C105,-145.76 105,-184 105,-184 105,-184 2243.06,-184 2243.06,-184"/>
<polygon fill="black" stroke="black" points="2243.06,-187.5 2253.06,-184 2243.06,-180.5 2243.06,-187.5"/>
</g>
<!-- SharedLibModule -->
<g id="node23" class="node">
<title>SharedLibModule</title>
<polygon fill="#8dd3c7" stroke="black" points="4453.87,-122 4450.87,-126 4429.87,-126 4426.87,-122 4336.13,-122 4336.13,-86 4453.87,-86 4453.87,-122"/>
<text text-anchor="middle" x="4395" y="-99.8" font-family="Times,serif" font-size="14.00">SharedLibModule</text>
</g>
<!-- SharedLibModule&#45;&gt;FinanceModule -->
<g id="edge22" class="edge">
<title>SharedLibModule&#45;&gt;FinanceModule</title>
<path fill="none" stroke="black" d="M4395,-122.15C4395,-145.76 4395,-184 4395,-184 4395,-184 2366.92,-184 2366.92,-184"/>
<polygon fill="black" stroke="black" points="2366.92,-180.5 2356.92,-184 2366.92,-187.5 2366.92,-180.5"/>
</g>
</g>
</svg>
