<?xml version="1.0" encoding="UTF-8" standalone="no"?>
<!DOCTYPE svg PUBLIC "-//W3C//DTD SVG 1.1//EN"
 "http://www.w3.org/Graphics/SVG/1.1/DTD/svg11.dtd">
<!-- Generated by graphviz version 2.47.0 (20210316.0004)
 -->
<!-- Title: dependencies Pages: 1 -->
<svg width="10048pt" height="211pt"
 viewBox="0.00 0.00 10048.00 211.00" xmlns="http://www.w3.org/2000/svg" xmlns:xlink="http://www.w3.org/1999/xlink">
<g id="graph0" class="graph" transform="scale(1 1) rotate(0) translate(4 207)">
<title>dependencies</title>
<polygon fill="white" stroke="transparent" points="-4,4 -4,-207 10044,-207 10044,4 -4,4"/>
<text text-anchor="start" x="4999.01" y="-42.4" font-family="Times-12" font-weight="bold" font-size="14.00">Legend</text>
<polygon fill="#ffffb3" stroke="transparent" points="4786,-10 4786,-30 4806,-30 4806,-10 4786,-10"/>
<text text-anchor="start" x="4809.63" y="-15.4" font-family="Times-12" font-size="14.00"> &#160;Declarations</text>
<polygon fill="#8dd3c7" stroke="transparent" points="4899,-10 4899,-30 4919,-30 4919,-10 4899,-10"/>
<text text-anchor="start" x="4922.73" y="-15.4" font-family="Times-12" font-size="14.00"> &#160;Module</text>
<polygon fill="#80b1d3" stroke="transparent" points="4985,-10 4985,-30 5005,-30 5005,-10 4985,-10"/>
<text text-anchor="start" x="5008.78" y="-15.4" font-family="Times-12" font-size="14.00"> &#160;Bootstrap</text>
<polygon fill="#fdb462" stroke="transparent" points="5082,-10 5082,-30 5102,-30 5102,-10 5082,-10"/>
<text text-anchor="start" x="5105.67" y="-15.4" font-family="Times-12" font-size="14.00"> &#160;Providers</text>
<polygon fill="#fb8072" stroke="transparent" points="5178,-10 5178,-30 5198,-30 5198,-10 5178,-10"/>
<text text-anchor="start" x="5201.73" y="-15.4" font-family="Times-12" font-size="14.00"> &#160;Exports</text>
<g id="clust1" class="cluster">
<title>cluster_ItemsModule</title>
<polygon fill="none" stroke="black" stroke-dasharray="1,5" points="8,-70 8,-195 10032,-195 10032,-70 8,-70"/>
</g>
<g id="clust2" class="cluster">
<title>cluster_ItemsModule_declarations</title>
<polygon fill="none" stroke="black" points="158,-78 158,-130 10024,-130 10024,-78 158,-78"/>
</g>
<g id="clust51" class="cluster">
<title>cluster_ItemsModule_imports</title>
<polygon fill="none" stroke="black" points="16,-78 16,-130 150,-130 150,-78 16,-78"/>
</g>
<!-- AddAttributeDefinitionComponent -->
<g id="node1" class="node">
<title>AddAttributeDefinitionComponent</title>
<polygon fill="#ffffb3" stroke="black" points="10015.53,-122 9802.47,-122 9802.47,-86 10015.53,-86 10015.53,-122"/>
<text text-anchor="middle" x="9909" y="-99.8" font-family="Times,serif" font-size="14.00">AddAttributeDefinitionComponent</text>
</g>
<!-- ItemsModule -->
<g id="node49" class="node">
<title>ItemsModule</title>
<polygon fill="#8dd3c7" stroke="black" points="4720.15,-187 4717.15,-191 4696.15,-191 4693.15,-187 4629.85,-187 4629.85,-151 4720.15,-151 4720.15,-187"/>
<text text-anchor="middle" x="4675" y="-164.8" font-family="Times,serif" font-size="14.00">ItemsModule</text>
</g>
<!-- AddAttributeDefinitionComponent&#45;&gt;ItemsModule -->
<g id="edge1" class="edge">
<title>AddAttributeDefinitionComponent&#45;&gt;ItemsModule</title>
<path fill="none" stroke="black" d="M9909,-122.2C9909,-146.36 9909,-186 9909,-186 9909,-186 4730.25,-186 4730.25,-186"/>
<polygon fill="black" stroke="black" points="4730.25,-182.5 4720.25,-186 4730.25,-189.5 4730.25,-182.5"/>
</g>
<!-- AddBarcodePopupComponent -->
<g id="node2" class="node">
<title>AddBarcodePopupComponent</title>
<polygon fill="#ffffb3" stroke="black" points="9783.86,-122 9596.14,-122 9596.14,-86 9783.86,-86 9783.86,-122"/>
<text text-anchor="middle" x="9690" y="-99.8" font-family="Times,serif" font-size="14.00">AddBarcodePopupComponent</text>
</g>
<!-- AddBarcodePopupComponent&#45;&gt;ItemsModule -->
<g id="edge2" class="edge">
<title>AddBarcodePopupComponent&#45;&gt;ItemsModule</title>
<path fill="none" stroke="black" d="M9690,-122.38C9690,-146.28 9690,-185 9690,-185 9690,-185 4730.27,-185 4730.27,-185"/>
<polygon fill="black" stroke="black" points="4730.27,-181.5 4720.27,-185 4730.27,-188.5 4730.27,-181.5"/>
</g>
<!-- AddItemCategoryComponent -->
<g id="node3" class="node">
<title>AddItemCategoryComponent</title>
<polygon fill="#ffffb3" stroke="black" points="9578.41,-122 9395.59,-122 9395.59,-86 9578.41,-86 9578.41,-122"/>
<text text-anchor="middle" x="9487" y="-99.8" font-family="Times,serif" font-size="14.00">AddItemCategoryComponent</text>
</g>
<!-- AddItemCategoryComponent&#45;&gt;ItemsModule -->
<g id="edge3" class="edge">
<title>AddItemCategoryComponent&#45;&gt;ItemsModule</title>
<path fill="none" stroke="black" d="M9487,-122.32C9487,-145.66 9487,-183 9487,-183 9487,-183 4730.32,-183 4730.32,-183"/>
<polygon fill="black" stroke="black" points="4730.32,-179.5 4720.32,-183 4730.32,-186.5 4730.32,-179.5"/>
</g>
<!-- AddItemDefinitionPopupComponent -->
<g id="node4" class="node">
<title>AddItemDefinitionPopupComponent</title>
<polygon fill="#ffffb3" stroke="black" points="9378.42,-122 9153.58,-122 9153.58,-86 9378.42,-86 9378.42,-122"/>
<text text-anchor="middle" x="9266" y="-99.8" font-family="Times,serif" font-size="14.00">AddItemDefinitionPopupComponent</text>
</g>
<!-- AddItemDefinitionPopupComponent&#45;&gt;ItemsModule -->
<g id="edge4" class="edge">
<title>AddItemDefinitionPopupComponent&#45;&gt;ItemsModule</title>
<path fill="none" stroke="black" d="M9266,-122.09C9266,-145.13 9266,-182 9266,-182 9266,-182 4730.44,-182 4730.44,-182"/>
<polygon fill="black" stroke="black" points="4730.44,-178.5 4720.44,-182 4730.44,-185.5 4730.44,-178.5"/>
</g>
<!-- AddItemsCategoryComponent -->
<g id="node5" class="node">
<title>AddItemsCategoryComponent</title>
<polygon fill="#ffffb3" stroke="black" points="9135.86,-122 8948.14,-122 8948.14,-86 9135.86,-86 9135.86,-122"/>
<text text-anchor="middle" x="9042" y="-99.8" font-family="Times,serif" font-size="14.00">AddItemsCategoryComponent</text>
</g>
<!-- AddItemsCategoryComponent&#45;&gt;ItemsModule -->
<g id="edge5" class="edge">
<title>AddItemsCategoryComponent&#45;&gt;ItemsModule</title>
<path fill="none" stroke="black" d="M9042,-122.01C9042,-144.49 9042,-180 9042,-180 9042,-180 4730.36,-180 4730.36,-180"/>
<polygon fill="black" stroke="black" points="4730.36,-176.5 4720.36,-180 4730.36,-183.5 4730.36,-176.5"/>
</g>
<!-- AddVariantPopupComponent -->
<g id="node6" class="node">
<title>AddVariantPopupComponent</title>
<polygon fill="#ffffb3" stroke="black" points="8929.7,-122 8746.3,-122 8746.3,-86 8929.7,-86 8929.7,-122"/>
<text text-anchor="middle" x="8838" y="-99.8" font-family="Times,serif" font-size="14.00">AddVariantPopupComponent</text>
</g>
<!-- AddVariantPopupComponent&#45;&gt;ItemsModule -->
<g id="edge6" class="edge">
<title>AddVariantPopupComponent&#45;&gt;ItemsModule</title>
<path fill="none" stroke="black" d="M8838,-122.16C8838,-144.35 8838,-179 8838,-179 8838,-179 4730.33,-179 4730.33,-179"/>
<polygon fill="black" stroke="black" points="4730.33,-175.5 4720.33,-179 4730.33,-182.5 4730.33,-175.5"/>
</g>
<!-- AddWarehouseComponent -->
<g id="node7" class="node">
<title>AddWarehouseComponent</title>
<polygon fill="#ffffb3" stroke="black" points="8728.4,-122 8559.6,-122 8559.6,-86 8728.4,-86 8728.4,-122"/>
<text text-anchor="middle" x="8644" y="-99.8" font-family="Times,serif" font-size="14.00">AddWarehouseComponent</text>
</g>
<!-- AddWarehouseComponent&#45;&gt;ItemsModule -->
<g id="edge7" class="edge">
<title>AddWarehouseComponent&#45;&gt;ItemsModule</title>
<path fill="none" stroke="black" d="M8644,-122.04C8644,-143.66 8644,-177 8644,-177 8644,-177 4730.26,-177 4730.26,-177"/>
<polygon fill="black" stroke="black" points="4730.26,-173.5 4720.26,-177 4730.26,-180.5 4730.26,-173.5"/>
</g>
<!-- AddWarehousePopupComponent -->
<g id="node8" class="node">
<title>AddWarehousePopupComponent</title>
<polygon fill="#ffffb3" stroke="black" points="8542.19,-122 8337.81,-122 8337.81,-86 8542.19,-86 8542.19,-122"/>
<text text-anchor="middle" x="8440" y="-99.8" font-family="Times,serif" font-size="14.00">AddWarehousePopupComponent</text>
</g>
<!-- AddWarehousePopupComponent&#45;&gt;ItemsModule -->
<g id="edge8" class="edge">
<title>AddWarehousePopupComponent&#45;&gt;ItemsModule</title>
<path fill="none" stroke="black" d="M8440,-122.17C8440,-143.5 8440,-176 8440,-176 8440,-176 4730.24,-176 4730.24,-176"/>
<polygon fill="black" stroke="black" points="4730.24,-172.5 4720.24,-176 4730.24,-179.5 4730.24,-172.5"/>
</g>
<!-- AttributeDefinitionComponent -->
<g id="node9" class="node">
<title>AttributeDefinitionComponent</title>
<polygon fill="#ffffb3" stroke="black" points="8319.92,-122 8130.08,-122 8130.08,-86 8319.92,-86 8319.92,-122"/>
<text text-anchor="middle" x="8225" y="-99.8" font-family="Times,serif" font-size="14.00">AttributeDefinitionComponent</text>
</g>
<!-- AttributeDefinitionComponent&#45;&gt;ItemsModule -->
<g id="edge9" class="edge">
<title>AttributeDefinitionComponent&#45;&gt;ItemsModule</title>
<path fill="none" stroke="black" d="M8225,-122.28C8225,-143.32 8225,-175 8225,-175 8225,-175 4730.21,-175 4730.21,-175"/>
<polygon fill="black" stroke="black" points="4730.21,-171.5 4720.21,-175 4730.21,-178.5 4730.21,-171.5"/>
</g>
<!-- AttributeDefinitionListComponent -->
<g id="node10" class="node">
<title>AttributeDefinitionListComponent</title>
<polygon fill="#ffffb3" stroke="black" points="8112.7,-122 7901.3,-122 7901.3,-86 8112.7,-86 8112.7,-122"/>
<text text-anchor="middle" x="8007" y="-99.8" font-family="Times,serif" font-size="14.00">AttributeDefinitionListComponent</text>
</g>
<!-- AttributeDefinitionListComponent&#45;&gt;ItemsModule -->
<g id="edge10" class="edge">
<title>AttributeDefinitionListComponent&#45;&gt;ItemsModule</title>
<path fill="none" stroke="black" d="M8007,-122.13C8007,-142.57 8007,-173 8007,-173 8007,-173 4730.21,-173 4730.21,-173"/>
<polygon fill="black" stroke="black" points="4730.21,-169.5 4720.21,-173 4730.21,-176.5 4730.21,-169.5"/>
</g>
<!-- AttributeDefinitionListValuesComponent -->
<g id="node11" class="node">
<title>AttributeDefinitionListValuesComponent</title>
<polygon fill="#ffffb3" stroke="black" points="7883.07,-122 7632.93,-122 7632.93,-86 7883.07,-86 7883.07,-122"/>
<text text-anchor="middle" x="7758" y="-99.8" font-family="Times,serif" font-size="14.00">AttributeDefinitionListValuesComponent</text>
</g>
<!-- AttributeDefinitionListValuesComponent&#45;&gt;ItemsModule -->
<g id="edge11" class="edge">
<title>AttributeDefinitionListValuesComponent&#45;&gt;ItemsModule</title>
<path fill="none" stroke="black" d="M7758,-122.22C7758,-142.37 7758,-172 7758,-172 7758,-172 4730.37,-172 4730.37,-172"/>
<polygon fill="black" stroke="black" points="4730.37,-168.5 4720.37,-172 4730.37,-175.5 4730.37,-168.5"/>
</g>
<!-- AttributeDefinitionValuesComponent -->
<g id="node12" class="node">
<title>AttributeDefinitionValuesComponent</title>
<polygon fill="#ffffb3" stroke="black" points="7615.29,-122 7386.71,-122 7386.71,-86 7615.29,-86 7615.29,-122"/>
<text text-anchor="middle" x="7501" y="-99.8" font-family="Times,serif" font-size="14.00">AttributeDefinitionValuesComponent</text>
</g>
<!-- AttributeDefinitionValuesComponent&#45;&gt;ItemsModule -->
<g id="edge12" class="edge">
<title>AttributeDefinitionValuesComponent&#45;&gt;ItemsModule</title>
<path fill="none" stroke="black" d="M7501,-122.03C7501,-141.58 7501,-170 7501,-170 7501,-170 4730.25,-170 4730.25,-170"/>
<polygon fill="black" stroke="black" points="4730.25,-166.5 4720.25,-170 4730.25,-173.5 4730.25,-166.5"/>
</g>
<!-- EditAttributeDefinitionComponent -->
<g id="node13" class="node">
<title>EditAttributeDefinitionComponent</title>
<polygon fill="#ffffb3" stroke="black" points="7368.25,-122 7155.75,-122 7155.75,-86 7368.25,-86 7368.25,-122"/>
<text text-anchor="middle" x="7262" y="-99.8" font-family="Times,serif" font-size="14.00">EditAttributeDefinitionComponent</text>
</g>
<!-- EditAttributeDefinitionComponent&#45;&gt;ItemsModule -->
<g id="edge13" class="edge">
<title>EditAttributeDefinitionComponent&#45;&gt;ItemsModule</title>
<path fill="none" stroke="black" d="M7262,-122.11C7262,-141.34 7262,-169 7262,-169 7262,-169 4730.18,-169 4730.18,-169"/>
<polygon fill="black" stroke="black" points="4730.18,-165.5 4720.18,-169 4730.18,-172.5 4730.18,-165.5"/>
</g>
<!-- EditCategoryUomComponent -->
<g id="node14" class="node">
<title>EditCategoryUomComponent</title>
<polygon fill="#ffffb3" stroke="black" points="7137.98,-122 6954.02,-122 6954.02,-86 7137.98,-86 7137.98,-122"/>
<text text-anchor="middle" x="7046" y="-99.8" font-family="Times,serif" font-size="14.00">EditCategoryUomComponent</text>
</g>
<!-- EditCategoryUomComponent&#45;&gt;ItemsModule -->
<g id="edge14" class="edge">
<title>EditCategoryUomComponent&#45;&gt;ItemsModule</title>
<path fill="none" stroke="black" d="M7046,-122.22C7046,-140.83 7046,-167 7046,-167 7046,-167 4730.25,-167 4730.25,-167"/>
<polygon fill="black" stroke="black" points="4730.25,-163.5 4720.25,-167 4730.25,-170.5 4730.25,-163.5"/>
</g>
<!-- EditItemCategoryComponent -->
<g id="node15" class="node">
<title>EditItemCategoryComponent</title>
<polygon fill="#ffffb3" stroke="black" points="6935.64,-122 6754.36,-122 6754.36,-86 6935.64,-86 6935.64,-122"/>
<text text-anchor="middle" x="6845" y="-99.8" font-family="Times,serif" font-size="14.00">EditItemCategoryComponent</text>
</g>
<!-- EditItemCategoryComponent&#45;&gt;ItemsModule -->
<g id="edge15" class="edge">
<title>EditItemCategoryComponent&#45;&gt;ItemsModule</title>
<path fill="none" stroke="black" d="M6845,-122.27C6845,-140.56 6845,-166 6845,-166 6845,-166 4730.32,-166 4730.32,-166"/>
<polygon fill="black" stroke="black" points="4730.32,-162.5 4720.32,-166 4730.32,-169.5 4730.32,-162.5"/>
</g>
<!-- EditItemDefinitionComponent -->
<g id="node16" class="node">
<title>EditItemDefinitionComponent</title>
<polygon fill="#ffffb3" stroke="black" points="6735.87,-122 6548.13,-122 6548.13,-86 6735.87,-86 6735.87,-122"/>
<text text-anchor="middle" x="6642" y="-99.8" font-family="Times,serif" font-size="14.00">EditItemDefinitionComponent</text>
</g>
<!-- EditItemDefinitionComponent&#45;&gt;ItemsModule -->
<g id="edge16" class="edge">
<title>EditItemDefinitionComponent&#45;&gt;ItemsModule</title>
<path fill="none" stroke="black" d="M6642,-122C6642,-139.68 6642,-164 6642,-164 6642,-164 4730.25,-164 4730.25,-164"/>
<polygon fill="black" stroke="black" points="4730.25,-160.5 4720.25,-164 4730.25,-167.5 4730.25,-160.5"/>
</g>
<!-- EditWarehouseComponent -->
<g id="node17" class="node">
<title>EditWarehouseComponent</title>
<polygon fill="#ffffb3" stroke="black" points="6529.63,-122 6362.37,-122 6362.37,-86 6529.63,-86 6529.63,-122"/>
<text text-anchor="middle" x="6446" y="-99.8" font-family="Times,serif" font-size="14.00">EditWarehouseComponent</text>
</g>
<!-- EditWarehouseComponent&#45;&gt;ItemsModule -->
<g id="edge17" class="edge">
<title>EditWarehouseComponent&#45;&gt;ItemsModule</title>
<path fill="none" stroke="black" d="M6446,-122.02C6446,-139.37 6446,-163 6446,-163 6446,-163 4730.56,-163 4730.56,-163"/>
<polygon fill="black" stroke="black" points="4730.56,-159.5 4720.56,-163 4730.56,-166.5 4730.56,-159.5"/>
</g>
<!-- GeneralSettingInvComponent -->
<g id="node18" class="node">
<title>GeneralSettingInvComponent</title>
<polygon fill="#ffffb3" stroke="black" points="6343.96,-122 6160.04,-122 6160.04,-86 6343.96,-86 6343.96,-122"/>
<text text-anchor="middle" x="6252" y="-99.8" font-family="Times,serif" font-size="14.00">GeneralSettingInvComponent</text>
</g>
<!-- GeneralSettingInvComponent&#45;&gt;ItemsModule -->
<g id="edge18" class="edge">
<title>GeneralSettingInvComponent&#45;&gt;ItemsModule</title>
<path fill="none" stroke="black" d="M6252,-122.03C6252,-139.06 6252,-162 6252,-162 6252,-162 4730.5,-162 4730.5,-162"/>
<polygon fill="black" stroke="black" points="4730.5,-158.5 4720.5,-162 4730.5,-165.5 4730.5,-158.5"/>
</g>
<!-- ItemCatalogTabsComponent -->
<g id="node19" class="node">
<title>ItemCatalogTabsComponent</title>
<polygon fill="#ffffb3" stroke="black" points="6141.75,-122 5964.25,-122 5964.25,-86 6141.75,-86 6141.75,-122"/>
<text text-anchor="middle" x="6053" y="-99.8" font-family="Times,serif" font-size="14.00">ItemCatalogTabsComponent</text>
</g>
<!-- ItemCatalogTabsComponent&#45;&gt;ItemsModule -->
<g id="edge19" class="edge">
<title>ItemCatalogTabsComponent&#45;&gt;ItemsModule</title>
<path fill="none" stroke="black" d="M6053,-122.03C6053,-138.4 6053,-160 6053,-160 6053,-160 4730.46,-160 4730.46,-160"/>
<polygon fill="black" stroke="black" points="4730.46,-156.5 4720.46,-160 4730.46,-163.5 4730.46,-156.5"/>
</g>
<!-- ItemCategoryListComponent -->
<g id="node20" class="node">
<title>ItemCategoryListComponent</title>
<polygon fill="#ffffb3" stroke="black" points="5946.08,-122 5765.92,-122 5765.92,-86 5946.08,-86 5946.08,-122"/>
<text text-anchor="middle" x="5856" y="-99.8" font-family="Times,serif" font-size="14.00">ItemCategoryListComponent</text>
</g>
<!-- ItemCategoryListComponent&#45;&gt;ItemsModule -->
<g id="edge20" class="edge">
<title>ItemCategoryListComponent&#45;&gt;ItemsModule</title>
<path fill="none" stroke="black" d="M5856,-122.01C5856,-138.05 5856,-159 5856,-159 5856,-159 4730.21,-159 4730.21,-159"/>
<polygon fill="black" stroke="black" points="4730.21,-155.5 4720.21,-159 4730.21,-162.5 4730.21,-155.5"/>
</g>
<!-- ItemDefinitionAttributesVariantsComponent -->
<g id="node21" class="node">
<title>ItemDefinitionAttributesVariantsComponent</title>
<polygon fill="#ffffb3" stroke="black" points="5747.94,-122 5480.06,-122 5480.06,-86 5747.94,-86 5747.94,-122"/>
<text text-anchor="middle" x="5614" y="-99.8" font-family="Times,serif" font-size="14.00">ItemDefinitionAttributesVariantsComponent</text>
</g>
<!-- ItemDefinitionAttributesVariantsComponent&#45;&gt;ItemsModule -->
<g id="edge21" class="edge">
<title>ItemDefinitionAttributesVariantsComponent&#45;&gt;ItemsModule</title>
<path fill="none" stroke="black" d="M5614,-122.24C5614,-137.57 5614,-157 5614,-157 5614,-157 4730.29,-157 4730.29,-157"/>
<polygon fill="black" stroke="black" points="4730.29,-153.5 4720.29,-157 4730.29,-160.5 4730.29,-153.5"/>
</g>
<!-- ItemDefinitionBarcodeComponent -->
<g id="node22" class="node">
<title>ItemDefinitionBarcodeComponent</title>
<polygon fill="#ffffb3" stroke="black" points="5461.67,-122 5250.33,-122 5250.33,-86 5461.67,-86 5461.67,-122"/>
<text text-anchor="middle" x="5356" y="-99.8" font-family="Times,serif" font-size="14.00">ItemDefinitionBarcodeComponent</text>
</g>
<!-- ItemDefinitionBarcodeComponent&#45;&gt;ItemsModule -->
<g id="edge22" class="edge">
<title>ItemDefinitionBarcodeComponent&#45;&gt;ItemsModule</title>
<path fill="none" stroke="black" d="M5356,-122.19C5356,-137.18 5356,-156 5356,-156 5356,-156 4730.21,-156 4730.21,-156"/>
<polygon fill="black" stroke="black" points="4730.21,-152.5 4720.21,-156 4730.21,-159.5 4730.21,-152.5"/>
</g>
<!-- ItemDefinitionGeneralComponent -->
<g id="node23" class="node">
<title>ItemDefinitionGeneralComponent</title>
<polygon fill="#ffffb3" stroke="black" points="5232.33,-122 5023.67,-122 5023.67,-86 5232.33,-86 5232.33,-122"/>
<text text-anchor="middle" x="5128" y="-99.8" font-family="Times,serif" font-size="14.00">ItemDefinitionGeneralComponent</text>
</g>
<!-- ItemDefinitionGeneralComponent&#45;&gt;ItemsModule -->
<g id="edge23" class="edge">
<title>ItemDefinitionGeneralComponent&#45;&gt;ItemsModule</title>
<path fill="none" stroke="black" d="M5128,-122.05C5128,-136.37 5128,-154 5128,-154 5128,-154 4730.51,-154 4730.51,-154"/>
<polygon fill="black" stroke="black" points="4730.51,-150.5 4720.51,-154 4730.51,-157.5 4730.51,-150.5"/>
</g>
<!-- ItemDefinitionInventoryComponent -->
<g id="node24" class="node">
<title>ItemDefinitionInventoryComponent</title>
<polygon fill="#ffffb3" stroke="black" points="5005.46,-122 4786.54,-122 4786.54,-86 5005.46,-86 5005.46,-122"/>
<text text-anchor="middle" x="4896" y="-99.8" font-family="Times,serif" font-size="14.00">ItemDefinitionInventoryComponent</text>
</g>
<!-- ItemDefinitionInventoryComponent&#45;&gt;ItemsModule -->
<g id="edge24" class="edge">
<title>ItemDefinitionInventoryComponent&#45;&gt;ItemsModule</title>
<path fill="none" stroke="black" d="M4896,-122.25C4896,-136.18 4896,-153 4896,-153 4896,-153 4730.26,-153 4730.26,-153"/>
<polygon fill="black" stroke="black" points="4730.26,-149.5 4720.26,-153 4730.26,-156.5 4730.26,-149.5"/>
</g>
<!-- ItemDefinitionListComponent -->
<g id="node25" class="node">
<title>ItemDefinitionListComponent</title>
<polygon fill="#ffffb3" stroke="black" points="4768.31,-122 4581.69,-122 4581.69,-86 4768.31,-86 4768.31,-122"/>
<text text-anchor="middle" x="4675" y="-99.8" font-family="Times,serif" font-size="14.00">ItemDefinitionListComponent</text>
</g>
<!-- ItemDefinitionListComponent&#45;&gt;ItemsModule -->
<g id="edge25" class="edge">
<title>ItemDefinitionListComponent&#45;&gt;ItemsModule</title>
<path fill="none" stroke="black" d="M4675,-122.11C4675,-122.11 4675,-140.99 4675,-140.99"/>
<polygon fill="black" stroke="black" points="4671.5,-140.99 4675,-150.99 4678.5,-140.99 4671.5,-140.99"/>
</g>
<!-- ItemDefinitionUomComponent -->
<g id="node26" class="node">
<title>ItemDefinitionUomComponent</title>
<polygon fill="#ffffb3" stroke="black" points="4564.03,-122 4371.97,-122 4371.97,-86 4564.03,-86 4564.03,-122"/>
<text text-anchor="middle" x="4468" y="-99.8" font-family="Times,serif" font-size="14.00">ItemDefinitionUomComponent</text>
</g>
<!-- ItemDefinitionUomComponent&#45;&gt;ItemsModule -->
<g id="edge26" class="edge">
<title>ItemDefinitionUomComponent&#45;&gt;ItemsModule</title>
<path fill="none" stroke="black" d="M4468,-122.25C4468,-136.18 4468,-153 4468,-153 4468,-153 4619.83,-153 4619.83,-153"/>
<polygon fill="black" stroke="black" points="4619.83,-156.5 4629.83,-153 4619.83,-149.5 4619.83,-156.5"/>
</g>
<!-- ItemDefintionTaxComponent -->
<g id="node27" class="node">
<title>ItemDefintionTaxComponent</title>
<polygon fill="#ffffb3" stroke="black" points="4354.41,-122 4171.59,-122 4171.59,-86 4354.41,-86 4354.41,-122"/>
<text text-anchor="middle" x="4263" y="-99.8" font-family="Times,serif" font-size="14.00">ItemDefintionTaxComponent</text>
</g>
<!-- ItemDefintionTaxComponent&#45;&gt;ItemsModule -->
<g id="edge27" class="edge">
<title>ItemDefintionTaxComponent&#45;&gt;ItemsModule</title>
<path fill="none" stroke="black" d="M4263,-122.05C4263,-136.37 4263,-154 4263,-154 4263,-154 4619.73,-154 4619.73,-154"/>
<polygon fill="black" stroke="black" points="4619.73,-157.5 4629.73,-154 4619.73,-150.5 4619.73,-157.5"/>
</g>
<!-- ItemDefintionVariantComponent -->
<g id="node28" class="node">
<title>ItemDefintionVariantComponent</title>
<polygon fill="#ffffb3" stroke="black" points="4153.12,-122 3950.88,-122 3950.88,-86 4153.12,-86 4153.12,-122"/>
<text text-anchor="middle" x="4052" y="-99.8" font-family="Times,serif" font-size="14.00">ItemDefintionVariantComponent</text>
</g>
<!-- ItemDefintionVariantComponent&#45;&gt;ItemsModule -->
<g id="edge28" class="edge">
<title>ItemDefintionVariantComponent&#45;&gt;ItemsModule</title>
<path fill="none" stroke="black" d="M4052,-122.19C4052,-137.18 4052,-156 4052,-156 4052,-156 4619.69,-156 4619.69,-156"/>
<polygon fill="black" stroke="black" points="4619.69,-159.5 4629.69,-156 4619.69,-152.5 4619.69,-159.5"/>
</g>
<!-- ItemFixedCostComponent -->
<g id="node29" class="node">
<title>ItemFixedCostComponent</title>
<polygon fill="#ffffb3" stroke="black" points="3932.05,-122 3767.95,-122 3767.95,-86 3932.05,-86 3932.05,-122"/>
<text text-anchor="middle" x="3850" y="-99.8" font-family="Times,serif" font-size="14.00">ItemFixedCostComponent</text>
</g>
<!-- ItemFixedCostComponent&#45;&gt;ItemsModule -->
<g id="edge29" class="edge">
<title>ItemFixedCostComponent&#45;&gt;ItemsModule</title>
<path fill="none" stroke="black" d="M3850,-122.24C3850,-137.57 3850,-157 3850,-157 3850,-157 4619.76,-157 4619.76,-157"/>
<polygon fill="black" stroke="black" points="4619.76,-160.5 4629.76,-157 4619.76,-153.5 4619.76,-160.5"/>
</g>
<!-- ItemsCategoryTreeComponent -->
<g id="node30" class="node">
<title>ItemsCategoryTreeComponent</title>
<polygon fill="#ffffb3" stroke="black" points="3749.89,-122 3560.11,-122 3560.11,-86 3749.89,-86 3749.89,-122"/>
<text text-anchor="middle" x="3655" y="-99.8" font-family="Times,serif" font-size="14.00">ItemsCategoryTreeComponent</text>
</g>
<!-- ItemsCategoryTreeComponent&#45;&gt;ItemsModule -->
<g id="edge30" class="edge">
<title>ItemsCategoryTreeComponent&#45;&gt;ItemsModule</title>
<path fill="none" stroke="black" d="M3655,-122.01C3655,-138.05 3655,-159 3655,-159 3655,-159 4619.52,-159 4619.52,-159"/>
<polygon fill="black" stroke="black" points="4619.52,-162.5 4629.52,-159 4619.52,-155.5 4619.52,-162.5"/>
</g>
<!-- MainItemCategoriesTreeComponent -->
<g id="node31" class="node">
<title>MainItemCategoriesTreeComponent</title>
<polygon fill="#ffffb3" stroke="black" points="3542.05,-122 3319.95,-122 3319.95,-86 3542.05,-86 3542.05,-122"/>
<text text-anchor="middle" x="3431" y="-99.8" font-family="Times,serif" font-size="14.00">MainItemCategoriesTreeComponent</text>
</g>
<!-- MainItemCategoriesTreeComponent&#45;&gt;ItemsModule -->
<g id="edge31" class="edge">
<title>MainItemCategoriesTreeComponent&#45;&gt;ItemsModule</title>
<path fill="none" stroke="black" d="M3431,-122.03C3431,-138.4 3431,-160 3431,-160 3431,-160 4619.62,-160 4619.62,-160"/>
<polygon fill="black" stroke="black" points="4619.62,-163.5 4629.62,-160 4619.62,-156.5 4619.62,-163.5"/>
</g>
<!-- MainWarehouseComponent -->
<g id="node32" class="node">
<title>MainWarehouseComponent</title>
<polygon fill="#ffffb3" stroke="black" points="3301.85,-122 3128.15,-122 3128.15,-86 3301.85,-86 3301.85,-122"/>
<text text-anchor="middle" x="3215" y="-99.8" font-family="Times,serif" font-size="14.00">MainWarehouseComponent</text>
</g>
<!-- MainWarehouseComponent&#45;&gt;ItemsModule -->
<g id="edge32" class="edge">
<title>MainWarehouseComponent&#45;&gt;ItemsModule</title>
<path fill="none" stroke="black" d="M3215,-122.03C3215,-139.06 3215,-162 3215,-162 3215,-162 4619.7,-162 4619.7,-162"/>
<polygon fill="black" stroke="black" points="4619.7,-165.5 4629.7,-162 4619.7,-158.5 4619.7,-165.5"/>
</g>
<!-- OperationTagAddComponent -->
<g id="node33" class="node">
<title>OperationTagAddComponent</title>
<polygon fill="#ffffb3" stroke="black" points="3109.68,-122 2926.32,-122 2926.32,-86 3109.68,-86 3109.68,-122"/>
<text text-anchor="middle" x="3018" y="-99.8" font-family="Times,serif" font-size="14.00">OperationTagAddComponent</text>
</g>
<!-- OperationTagAddComponent&#45;&gt;ItemsModule -->
<g id="edge33" class="edge">
<title>OperationTagAddComponent&#45;&gt;ItemsModule</title>
<path fill="none" stroke="black" d="M3018,-122.02C3018,-139.37 3018,-163 3018,-163 3018,-163 4619.82,-163 4619.82,-163"/>
<polygon fill="black" stroke="black" points="4619.82,-166.5 4629.82,-163 4619.82,-159.5 4619.82,-166.5"/>
</g>
<!-- OperationTagEditComponent -->
<g id="node34" class="node">
<title>OperationTagEditComponent</title>
<polygon fill="#ffffb3" stroke="black" points="2908.41,-122 2725.59,-122 2725.59,-86 2908.41,-86 2908.41,-122"/>
<text text-anchor="middle" x="2817" y="-99.8" font-family="Times,serif" font-size="14.00">OperationTagEditComponent</text>
</g>
<!-- OperationTagEditComponent&#45;&gt;ItemsModule -->
<g id="edge34" class="edge">
<title>OperationTagEditComponent&#45;&gt;ItemsModule</title>
<path fill="none" stroke="black" d="M2817,-122C2817,-139.68 2817,-164 2817,-164 2817,-164 4619.53,-164 4619.53,-164"/>
<polygon fill="black" stroke="black" points="4619.53,-167.5 4629.53,-164 4619.53,-160.5 4619.53,-167.5"/>
</g>
<!-- OperationTagListComponent -->
<g id="node35" class="node">
<title>OperationTagListComponent</title>
<polygon fill="#ffffb3" stroke="black" points="2707.36,-122 2526.64,-122 2526.64,-86 2707.36,-86 2707.36,-122"/>
<text text-anchor="middle" x="2617" y="-99.8" font-family="Times,serif" font-size="14.00">OperationTagListComponent</text>
</g>
<!-- OperationTagListComponent&#45;&gt;ItemsModule -->
<g id="edge35" class="edge">
<title>OperationTagListComponent&#45;&gt;ItemsModule</title>
<path fill="none" stroke="black" d="M2617,-122.27C2617,-140.56 2617,-166 2617,-166 2617,-166 4619.62,-166 4619.62,-166"/>
<polygon fill="black" stroke="black" points="4619.62,-169.5 4629.62,-166 4619.62,-162.5 4619.62,-169.5"/>
</g>
<!-- OperationTagMainComponent -->
<g id="node36" class="node">
<title>OperationTagMainComponent</title>
<polygon fill="#ffffb3" stroke="black" points="2508.13,-122 2319.87,-122 2319.87,-86 2508.13,-86 2508.13,-122"/>
<text text-anchor="middle" x="2414" y="-99.8" font-family="Times,serif" font-size="14.00">OperationTagMainComponent</text>
</g>
<!-- OperationTagMainComponent&#45;&gt;ItemsModule -->
<g id="edge36" class="edge">
<title>OperationTagMainComponent&#45;&gt;ItemsModule</title>
<path fill="none" stroke="black" d="M2414,-122.22C2414,-140.83 2414,-167 2414,-167 2414,-167 4619.84,-167 4619.84,-167"/>
<polygon fill="black" stroke="black" points="4619.84,-170.5 4629.84,-167 4619.84,-163.5 4619.84,-170.5"/>
</g>
<!-- UOMAddComponent -->
<g id="node37" class="node">
<title>UOMAddComponent</title>
<polygon fill="#ffffb3" stroke="black" points="2302.1,-122 2163.9,-122 2163.9,-86 2302.1,-86 2302.1,-122"/>
<text text-anchor="middle" x="2233" y="-99.8" font-family="Times,serif" font-size="14.00">UOMAddComponent</text>
</g>
<!-- UOMAddComponent&#45;&gt;ItemsModule -->
<g id="edge37" class="edge">
<title>UOMAddComponent&#45;&gt;ItemsModule</title>
<path fill="none" stroke="black" d="M2233,-122.11C2233,-141.34 2233,-169 2233,-169 2233,-169 4619.74,-169 4619.74,-169"/>
<polygon fill="black" stroke="black" points="4619.74,-172.5 4629.74,-169 4619.74,-165.5 4619.74,-172.5"/>
</g>
<!-- UOMEditComponent -->
<g id="node38" class="node">
<title>UOMEditComponent</title>
<polygon fill="#ffffb3" stroke="black" points="2145.82,-122 2008.18,-122 2008.18,-86 2145.82,-86 2145.82,-122"/>
<text text-anchor="middle" x="2077" y="-99.8" font-family="Times,serif" font-size="14.00">UOMEditComponent</text>
</g>
<!-- UOMEditComponent&#45;&gt;ItemsModule -->
<g id="edge38" class="edge">
<title>UOMEditComponent&#45;&gt;ItemsModule</title>
<path fill="none" stroke="black" d="M2077,-122.03C2077,-141.58 2077,-170 2077,-170 2077,-170 4619.63,-170 4619.63,-170"/>
<polygon fill="black" stroke="black" points="4619.63,-173.5 4629.63,-170 4619.63,-166.5 4619.63,-173.5"/>
</g>
<!-- UOMListComponent -->
<g id="node39" class="node">
<title>UOMListComponent</title>
<polygon fill="#ffffb3" stroke="black" points="1989.77,-122 1854.23,-122 1854.23,-86 1989.77,-86 1989.77,-122"/>
<text text-anchor="middle" x="1922" y="-99.8" font-family="Times,serif" font-size="14.00">UOMListComponent</text>
</g>
<!-- UOMListComponent&#45;&gt;ItemsModule -->
<g id="edge39" class="edge">
<title>UOMListComponent&#45;&gt;ItemsModule</title>
<path fill="none" stroke="black" d="M1922,-122.22C1922,-142.37 1922,-172 1922,-172 1922,-172 4619.8,-172 4619.8,-172"/>
<polygon fill="black" stroke="black" points="4619.8,-175.5 4629.8,-172 4619.8,-168.5 4619.8,-175.5"/>
</g>
<!-- UOMMainComponent -->
<g id="node40" class="node">
<title>UOMMainComponent</title>
<polygon fill="#ffffb3" stroke="black" points="1835.54,-122 1692.46,-122 1692.46,-86 1835.54,-86 1835.54,-122"/>
<text text-anchor="middle" x="1764" y="-99.8" font-family="Times,serif" font-size="14.00">UOMMainComponent</text>
</g>
<!-- UOMMainComponent&#45;&gt;ItemsModule -->
<g id="edge40" class="edge">
<title>UOMMainComponent&#45;&gt;ItemsModule</title>
<path fill="none" stroke="black" d="M1764,-122.13C1764,-142.57 1764,-173 1764,-173 1764,-173 4619.57,-173 4619.57,-173"/>
<polygon fill="black" stroke="black" points="4619.57,-176.5 4629.57,-173 4619.57,-169.5 4619.57,-176.5"/>
</g>
<!-- UomViewComponent -->
<g id="node41" class="node">
<title>UomViewComponent</title>
<polygon fill="#ffffb3" stroke="black" points="1673.65,-122 1534.35,-122 1534.35,-86 1673.65,-86 1673.65,-122"/>
<text text-anchor="middle" x="1604" y="-99.8" font-family="Times,serif" font-size="14.00">UomViewComponent</text>
</g>
<!-- UomViewComponent&#45;&gt;ItemsModule -->
<g id="edge41" class="edge">
<title>UomViewComponent&#45;&gt;ItemsModule</title>
<path fill="none" stroke="black" d="M1604,-122.28C1604,-143.32 1604,-175 1604,-175 1604,-175 4619.81,-175 4619.81,-175"/>
<polygon fill="black" stroke="black" points="4619.81,-178.5 4629.81,-175 4619.81,-171.5 4619.81,-178.5"/>
</g>
<!-- ViewItemCategoryComponent -->
<g id="node42" class="node">
<title>ViewItemCategoryComponent</title>
<polygon fill="#ffffb3" stroke="black" points="1516.12,-122 1327.88,-122 1327.88,-86 1516.12,-86 1516.12,-122"/>
<text text-anchor="middle" x="1422" y="-99.8" font-family="Times,serif" font-size="14.00">ViewItemCategoryComponent</text>
</g>
<!-- ViewItemCategoryComponent&#45;&gt;ItemsModule -->
<g id="edge42" class="edge">
<title>ViewItemCategoryComponent&#45;&gt;ItemsModule</title>
<path fill="none" stroke="black" d="M1422,-122.17C1422,-143.5 1422,-176 1422,-176 1422,-176 4619.64,-176 4619.64,-176"/>
<polygon fill="black" stroke="black" points="4619.64,-179.5 4629.64,-176 4619.64,-172.5 4619.64,-179.5"/>
</g>
<!-- ViewItemDefinitionComponent -->
<g id="node43" class="node">
<title>ViewItemDefinitionComponent</title>
<polygon fill="#ffffb3" stroke="black" points="1309.35,-122 1114.65,-122 1114.65,-86 1309.35,-86 1309.35,-122"/>
<text text-anchor="middle" x="1212" y="-99.8" font-family="Times,serif" font-size="14.00">ViewItemDefinitionComponent</text>
</g>
<!-- ViewItemDefinitionComponent&#45;&gt;ItemsModule -->
<g id="edge43" class="edge">
<title>ViewItemDefinitionComponent&#45;&gt;ItemsModule</title>
<path fill="none" stroke="black" d="M1212,-122.04C1212,-143.66 1212,-177 1212,-177 1212,-177 4619.63,-177 4619.63,-177"/>
<polygon fill="black" stroke="black" points="4619.63,-180.5 4629.63,-177 4619.63,-173.5 4619.63,-180.5"/>
</g>
<!-- ViewQRcodeComponent -->
<g id="node44" class="node">
<title>ViewQRcodeComponent</title>
<polygon fill="#ffffb3" stroke="black" points="1096.52,-122 939.48,-122 939.48,-86 1096.52,-86 1096.52,-122"/>
<text text-anchor="middle" x="1018" y="-99.8" font-family="Times,serif" font-size="14.00">ViewQRcodeComponent</text>
</g>
<!-- ViewQRcodeComponent&#45;&gt;ItemsModule -->
<g id="edge44" class="edge">
<title>ViewQRcodeComponent&#45;&gt;ItemsModule</title>
<path fill="none" stroke="black" d="M1018,-122.16C1018,-144.35 1018,-179 1018,-179 1018,-179 4619.75,-179 4619.75,-179"/>
<polygon fill="black" stroke="black" points="4619.75,-182.5 4629.75,-179 4619.75,-175.5 4619.75,-182.5"/>
</g>
<!-- ViewVariantPopupComponent -->
<g id="node45" class="node">
<title>ViewVariantPopupComponent</title>
<polygon fill="#ffffb3" stroke="black" points="921.91,-122 732.09,-122 732.09,-86 921.91,-86 921.91,-122"/>
<text text-anchor="middle" x="827" y="-99.8" font-family="Times,serif" font-size="14.00">ViewVariantPopupComponent</text>
</g>
<!-- ViewVariantPopupComponent&#45;&gt;ItemsModule -->
<g id="edge45" class="edge">
<title>ViewVariantPopupComponent&#45;&gt;ItemsModule</title>
<path fill="none" stroke="black" d="M827,-122.01C827,-144.49 827,-180 827,-180 827,-180 4619.78,-180 4619.78,-180"/>
<polygon fill="black" stroke="black" points="4619.78,-183.5 4629.78,-180 4619.78,-176.5 4619.78,-183.5"/>
</g>
<!-- ViewWarehouseComponent -->
<g id="node46" class="node">
<title>ViewWarehouseComponent</title>
<polygon fill="#ffffb3" stroke="black" points="714.11,-122 539.89,-122 539.89,-86 714.11,-86 714.11,-122"/>
<text text-anchor="middle" x="627" y="-99.8" font-family="Times,serif" font-size="14.00">ViewWarehouseComponent</text>
</g>
<!-- ViewWarehouseComponent&#45;&gt;ItemsModule -->
<g id="edge46" class="edge">
<title>ViewWarehouseComponent&#45;&gt;ItemsModule</title>
<path fill="none" stroke="black" d="M627,-122.09C627,-145.13 627,-182 627,-182 627,-182 4619.54,-182 4619.54,-182"/>
<polygon fill="black" stroke="black" points="4619.54,-185.5 4629.54,-182 4619.54,-178.5 4619.54,-185.5"/>
</g>
<!-- WarehouseListComponent -->
<g id="node47" class="node">
<title>WarehouseListComponent</title>
<polygon fill="#ffffb3" stroke="black" points="522.07,-122 355.93,-122 355.93,-86 522.07,-86 522.07,-122"/>
<text text-anchor="middle" x="439" y="-99.8" font-family="Times,serif" font-size="14.00">WarehouseListComponent</text>
</g>
<!-- WarehouseListComponent&#45;&gt;ItemsModule -->
<g id="edge47" class="edge">
<title>WarehouseListComponent&#45;&gt;ItemsModule</title>
<path fill="none" stroke="black" d="M439,-122.32C439,-145.66 439,-183 439,-183 439,-183 4619.59,-183 4619.59,-183"/>
<polygon fill="black" stroke="black" points="4619.59,-186.5 4629.59,-183 4619.59,-179.5 4619.59,-186.5"/>
</g>
<!-- WarehouseTabsComponent -->
<g id="node48" class="node">
<title>WarehouseTabsComponent</title>
<polygon fill="#ffffb3" stroke="black" points="337.51,-122 166.49,-122 166.49,-86 337.51,-86 337.51,-122"/>
<text text-anchor="middle" x="252" y="-99.8" font-family="Times,serif" font-size="14.00">WarehouseTabsComponent</text>
</g>
<!-- WarehouseTabsComponent&#45;&gt;ItemsModule -->
<g id="edge48" class="edge">
<title>WarehouseTabsComponent&#45;&gt;ItemsModule</title>
<path fill="none" stroke="black" d="M252,-122.38C252,-146.28 252,-185 252,-185 252,-185 4619.78,-185 4619.78,-185"/>
<polygon fill="black" stroke="black" points="4619.78,-188.5 4629.78,-185 4619.78,-181.5 4619.78,-188.5"/>
</g>
<!-- SharedLibModule -->
<g id="node50" class="node">
<title>SharedLibModule</title>
<polygon fill="#8dd3c7" stroke="black" points="141.87,-122 138.87,-126 117.87,-126 114.87,-122 24.13,-122 24.13,-86 141.87,-86 141.87,-122"/>
<text text-anchor="middle" x="83" y="-99.8" font-family="Times,serif" font-size="14.00">SharedLibModule</text>
</g>
<!-- SharedLibModule&#45;&gt;ItemsModule -->
<g id="edge49" class="edge">
<title>SharedLibModule&#45;&gt;ItemsModule</title>
<path fill="none" stroke="black" d="M83,-122.2C83,-146.36 83,-186 83,-186 83,-186 4619.55,-186 4619.55,-186"/>
<polygon fill="black" stroke="black" points="4619.55,-189.5 4629.55,-186 4619.55,-182.5 4619.55,-189.5"/>
</g>
</g>
</svg>
