<?xml version="1.0" encoding="UTF-8" standalone="no"?>
<!DOCTYPE svg PUBLIC "-//W3C//DTD SVG 1.1//EN"
 "http://www.w3.org/Graphics/SVG/1.1/DTD/svg11.dtd">
<!-- Generated by graphviz version 2.47.0 (20210316.0004)
 -->
<!-- Title: dependencies Pages: 1 -->
<svg width="1005pt" height="284pt"
 viewBox="0.00 0.00 1005.00 284.00" xmlns="http://www.w3.org/2000/svg" xmlns:xlink="http://www.w3.org/1999/xlink">
<g id="graph0" class="graph" transform="scale(1 1) rotate(0) translate(4 280)">
<title>dependencies</title>
<polygon fill="white" stroke="transparent" points="-4,4 -4,-280 1001,-280 1001,4 -4,4"/>
<text text-anchor="start" x="477.51" y="-42.4" font-family="Times-12" font-weight="bold" font-size="14.00">Legend</text>
<polygon fill="#ffffb3" stroke="transparent" points="264.5,-10 264.5,-30 284.5,-30 284.5,-10 264.5,-10"/>
<text text-anchor="start" x="288.13" y="-15.4" font-family="Times-12" font-size="14.00"> &#160;Declarations</text>
<polygon fill="#8dd3c7" stroke="transparent" points="377.5,-10 377.5,-30 397.5,-30 397.5,-10 377.5,-10"/>
<text text-anchor="start" x="401.23" y="-15.4" font-family="Times-12" font-size="14.00"> &#160;Module</text>
<polygon fill="#80b1d3" stroke="transparent" points="463.5,-10 463.5,-30 483.5,-30 483.5,-10 463.5,-10"/>
<text text-anchor="start" x="487.28" y="-15.4" font-family="Times-12" font-size="14.00"> &#160;Bootstrap</text>
<polygon fill="#fdb462" stroke="transparent" points="560.5,-10 560.5,-30 580.5,-30 580.5,-10 560.5,-10"/>
<text text-anchor="start" x="584.17" y="-15.4" font-family="Times-12" font-size="14.00"> &#160;Providers</text>
<polygon fill="#fb8072" stroke="transparent" points="656.5,-10 656.5,-30 676.5,-30 676.5,-10 656.5,-10"/>
<text text-anchor="start" x="680.23" y="-15.4" font-family="Times-12" font-size="14.00"> &#160;Exports</text>
<g id="clust1" class="cluster">
<title>cluster_ExtrasModule</title>
<polygon fill="none" stroke="black" stroke-dasharray="1,5" points="8,-70 8,-268 989,-268 989,-70 8,-70"/>
</g>
<g id="clust9" class="cluster">
<title>cluster_ExtrasModule_exports</title>
<polygon fill="none" stroke="black" points="16,-208 16,-260 981,-260 981,-208 16,-208"/>
</g>
<g id="clust2" class="cluster">
<title>cluster_ExtrasModule_declarations</title>
<polygon fill="none" stroke="black" points="24,-78 24,-130 971,-130 971,-78 24,-78"/>
</g>
<!-- LayoutScrollTopComponent -->
<g id="node1" class="node">
<title>LayoutScrollTopComponent</title>
<polygon fill="#ffffb3" stroke="black" points="963.48,-122 786.52,-122 786.52,-86 963.48,-86 963.48,-122"/>
<text text-anchor="middle" x="875" y="-99.8" font-family="Times,serif" font-size="14.00">LayoutScrollTopComponent</text>
</g>
<!-- ExtrasModule -->
<g id="node6" class="node">
<title>ExtrasModule</title>
<polygon fill="#8dd3c7" stroke="black" points="526.81,-187 523.81,-191 502.81,-191 499.81,-187 431.19,-187 431.19,-151 526.81,-151 526.81,-187"/>
<text text-anchor="middle" x="479" y="-164.8" font-family="Times,serif" font-size="14.00">ExtrasModule</text>
</g>
<!-- LayoutScrollTopComponent&#45;&gt;ExtrasModule -->
<g id="edge1" class="edge">
<title>LayoutScrollTopComponent&#45;&gt;ExtrasModule</title>
<path fill="none" stroke="black" d="M906.58,-122.27C906.58,-140.56 906.58,-166 906.58,-166 906.58,-166 536.8,-166 536.8,-166"/>
<polygon fill="black" stroke="black" points="536.8,-162.5 526.8,-166 536.8,-169.5 536.8,-162.5"/>
</g>
<!-- NotificationsInnerComponent -->
<g id="node2" class="node">
<title>NotificationsInnerComponent</title>
<polygon fill="#ffffb3" stroke="black" points="768.96,-122 585.04,-122 585.04,-86 768.96,-86 768.96,-122"/>
<text text-anchor="middle" x="677" y="-99.8" font-family="Times,serif" font-size="14.00">NotificationsInnerComponent</text>
</g>
<!-- NotificationsInnerComponent&#45;&gt;ExtrasModule -->
<g id="edge2" class="edge">
<title>NotificationsInnerComponent&#45;&gt;ExtrasModule</title>
<path fill="none" stroke="black" d="M708.41,-122.01C708.41,-138.05 708.41,-159 708.41,-159 708.41,-159 536.81,-159 536.81,-159"/>
<polygon fill="black" stroke="black" points="536.81,-155.5 526.81,-159 536.81,-162.5 536.81,-155.5"/>
</g>
<!-- QuickLinksInnerComponent -->
<g id="node3" class="node">
<title>QuickLinksInnerComponent</title>
<polygon fill="#ffffb3" stroke="black" points="567.47,-122 390.53,-122 390.53,-86 567.47,-86 567.47,-122"/>
<text text-anchor="middle" x="479" y="-99.8" font-family="Times,serif" font-size="14.00">QuickLinksInnerComponent</text>
</g>
<!-- QuickLinksInnerComponent&#45;&gt;ExtrasModule -->
<g id="edge3" class="edge">
<title>QuickLinksInnerComponent&#45;&gt;ExtrasModule</title>
<path fill="none" stroke="black" d="M479,-122.11C479,-122.11 479,-140.99 479,-140.99"/>
<polygon fill="black" stroke="black" points="475.5,-140.99 479,-150.99 482.5,-140.99 475.5,-140.99"/>
</g>
<!-- SearchResultInnerComponent -->
<g id="node4" class="node">
<title>SearchResultInnerComponent</title>
<polygon fill="#ffffb3" stroke="black" points="372.23,-122 187.77,-122 187.77,-86 372.23,-86 372.23,-122"/>
<text text-anchor="middle" x="280" y="-99.8" font-family="Times,serif" font-size="14.00">SearchResultInnerComponent</text>
</g>
<!-- SearchResultInnerComponent&#45;&gt;ExtrasModule -->
<g id="edge4" class="edge">
<title>SearchResultInnerComponent&#45;&gt;ExtrasModule</title>
<path fill="none" stroke="black" d="M309.96,-122.01C309.96,-138.05 309.96,-159 309.96,-159 309.96,-159 421.01,-159 421.01,-159"/>
<polygon fill="black" stroke="black" points="421.01,-162.5 431.01,-159 421.01,-155.5 421.01,-162.5"/>
</g>
<!-- UserInnerComponent -->
<g id="node5" class="node">
<title>UserInnerComponent</title>
<polygon fill="#ffffb3" stroke="black" points="169.79,-122 32.21,-122 32.21,-86 169.79,-86 169.79,-122"/>
<text text-anchor="middle" x="101" y="-99.8" font-family="Times,serif" font-size="14.00">UserInnerComponent</text>
</g>
<!-- UserInnerComponent&#45;&gt;ExtrasModule -->
<g id="edge5" class="edge">
<title>UserInnerComponent&#45;&gt;ExtrasModule</title>
<path fill="none" stroke="black" d="M120.38,-122.27C120.38,-140.56 120.38,-166 120.38,-166 120.38,-166 421.01,-166 421.01,-166"/>
<polygon fill="black" stroke="black" points="421.01,-169.5 431.01,-166 421.01,-162.5 421.01,-169.5"/>
</g>
<!-- LayoutScrollTopComponent  -->
<g id="node7" class="node">
<title>LayoutScrollTopComponent </title>
<polygon fill="#fb8072" stroke="black" points="973.48,-252 792.52,-252 792.52,-216 973.48,-216 973.48,-252"/>
<text text-anchor="middle" x="883" y="-229.8" font-family="Times,serif" font-size="14.00">LayoutScrollTopComponent </text>
</g>
<!-- ExtrasModule&#45;&gt;LayoutScrollTopComponent  -->
<g id="edge6" class="edge">
<title>ExtrasModule&#45;&gt;LayoutScrollTopComponent </title>
<path fill="none" stroke="black" stroke-dasharray="5,2" d="M526.7,-173C626.81,-173 849.67,-173 849.67,-173 849.67,-173 849.67,-205.7 849.67,-205.7"/>
<polygon fill="black" stroke="black" points="846.17,-205.7 849.67,-215.7 853.17,-205.7 846.17,-205.7"/>
</g>
<!-- NotificationsInnerComponent  -->
<g id="node8" class="node">
<title>NotificationsInnerComponent </title>
<polygon fill="#fb8072" stroke="black" points="774.96,-252 587.04,-252 587.04,-216 774.96,-216 774.96,-252"/>
<text text-anchor="middle" x="681" y="-229.8" font-family="Times,serif" font-size="14.00">NotificationsInnerComponent </text>
</g>
<!-- ExtrasModule&#45;&gt;NotificationsInnerComponent  -->
<g id="edge7" class="edge">
<title>ExtrasModule&#45;&gt;NotificationsInnerComponent </title>
<path fill="none" stroke="black" stroke-dasharray="5,2" d="M526.93,-180C576.85,-180 647.84,-180 647.84,-180 647.84,-180 647.84,-205.72 647.84,-205.72"/>
<polygon fill="black" stroke="black" points="644.34,-205.72 647.84,-215.72 651.34,-205.72 644.34,-205.72"/>
</g>
<!-- QuickLinksInnerComponent  -->
<g id="node9" class="node">
<title>QuickLinksInnerComponent </title>
<polygon fill="#fb8072" stroke="black" points="569.47,-252 388.53,-252 388.53,-216 569.47,-216 569.47,-252"/>
<text text-anchor="middle" x="479" y="-229.8" font-family="Times,serif" font-size="14.00">QuickLinksInnerComponent </text>
</g>
<!-- ExtrasModule&#45;&gt;QuickLinksInnerComponent  -->
<g id="edge8" class="edge">
<title>ExtrasModule&#45;&gt;QuickLinksInnerComponent </title>
<path fill="none" stroke="black" stroke-dasharray="5,2" d="M479,-187.11C479,-187.11 479,-205.99 479,-205.99"/>
<polygon fill="black" stroke="black" points="475.5,-205.99 479,-215.99 482.5,-205.99 475.5,-205.99"/>
</g>
<!-- SearchResultInnerComponent  -->
<g id="node10" class="node">
<title>SearchResultInnerComponent </title>
<polygon fill="#fb8072" stroke="black" points="371.23,-252 182.77,-252 182.77,-216 371.23,-216 371.23,-252"/>
<text text-anchor="middle" x="277" y="-229.8" font-family="Times,serif" font-size="14.00">SearchResultInnerComponent </text>
</g>
<!-- ExtrasModule&#45;&gt;SearchResultInnerComponent  -->
<g id="edge9" class="edge">
<title>ExtrasModule&#45;&gt;SearchResultInnerComponent </title>
<path fill="none" stroke="black" stroke-dasharray="5,2" d="M431.3,-180C363.87,-180 248.79,-180 248.79,-180 248.79,-180 248.79,-205.72 248.79,-205.72"/>
<polygon fill="black" stroke="black" points="245.29,-205.72 248.79,-215.72 252.29,-205.72 245.29,-205.72"/>
</g>
<!-- UserInnerComponent  -->
<g id="node11" class="node">
<title>UserInnerComponent </title>
<polygon fill="#fb8072" stroke="black" points="164.29,-252 23.71,-252 23.71,-216 164.29,-216 164.29,-252"/>
<text text-anchor="middle" x="94" y="-229.8" font-family="Times,serif" font-size="14.00">UserInnerComponent </text>
</g>
<!-- ExtrasModule&#45;&gt;UserInnerComponent  -->
<g id="edge10" class="edge">
<title>ExtrasModule&#45;&gt;UserInnerComponent </title>
<path fill="none" stroke="black" stroke-dasharray="5,2" d="M431.23,-173C324.58,-173 76.37,-173 76.37,-173 76.37,-173 76.37,-205.7 76.37,-205.7"/>
<polygon fill="black" stroke="black" points="72.87,-205.7 76.37,-215.7 79.87,-205.7 72.87,-205.7"/>
</g>
</g>
</svg>
