<?xml version="1.0" encoding="UTF-8" standalone="no"?>
<!DOCTYPE svg PUBLIC "-//W3C//DTD SVG 1.1//EN"
 "http://www.w3.org/Graphics/SVG/1.1/DTD/svg11.dtd">
<!-- Generated by graphviz version 2.47.0 (20210316.0004)
 -->
<!-- Title: dependencies Pages: 1 -->
<svg width="2516pt" height="211pt"
 viewBox="0.00 0.00 2516.00 211.00" xmlns="http://www.w3.org/2000/svg" xmlns:xlink="http://www.w3.org/1999/xlink">
<g id="graph0" class="graph" transform="scale(1 1) rotate(0) translate(4 207)">
<title>dependencies</title>
<polygon fill="white" stroke="transparent" points="-4,4 -4,-207 2512,-207 2512,4 -4,4"/>
<text text-anchor="start" x="1233.01" y="-42.4" font-family="Times-12" font-weight="bold" font-size="14.00">Legend</text>
<polygon fill="#ffffb3" stroke="transparent" points="1020,-10 1020,-30 1040,-30 1040,-10 1020,-10"/>
<text text-anchor="start" x="1043.63" y="-15.4" font-family="Times-12" font-size="14.00"> &#160;Declarations</text>
<polygon fill="#8dd3c7" stroke="transparent" points="1133,-10 1133,-30 1153,-30 1153,-10 1133,-10"/>
<text text-anchor="start" x="1156.73" y="-15.4" font-family="Times-12" font-size="14.00"> &#160;Module</text>
<polygon fill="#80b1d3" stroke="transparent" points="1219,-10 1219,-30 1239,-30 1239,-10 1219,-10"/>
<text text-anchor="start" x="1242.78" y="-15.4" font-family="Times-12" font-size="14.00"> &#160;Bootstrap</text>
<polygon fill="#fdb462" stroke="transparent" points="1316,-10 1316,-30 1336,-30 1336,-10 1316,-10"/>
<text text-anchor="start" x="1339.67" y="-15.4" font-family="Times-12" font-size="14.00"> &#160;Providers</text>
<polygon fill="#fb8072" stroke="transparent" points="1412,-10 1412,-30 1432,-30 1432,-10 1412,-10"/>
<text text-anchor="start" x="1435.73" y="-15.4" font-family="Times-12" font-size="14.00"> &#160;Exports</text>
<g id="clust1" class="cluster">
<title>cluster_CompanyModule</title>
<polygon fill="none" stroke="black" stroke-dasharray="1,5" points="8,-70 8,-195 2500,-195 2500,-70 8,-70"/>
</g>
<g id="clust2" class="cluster">
<title>cluster_CompanyModule_declarations</title>
<polygon fill="none" stroke="black" points="607,-78 607,-130 2492,-130 2492,-78 607,-78"/>
</g>
<g id="clust16" class="cluster">
<title>cluster_CompanyModule_providers</title>
<polygon fill="none" stroke="black" points="451,-78 451,-130 599,-130 599,-78 451,-78"/>
</g>
<g id="clust13" class="cluster">
<title>cluster_CompanyModule_imports</title>
<polygon fill="none" stroke="black" points="16,-78 16,-130 443,-130 443,-78 16,-78"/>
</g>
<!-- CompaniesListComponent -->
<g id="node1" class="node">
<title>CompaniesListComponent</title>
<polygon fill="#ffffb3" stroke="black" points="2484.1,-122 2317.9,-122 2317.9,-86 2484.1,-86 2484.1,-122"/>
<text text-anchor="middle" x="2401" y="-99.8" font-family="Times,serif" font-size="14.00">CompaniesListComponent</text>
</g>
<!-- CompanyModule -->
<g id="node11" class="node">
<title>CompanyModule</title>
<polygon fill="#8dd3c7" stroke="black" points="1196.99,-187 1193.99,-191 1172.99,-191 1169.99,-187 1083.01,-187 1083.01,-151 1196.99,-151 1196.99,-187"/>
<text text-anchor="middle" x="1140" y="-164.8" font-family="Times,serif" font-size="14.00">CompanyModule</text>
</g>
<!-- CompaniesListComponent&#45;&gt;CompanyModule -->
<g id="edge1" class="edge">
<title>CompaniesListComponent&#45;&gt;CompanyModule</title>
<path fill="none" stroke="black" d="M2401,-122.09C2401,-145.13 2401,-182 2401,-182 2401,-182 1207.05,-182 1207.05,-182"/>
<polygon fill="black" stroke="black" points="1207.05,-178.5 1197.05,-182 1207.05,-185.5 1207.05,-178.5"/>
</g>
<!-- CompanyAddresComponent -->
<g id="node2" class="node">
<title>CompanyAddresComponent</title>
<polygon fill="#ffffb3" stroke="black" points="2300.2,-122 2123.8,-122 2123.8,-86 2300.2,-86 2300.2,-122"/>
<text text-anchor="middle" x="2212" y="-99.8" font-family="Times,serif" font-size="14.00">CompanyAddresComponent</text>
</g>
<!-- CompanyAddresComponent&#45;&gt;CompanyModule -->
<g id="edge2" class="edge">
<title>CompanyAddresComponent&#45;&gt;CompanyModule</title>
<path fill="none" stroke="black" d="M2212,-122.04C2212,-143.66 2212,-177 2212,-177 2212,-177 1207.26,-177 1207.26,-177"/>
<polygon fill="black" stroke="black" points="1207.26,-173.5 1197.26,-177 1207.26,-180.5 1207.26,-173.5"/>
</g>
<!-- CompanyBranchesComponent -->
<g id="node3" class="node">
<title>CompanyBranchesComponent</title>
<polygon fill="#ffffb3" stroke="black" points="2105.86,-122 1918.14,-122 1918.14,-86 2105.86,-86 2105.86,-122"/>
<text text-anchor="middle" x="2012" y="-99.8" font-family="Times,serif" font-size="14.00">CompanyBranchesComponent</text>
</g>
<!-- CompanyBranchesComponent&#45;&gt;CompanyModule -->
<g id="edge3" class="edge">
<title>CompanyBranchesComponent&#45;&gt;CompanyModule</title>
<path fill="none" stroke="black" d="M2012,-122.22C2012,-142.37 2012,-172 2012,-172 2012,-172 1207.21,-172 1207.21,-172"/>
<polygon fill="black" stroke="black" points="1207.21,-168.5 1197.21,-172 1207.21,-175.5 1207.21,-168.5"/>
</g>
<!-- CompanyContactComponent -->
<g id="node4" class="node">
<title>CompanyContactComponent</title>
<polygon fill="#ffffb3" stroke="black" points="1899.82,-122 1720.18,-122 1720.18,-86 1899.82,-86 1899.82,-122"/>
<text text-anchor="middle" x="1810" y="-99.8" font-family="Times,serif" font-size="14.00">CompanyContactComponent</text>
</g>
<!-- CompanyContactComponent&#45;&gt;CompanyModule -->
<g id="edge4" class="edge">
<title>CompanyContactComponent&#45;&gt;CompanyModule</title>
<path fill="none" stroke="black" d="M1810,-122.22C1810,-140.83 1810,-167 1810,-167 1810,-167 1207.12,-167 1207.12,-167"/>
<polygon fill="black" stroke="black" points="1207.12,-163.5 1197.12,-167 1207.12,-170.5 1207.12,-163.5"/>
</g>
<!-- CompanyHierarchyComponent -->
<g id="node5" class="node">
<title>CompanyHierarchyComponent</title>
<polygon fill="#ffffb3" stroke="black" points="1701.74,-122 1510.26,-122 1510.26,-86 1701.74,-86 1701.74,-122"/>
<text text-anchor="middle" x="1606" y="-99.8" font-family="Times,serif" font-size="14.00">CompanyHierarchyComponent</text>
</g>
<!-- CompanyHierarchyComponent&#45;&gt;CompanyModule -->
<g id="edge5" class="edge">
<title>CompanyHierarchyComponent&#45;&gt;CompanyModule</title>
<path fill="none" stroke="black" d="M1606,-122.03C1606,-139.06 1606,-162 1606,-162 1606,-162 1207.14,-162 1207.14,-162"/>
<polygon fill="black" stroke="black" points="1207.14,-158.5 1197.14,-162 1207.14,-165.5 1207.14,-158.5"/>
</g>
<!-- CompanyLegalComponent -->
<g id="node6" class="node">
<title>CompanyLegalComponent</title>
<polygon fill="#ffffb3" stroke="black" points="1491.65,-122 1324.35,-122 1324.35,-86 1491.65,-86 1491.65,-122"/>
<text text-anchor="middle" x="1408" y="-99.8" font-family="Times,serif" font-size="14.00">CompanyLegalComponent</text>
</g>
<!-- CompanyLegalComponent&#45;&gt;CompanyModule -->
<g id="edge6" class="edge">
<title>CompanyLegalComponent&#45;&gt;CompanyModule</title>
<path fill="none" stroke="black" d="M1408,-122.24C1408,-137.57 1408,-157 1408,-157 1408,-157 1207.16,-157 1207.16,-157"/>
<polygon fill="black" stroke="black" points="1207.16,-153.5 1197.16,-157 1207.16,-160.5 1207.16,-153.5"/>
</g>
<!-- EditBranchesComponent -->
<g id="node7" class="node">
<title>EditBranchesComponent</title>
<polygon fill="#ffffb3" stroke="black" points="1306.25,-122 1149.75,-122 1149.75,-86 1306.25,-86 1306.25,-122"/>
<text text-anchor="middle" x="1228" y="-99.8" font-family="Times,serif" font-size="14.00">EditBranchesComponent</text>
</g>
<!-- EditBranchesComponent&#45;&gt;CompanyModule -->
<g id="edge7" class="edge">
<title>EditBranchesComponent&#45;&gt;CompanyModule</title>
<path fill="none" stroke="black" d="M1173.31,-122.11C1173.31,-122.11 1173.31,-140.99 1173.31,-140.99"/>
<polygon fill="black" stroke="black" points="1169.81,-140.99 1173.31,-150.99 1176.81,-140.99 1169.81,-140.99"/>
</g>
<!-- EditCompanyComponent -->
<g id="node8" class="node">
<title>EditCompanyComponent</title>
<polygon fill="#ffffb3" stroke="black" points="1131.61,-122 972.39,-122 972.39,-86 1131.61,-86 1131.61,-122"/>
<text text-anchor="middle" x="1052" y="-99.8" font-family="Times,serif" font-size="14.00">EditCompanyComponent</text>
</g>
<!-- EditCompanyComponent&#45;&gt;CompanyModule -->
<g id="edge8" class="edge">
<title>EditCompanyComponent&#45;&gt;CompanyModule</title>
<path fill="none" stroke="black" d="M1107.28,-122.11C1107.28,-122.11 1107.28,-140.99 1107.28,-140.99"/>
<polygon fill="black" stroke="black" points="1103.78,-140.99 1107.28,-150.99 1110.78,-140.99 1103.78,-140.99"/>
</g>
<!-- NewBranchesComponent -->
<g id="node9" class="node">
<title>NewBranchesComponent</title>
<polygon fill="#ffffb3" stroke="black" points="954.85,-122 795.15,-122 795.15,-86 954.85,-86 954.85,-122"/>
<text text-anchor="middle" x="875" y="-99.8" font-family="Times,serif" font-size="14.00">NewBranchesComponent</text>
</g>
<!-- NewBranchesComponent&#45;&gt;CompanyModule -->
<g id="edge9" class="edge">
<title>NewBranchesComponent&#45;&gt;CompanyModule</title>
<path fill="none" stroke="black" d="M875,-122.24C875,-137.57 875,-157 875,-157 875,-157 1072.83,-157 1072.83,-157"/>
<polygon fill="black" stroke="black" points="1072.83,-160.5 1082.83,-157 1072.83,-153.5 1072.83,-160.5"/>
</g>
<!-- NewCompanyComponent -->
<g id="node10" class="node">
<title>NewCompanyComponent</title>
<polygon fill="#ffffb3" stroke="black" points="777.2,-122 614.8,-122 614.8,-86 777.2,-86 777.2,-122"/>
<text text-anchor="middle" x="696" y="-99.8" font-family="Times,serif" font-size="14.00">NewCompanyComponent</text>
</g>
<!-- NewCompanyComponent&#45;&gt;CompanyModule -->
<g id="edge10" class="edge">
<title>NewCompanyComponent&#45;&gt;CompanyModule</title>
<path fill="none" stroke="black" d="M696,-122.03C696,-139.06 696,-162 696,-162 696,-162 1072.86,-162 1072.86,-162"/>
<polygon fill="black" stroke="black" points="1072.86,-165.5 1082.86,-162 1072.86,-158.5 1072.86,-165.5"/>
</g>
<!-- LayoutModule -->
<g id="node12" class="node">
<title>LayoutModule</title>
<polygon fill="#8dd3c7" stroke="black" points="434.71,-122 431.71,-126 410.71,-126 407.71,-122 335.29,-122 335.29,-86 434.71,-86 434.71,-122"/>
<text text-anchor="middle" x="385" y="-99.8" font-family="Times,serif" font-size="14.00">LayoutModule</text>
</g>
<!-- LayoutModule&#45;&gt;CompanyModule -->
<g id="edge11" class="edge">
<title>LayoutModule&#45;&gt;CompanyModule</title>
<path fill="none" stroke="black" d="M385,-122.22C385,-142.37 385,-172 385,-172 385,-172 1072.94,-172 1072.94,-172"/>
<polygon fill="black" stroke="black" points="1072.94,-175.5 1082.94,-172 1072.94,-168.5 1072.94,-175.5"/>
</g>
<!-- MicrotecAuthLibModule -->
<g id="node13" class="node">
<title>MicrotecAuthLibModule</title>
<polygon fill="#8dd3c7" stroke="black" points="317.52,-122 314.52,-126 293.52,-126 290.52,-122 160.48,-122 160.48,-86 317.52,-86 317.52,-122"/>
<text text-anchor="middle" x="239" y="-99.8" font-family="Times,serif" font-size="14.00">MicrotecAuthLibModule</text>
</g>
<!-- MicrotecAuthLibModule&#45;&gt;CompanyModule -->
<g id="edge12" class="edge">
<title>MicrotecAuthLibModule&#45;&gt;CompanyModule</title>
<path fill="none" stroke="black" d="M239,-122.04C239,-143.66 239,-177 239,-177 239,-177 1072.95,-177 1072.95,-177"/>
<polygon fill="black" stroke="black" points="1072.95,-180.5 1082.95,-177 1072.95,-173.5 1072.95,-180.5"/>
</g>
<!-- SharedLibModule -->
<g id="node14" class="node">
<title>SharedLibModule</title>
<polygon fill="#8dd3c7" stroke="black" points="141.87,-122 138.87,-126 117.87,-126 114.87,-122 24.13,-122 24.13,-86 141.87,-86 141.87,-122"/>
<text text-anchor="middle" x="83" y="-99.8" font-family="Times,serif" font-size="14.00">SharedLibModule</text>
</g>
<!-- SharedLibModule&#45;&gt;CompanyModule -->
<g id="edge13" class="edge">
<title>SharedLibModule&#45;&gt;CompanyModule</title>
<path fill="none" stroke="black" d="M83,-122.09C83,-145.13 83,-182 83,-182 83,-182 1072.8,-182 1072.8,-182"/>
<polygon fill="black" stroke="black" points="1072.8,-185.5 1082.8,-182 1072.8,-178.5 1072.8,-185.5"/>
</g>
<!-- RouterService -->
<g id="node15" class="node">
<title>RouterService</title>
<ellipse fill="#fdb462" stroke="black" cx="525" cy="-104" rx="66.05" ry="18"/>
<text text-anchor="middle" x="525" y="-99.8" font-family="Times,serif" font-size="14.00">RouterService</text>
</g>
<!-- RouterService&#45;&gt;CompanyModule -->
<g id="edge14" class="edge">
<title>RouterService&#45;&gt;CompanyModule</title>
<path fill="none" stroke="black" d="M525,-122.22C525,-140.83 525,-167 525,-167 525,-167 1072.97,-167 1072.97,-167"/>
<polygon fill="black" stroke="black" points="1072.97,-170.5 1082.97,-167 1072.97,-163.5 1072.97,-170.5"/>
</g>
</g>
</svg>
