<?xml version="1.0" encoding="UTF-8" standalone="no"?>
<!DOCTYPE svg PUBLIC "-//W3C//DTD SVG 1.1//EN"
 "http://www.w3.org/Graphics/SVG/1.1/DTD/svg11.dtd">
<!-- Generated by graphviz version 2.47.0 (20210316.0004)
 -->
<!-- Title: dependencies Pages: 1 -->
<svg width="533pt" height="211pt"
 viewBox="0.00 0.00 533.00 211.00" xmlns="http://www.w3.org/2000/svg" xmlns:xlink="http://www.w3.org/1999/xlink">
<g id="graph0" class="graph" transform="scale(1 1) rotate(0) translate(4 207)">
<title>dependencies</title>
<polygon fill="white" stroke="transparent" points="-4,4 -4,-207 529,-207 529,4 -4,4"/>
<text text-anchor="start" x="241.51" y="-42.4" font-family="Times-12" font-weight="bold" font-size="14.00">Legend</text>
<polygon fill="#ffffb3" stroke="transparent" points="28.5,-10 28.5,-30 48.5,-30 48.5,-10 28.5,-10"/>
<text text-anchor="start" x="52.13" y="-15.4" font-family="Times-12" font-size="14.00"> &#160;Declarations</text>
<polygon fill="#8dd3c7" stroke="transparent" points="141.5,-10 141.5,-30 161.5,-30 161.5,-10 141.5,-10"/>
<text text-anchor="start" x="165.23" y="-15.4" font-family="Times-12" font-size="14.00"> &#160;Module</text>
<polygon fill="#80b1d3" stroke="transparent" points="227.5,-10 227.5,-30 247.5,-30 247.5,-10 227.5,-10"/>
<text text-anchor="start" x="251.28" y="-15.4" font-family="Times-12" font-size="14.00"> &#160;Bootstrap</text>
<polygon fill="#fdb462" stroke="transparent" points="324.5,-10 324.5,-30 344.5,-30 344.5,-10 324.5,-10"/>
<text text-anchor="start" x="348.17" y="-15.4" font-family="Times-12" font-size="14.00"> &#160;Providers</text>
<polygon fill="#fb8072" stroke="transparent" points="420.5,-10 420.5,-30 440.5,-30 440.5,-10 420.5,-10"/>
<text text-anchor="start" x="444.23" y="-15.4" font-family="Times-12" font-size="14.00"> &#160;Exports</text>
<g id="clust1" class="cluster">
<title>cluster_SequenceModule</title>
<polygon fill="none" stroke="black" stroke-dasharray="1,5" points="8,-70 8,-195 517,-195 517,-70 8,-70"/>
</g>
<g id="clust2" class="cluster">
<title>cluster_SequenceModule_declarations</title>
<polygon fill="none" stroke="black" points="158,-78 158,-130 509,-130 509,-78 158,-78"/>
</g>
<g id="clust5" class="cluster">
<title>cluster_SequenceModule_imports</title>
<polygon fill="none" stroke="black" points="16,-78 16,-130 150,-130 150,-78 16,-78"/>
</g>
<!-- ConfirmSequenceComponent -->
<g id="node1" class="node">
<title>ConfirmSequenceComponent</title>
<polygon fill="#ffffb3" stroke="black" points="501.41,-122 318.59,-122 318.59,-86 501.41,-86 501.41,-122"/>
<text text-anchor="middle" x="410" y="-99.8" font-family="Times,serif" font-size="14.00">ConfirmSequenceComponent</text>
</g>
<!-- SequenceModule -->
<g id="node3" class="node">
<title>SequenceModule</title>
<polygon fill="#8dd3c7" stroke="black" points="289.69,-187 286.69,-191 265.69,-191 262.69,-187 176.31,-187 176.31,-151 289.69,-151 289.69,-187"/>
<text text-anchor="middle" x="233" y="-164.8" font-family="Times,serif" font-size="14.00">SequenceModule</text>
</g>
<!-- ConfirmSequenceComponent&#45;&gt;SequenceModule -->
<g id="edge1" class="edge">
<title>ConfirmSequenceComponent&#45;&gt;SequenceModule</title>
<path fill="none" stroke="black" d="M410,-122.11C410,-141.34 410,-169 410,-169 410,-169 299.98,-169 299.98,-169"/>
<polygon fill="black" stroke="black" points="299.98,-165.5 289.98,-169 299.98,-172.5 299.98,-165.5"/>
</g>
<!-- SequenceComponent -->
<g id="node2" class="node">
<title>SequenceComponent</title>
<polygon fill="#ffffb3" stroke="black" points="300.47,-122 165.53,-122 165.53,-86 300.47,-86 300.47,-122"/>
<text text-anchor="middle" x="233" y="-99.8" font-family="Times,serif" font-size="14.00">SequenceComponent</text>
</g>
<!-- SequenceComponent&#45;&gt;SequenceModule -->
<g id="edge2" class="edge">
<title>SequenceComponent&#45;&gt;SequenceModule</title>
<path fill="none" stroke="black" d="M233,-122.11C233,-122.11 233,-140.99 233,-140.99"/>
<polygon fill="black" stroke="black" points="229.5,-140.99 233,-150.99 236.5,-140.99 229.5,-140.99"/>
</g>
<!-- SharedLibModule -->
<g id="node4" class="node">
<title>SharedLibModule</title>
<polygon fill="#8dd3c7" stroke="black" points="141.87,-122 138.87,-126 117.87,-126 114.87,-122 24.13,-122 24.13,-86 141.87,-86 141.87,-122"/>
<text text-anchor="middle" x="83" y="-99.8" font-family="Times,serif" font-size="14.00">SharedLibModule</text>
</g>
<!-- SharedLibModule&#45;&gt;SequenceModule -->
<g id="edge3" class="edge">
<title>SharedLibModule&#45;&gt;SequenceModule</title>
<path fill="none" stroke="black" d="M83,-122.11C83,-141.34 83,-169 83,-169 83,-169 166.29,-169 166.29,-169"/>
<polygon fill="black" stroke="black" points="166.29,-172.5 176.29,-169 166.29,-165.5 166.29,-172.5"/>
</g>
</g>
</svg>
