
<svg width="50" height="59" viewBox="0 0 50 59" fill="none" xmlns="http://www.w3.org/2000/svg">
<path d="M47.6149 13.3358L33.4958 56.916C33.0094 58.4174 31.3981 59.2401 29.8968 58.7537L2.37599 49.8375C0.874647 49.3511 0.0519302 47.7397 0.538309 46.2385L14.6573 2.65821C15.1437 1.15687 16.755 0.334157 18.2563 0.820535L45.7771 9.7367C47.2785 10.2232 48.1013 11.8345 47.6149 13.3358Z" fill="#E17F24"/>
<path d="M47.6147 13.3356L33.4954 56.9162C33.0093 58.4167 31.397 59.24 29.8964 58.7539L2.37582 49.8379C0.8753 49.3517 0.0520002 47.7394 0.538146 46.2389L0.58746 46.0866C17.0433 50.0123 34.009 40.6826 39.3108 24.3181C41.0844 18.8433 41.3372 13.2423 40.3022 7.96289L45.777 9.73656C47.2776 10.2226 48.1009 11.835 47.6147 13.3356Z" fill="black" fill-opacity="0.0627451"/>
<path d="M41.4018 6.88281V52.6929C41.4018 54.271 40.1224 55.5503 38.5444 55.5503H9.61523C8.03706 55.5503 6.75781 54.2709 6.75781 52.6929V6.88281C6.75781 5.30464 8.03718 4.02539 9.61523 4.02539H38.5444C40.1225 4.02527 41.4018 5.30464 41.4018 6.88281Z" fill="white"/>
<path d="M41.4016 6.88085V52.6916C41.4016 54.269 40.1214 55.549 38.5441 55.549H9.61523C8.03788 55.549 6.75781 54.2688 6.75781 52.6916V52.5315C23.6225 51.1942 36.8868 37.0898 36.8868 19.888C36.8868 14.133 35.4009 8.72681 32.7892 4.02344H38.5441C40.1214 4.02344 41.4016 5.30362 41.4016 6.88085Z" fill="black" fill-opacity="0.0627451"/>
<path d="M23.0245 21.8122V12.8486C18.0731 12.8486 14.0625 16.8625 14.0625 21.8104C14.0625 26.762 18.073 30.7757 23.0245 30.7757C27.9752 30.7757 31.9854 26.7628 31.9863 21.8121H23.0245V21.8122Z" fill="#F14F4A"/>
<path d="M34.0947 19.7038L34.0948 19.702C34.0948 14.754 30.0843 10.7402 25.1328 10.7402V19.7038H34.0947Z" fill="#475DA9"/>
<path d="M34.0797 35.7454H14.0802C13.7382 35.7454 13.4609 35.4684 13.4609 35.1261C13.4609 34.7838 13.7382 34.5068 14.0802 34.5068H34.0797C34.4217 34.5068 34.699 34.7838 34.699 35.1261C34.699 35.4684 34.4216 35.7454 34.0797 35.7454ZM28.328 40.4995H14.0802C13.7382 40.4995 13.4609 40.2225 13.4609 39.8802C13.4609 39.5379 13.7382 39.2609 14.0802 39.2609H28.328C28.6701 39.2609 28.9473 39.5379 28.9473 39.8802C28.9473 40.2225 28.6701 40.4995 28.328 40.4995ZM28.328 45.2536H14.0802C13.7382 45.2536 13.4609 44.9766 13.4609 44.6343C13.4609 44.292 13.7382 44.015 14.0802 44.015H28.328C28.6701 44.015 28.9473 44.292 28.9473 44.6343C28.9473 44.9766 28.6701 45.2536 28.328 45.2536ZM28.328 50.0076H14.0802C13.7382 50.0076 13.4609 49.7307 13.4609 49.3884C13.4609 49.0461 13.7382 48.7691 14.0802 48.7691H28.328C28.4093 48.7691 28.4899 48.785 28.565 48.8162C28.6402 48.8473 28.7085 48.8929 28.766 48.9504C28.8235 49.0079 28.8691 49.0762 28.9002 49.1513C28.9313 49.2265 28.9473 49.307 28.9473 49.3884C28.9473 49.4697 28.9313 49.5502 28.9002 49.6254C28.8691 49.7005 28.8235 49.7688 28.766 49.8263C28.7085 49.8838 28.6402 49.9295 28.565 49.9606C28.4899 49.9917 28.4093 50.0077 28.328 50.0076Z" fill="#474747"/>
<path d="M49.999 40.1146V56.1669C49.999 57.6724 48.7786 58.8929 47.2731 58.8929H36.3119C34.8064 58.8929 33.5859 57.6725 33.5859 56.1669V40.1146C33.5859 38.6092 34.8063 37.3887 36.3119 37.3887H47.2731C48.7785 37.3888 49.999 38.6092 49.999 40.1146Z" fill="#1a90b0"/>
<path d="M49.9986 40.1171V56.1672C49.9986 57.671 48.7727 58.8913 47.269 58.8913H36.3073C35.0815 58.8913 34.0463 58.085 33.7031 56.9736C34.0518 57.0063 34.4114 57.0226 34.771 57.0226C41.4286 57.0226 46.8223 51.6236 46.8223 44.966C46.8223 42.0948 45.8144 39.4578 44.1364 37.3877H47.269C48.7727 37.3877 49.9986 38.608 49.9986 40.1171Z" fill="black" fill-opacity="0.0627451"/>
<path d="M36.1523 44.9803V40.7195C36.1523 40.0579 36.6887 39.5215 37.3503 39.5215H46.2288C46.8904 39.5215 47.4268 40.0579 47.4268 40.7195V44.9803C47.4268 45.6419 46.8904 46.1783 46.2288 46.1783H37.3503C36.6886 46.1783 36.1523 45.6419 36.1523 44.9803Z" fill="#E8F1F8"/>
<path d="M37.5173 49.3206H37.0607C36.7186 49.3206 36.4414 49.0436 36.4414 48.7013C36.4414 48.359 36.7186 48.082 37.0607 48.082H37.5173C37.8594 48.082 38.1366 48.359 38.1366 48.7013C38.1366 49.0436 37.8593 49.3206 37.5173 49.3206ZM40.5191 49.3206H40.0622C39.7202 49.3206 39.4429 49.0436 39.4429 48.7013C39.4429 48.359 39.7202 48.082 40.0622 48.082H40.5191C40.8611 48.082 41.1384 48.359 41.1384 48.7013C41.1384 49.0436 40.861 49.3206 40.5191 49.3206ZM43.5206 49.3206H43.0637C42.7217 49.3206 42.4444 49.0436 42.4444 48.7013C42.4444 48.359 42.7217 48.082 43.0637 48.082H43.5206C43.8626 48.082 44.1399 48.359 44.1399 48.7013C44.1399 49.0436 43.8625 49.3206 43.5206 49.3206ZM46.522 49.3206H46.0653C45.7233 49.3206 45.4461 49.0436 45.4461 48.7013C45.4461 48.359 45.7233 48.082 46.0653 48.082H46.522C46.864 48.082 47.1413 48.359 47.1413 48.7013C47.1413 49.0436 46.864 49.3206 46.522 49.3206ZM37.5173 51.8952H37.0607C36.7186 51.8952 36.4414 51.6182 36.4414 51.2759C36.4414 50.9336 36.7186 50.6566 37.0607 50.6566H37.5173C37.8594 50.6566 38.1366 50.9336 38.1366 51.2759C38.1366 51.6182 37.8593 51.8952 37.5173 51.8952ZM40.5191 51.8952H40.0622C39.7202 51.8952 39.4429 51.6182 39.4429 51.2759C39.4429 50.9336 39.7202 50.6566 40.0622 50.6566H40.5191C40.8611 50.6566 41.1384 50.9336 41.1384 51.2759C41.1384 51.6182 40.861 51.8952 40.5191 51.8952ZM43.5206 51.8952H43.0637C42.7217 51.8952 42.4444 51.6182 42.4444 51.2759C42.4444 50.9336 42.7217 50.6566 43.0637 50.6566H43.5206C43.8626 50.6566 44.1399 50.9336 44.1399 51.2759C44.1399 51.6182 43.8625 51.8952 43.5206 51.8952ZM46.522 51.8952H46.0653C45.7233 51.8952 45.4461 51.6182 45.4461 51.2759C45.4461 50.9336 45.7233 50.6566 46.0653 50.6566H46.522C46.864 50.6566 47.1413 50.9336 47.1413 51.2759C47.1413 51.6182 46.864 51.8952 46.522 51.8952ZM37.5173 54.4697H37.0607C36.7186 54.4697 36.4414 54.1927 36.4414 53.8504C36.4414 53.5081 36.7186 53.2311 37.0607 53.2311H37.5173C37.8594 53.2311 38.1366 53.5081 38.1366 53.8504C38.1366 54.1927 37.8593 54.4697 37.5173 54.4697ZM40.5191 54.4697H40.0622C39.7202 54.4697 39.4429 54.1927 39.4429 53.8504C39.4429 53.5081 39.7202 53.2311 40.0622 53.2311H40.5191C40.8611 53.2311 41.1384 53.5081 41.1384 53.8504C41.1384 54.1927 40.861 54.4697 40.5191 54.4697ZM43.5206 54.4697H43.0637C42.7217 54.4697 42.4444 54.1927 42.4444 53.8504C42.4444 53.5081 42.7217 53.2311 43.0637 53.2311H43.5206C43.8626 53.2311 44.1399 53.5081 44.1399 53.8504C44.1399 54.1927 43.8625 54.4697 43.5206 54.4697ZM37.5173 57.0441H37.0607C36.7186 57.0441 36.4414 56.7671 36.4414 56.4248C36.4414 56.0826 36.7186 55.8056 37.0607 55.8056H37.5173C37.8594 55.8056 38.1366 56.0826 38.1366 56.4248C38.1366 56.7671 37.8593 57.0441 37.5173 57.0441ZM40.5191 57.0441H40.0622C39.7202 57.0441 39.4429 56.7671 39.4429 56.4248C39.4429 56.0826 39.7202 55.8056 40.0622 55.8056H40.5191C40.8611 55.8056 41.1384 56.0826 41.1384 56.4248C41.1384 56.7671 40.861 57.0441 40.5191 57.0441ZM43.5206 57.0441H43.0637C42.7217 57.0441 42.4444 56.7671 42.4444 56.4248C42.4444 56.0826 42.7217 55.8056 43.0637 55.8056H43.5206C43.8626 55.8056 44.1399 56.0826 44.1399 56.4248C44.1399 56.7671 43.8625 57.0441 43.5206 57.0441ZM46.2937 57.0441C46.2124 57.0442 46.1318 57.0282 46.0567 56.9971C45.9816 56.9659 45.9133 56.9203 45.8558 56.8628C45.7982 56.8053 45.7526 56.737 45.7215 56.6619C45.6904 56.5867 45.6744 56.5062 45.6744 56.4248V53.8504C45.6744 53.5081 45.9518 53.2311 46.2937 53.2311C46.6357 53.2311 46.913 53.5081 46.913 53.8504V56.4248C46.913 56.5062 46.897 56.5867 46.8659 56.6619C46.8348 56.737 46.7892 56.8053 46.7317 56.8628C46.6741 56.9203 46.6059 56.9659 46.5307 56.997C46.4556 57.0281 46.3751 57.0441 46.2937 57.0441Z" fill="#F78721"/>
<path d="M2.14663 5.94135C2.06529 5.94138 1.98475 5.92538 1.9096 5.89427C1.83445 5.86316 1.76617 5.81754 1.70866 5.76003C1.65115 5.70252 1.60553 5.63424 1.57442 5.55909C1.54331 5.48394 1.52731 5.4034 1.52734 5.32207V4.02358C1.52734 3.68129 1.80457 3.4043 2.14663 3.4043C2.48868 3.4043 2.76591 3.68129 2.76591 4.02358V5.32207C2.76592 5.40339 2.74991 5.48393 2.7188 5.55907C2.68768 5.63421 2.64207 5.70249 2.58456 5.76C2.52705 5.81751 2.45877 5.86312 2.38363 5.89424C2.30849 5.92535 2.22796 5.94136 2.14663 5.94135Z" fill="#474747"/>
<path d="M0 7.64746H4.29533V25.4199H0V7.64746Z" fill="#36A19B"/>
<path d="M4.29429 25.4211V7.64746H0V10.6248C1.9897 12.9295 3.19212 15.9355 3.19212 19.2182C3.19212 21.4608 2.63381 23.5746 1.64613 25.421L4.29429 25.4211Z" fill="black" fill-opacity="0.0627451"/>
<path d="M4.29522 25.4199V27.5662C4.29522 28.3567 3.65437 28.9976 2.86383 28.9976H1.43139C0.64085 28.9976 0 28.3567 0 27.5662V25.4199H4.29522Z" fill="#474747"/>
<path d="M4.29429 7.64749L2.80542 4.82843C2.52597 4.29938 1.76831 4.29938 1.48886 4.82843L0 7.64749H4.29429Z" fill="#E8F1F8"/>
</svg>
