<svg width="24" height="24" viewBox="0 0 24 24" fill="none" xmlns="http://www.w3.org/2000/svg">
<path d="M12 24C18.6274 24 24 18.6274 24 12C24 5.37258 18.6274 0 12 0C5.37258 0 0 5.37258 0 12C0 18.6274 5.37258 24 12 24Z" fill="#3D9635"/>
<path d="M3.53042 6.98617C3.49067 7.60642 3.43967 8.70367 3.90542 8.81467C4.47167 8.87317 4.15967 7.73392 4.36367 7.52692C4.40267 7.42642 4.47467 7.42642 4.47992 7.55317V8.52367C4.47203 8.62672 4.49986 8.72935 4.55873 8.8143C4.6176 8.89926 4.70391 8.96136 4.80317 8.99017C4.95317 8.97892 5.05067 8.98417 5.10842 9.14917C5.13342 9.70567 5.15667 10.2622 5.17817 10.8187C5.17817 10.8187 5.52392 10.9349 5.54042 9.88042C5.50588 9.46287 5.49511 9.04369 5.50817 8.62492C5.50817 8.50792 5.64317 8.49742 5.73917 8.56117C5.88917 8.67817 5.95367 8.82067 6.18317 8.76292C6.53417 8.65117 6.74267 8.46292 6.74867 8.15842C6.74003 7.86413 6.68693 7.57283 6.59117 7.29442C6.60617 7.24117 6.52142 7.10917 6.53942 7.05592C6.60167 7.16767 6.69617 7.15642 6.71717 7.05592C6.68309 6.8507 6.57667 6.66446 6.41717 6.53092C6.29267 6.40867 6.10892 6.43492 6.04217 6.69517C6.03517 7.02722 6.13624 7.35255 6.33017 7.62217C6.38998 7.76998 6.41438 7.92974 6.40142 8.08867C6.3548 8.11756 6.29872 8.12707 6.24519 8.11516C6.19165 8.10324 6.14489 8.07085 6.11492 8.02492C6.11492 8.02492 5.83292 7.78642 5.83292 7.73917C5.90119 7.49257 5.89308 7.23107 5.80967 6.98917C5.77856 6.84394 5.7161 6.70725 5.62667 6.58867C5.55767 6.49867 5.46317 6.49867 5.41817 6.58867C5.31895 6.91122 5.32685 7.25723 5.44067 7.57492C5.50292 7.78642 5.60342 7.91917 5.55767 7.91917C5.51867 8.04142 5.43917 8.00917 5.38217 7.87117C5.31365 7.57415 5.28116 7.26996 5.28542 6.96517C5.25917 6.72667 5.23067 6.21517 5.09192 6.08542C5.00717 5.95792 4.87967 6.02167 4.83467 6.14392C4.82387 6.37348 4.82863 6.6035 4.84892 6.83242C4.93193 7.19904 4.98982 7.57091 5.02217 7.94542C5.03417 8.47042 4.75367 8.17042 4.76567 7.90867C4.82558 7.57704 4.82227 7.23707 4.75592 6.90667C4.71017 6.76942 4.65617 6.73717 4.54292 6.76417C4.45292 6.75292 4.22567 7.03417 4.16192 7.50067C4.12856 7.65118 4.10352 7.80341 4.08692 7.95667C4.05392 8.19517 3.91367 8.36467 3.81542 7.91917C3.72842 7.59592 3.67742 6.80092 3.53492 6.98617" fill="white"/>
<path d="M5.07005 9.5294C4.5698 9.81065 4.0838 10.0649 3.5918 10.3296C3.67485 10.0643 3.82697 9.82585 4.03257 9.63871C4.23817 9.45156 4.48985 9.32246 4.7618 9.26465C5.0618 9.27515 4.9868 9.3974 5.07005 9.5294Z" fill="white"/>
<path d="M6.95621 6.02089C6.92357 6.02762 6.89185 6.03819 6.86171 6.05239C6.78519 6.07895 6.72188 6.13402 6.68499 6.20613C6.6481 6.27823 6.64048 6.3618 6.66371 6.43939C6.80621 7.41439 6.89696 8.15689 7.03871 9.12664C7.06346 9.24364 6.97645 9.39214 6.86771 9.38164C6.68096 9.23839 6.63446 8.94664 6.31646 8.96239C6.18217 8.98954 6.0596 9.05762 5.96559 9.15727C5.87158 9.25693 5.81074 9.38325 5.79146 9.51889C5.74864 9.72873 5.74864 9.94505 5.79146 10.1549C5.84803 10.2368 5.93131 10.2966 6.02707 10.324C6.12283 10.3513 6.22512 10.3446 6.31646 10.3049C6.45596 10.2411 6.57221 10.0799 6.62171 10.1196C6.65246 10.1834 6.61721 10.6919 5.96321 11.0789C5.55896 11.2799 5.23946 11.3331 5.06321 10.9619C4.95821 10.7294 5.07145 9.84889 4.8097 10.0506C4.0312 12.3081 6.63146 12.6261 6.92321 10.1459C6.94196 10.0769 6.9982 10.0079 7.04096 10.0244C7.06046 10.0349 7.07396 10.0611 7.07846 10.1144C7.01846 12.3561 5.06771 12.5046 4.73696 11.8049C4.65678 11.5602 4.61726 11.3041 4.61996 11.0466C4.61966 10.9574 4.5919 10.8705 4.54046 10.7976C4.46096 10.7346 4.3552 10.9094 4.3312 11.2116C4.30734 11.3906 4.29956 11.5713 4.30796 11.7516C4.41146 13.5329 6.92396 12.7694 7.33421 11.3016C7.41509 10.8388 7.43777 10.3676 7.40171 9.89914H7.40996L7.41596 9.89389C7.67021 10.1939 8.01596 9.93064 8.09471 9.83014C8.10297 9.81515 8.11469 9.80234 8.12888 9.79277C8.14307 9.7832 8.15933 9.77714 8.17633 9.77509C8.19332 9.77303 8.21056 9.77505 8.22662 9.78097C8.24268 9.78689 8.25711 9.79655 8.26871 9.80914C8.31771 9.84838 8.37561 9.87495 8.43731 9.88652C8.49901 9.89808 8.56261 9.89429 8.6225 9.87546C8.68238 9.85664 8.73672 9.82336 8.7807 9.77857C8.82468 9.73378 8.85697 9.67886 8.87471 9.61864C8.91883 9.33946 8.94713 9.05801 8.95946 8.77564C8.86087 8.79712 8.76835 8.84043 8.68871 8.90239C8.67814 8.91449 8.67113 8.92929 8.66846 8.94514C8.65871 9.02014 8.64821 9.10414 8.63621 9.18364C8.63481 9.19072 8.63306 9.19773 8.63096 9.20464C8.62499 9.21414 8.61639 9.2217 8.6062 9.22639C8.59419 9.23453 8.58022 9.23932 8.56574 9.24028C8.55126 9.24123 8.53678 9.23831 8.5238 9.23182C8.51082 9.22533 8.4998 9.2155 8.49188 9.20334C8.48395 9.19118 8.4794 9.17713 8.47871 9.16264C8.41946 8.86264 8.17196 8.81239 8.02121 9.28939C7.91771 9.38539 7.73621 9.40114 7.71596 9.26839C7.74221 8.94514 7.62521 8.90239 7.39571 9.05089C7.32071 8.41489 7.24571 7.81114 7.17071 7.17589C7.26821 7.17589 7.35371 7.25539 7.44296 7.13314C7.36235 6.75646 7.2253 6.39413 7.03646 6.05839C7.03087 6.05081 7.02486 6.04355 7.01846 6.03664C7.01685 6.03651 7.01531 6.03596 7.01399 6.03504C7.01267 6.03411 7.01162 6.03285 7.01096 6.03139H7.00196C6.99746 6.02614 6.98996 6.02614 6.98921 6.02089C6.97721 6.02089 6.96671 6.01564 6.95621 6.02089ZM6.2572 9.50314C6.28773 9.50027 6.31829 9.50825 6.34353 9.52567C6.36876 9.54308 6.38706 9.56883 6.39521 9.59839C6.40438 9.62686 6.40657 9.65711 6.40161 9.68661C6.39665 9.71611 6.38468 9.74398 6.36671 9.76789C6.34646 9.80539 6.28045 9.78964 6.23096 9.78964C6.20597 9.79198 6.18087 9.78662 6.15902 9.77429C6.13717 9.76196 6.11961 9.74324 6.1087 9.72064C6.0907 9.66214 6.14021 9.60364 6.16421 9.55639C6.18821 9.50914 6.1687 9.54589 6.17245 9.54064C6.19687 9.52083 6.22613 9.50789 6.2572 9.50314Z" fill="white"/>
<path d="M8.70688 5.96817C8.64544 5.97417 8.5858 5.99226 8.53138 6.02142C8.46832 6.08766 8.42873 6.17276 8.41871 6.26367C8.40868 6.35458 8.42877 6.44627 8.47588 6.52466C8.57488 6.57266 8.67388 6.68966 8.60638 6.74966C8.32888 7.08416 7.60063 7.64967 7.56388 7.75167V7.76217H7.56988C7.74945 7.79285 7.93276 7.79462 8.11288 7.76742V7.76217C8.44085 7.44872 8.74191 7.10827 9.01288 6.74441C8.97613 6.70766 8.93788 6.68067 8.90113 6.64392C8.89237 6.63689 8.8853 6.62798 8.88045 6.61786C8.87559 6.60773 8.87307 6.59665 8.87307 6.58542C8.87307 6.57418 8.87559 6.5631 8.88045 6.55297C8.8853 6.54285 8.89237 6.53394 8.90113 6.52692C8.97182 6.46306 9.01464 6.37403 9.02039 6.27895C9.02614 6.18386 8.99436 6.09032 8.93188 6.01841C8.8631 5.981 8.78495 5.96433 8.70688 5.97041M8.67238 6.26217C8.71813 6.25692 8.77138 6.31017 8.79838 6.37317C8.82538 6.43617 8.81263 6.51117 8.76763 6.52692C8.72263 6.54267 8.66038 6.49017 8.63038 6.42117C8.60038 6.35217 8.61688 6.27792 8.66413 6.26742C8.66413 6.26742 8.66413 6.26217 8.67238 6.26217ZM3.64438 11.1312C3.51945 11.3513 3.44161 11.5949 3.41578 11.8467C3.38996 12.0984 3.41673 12.3528 3.49438 12.5937C3.5284 12.6431 3.57685 12.6807 3.6331 12.7016C3.68935 12.7224 3.75066 12.7253 3.80863 12.7099C3.98188 12.6252 4.05988 12.2277 4.01713 12.0852C3.95938 11.9787 3.91363 11.9629 3.85438 12.0529C3.73363 12.3289 3.68188 12.1377 3.67063 11.9779C3.65661 11.716 3.66766 11.4533 3.70363 11.1934C3.73438 10.9767 3.70363 11.0397 3.64288 11.1304M15.5064 10.3362C15.2394 9.68366 14.8674 9.04242 14.7496 8.79867C14.6319 8.55492 13.7386 7.09766 13.6066 6.92816C13.3156 6.54116 14.0776 7.09242 13.5099 6.31842C13.2954 6.11142 13.2849 6.10091 13.0996 5.93141C13.0126 5.85641 12.7884 5.73041 12.7524 5.94191C12.7319 6.09559 12.7383 6.25166 12.7711 6.40317C12.8276 6.5437 12.9033 6.67571 12.9961 6.79541C13.9513 8.21558 14.7819 9.71567 15.4786 11.2789C15.6016 11.2159 15.5754 10.4472 15.5026 10.3362" fill="white"/>
<path d="M14.3301 12.5089C14.2753 12.5727 14.4583 12.8637 14.6976 12.8584C15.0943 12.8112 15.4476 12.5584 15.7686 11.8939C15.9023 11.667 15.9859 11.4141 16.0138 11.1522C16.0539 9.89629 15.9641 8.63963 15.7461 7.40217C15.7322 7.31588 15.7355 7.22768 15.7558 7.14267C15.7813 7.10592 15.8691 7.14267 15.9148 7.05792C15.9846 6.97842 15.7356 6.33192 15.5938 6.08292C15.5436 5.97117 15.5256 5.89767 15.4438 6.09342C15.3424 6.316 15.2946 6.55927 15.3043 6.80367C15.4941 8.27742 15.5518 9.57867 15.6793 11.0487C15.7005 11.2001 15.6676 11.3542 15.5863 11.4837C15.2492 11.9144 14.8213 12.2655 14.3331 12.5119M18.8871 14.6629C18.5998 14.8489 18.5998 15.0657 18.8331 15.0709C19.0704 15.0766 19.3051 15.0205 19.5142 14.9081C19.7232 14.7957 19.8995 14.6308 20.0256 14.4297C20.1397 14.1688 20.205 13.8891 20.2183 13.6047C20.2722 12.2494 20.1999 10.8921 20.0023 9.55017C19.9769 9.42448 19.9636 9.29665 19.9626 9.16842C19.9896 9.09942 20.1178 9.17892 20.1613 9.09342C20.2318 9.01842 19.8291 8.43117 19.6851 8.18217C19.6371 8.07042 19.6191 7.99617 19.5351 8.19792C19.4404 8.42011 19.4117 8.66488 19.4526 8.90292C19.6658 10.4214 19.7989 11.95 19.8516 13.4824C19.8415 13.6103 19.8148 13.7364 19.7721 13.8574C19.6629 14.0436 19.5323 14.2163 19.3828 14.3719C19.2508 14.4777 18.9748 14.5834 18.8856 14.6629" fill="white"/>
<path d="M19.9156 11.0625C19.9111 10.6875 19.9254 10.3627 19.9111 10.0815C19.8969 9.80021 19.7851 8.75096 19.7499 8.52896C19.7146 8.30696 19.6704 7.96196 19.6164 7.69121C19.5849 7.53412 19.5683 7.37441 19.5669 7.21421C19.5879 7.13921 19.6801 7.21946 19.7214 7.12946C19.6742 6.71654 19.5468 6.31681 19.3464 5.95271C19.2946 5.84171 19.1964 5.87771 19.0771 6.05921C18.9631 6.17546 19.0021 6.44021 19.0479 6.69521C19.36 8.35328 19.5117 10.0376 19.5009 11.7247C19.4844 11.8575 19.9201 11.3167 19.9156 11.0625ZM17.8089 8.98421C17.6281 8.97896 17.2516 8.59196 17.1421 8.36471C17.1092 8.25426 17.1166 8.13568 17.1631 8.03021C17.2299 7.98296 17.3326 7.92446 17.4084 7.98296C17.4084 7.98296 17.4879 8.10446 17.4729 8.12096C17.5704 8.17346 17.6131 8.14196 17.6229 8.09396C17.6289 8.01896 17.5921 7.97246 17.5921 7.88771C17.6334 7.64921 17.8726 7.61696 17.9671 7.76546C18.0316 7.89377 18.066 8.03511 18.0676 8.17871C18.0676 8.24771 17.9694 8.16821 17.9176 8.18396C17.8659 8.19971 17.8494 8.26946 17.8426 8.33396C17.8267 8.55091 17.8165 8.76823 17.8119 8.98571M14.4924 11.481C14.5434 10.9665 14.4759 9.92771 14.4714 9.62621C14.4549 8.91596 14.3491 7.54271 14.3019 7.31471C14.2449 6.88046 14.4586 7.36271 14.4279 7.10846C14.3336 6.70161 14.1522 6.32007 13.8961 5.99021C13.8166 5.86271 13.8211 5.83646 13.6936 6.02171C13.6125 6.30665 13.6182 6.60931 13.7101 6.89096C13.8816 7.72292 13.9933 8.56607 14.0446 9.41396C14.0988 10.307 14.1055 11.2022 14.0649 12.096C14.2006 12.096 14.4174 11.847 14.4924 11.481Z" fill="white"/>
<path d="M20.528 10.6595C20.2137 10.0595 19.7337 9.36051 19.607 9.12201C19.4802 8.88351 18.3972 7.10301 18.2622 6.94701C17.8662 6.48576 18.4437 6.87201 18.1872 6.50676C18.0493 6.3215 17.8924 6.15108 17.7192 5.99826C17.627 5.93451 17.5692 5.80176 17.5392 6.01926C17.5229 6.21305 17.5181 6.40765 17.525 6.60201C17.5458 6.73374 17.6 6.85793 17.6825 6.96276C18.7518 8.43 19.7016 9.98073 20.5227 11.6C20.6427 11.537 20.6015 10.7683 20.5272 10.6625M16.6932 16.3363C16.6375 16.353 16.5875 16.3852 16.5492 16.429C16.5108 16.4728 16.4855 16.5265 16.4762 16.584C16.4669 16.6415 16.4739 16.7004 16.4965 16.7541C16.5191 16.8078 16.5564 16.854 16.604 16.8875C13.6452 16.8875 9.10398 16.8343 8.13423 16.8343C7.58748 16.8343 5.86623 16.7593 5.83398 16.7593C6.00513 17.0203 6.24601 17.2282 6.52931 17.3593C6.8126 17.4904 7.12696 17.5395 7.43673 17.501C8.75223 17.501 14.8385 17.4853 16.5687 17.4853C16.525 17.6032 16.512 17.7303 16.5312 17.8546C16.5504 17.9789 16.601 18.0963 16.6782 18.1955L16.685 18.2008C16.6859 18.2027 16.6875 18.2042 16.6894 18.2051C16.6913 18.2061 16.6934 18.2064 16.6955 18.206H16.7007C16.8162 18.2383 16.8665 18.1423 16.907 18.0793C17.3492 18.104 17.7925 18.1022 18.2345 18.074C18.2997 18.1798 18.3657 18.2803 18.488 18.2645C18.704 18.2113 18.8735 18.185 18.881 17.6923C18.881 17.6923 18.8585 16.8545 18.368 16.9078C18.2517 16.9235 17.927 16.961 17.927 16.961C17.552 16.913 17.2722 16.9078 16.8492 16.886C16.889 16.8328 16.9565 16.6048 16.8725 16.5253C16.8585 16.5136 16.8424 16.5047 16.825 16.4993C16.8076 16.4939 16.7894 16.492 16.7712 16.4938H16.763C16.763 16.4938 16.7562 16.4885 16.754 16.4833V16.478C16.7346 16.4315 16.7189 16.3836 16.7067 16.3348H16.697M16.898 17.5348C17.327 17.5558 17.732 17.54 18.1655 17.561C18.1919 17.5968 18.2052 17.6405 18.2031 17.6849C18.2011 17.7293 18.1838 17.7716 18.1542 17.8048C18.1542 17.81 18.1482 17.81 18.1482 17.81H18.1362C17.996 17.8048 17.9157 17.8048 17.7755 17.7995C17.7755 17.789 17.771 17.7838 17.771 17.7733C17.7365 17.6615 17.498 17.6728 17.4395 17.7628V17.789C17.438 17.7942 17.438 17.7996 17.4395 17.8048C17.2555 17.8165 17.0708 17.8094 16.8882 17.7838C16.835 17.7088 16.841 17.5715 16.9062 17.5348M9.20823 6.47751C8.92098 7.39926 9.37473 8.41701 9.68823 8.32176C9.91323 8.42226 10.058 7.93476 10.1525 7.40451C10.217 7.25451 10.2642 7.24026 10.2972 7.31451C10.2875 8.02476 10.3415 8.18376 10.5035 8.39601C10.5469 8.44265 10.5994 8.48004 10.6576 8.50593C10.7159 8.53181 10.7788 8.54566 10.8425 8.54664C10.9062 8.54762 10.9695 8.53571 11.0285 8.51163C11.0876 8.48755 11.1411 8.4518 11.186 8.40651C11.2092 8.38551 11.4672 8.09376 11.4672 8.09376C11.4809 8.07603 11.4982 8.0615 11.5181 8.05117C11.538 8.04085 11.5598 8.03498 11.5822 8.03398C11.6045 8.03298 11.6268 8.03687 11.6475 8.04538C11.6682 8.0539 11.6868 8.06682 11.702 8.08326C11.7852 8.16801 11.777 8.32176 11.9585 8.42226C12.0544 8.45971 12.1593 8.46714 12.2595 8.44356C12.3597 8.41999 12.4504 8.36653 12.5195 8.29026C12.623 8.09376 12.6455 8.02476 12.6927 7.95051C12.7677 7.83951 12.8922 7.88751 12.8922 7.92426C12.881 7.98801 12.8105 8.04651 12.8562 8.15751C12.9462 8.23251 12.9665 8.18376 13.019 8.16801C13.202 8.06751 13.34 7.62201 13.34 7.62201C13.346 7.45251 13.265 7.46826 13.208 7.50576C13.1397 7.55301 13.133 7.56951 13.064 7.61676C12.9755 7.62726 12.8015 7.69626 12.7175 7.54776C12.6282 7.36776 12.6282 7.11351 12.5592 6.93351C12.5592 6.92301 12.4445 6.65226 12.5525 6.63351C12.6057 6.64401 12.7212 6.68076 12.7407 6.56976C12.7992 6.46401 12.6185 6.15651 12.4962 6.00801C12.4744 5.97603 12.4454 5.9496 12.4115 5.93085C12.3776 5.91209 12.3398 5.90153 12.3011 5.9C12.2624 5.89847 12.2238 5.90601 12.1886 5.92203C12.1533 5.93805 12.1223 5.9621 12.098 5.99226C12.0269 6.08686 11.9894 6.20246 11.9915 6.32076C11.9756 6.39756 11.9759 6.47683 11.9923 6.55352C12.0087 6.63022 12.0408 6.70267 12.0867 6.76626C12.2576 7.03603 12.3366 7.35388 12.3117 7.67226C12.2827 7.72421 12.2403 7.76737 12.1888 7.7972C12.1373 7.82703 12.0787 7.84243 12.0192 7.84176C11.9442 7.82076 11.8167 7.78326 11.7492 7.23201C11.7652 6.79791 11.7161 6.36386 11.6037 5.94426C11.546 5.77476 11.5055 5.61051 11.3652 5.90226C11.3041 5.99407 11.2649 6.09869 11.2506 6.20804C11.2363 6.31739 11.2473 6.42857 11.2827 6.53301C11.3906 6.84789 11.4214 7.18401 11.3727 7.51326C11.325 7.60812 11.2687 7.69849 11.2047 7.78326C11.1642 7.83637 11.1046 7.87162 11.0385 7.88156C10.9724 7.8915 10.9051 7.87534 10.8507 7.83651C10.7901 7.80226 10.7387 7.75365 10.7012 7.69494C10.6636 7.63623 10.6411 7.56921 10.6355 7.49976C10.6604 7.13725 10.6486 6.77314 10.6002 6.41301C10.5147 6.21126 10.37 6.28551 10.31 6.34401C10.0285 6.6986 9.84508 7.12096 9.77823 7.56876C9.69573 7.86501 9.60798 7.78026 9.54723 7.65876C9.39723 7.50501 9.38823 6.27501 9.20823 6.47676" fill="white"/>
<path d="M10.1799 8.39069C10.1799 8.39594 10.1762 8.39594 10.1717 8.39594V8.40119C10.1529 8.41169 10.1282 8.44919 10.0787 8.49119C10.0367 8.54751 10.0068 8.61187 9.99082 8.68026C9.97482 8.74865 9.97307 8.8196 9.98569 8.88869C9.98944 8.91569 10.1432 9.39794 10.2767 9.74219C10.3885 10.1148 10.4262 10.5056 10.3877 10.8927C10.1732 11.39 9.81385 11.811 9.35644 12.1009C9.28971 12.1347 9.21597 12.1523 9.14119 12.1523C9.06641 12.1523 8.99268 12.1347 8.92594 12.1009V12.0957C8.88465 12.0634 8.85229 12.0211 8.83195 11.9728C8.8116 11.9245 8.80394 11.8718 8.80969 11.8197C9.27062 11.5359 9.63283 11.1168 9.84694 10.6197C9.94807 10.3399 9.95779 10.0353 9.87469 9.74969C9.84874 9.60495 9.78828 9.4686 9.69844 9.35219C9.69844 9.35219 9.69844 9.35219 9.69844 9.34694C9.75619 9.31544 9.90544 9.44219 9.93019 9.36269C9.88681 9.13461 9.78324 8.92228 9.63019 8.74769C9.61032 8.71852 9.58411 8.69422 9.55352 8.67662C9.52292 8.65901 9.48875 8.64856 9.45354 8.64603C9.41834 8.64351 9.38302 8.64898 9.35023 8.66204C9.31744 8.6751 9.28802 8.6954 9.26419 8.72144C9.14044 8.80094 9.11419 9.08219 9.17194 9.33119C9.23944 9.51119 9.42169 9.54344 9.55144 9.91394V9.91919C9.57618 10.0481 9.56845 10.1811 9.52894 10.3062C9.30883 10.6125 9.04764 10.8871 8.75269 11.1222L8.74744 11.1274V11.1334H8.73919V11.1274C8.74207 11.087 8.74207 11.0464 8.73919 11.0059C8.73919 10.9002 8.77744 10.6452 8.77444 10.5979V10.5927C8.55319 10.7569 8.47444 11.2549 8.43619 11.4034C7.87235 11.7548 7.34476 12.1613 6.86119 12.6169C6.66769 12.9514 8.18944 12.2247 8.36119 12.1399C8.36119 12.1399 8.36569 12.1399 8.36794 12.1452C8.40011 12.2546 8.44571 12.3597 8.50369 12.4579C8.59252 12.5868 8.71918 12.6849 8.86616 12.7386C9.01315 12.7924 9.1732 12.7991 9.32419 12.7579C9.82383 12.5162 10.238 12.128 10.5114 11.6449C10.5564 11.5699 10.6292 11.5122 10.6944 11.5699C10.8517 11.8777 11.0932 12.1343 11.3908 12.31C11.6884 12.4857 12.0298 12.5732 12.3752 12.5622C12.5649 12.3019 12.4757 12.1699 12.3977 12.1219C12.3729 12.1009 11.9874 11.9314 11.9289 11.7619C11.8922 11.6082 11.9814 11.4702 12.1667 11.3637C12.6945 11.3089 13.2148 11.197 13.7184 11.0299C13.7365 10.8209 13.7943 10.6173 13.8887 10.4299C13.9082 10.3874 13.9385 10.3507 13.9764 10.3234C13.9764 10.3234 13.9764 10.3234 13.9764 10.3182V10.3129C13.9771 10.3095 13.9771 10.3059 13.9764 10.3024L13.8887 10.2439L12.2027 10.2334C12.1858 10.2268 12.17 10.218 12.1554 10.2072V10.1757C12.1687 10.1577 12.1873 10.1446 12.2087 10.1382C12.6137 10.0797 13.3277 9.94769 13.3742 9.16844C13.3865 9.08066 13.3808 8.99128 13.3572 8.90583C13.3336 8.82038 13.2928 8.74067 13.2372 8.67164C13.1816 8.6026 13.1124 8.54571 13.0339 8.50448C12.9554 8.46325 12.8693 8.43856 12.7809 8.43194C12.6121 8.46814 12.464 8.56841 12.3676 8.71165C12.2712 8.85489 12.2341 9.02993 12.2642 9.19994C12.2499 9.30119 12.2972 9.50744 12.2027 9.52844C11.5817 9.59744 10.9052 10.0324 10.8804 10.3452H10.8722L10.8677 10.3504H10.8594L10.8519 10.3452C10.8202 10.3256 10.7953 10.2968 10.7805 10.2626C10.7658 10.2284 10.7619 10.1904 10.7694 10.1539C10.741 9.58972 10.5957 9.03755 10.3427 8.53244C10.2572 8.43194 10.2182 8.39444 10.1927 8.38919H10.1822M12.6474 9.08369C12.6945 9.07885 12.7417 9.09198 12.7794 9.12044C12.8092 9.13547 12.8344 9.15809 12.8526 9.18601C12.8708 9.21394 12.8812 9.24617 12.8829 9.27944V9.29969L12.8724 9.31019C12.8394 9.34694 12.7674 9.34169 12.6954 9.29369C12.6677 9.27847 12.6439 9.25698 12.6259 9.23094C12.608 9.2049 12.5963 9.17502 12.5919 9.14369V9.13769C12.5919 9.12719 12.5964 9.12194 12.5994 9.12194L12.6039 9.11144C12.6039 9.10619 12.6039 9.10619 12.6122 9.10094C12.6174 9.09571 12.6236 9.09161 12.6304 9.0889C12.6373 9.08619 12.6446 9.08493 12.6519 9.08519M11.0837 10.6857H11.1002C11.3326 10.7349 11.5686 10.765 11.8059 10.7757C12.0017 10.7914 12.0984 10.9609 11.9154 11.0352C11.7324 11.1094 11.5607 11.1574 11.5607 11.4544C11.5855 11.5374 11.5855 11.6258 11.5607 11.7087C11.5607 11.7139 11.5562 11.7192 11.5532 11.7192V11.7297H11.5479L11.5397 11.7349C11.5392 11.7364 11.5383 11.7377 11.5371 11.7386C11.5359 11.7396 11.5345 11.7401 11.5329 11.7402C11.4879 11.7454 11.4257 11.6929 11.3777 11.6712C11.2486 11.5824 11.14 11.467 11.0593 11.3327C10.9786 11.1984 10.9275 11.0484 10.9097 10.8927C10.9074 10.8675 10.9102 10.8422 10.9178 10.8181C10.9255 10.794 10.9378 10.7717 10.9541 10.7525C10.9705 10.7332 10.9905 10.7174 11.013 10.7059C11.0355 10.6945 11.06 10.6876 11.0852 10.6857M5.65519 6.48794C5.85094 6.58844 6.21469 6.54644 6.19969 6.19619C6.19818 6.14139 6.19543 6.08662 6.19144 6.03194C6.15319 5.92619 6.04144 5.94719 6.01894 6.05894C6.01069 6.09044 6.03094 6.14894 6.00394 6.16994C5.97694 6.19094 5.92519 6.17519 5.92894 6.07994C5.92704 6.0492 5.91608 6.01971 5.89744 5.99519C5.89161 5.98868 5.88419 5.98381 5.87591 5.98105C5.86762 5.97829 5.85876 5.97773 5.85019 5.97944C5.82394 5.98469 5.82394 5.98994 5.81194 6.01619C5.80263 6.04169 5.79756 6.06855 5.79694 6.09569C5.79244 6.13244 5.77894 6.14369 5.75644 6.14894C5.73394 6.15419 5.73919 6.15419 5.71669 6.13844C5.70619 6.12194 5.68819 6.11669 5.68819 6.09044C5.6877 6.06198 5.68469 6.03362 5.67919 6.00569C5.66703 5.98992 5.64982 5.9788 5.63044 5.97419C5.52319 5.97419 5.51644 6.11144 5.52319 6.16469C5.51419 6.17519 5.51119 6.41894 5.65519 6.48794Z" fill="white"/>
<path d="M11.3535 9.20085C11.5477 9.3021 12.0097 9.2436 11.8987 8.90085C11.8975 8.84593 11.8935 8.79111 11.8867 8.7366C11.8485 8.63085 11.7412 8.6571 11.715 8.7636C11.709 8.80035 11.73 8.85885 11.7022 8.87985C11.6745 8.90085 11.6227 8.87985 11.6272 8.7846C11.6252 8.75547 11.6142 8.72768 11.5957 8.7051C11.5901 8.69922 11.5831 8.69474 11.5754 8.692C11.5678 8.68927 11.5595 8.68836 11.5515 8.68935C11.526 8.6946 11.526 8.69985 11.511 8.7261C11.5027 8.75186 11.498 8.77859 11.4967 8.8056C11.4967 8.8431 11.481 8.8536 11.4577 8.85885C11.4345 8.8641 11.4412 8.8641 11.4187 8.84835C11.3962 8.8326 11.3902 8.82735 11.3902 8.80035C11.3912 8.77156 11.3869 8.74283 11.3775 8.7156C11.3664 8.69931 11.3495 8.688 11.3302 8.6841C11.2252 8.6841 11.2192 8.82135 11.223 8.8746C11.217 8.87985 11.2125 9.1236 11.3565 9.19785M14.676 8.07735C14.8695 8.17785 15.2347 8.1306 15.2197 7.77735C15.2197 7.7511 15.2137 7.64535 15.2115 7.6131C15.1702 7.5126 15.0615 7.5336 15.039 7.64535C15.03 7.67685 15.0502 7.73535 15.0217 7.7511C15.0075 7.7721 14.9467 7.7616 14.9467 7.6611C14.9429 7.63079 14.9321 7.60177 14.9152 7.57635C14.9016 7.57105 14.8869 7.56924 14.8725 7.5711C14.847 7.5711 14.847 7.57635 14.8312 7.6026C14.8225 7.63007 14.8175 7.65857 14.8162 7.68735C14.8162 7.7196 14.802 7.7301 14.7772 7.73535C14.7525 7.7406 14.757 7.7406 14.7397 7.72485C14.7314 7.71981 14.7244 7.71279 14.7194 7.70442C14.7145 7.69605 14.7116 7.68658 14.7112 7.67685C14.7103 7.64647 14.706 7.61629 14.6985 7.58685C14.6844 7.57648 14.6683 7.56931 14.6512 7.56585C14.5455 7.56585 14.5365 7.7031 14.544 7.7511C14.5365 7.7616 14.532 8.00535 14.6767 8.07435M16.3957 10.8921C16.2794 11.0847 16.2088 11.3014 16.1892 11.5255C16.1695 11.7496 16.2014 11.9752 16.2825 12.1851C16.3549 12.4071 16.503 12.5966 16.701 12.7206C16.7301 12.7524 16.7665 12.7767 16.8069 12.7916C16.8474 12.8065 16.8908 12.8116 16.9336 12.8064C16.9764 12.8012 17.0174 12.7859 17.0531 12.7617C17.0888 12.7375 17.1182 12.7052 17.139 12.6674C17.337 12.4341 17.3422 11.8461 17.4337 11.7291C17.5012 11.5116 17.664 11.5491 17.7435 11.6444C17.8156 11.7571 17.9129 11.8515 18.0277 11.9204C18.0654 11.965 18.1115 12.0017 18.1635 12.0283C18.2155 12.0549 18.2723 12.0708 18.3305 12.0752C18.3888 12.0796 18.4473 12.0724 18.5027 12.0539C18.5581 12.0354 18.6093 12.0061 18.6532 11.9676C18.818 11.8632 18.9372 11.7003 18.987 11.5116C19.0595 10.6196 19.0678 9.72354 19.0117 8.83035C19.002 8.7666 18.8197 7.72785 18.8197 7.7166C18.8197 7.70535 18.7935 7.1871 18.7747 7.06485C18.7702 7.01235 18.7597 6.99585 18.807 7.00185C18.8565 7.05435 18.861 7.0596 18.8925 7.0701C18.942 7.08135 18.987 6.98535 18.9577 6.89535C18.8077 6.57735 18.648 6.2541 18.4935 5.94135C18.4582 5.8941 18.4087 5.85135 18.348 5.9466C18.3112 5.98458 18.2824 6.02944 18.2631 6.07861C18.2438 6.12778 18.2344 6.18029 18.2355 6.2331C18.2497 6.4581 18.285 6.69435 18.2977 6.92235C18.36 7.3086 18.4215 7.70085 18.4837 8.0931C18.5415 8.9256 18.5587 9.68835 18.6157 10.5209C18.6291 10.8217 18.5598 11.1205 18.4155 11.3849C18.4155 11.3849 18.2797 11.4801 18.186 11.3796C18.056 11.2215 17.9419 11.0509 17.8455 10.8704C17.706 10.7279 17.613 10.7646 17.514 10.8704C17.2692 11.2541 17.0744 11.6674 16.9342 12.1004C16.8847 12.1851 16.7505 12.2594 16.602 12.0951C16.4058 11.7277 16.3335 11.3069 16.3957 10.8951M14.7637 6.03135C14.8586 6.11262 14.9317 6.21631 14.9764 6.33301C15.0211 6.44971 15.0359 6.57573 15.0195 6.6996C14.9842 6.9381 14.8935 7.20285 14.826 7.1661C14.7585 7.12935 14.874 6.9276 14.8072 6.7101C14.766 6.56685 14.5305 6.3126 14.5552 6.2331C14.5451 6.20429 14.5435 6.1732 14.5505 6.1435C14.5576 6.11379 14.573 6.08673 14.5949 6.0655C14.6168 6.04428 14.6444 6.02978 14.6743 6.02373C14.7042 6.01768 14.7352 6.02032 14.7637 6.03135Z" fill="white"/>
<path d="M16.9573 11.131C16.9733 10.7806 16.961 10.4295 16.9206 10.081C16.9101 9.80579 16.6416 7.53104 16.5846 7.31954C16.5186 6.92279 16.8478 7.26704 16.8096 7.03379C16.6971 6.74204 16.4143 6.31304 16.3266 6.05879C16.2703 5.94704 16.2936 5.85179 16.1766 6.03179C16.0739 6.3534 16.0375 6.69246 16.0693 7.02854C16.4056 8.6039 16.5845 10.2088 16.6033 11.8195C16.7376 11.8195 16.8928 11.4753 16.9603 11.131M19.1128 8.75879C19.2756 8.85404 19.3671 9.34679 19.3498 9.49004C19.3191 9.74954 19.2351 10.0308 19.1743 9.99329C19.1136 9.95579 19.1871 9.60704 19.1556 9.50054C19.1173 9.34679 18.9036 9.06629 18.9253 8.98154C18.8818 8.80604 19.0198 8.73254 19.1128 8.75654M8.13582 10.2295C8.28582 10.2933 8.37582 10.6593 8.36082 10.765C8.33007 10.9555 8.24982 11.1573 8.19282 11.14C8.13582 11.1228 8.20632 10.8535 8.17407 10.774C8.16282 10.5783 7.94907 10.474 7.95657 10.3923C7.91607 10.2385 8.04207 10.2123 8.13807 10.2333M4.07682 5.91029C4.30182 5.98529 4.31382 6.35504 4.30182 6.46679C4.27107 6.66254 4.19082 6.87479 4.13232 6.84854C4.07382 6.82229 4.13232 6.55679 4.10082 6.47354C4.06857 6.35129 3.87582 6.14504 3.90132 6.08129C3.85782 5.94854 3.98607 5.88479 4.07907 5.91179M8.50107 7.65929C8.41299 7.72855 8.35174 7.82628 8.32779 7.93574C8.30385 8.0452 8.31871 8.15958 8.36982 8.25929C8.3994 8.30343 8.44259 8.3367 8.49282 8.35403C8.54305 8.37136 8.59756 8.3718 8.64807 8.35529C8.81682 8.38154 8.91657 7.99979 8.91657 7.99979C8.91657 7.99979 8.92182 7.89404 8.72382 8.09504C8.63832 8.11679 8.62782 8.07929 8.60607 8.02604C8.5861 7.92688 8.59495 7.82408 8.63157 7.72979C8.66232 7.63379 8.59782 7.59179 8.50107 7.66079M9.78882 5.76704C9.71377 5.82803 9.65188 5.90361 9.60688 5.98921C9.56189 6.0748 9.53474 6.16864 9.52707 6.26504C9.52032 6.39254 9.49857 6.39254 9.57432 6.47729C9.63057 6.56729 9.68607 6.55679 9.79557 6.48779C9.82372 6.46806 9.84764 6.4429 9.86593 6.41379C9.88422 6.38468 9.8965 6.35221 9.90207 6.31829C9.92907 6.16829 9.76407 6.38729 9.74157 6.22304C9.70632 6.06929 9.81132 6.01079 9.91257 5.85704C9.91257 5.75654 9.91257 5.68754 9.78882 5.76704ZM10.8291 5.97404C10.7878 6.16408 10.7627 6.35727 10.7541 6.55154C10.7233 6.69479 10.8898 6.75779 10.9626 6.57254C11.0375 6.37055 11.0774 6.15722 11.0803 5.94179C11.0473 5.72429 10.9153 5.73554 10.8291 5.97404ZM17.3766 9.72104C17.4006 9.69929 18.2991 8.97854 18.2991 8.97854C18.3913 8.94179 18.3741 9.35354 18.3298 9.34454C18.0573 9.64725 17.7349 9.90093 17.3766 10.0945C17.3331 10.1268 17.2881 9.81404 17.3766 9.72404M18.1978 9.71579C18.3583 9.80579 18.4228 10.3248 18.4033 10.4658C18.4093 10.7418 18.2533 10.9638 18.1888 10.9323C18.1243 10.9008 18.1956 10.588 18.1648 10.4763C18.0953 10.3075 18.045 10.1314 18.0148 9.95129C17.9698 9.77579 18.1003 9.68054 18.1971 9.71279M12.8436 11.9628C12.9175 11.8689 13.0035 11.7852 13.0993 11.7138C13.1282 11.6993 13.1611 11.695 13.1928 11.7017C13.2244 11.7084 13.2528 11.7256 13.2733 11.7505C13.2891 11.8465 13.2178 11.9418 13.2403 12.0738C13.2583 12.127 13.2733 12.1908 13.3603 12.1645C13.4171 12.1144 13.4834 12.0763 13.5554 12.0525C13.6273 12.0288 13.7034 12.02 13.7788 12.0265C13.8913 12.0265 13.8921 12.238 13.8253 12.238C13.6274 12.2925 13.4358 12.3679 13.2538 12.463C13.2283 12.4814 13.1966 12.4889 13.1655 12.484C13.1345 12.4791 13.1067 12.4621 13.0881 12.4368C13.0707 12.4095 13.0601 12.3784 13.0574 12.3461C13.0546 12.3138 13.0598 12.2814 13.0723 12.2515C13.0798 12.145 13.0416 12.0873 12.9613 12.0925C12.9013 12.1345 12.8496 12.1555 12.8196 12.082C12.8091 12.0235 12.8046 11.992 12.8436 11.9598M19.1458 12.244C19.1713 12.2702 19.1856 12.3053 19.1856 12.3419C19.1856 12.3785 19.1713 12.4136 19.1458 12.4398C19.0813 12.5088 19.0386 12.5403 18.9741 12.6093C18.9456 12.6678 18.9268 12.7525 19.0168 12.7788C19.1841 12.832 19.5741 12.5538 19.5741 12.5403C19.5949 12.5213 19.6096 12.4965 19.6162 12.4691C19.6227 12.4417 19.6209 12.4129 19.6108 12.3865C19.5741 12.3393 19.4923 12.3655 19.4376 12.3655C19.4091 12.3655 19.3228 12.3445 19.3626 12.265C19.3914 12.2177 19.415 12.1674 19.4331 12.115C19.4578 12.046 19.4383 12.004 19.3401 11.965C19.2606 11.9519 19.1795 11.9519 19.1001 11.965C19.0423 11.9808 19.0251 12.013 19.0116 12.0873C19.0153 12.2035 19.0798 12.1983 19.1473 12.2463" fill="white"/>
</svg>
