<?xml version="1.0" encoding="UTF-8" standalone="no"?>
<!DOCTYPE svg PUBLIC "-//W3C//DTD SVG 1.1//EN"
 "http://www.w3.org/Graphics/SVG/1.1/DTD/svg11.dtd">
<!-- Generated by graphviz version 2.47.0 (20210316.0004)
 -->
<!-- Title: dependencies Pages: 1 -->
<svg width="4004pt" height="211pt"
 viewBox="0.00 0.00 4004.00 211.00" xmlns="http://www.w3.org/2000/svg" xmlns:xlink="http://www.w3.org/1999/xlink">
<g id="graph0" class="graph" transform="scale(1 1) rotate(0) translate(4 207)">
<title>dependencies</title>
<polygon fill="white" stroke="transparent" points="-4,4 -4,-207 4000,-207 4000,4 -4,4"/>
<text text-anchor="start" x="1977.01" y="-42.4" font-family="Times-12" font-weight="bold" font-size="14.00">Legend</text>
<polygon fill="#ffffb3" stroke="transparent" points="1764,-10 1764,-30 1784,-30 1784,-10 1764,-10"/>
<text text-anchor="start" x="1787.63" y="-15.4" font-family="Times-12" font-size="14.00"> &#160;Declarations</text>
<polygon fill="#8dd3c7" stroke="transparent" points="1877,-10 1877,-30 1897,-30 1897,-10 1877,-10"/>
<text text-anchor="start" x="1900.73" y="-15.4" font-family="Times-12" font-size="14.00"> &#160;Module</text>
<polygon fill="#80b1d3" stroke="transparent" points="1963,-10 1963,-30 1983,-30 1983,-10 1963,-10"/>
<text text-anchor="start" x="1986.78" y="-15.4" font-family="Times-12" font-size="14.00"> &#160;Bootstrap</text>
<polygon fill="#fdb462" stroke="transparent" points="2060,-10 2060,-30 2080,-30 2080,-10 2060,-10"/>
<text text-anchor="start" x="2083.67" y="-15.4" font-family="Times-12" font-size="14.00"> &#160;Providers</text>
<polygon fill="#fb8072" stroke="transparent" points="2156,-10 2156,-30 2176,-30 2176,-10 2156,-10"/>
<text text-anchor="start" x="2179.73" y="-15.4" font-family="Times-12" font-size="14.00"> &#160;Exports</text>
<g id="clust1" class="cluster">
<title>cluster_GeneralSettingModule</title>
<polygon fill="none" stroke="black" stroke-dasharray="1,5" points="8,-70 8,-195 3988,-195 3988,-70 8,-70"/>
</g>
<g id="clust2" class="cluster">
<title>cluster_GeneralSettingModule_declarations</title>
<polygon fill="none" stroke="black" points="158,-78 158,-130 3980,-130 3980,-78 158,-78"/>
</g>
<g id="clust22" class="cluster">
<title>cluster_GeneralSettingModule_imports</title>
<polygon fill="none" stroke="black" points="16,-78 16,-130 150,-130 150,-78 16,-78"/>
</g>
<!-- AddCurrencyConversionComponent -->
<g id="node1" class="node">
<title>AddCurrencyConversionComponent</title>
<polygon fill="#ffffb3" stroke="black" points="3972.07,-122 3749.93,-122 3749.93,-86 3972.07,-86 3972.07,-122"/>
<text text-anchor="middle" x="3861" y="-99.8" font-family="Times,serif" font-size="14.00">AddCurrencyConversionComponent</text>
</g>
<!-- GeneralSettingModule -->
<g id="node20" class="node">
<title>GeneralSettingModule</title>
<polygon fill="#8dd3c7" stroke="black" points="1784.52,-187 1781.52,-191 1760.52,-191 1757.52,-187 1641.48,-187 1641.48,-151 1784.52,-151 1784.52,-187"/>
<text text-anchor="middle" x="1713" y="-164.8" font-family="Times,serif" font-size="14.00">GeneralSettingModule</text>
</g>
<!-- AddCurrencyConversionComponent&#45;&gt;GeneralSettingModule -->
<g id="edge1" class="edge">
<title>AddCurrencyConversionComponent&#45;&gt;GeneralSettingModule</title>
<path fill="none" stroke="black" d="M3861,-122.15C3861,-145.76 3861,-184 3861,-184 3861,-184 1794.77,-184 1794.77,-184"/>
<polygon fill="black" stroke="black" points="1794.77,-180.5 1784.77,-184 1794.77,-187.5 1794.77,-180.5"/>
</g>
<!-- AddCurrencyDefinitionComponent -->
<g id="node2" class="node">
<title>AddCurrencyDefinitionComponent</title>
<polygon fill="#ffffb3" stroke="black" points="3731.57,-122 3516.43,-122 3516.43,-86 3731.57,-86 3731.57,-122"/>
<text text-anchor="middle" x="3624" y="-99.8" font-family="Times,serif" font-size="14.00">AddCurrencyDefinitionComponent</text>
</g>
<!-- AddCurrencyDefinitionComponent&#45;&gt;GeneralSettingModule -->
<g id="edge2" class="edge">
<title>AddCurrencyDefinitionComponent&#45;&gt;GeneralSettingModule</title>
<path fill="none" stroke="black" d="M3624,-122.01C3624,-144.49 3624,-180 3624,-180 3624,-180 1794.71,-180 1794.71,-180"/>
<polygon fill="black" stroke="black" points="1794.71,-176.5 1784.71,-180 1794.71,-183.5 1794.71,-176.5"/>
</g>
<!-- CreateFinancialCalendarComponent -->
<g id="node3" class="node">
<title>CreateFinancialCalendarComponent</title>
<polygon fill="#ffffb3" stroke="black" points="3498.49,-122 3277.51,-122 3277.51,-86 3498.49,-86 3498.49,-122"/>
<text text-anchor="middle" x="3388" y="-99.8" font-family="Times,serif" font-size="14.00">CreateFinancialCalendarComponent</text>
</g>
<!-- CreateFinancialCalendarComponent&#45;&gt;GeneralSettingModule -->
<g id="edge3" class="edge">
<title>CreateFinancialCalendarComponent&#45;&gt;GeneralSettingModule</title>
<path fill="none" stroke="black" d="M3388,-122.04C3388,-143.66 3388,-177 3388,-177 3388,-177 1794.7,-177 1794.7,-177"/>
<polygon fill="black" stroke="black" points="1794.7,-173.5 1784.7,-177 1794.7,-180.5 1794.7,-173.5"/>
</g>
<!-- CurrencyConversionComponent -->
<g id="node4" class="node">
<title>CurrencyConversionComponent</title>
<polygon fill="#ffffb3" stroke="black" points="3259.97,-122 3062.03,-122 3062.03,-86 3259.97,-86 3259.97,-122"/>
<text text-anchor="middle" x="3161" y="-99.8" font-family="Times,serif" font-size="14.00">CurrencyConversionComponent</text>
</g>
<!-- CurrencyConversionComponent&#45;&gt;GeneralSettingModule -->
<g id="edge4" class="edge">
<title>CurrencyConversionComponent&#45;&gt;GeneralSettingModule</title>
<path fill="none" stroke="black" d="M3161,-122.13C3161,-142.57 3161,-173 3161,-173 3161,-173 1794.81,-173 1794.81,-173"/>
<polygon fill="black" stroke="black" points="1794.81,-169.5 1784.81,-173 1794.81,-176.5 1794.81,-169.5"/>
</g>
<!-- CurrencyDefinitionComponent -->
<g id="node5" class="node">
<title>CurrencyDefinitionComponent</title>
<polygon fill="#ffffb3" stroke="black" points="3044.46,-122 2853.54,-122 2853.54,-86 3044.46,-86 3044.46,-122"/>
<text text-anchor="middle" x="2949" y="-99.8" font-family="Times,serif" font-size="14.00">CurrencyDefinitionComponent</text>
</g>
<!-- CurrencyDefinitionComponent&#45;&gt;GeneralSettingModule -->
<g id="edge5" class="edge">
<title>CurrencyDefinitionComponent&#45;&gt;GeneralSettingModule</title>
<path fill="none" stroke="black" d="M2949,-122.11C2949,-141.34 2949,-169 2949,-169 2949,-169 1794.8,-169 1794.8,-169"/>
<polygon fill="black" stroke="black" points="1794.8,-165.5 1784.8,-169 1794.79,-172.5 1794.8,-165.5"/>
</g>
<!-- EditCurrencyConversionComponent -->
<g id="node6" class="node">
<title>EditCurrencyConversionComponent</title>
<polygon fill="#ffffb3" stroke="black" points="2835.8,-122 2614.2,-122 2614.2,-86 2835.8,-86 2835.8,-122"/>
<text text-anchor="middle" x="2725" y="-99.8" font-family="Times,serif" font-size="14.00">EditCurrencyConversionComponent</text>
</g>
<!-- EditCurrencyConversionComponent&#45;&gt;GeneralSettingModule -->
<g id="edge6" class="edge">
<title>EditCurrencyConversionComponent&#45;&gt;GeneralSettingModule</title>
<path fill="none" stroke="black" d="M2725,-122.27C2725,-140.56 2725,-166 2725,-166 2725,-166 1794.57,-166 1794.57,-166"/>
<polygon fill="black" stroke="black" points="1794.57,-162.5 1784.57,-166 1794.57,-169.5 1794.57,-162.5"/>
</g>
<!-- EditCurrencyDefinitionComponent -->
<g id="node7" class="node">
<title>EditCurrencyDefinitionComponent</title>
<polygon fill="#ffffb3" stroke="black" points="2596.3,-122 2381.7,-122 2381.7,-86 2596.3,-86 2596.3,-122"/>
<text text-anchor="middle" x="2489" y="-99.8" font-family="Times,serif" font-size="14.00">EditCurrencyDefinitionComponent</text>
</g>
<!-- EditCurrencyDefinitionComponent&#45;&gt;GeneralSettingModule -->
<g id="edge7" class="edge">
<title>EditCurrencyDefinitionComponent&#45;&gt;GeneralSettingModule</title>
<path fill="none" stroke="black" d="M2489,-122.03C2489,-139.06 2489,-162 2489,-162 2489,-162 1794.61,-162 1794.61,-162"/>
<polygon fill="black" stroke="black" points="1794.61,-158.5 1784.61,-162 1794.61,-165.5 1794.61,-158.5"/>
</g>
<!-- EditFinancialCalendarComponent -->
<g id="node8" class="node">
<title>EditFinancialCalendarComponent</title>
<polygon fill="#ffffb3" stroke="black" points="2363.8,-122 2156.2,-122 2156.2,-86 2363.8,-86 2363.8,-122"/>
<text text-anchor="middle" x="2260" y="-99.8" font-family="Times,serif" font-size="14.00">EditFinancialCalendarComponent</text>
</g>
<!-- EditFinancialCalendarComponent&#45;&gt;GeneralSettingModule -->
<g id="edge8" class="edge">
<title>EditFinancialCalendarComponent&#45;&gt;GeneralSettingModule</title>
<path fill="none" stroke="black" d="M2260,-122.01C2260,-138.05 2260,-159 2260,-159 2260,-159 1794.79,-159 1794.79,-159"/>
<polygon fill="black" stroke="black" points="1794.79,-155.5 1784.79,-159 1794.79,-162.5 1794.79,-155.5"/>
</g>
<!-- FinancialCalendarListComponent -->
<g id="node9" class="node">
<title>FinancialCalendarListComponent</title>
<polygon fill="#ffffb3" stroke="black" points="2137.74,-122 1932.26,-122 1932.26,-86 2137.74,-86 2137.74,-122"/>
<text text-anchor="middle" x="2035" y="-99.8" font-family="Times,serif" font-size="14.00">FinancialCalendarListComponent</text>
</g>
<!-- FinancialCalendarListComponent&#45;&gt;GeneralSettingModule -->
<g id="edge9" class="edge">
<title>FinancialCalendarListComponent&#45;&gt;GeneralSettingModule</title>
<path fill="none" stroke="black" d="M2035,-122.12C2035,-136.78 2035,-155 2035,-155 2035,-155 1794.86,-155 1794.86,-155"/>
<polygon fill="black" stroke="black" points="1794.86,-151.5 1784.86,-155 1794.86,-158.5 1794.86,-151.5"/>
</g>
<!-- MainFinancialCalendarComponent -->
<g id="node10" class="node">
<title>MainFinancialCalendarComponent</title>
<polygon fill="#ffffb3" stroke="black" points="1913.51,-122 1700.49,-122 1700.49,-86 1913.51,-86 1913.51,-122"/>
<text text-anchor="middle" x="1807" y="-99.8" font-family="Times,serif" font-size="14.00">MainFinancialCalendarComponent</text>
</g>
<!-- MainFinancialCalendarComponent&#45;&gt;GeneralSettingModule -->
<g id="edge10" class="edge">
<title>MainFinancialCalendarComponent&#45;&gt;GeneralSettingModule</title>
<path fill="none" stroke="black" d="M1742.5,-122.11C1742.5,-122.11 1742.5,-140.99 1742.5,-140.99"/>
<polygon fill="black" stroke="black" points="1739,-140.99 1742.5,-150.99 1746,-140.99 1739,-140.99"/>
</g>
<!-- TagAddComponent -->
<g id="node11" class="node">
<title>TagAddComponent</title>
<polygon fill="#ffffb3" stroke="black" points="1682.71,-122 1555.29,-122 1555.29,-86 1682.71,-86 1682.71,-122"/>
<text text-anchor="middle" x="1619" y="-99.8" font-family="Times,serif" font-size="14.00">TagAddComponent</text>
</g>
<!-- TagAddComponent&#45;&gt;GeneralSettingModule -->
<g id="edge11" class="edge">
<title>TagAddComponent&#45;&gt;GeneralSettingModule</title>
<path fill="none" stroke="black" d="M1661.92,-122.11C1661.92,-122.11 1661.92,-140.99 1661.92,-140.99"/>
<polygon fill="black" stroke="black" points="1658.42,-140.99 1661.92,-150.99 1665.42,-140.99 1658.42,-140.99"/>
</g>
<!-- TagEditComponent -->
<g id="node12" class="node">
<title>TagEditComponent</title>
<polygon fill="#ffffb3" stroke="black" points="1537.43,-122 1410.57,-122 1410.57,-86 1537.43,-86 1537.43,-122"/>
<text text-anchor="middle" x="1474" y="-99.8" font-family="Times,serif" font-size="14.00">TagEditComponent</text>
</g>
<!-- TagEditComponent&#45;&gt;GeneralSettingModule -->
<g id="edge12" class="edge">
<title>TagEditComponent&#45;&gt;GeneralSettingModule</title>
<path fill="none" stroke="black" d="M1474,-122.12C1474,-136.78 1474,-155 1474,-155 1474,-155 1631.29,-155 1631.29,-155"/>
<polygon fill="black" stroke="black" points="1631.29,-158.5 1641.29,-155 1631.29,-151.5 1631.29,-158.5"/>
</g>
<!-- TagListComponent -->
<g id="node13" class="node">
<title>TagListComponent</title>
<polygon fill="#ffffb3" stroke="black" points="1392.38,-122 1267.62,-122 1267.62,-86 1392.38,-86 1392.38,-122"/>
<text text-anchor="middle" x="1330" y="-99.8" font-family="Times,serif" font-size="14.00">TagListComponent</text>
</g>
<!-- TagListComponent&#45;&gt;GeneralSettingModule -->
<g id="edge13" class="edge">
<title>TagListComponent&#45;&gt;GeneralSettingModule</title>
<path fill="none" stroke="black" d="M1330,-122.01C1330,-138.05 1330,-159 1330,-159 1330,-159 1631.41,-159 1631.41,-159"/>
<polygon fill="black" stroke="black" points="1631.41,-162.5 1641.41,-159 1631.41,-155.5 1631.41,-162.5"/>
</g>
<!-- TaxDefinitionAddComponent -->
<g id="node14" class="node">
<title>TaxDefinitionAddComponent</title>
<polygon fill="#ffffb3" stroke="black" points="1249.25,-122 1064.75,-122 1064.75,-86 1249.25,-86 1249.25,-122"/>
<text text-anchor="middle" x="1157" y="-99.8" font-family="Times,serif" font-size="14.00">TaxDefinitionAddComponent</text>
</g>
<!-- TaxDefinitionAddComponent&#45;&gt;GeneralSettingModule -->
<g id="edge14" class="edge">
<title>TaxDefinitionAddComponent&#45;&gt;GeneralSettingModule</title>
<path fill="none" stroke="black" d="M1157,-122.03C1157,-139.06 1157,-162 1157,-162 1157,-162 1631.45,-162 1631.45,-162"/>
<polygon fill="black" stroke="black" points="1631.45,-165.5 1641.45,-162 1631.45,-158.5 1631.45,-165.5"/>
</g>
<!-- TaxDefinitionComponent -->
<g id="node15" class="node">
<title>TaxDefinitionComponent</title>
<polygon fill="#ffffb3" stroke="black" points="1046.14,-122 885.86,-122 885.86,-86 1046.14,-86 1046.14,-122"/>
<text text-anchor="middle" x="966" y="-99.8" font-family="Times,serif" font-size="14.00">TaxDefinitionComponent</text>
</g>
<!-- TaxDefinitionComponent&#45;&gt;GeneralSettingModule -->
<g id="edge15" class="edge">
<title>TaxDefinitionComponent&#45;&gt;GeneralSettingModule</title>
<path fill="none" stroke="black" d="M966,-122.27C966,-140.56 966,-166 966,-166 966,-166 1631.37,-166 1631.37,-166"/>
<polygon fill="black" stroke="black" points="1631.37,-169.5 1641.37,-166 1631.37,-162.5 1631.37,-169.5"/>
</g>
<!-- TaxDefinitionEditComponent -->
<g id="node16" class="node">
<title>TaxDefinitionEditComponent</title>
<polygon fill="#ffffb3" stroke="black" points="867.98,-122 684.02,-122 684.02,-86 867.98,-86 867.98,-122"/>
<text text-anchor="middle" x="776" y="-99.8" font-family="Times,serif" font-size="14.00">TaxDefinitionEditComponent</text>
</g>
<!-- TaxDefinitionEditComponent&#45;&gt;GeneralSettingModule -->
<g id="edge16" class="edge">
<title>TaxDefinitionEditComponent&#45;&gt;GeneralSettingModule</title>
<path fill="none" stroke="black" d="M776,-122.11C776,-141.34 776,-169 776,-169 776,-169 1631.42,-169 1631.42,-169"/>
<polygon fill="black" stroke="black" points="1631.42,-172.5 1641.42,-169 1631.42,-165.5 1631.42,-172.5"/>
</g>
<!-- TaxGroupAddComponent -->
<g id="node17" class="node">
<title>TaxGroupAddComponent</title>
<polygon fill="#ffffb3" stroke="black" points="666.47,-122 503.53,-122 503.53,-86 666.47,-86 666.47,-122"/>
<text text-anchor="middle" x="585" y="-99.8" font-family="Times,serif" font-size="14.00">TaxGroupAddComponent</text>
</g>
<!-- TaxGroupAddComponent&#45;&gt;GeneralSettingModule -->
<g id="edge17" class="edge">
<title>TaxGroupAddComponent&#45;&gt;GeneralSettingModule</title>
<path fill="none" stroke="black" d="M585,-122.13C585,-142.57 585,-173 585,-173 585,-173 1631.15,-173 1631.15,-173"/>
<polygon fill="black" stroke="black" points="1631.15,-176.5 1641.15,-173 1631.15,-169.5 1631.15,-176.5"/>
</g>
<!-- TaxGroupComponent -->
<g id="node18" class="node">
<title>TaxGroupComponent</title>
<polygon fill="#ffffb3" stroke="black" points="485.37,-122 346.63,-122 346.63,-86 485.37,-86 485.37,-122"/>
<text text-anchor="middle" x="416" y="-99.8" font-family="Times,serif" font-size="14.00">TaxGroupComponent</text>
</g>
<!-- TaxGroupComponent&#45;&gt;GeneralSettingModule -->
<g id="edge18" class="edge">
<title>TaxGroupComponent&#45;&gt;GeneralSettingModule</title>
<path fill="none" stroke="black" d="M416,-122.04C416,-143.66 416,-177 416,-177 416,-177 1631.42,-177 1631.42,-177"/>
<polygon fill="black" stroke="black" points="1631.42,-180.5 1641.42,-177 1631.42,-173.5 1631.42,-180.5"/>
</g>
<!-- TaxGroupEditComponent -->
<g id="node19" class="node">
<title>TaxGroupEditComponent</title>
<polygon fill="#ffffb3" stroke="black" points="328.2,-122 165.8,-122 165.8,-86 328.2,-86 328.2,-122"/>
<text text-anchor="middle" x="247" y="-99.8" font-family="Times,serif" font-size="14.00">TaxGroupEditComponent</text>
</g>
<!-- TaxGroupEditComponent&#45;&gt;GeneralSettingModule -->
<g id="edge19" class="edge">
<title>TaxGroupEditComponent&#45;&gt;GeneralSettingModule</title>
<path fill="none" stroke="black" d="M247,-122.01C247,-144.49 247,-180 247,-180 247,-180 1631.3,-180 1631.3,-180"/>
<polygon fill="black" stroke="black" points="1631.3,-183.5 1641.3,-180 1631.3,-176.5 1631.3,-183.5"/>
</g>
<!-- SharedLibModule -->
<g id="node21" class="node">
<title>SharedLibModule</title>
<polygon fill="#8dd3c7" stroke="black" points="141.87,-122 138.87,-126 117.87,-126 114.87,-122 24.13,-122 24.13,-86 141.87,-86 141.87,-122"/>
<text text-anchor="middle" x="83" y="-99.8" font-family="Times,serif" font-size="14.00">SharedLibModule</text>
</g>
<!-- SharedLibModule&#45;&gt;GeneralSettingModule -->
<g id="edge20" class="edge">
<title>SharedLibModule&#45;&gt;GeneralSettingModule</title>
<path fill="none" stroke="black" d="M83,-122.15C83,-145.76 83,-184 83,-184 83,-184 1631.39,-184 1631.39,-184"/>
<polygon fill="black" stroke="black" points="1631.39,-187.5 1641.39,-184 1631.39,-180.5 1631.39,-187.5"/>
</g>
</g>
</svg>
