<?xml version="1.0" encoding="UTF-8" standalone="no"?>
<!DOCTYPE svg PUBLIC "-//W3C//DTD SVG 1.1//EN"
 "http://www.w3.org/Graphics/SVG/1.1/DTD/svg11.dtd">
<!-- Generated by graphviz version 2.47.0 (20210316.0004)
 -->
<!-- Title: dependencies Pages: 1 -->
<svg width="1001pt" height="284pt"
 viewBox="0.00 0.00 1001.00 284.00" xmlns="http://www.w3.org/2000/svg" xmlns:xlink="http://www.w3.org/1999/xlink">
<g id="graph0" class="graph" transform="scale(1 1) rotate(0) translate(4 280)">
<title>dependencies</title>
<polygon fill="white" stroke="transparent" points="-4,4 -4,-280 997,-280 997,4 -4,4"/>
<text text-anchor="start" x="475.51" y="-42.4" font-family="Times-12" font-weight="bold" font-size="14.00">Legend</text>
<polygon fill="#ffffb3" stroke="transparent" points="262.5,-10 262.5,-30 282.5,-30 282.5,-10 262.5,-10"/>
<text text-anchor="start" x="286.13" y="-15.4" font-family="Times-12" font-size="14.00"> &#160;Declarations</text>
<polygon fill="#8dd3c7" stroke="transparent" points="375.5,-10 375.5,-30 395.5,-30 395.5,-10 375.5,-10"/>
<text text-anchor="start" x="399.23" y="-15.4" font-family="Times-12" font-size="14.00"> &#160;Module</text>
<polygon fill="#80b1d3" stroke="transparent" points="461.5,-10 461.5,-30 481.5,-30 481.5,-10 461.5,-10"/>
<text text-anchor="start" x="485.28" y="-15.4" font-family="Times-12" font-size="14.00"> &#160;Bootstrap</text>
<polygon fill="#fdb462" stroke="transparent" points="558.5,-10 558.5,-30 578.5,-30 578.5,-10 558.5,-10"/>
<text text-anchor="start" x="582.17" y="-15.4" font-family="Times-12" font-size="14.00"> &#160;Providers</text>
<polygon fill="#fb8072" stroke="transparent" points="654.5,-10 654.5,-30 674.5,-30 674.5,-10 654.5,-10"/>
<text text-anchor="start" x="678.23" y="-15.4" font-family="Times-12" font-size="14.00"> &#160;Exports</text>
<g id="clust1" class="cluster">
<title>cluster_MicrotecAuthLibModule</title>
<polygon fill="none" stroke="black" stroke-dasharray="1,5" points="8,-70 8,-268 985,-268 985,-70 8,-70"/>
</g>
<g id="clust9" class="cluster">
<title>cluster_MicrotecAuthLibModule_exports</title>
<polygon fill="none" stroke="black" points="464,-208 464,-260 636,-260 636,-208 464,-208"/>
</g>
<g id="clust8" class="cluster">
<title>cluster_MicrotecAuthLibModule_imports</title>
<polygon fill="none" stroke="black" points="871,-78 871,-130 977,-130 977,-78 871,-78"/>
</g>
<g id="clust2" class="cluster">
<title>cluster_MicrotecAuthLibModule_declarations</title>
<polygon fill="none" stroke="black" points="16,-78 16,-130 863,-130 863,-78 16,-78"/>
</g>
<!-- HasPermissionDirective -->
<g id="node1" class="node">
<title>HasPermissionDirective</title>
<polygon fill="#ffffb3" stroke="black" points="855.07,-122 702.93,-122 702.93,-86 855.07,-86 855.07,-122"/>
<text text-anchor="middle" x="779" y="-99.8" font-family="Times,serif" font-size="14.00">HasPermissionDirective</text>
</g>
<!-- MicrotecAuthLibModule -->
<g id="node6" class="node">
<title>MicrotecAuthLibModule</title>
<polygon fill="#8dd3c7" stroke="black" points="628.52,-187 625.52,-191 604.52,-191 601.52,-187 471.48,-187 471.48,-151 628.52,-151 628.52,-187"/>
<text text-anchor="middle" x="550" y="-164.8" font-family="Times,serif" font-size="14.00">MicrotecAuthLibModule</text>
</g>
<!-- HasPermissionDirective&#45;&gt;MicrotecAuthLibModule -->
<g id="edge1" class="edge">
<title>HasPermissionDirective&#45;&gt;MicrotecAuthLibModule</title>
<path fill="none" stroke="black" d="M779,-122.02C779,-139.37 779,-163 779,-163 779,-163 638.81,-163 638.81,-163"/>
<polygon fill="black" stroke="black" points="638.81,-159.5 628.81,-163 638.81,-166.5 638.81,-159.5"/>
</g>
<!-- LoginComponent -->
<g id="node2" class="node">
<title>LoginComponent</title>
<polygon fill="#ffffb3" stroke="black" points="685.28,-122 570.72,-122 570.72,-86 685.28,-86 685.28,-122"/>
<text text-anchor="middle" x="628" y="-99.8" font-family="Times,serif" font-size="14.00">LoginComponent</text>
</g>
<!-- LoginComponent&#45;&gt;MicrotecAuthLibModule -->
<g id="edge2" class="edge">
<title>LoginComponent&#45;&gt;MicrotecAuthLibModule</title>
<path fill="none" stroke="black" d="M599.69,-122.11C599.69,-122.11 599.69,-140.99 599.69,-140.99"/>
<polygon fill="black" stroke="black" points="596.19,-140.99 599.69,-150.99 603.19,-140.99 596.19,-140.99"/>
</g>
<!-- LoginRedirectComponent -->
<g id="node3" class="node">
<title>LoginRedirectComponent</title>
<polygon fill="#ffffb3" stroke="black" points="553.2,-122 390.8,-122 390.8,-86 553.2,-86 553.2,-122"/>
<text text-anchor="middle" x="472" y="-99.8" font-family="Times,serif" font-size="14.00">LoginRedirectComponent</text>
</g>
<!-- LoginRedirectComponent&#45;&gt;MicrotecAuthLibModule -->
<g id="edge3" class="edge">
<title>LoginRedirectComponent&#45;&gt;MicrotecAuthLibModule</title>
<path fill="none" stroke="black" d="M512.17,-122.11C512.17,-122.11 512.17,-140.99 512.17,-140.99"/>
<polygon fill="black" stroke="black" points="508.67,-140.99 512.17,-150.99 515.67,-140.99 508.67,-140.99"/>
</g>
<!-- LogoutRedirectComponent -->
<g id="node4" class="node">
<title>LogoutRedirectComponent</title>
<polygon fill="#ffffb3" stroke="black" points="372.7,-122 203.3,-122 203.3,-86 372.7,-86 372.7,-122"/>
<text text-anchor="middle" x="288" y="-99.8" font-family="Times,serif" font-size="14.00">LogoutRedirectComponent</text>
</g>
<!-- LogoutRedirectComponent&#45;&gt;MicrotecAuthLibModule -->
<g id="edge4" class="edge">
<title>LogoutRedirectComponent&#45;&gt;MicrotecAuthLibModule</title>
<path fill="none" stroke="black" d="M288,-122.02C288,-139.37 288,-163 288,-163 288,-163 461.39,-163 461.39,-163"/>
<polygon fill="black" stroke="black" points="461.39,-166.5 471.39,-163 461.39,-159.5 461.39,-166.5"/>
</g>
<!-- UnAuthorizedComponent -->
<g id="node5" class="node">
<title>UnAuthorizedComponent</title>
<polygon fill="#ffffb3" stroke="black" points="185.92,-122 24.08,-122 24.08,-86 185.92,-86 185.92,-122"/>
<text text-anchor="middle" x="105" y="-99.8" font-family="Times,serif" font-size="14.00">UnAuthorizedComponent</text>
</g>
<!-- UnAuthorizedComponent&#45;&gt;MicrotecAuthLibModule -->
<g id="edge5" class="edge">
<title>UnAuthorizedComponent&#45;&gt;MicrotecAuthLibModule</title>
<path fill="none" stroke="black" d="M105,-122.28C105,-143.32 105,-175 105,-175 105,-175 461.47,-175 461.47,-175"/>
<polygon fill="black" stroke="black" points="461.47,-178.5 471.47,-175 461.47,-171.5 461.47,-178.5"/>
</g>
<!-- HasPermissionDirective  -->
<g id="node8" class="node">
<title>HasPermissionDirective </title>
<polygon fill="#fb8072" stroke="black" points="627.57,-252 472.43,-252 472.43,-216 627.57,-216 627.57,-252"/>
<text text-anchor="middle" x="550" y="-229.8" font-family="Times,serif" font-size="14.00">HasPermissionDirective </text>
</g>
<!-- MicrotecAuthLibModule&#45;&gt;HasPermissionDirective  -->
<g id="edge7" class="edge">
<title>MicrotecAuthLibModule&#45;&gt;HasPermissionDirective </title>
<path fill="none" stroke="black" stroke-dasharray="5,2" d="M550,-187.11C550,-187.11 550,-205.99 550,-205.99"/>
<polygon fill="black" stroke="black" points="546.5,-205.99 550,-215.99 553.5,-205.99 546.5,-205.99"/>
</g>
<!-- RouterOutlet -->
<g id="node7" class="node">
<title>RouterOutlet</title>
<polygon fill="#8dd3c7" stroke="black" points="968.6,-122 965.6,-126 944.6,-126 941.6,-122 879.4,-122 879.4,-86 968.6,-86 968.6,-122"/>
<text text-anchor="middle" x="924" y="-99.8" font-family="Times,serif" font-size="14.00">RouterOutlet</text>
</g>
<!-- RouterOutlet&#45;&gt;MicrotecAuthLibModule -->
<g id="edge6" class="edge">
<title>RouterOutlet&#45;&gt;MicrotecAuthLibModule</title>
<path fill="none" stroke="black" d="M924,-122.28C924,-143.32 924,-175 924,-175 924,-175 638.86,-175 638.86,-175"/>
<polygon fill="black" stroke="black" points="638.86,-171.5 628.86,-175 638.86,-178.5 638.86,-171.5"/>
</g>
</g>
</svg>
