<?xml version="1.0" encoding="UTF-8" standalone="no"?>
<!DOCTYPE svg PUBLIC "-//W3C//DTD SVG 1.1//EN"
 "http://www.w3.org/Graphics/SVG/1.1/DTD/svg11.dtd">
<!-- Generated by graphviz version 2.47.0 (20210316.0004)
 -->
<!-- Title: dependencies Pages: 1 -->
<svg width="2104pt" height="211pt"
 viewBox="0.00 0.00 2104.00 211.00" xmlns="http://www.w3.org/2000/svg" xmlns:xlink="http://www.w3.org/1999/xlink">
<g id="graph0" class="graph" transform="scale(1 1) rotate(0) translate(4 207)">
<title>dependencies</title>
<polygon fill="white" stroke="transparent" points="-4,4 -4,-207 2100,-207 2100,4 -4,4"/>
<text text-anchor="start" x="1027.01" y="-42.4" font-family="Times-12" font-weight="bold" font-size="14.00">Legend</text>
<polygon fill="#ffffb3" stroke="transparent" points="814,-10 814,-30 834,-30 834,-10 814,-10"/>
<text text-anchor="start" x="837.63" y="-15.4" font-family="Times-12" font-size="14.00"> &#160;Declarations</text>
<polygon fill="#8dd3c7" stroke="transparent" points="927,-10 927,-30 947,-30 947,-10 927,-10"/>
<text text-anchor="start" x="950.73" y="-15.4" font-family="Times-12" font-size="14.00"> &#160;Module</text>
<polygon fill="#80b1d3" stroke="transparent" points="1013,-10 1013,-30 1033,-30 1033,-10 1013,-10"/>
<text text-anchor="start" x="1036.78" y="-15.4" font-family="Times-12" font-size="14.00"> &#160;Bootstrap</text>
<polygon fill="#fdb462" stroke="transparent" points="1110,-10 1110,-30 1130,-30 1130,-10 1110,-10"/>
<text text-anchor="start" x="1133.67" y="-15.4" font-family="Times-12" font-size="14.00"> &#160;Providers</text>
<polygon fill="#fb8072" stroke="transparent" points="1206,-10 1206,-30 1226,-30 1226,-10 1206,-10"/>
<text text-anchor="start" x="1229.73" y="-15.4" font-family="Times-12" font-size="14.00"> &#160;Exports</text>
<g id="clust1" class="cluster">
<title>cluster_AccountModule</title>
<polygon fill="none" stroke="black" stroke-dasharray="1,5" points="8,-70 8,-195 2088,-195 2088,-70 8,-70"/>
</g>
<g id="clust2" class="cluster">
<title>cluster_AccountModule_declarations</title>
<polygon fill="none" stroke="black" points="492,-78 492,-130 2080,-130 2080,-78 492,-78"/>
</g>
<g id="clust12" class="cluster">
<title>cluster_AccountModule_imports</title>
<polygon fill="none" stroke="black" points="16,-78 16,-130 484,-130 484,-78 16,-78"/>
</g>
<!-- AccountComponent -->
<g id="node1" class="node">
<title>AccountComponent</title>
<polygon fill="#ffffb3" stroke="black" points="2072.26,-122 1943.74,-122 1943.74,-86 2072.26,-86 2072.26,-122"/>
<text text-anchor="middle" x="2008" y="-99.8" font-family="Times,serif" font-size="14.00">AccountComponent</text>
</g>
<!-- AccountModule -->
<g id="node10" class="node">
<title>AccountModule</title>
<polygon fill="#8dd3c7" stroke="black" points="1040.48,-187 1037.48,-191 1016.48,-191 1013.48,-187 933.52,-187 933.52,-151 1040.48,-151 1040.48,-187"/>
<text text-anchor="middle" x="987" y="-164.8" font-family="Times,serif" font-size="14.00">AccountModule</text>
</g>
<!-- AccountComponent&#45;&gt;AccountModule -->
<g id="edge1" class="edge">
<title>AccountComponent&#45;&gt;AccountModule</title>
<path fill="none" stroke="black" d="M2008,-122.09C2008,-145.13 2008,-182 2008,-182 2008,-182 1050.81,-182 1050.81,-182"/>
<polygon fill="black" stroke="black" points="1050.81,-178.5 1040.81,-182 1050.81,-185.5 1050.81,-178.5"/>
</g>
<!-- ConnectedAccountsComponent -->
<g id="node2" class="node">
<title>ConnectedAccountsComponent</title>
<polygon fill="#ffffb3" stroke="black" points="1926.07,-122 1731.93,-122 1731.93,-86 1926.07,-86 1926.07,-122"/>
<text text-anchor="middle" x="1829" y="-99.8" font-family="Times,serif" font-size="14.00">ConnectedAccountsComponent</text>
</g>
<!-- ConnectedAccountsComponent&#45;&gt;AccountModule -->
<g id="edge2" class="edge">
<title>ConnectedAccountsComponent&#45;&gt;AccountModule</title>
<path fill="none" stroke="black" d="M1829,-122.28C1829,-143.32 1829,-175 1829,-175 1829,-175 1050.63,-175 1050.63,-175"/>
<polygon fill="black" stroke="black" points="1050.63,-171.5 1040.63,-175 1050.63,-178.5 1050.63,-171.5"/>
</g>
<!-- DeactivateAccountComponent -->
<g id="node3" class="node">
<title>DeactivateAccountComponent</title>
<polygon fill="#ffffb3" stroke="black" points="1714.11,-122 1525.89,-122 1525.89,-86 1714.11,-86 1714.11,-122"/>
<text text-anchor="middle" x="1620" y="-99.8" font-family="Times,serif" font-size="14.00">DeactivateAccountComponent</text>
</g>
<!-- DeactivateAccountComponent&#45;&gt;AccountModule -->
<g id="edge3" class="edge">
<title>DeactivateAccountComponent&#45;&gt;AccountModule</title>
<path fill="none" stroke="black" d="M1620,-122.11C1620,-141.34 1620,-169 1620,-169 1620,-169 1050.7,-169 1050.7,-169"/>
<polygon fill="black" stroke="black" points="1050.7,-165.5 1040.7,-169 1050.7,-172.5 1050.7,-165.5"/>
</g>
<!-- EmailPreferencesComponent -->
<g id="node4" class="node">
<title>EmailPreferencesComponent</title>
<polygon fill="#ffffb3" stroke="black" points="1508.05,-122 1327.95,-122 1327.95,-86 1508.05,-86 1508.05,-122"/>
<text text-anchor="middle" x="1418" y="-99.8" font-family="Times,serif" font-size="14.00">EmailPreferencesComponent</text>
</g>
<!-- EmailPreferencesComponent&#45;&gt;AccountModule -->
<g id="edge4" class="edge">
<title>EmailPreferencesComponent&#45;&gt;AccountModule</title>
<path fill="none" stroke="black" d="M1418,-122.02C1418,-139.37 1418,-163 1418,-163 1418,-163 1050.71,-163 1050.71,-163"/>
<polygon fill="black" stroke="black" points="1050.72,-159.5 1040.71,-163 1050.71,-166.5 1050.72,-159.5"/>
</g>
<!-- NotificationsComponent -->
<g id="node5" class="node">
<title>NotificationsComponent</title>
<polygon fill="#ffffb3" stroke="black" points="1310.43,-122 1155.57,-122 1155.57,-86 1310.43,-86 1310.43,-122"/>
<text text-anchor="middle" x="1233" y="-99.8" font-family="Times,serif" font-size="14.00">NotificationsComponent</text>
</g>
<!-- NotificationsComponent&#45;&gt;AccountModule -->
<g id="edge5" class="edge">
<title>NotificationsComponent&#45;&gt;AccountModule</title>
<path fill="none" stroke="black" d="M1233,-122.24C1233,-137.57 1233,-157 1233,-157 1233,-157 1050.68,-157 1050.68,-157"/>
<polygon fill="black" stroke="black" points="1050.68,-153.5 1040.68,-157 1050.68,-160.5 1050.68,-153.5"/>
</g>
<!-- OverviewComponent -->
<g id="node6" class="node">
<title>OverviewComponent</title>
<polygon fill="#ffffb3" stroke="black" points="1138.03,-122 1001.97,-122 1001.97,-86 1138.03,-86 1138.03,-122"/>
<text text-anchor="middle" x="1070" y="-99.8" font-family="Times,serif" font-size="14.00">OverviewComponent</text>
</g>
<!-- OverviewComponent&#45;&gt;AccountModule -->
<g id="edge6" class="edge">
<title>OverviewComponent&#45;&gt;AccountModule</title>
<path fill="none" stroke="black" d="M1021.11,-122.11C1021.11,-122.11 1021.11,-140.99 1021.11,-140.99"/>
<polygon fill="black" stroke="black" points="1017.61,-140.99 1021.11,-150.99 1024.61,-140.99 1017.61,-140.99"/>
</g>
<!-- ProfileDetailsComponent -->
<g id="node7" class="node">
<title>ProfileDetailsComponent</title>
<polygon fill="#ffffb3" stroke="black" points="983.58,-122 824.42,-122 824.42,-86 983.58,-86 983.58,-122"/>
<text text-anchor="middle" x="904" y="-99.8" font-family="Times,serif" font-size="14.00">ProfileDetailsComponent</text>
</g>
<!-- ProfileDetailsComponent&#45;&gt;AccountModule -->
<g id="edge7" class="edge">
<title>ProfileDetailsComponent&#45;&gt;AccountModule</title>
<path fill="none" stroke="black" d="M958.53,-122.11C958.53,-122.11 958.53,-140.99 958.53,-140.99"/>
<polygon fill="black" stroke="black" points="955.03,-140.99 958.53,-150.99 962.03,-140.99 955.03,-140.99"/>
</g>
<!-- SettingsComponent -->
<g id="node8" class="node">
<title>SettingsComponent</title>
<polygon fill="#ffffb3" stroke="black" points="806.45,-122 679.55,-122 679.55,-86 806.45,-86 806.45,-122"/>
<text text-anchor="middle" x="743" y="-99.8" font-family="Times,serif" font-size="14.00">SettingsComponent</text>
</g>
<!-- SettingsComponent&#45;&gt;AccountModule -->
<g id="edge8" class="edge">
<title>SettingsComponent&#45;&gt;AccountModule</title>
<path fill="none" stroke="black" d="M743,-122.24C743,-137.57 743,-157 743,-157 743,-157 923.45,-157 923.45,-157"/>
<polygon fill="black" stroke="black" points="923.45,-160.5 933.45,-157 923.45,-153.5 923.45,-160.5"/>
</g>
<!-- SignInMethodComponent -->
<g id="node9" class="node">
<title>SignInMethodComponent</title>
<polygon fill="#ffffb3" stroke="black" points="662.22,-122 499.78,-122 499.78,-86 662.22,-86 662.22,-122"/>
<text text-anchor="middle" x="581" y="-99.8" font-family="Times,serif" font-size="14.00">SignInMethodComponent</text>
</g>
<!-- SignInMethodComponent&#45;&gt;AccountModule -->
<g id="edge9" class="edge">
<title>SignInMethodComponent&#45;&gt;AccountModule</title>
<path fill="none" stroke="black" d="M581,-122.02C581,-139.37 581,-163 581,-163 581,-163 923.51,-163 923.51,-163"/>
<polygon fill="black" stroke="black" points="923.51,-166.5 933.51,-163 923.51,-159.5 923.51,-166.5"/>
</g>
<!-- AccountRoutingModule -->
<g id="node11" class="node">
<title>AccountRoutingModule</title>
<polygon fill="#8dd3c7" stroke="black" points="476.09,-122 473.09,-126 452.09,-126 449.09,-122 323.91,-122 323.91,-86 476.09,-86 476.09,-122"/>
<text text-anchor="middle" x="400" y="-99.8" font-family="Times,serif" font-size="14.00">AccountRoutingModule</text>
</g>
<!-- AccountRoutingModule&#45;&gt;AccountModule -->
<g id="edge10" class="edge">
<title>AccountRoutingModule&#45;&gt;AccountModule</title>
<path fill="none" stroke="black" d="M400,-122.11C400,-141.34 400,-169 400,-169 400,-169 923.35,-169 923.35,-169"/>
<polygon fill="black" stroke="black" points="923.35,-172.5 933.35,-169 923.35,-165.5 923.35,-172.5"/>
</g>
<!-- DropdownMenusModule -->
<g id="node12" class="node">
<title>DropdownMenusModule</title>
<polygon fill="#8dd3c7" stroke="black" points="305.53,-122 302.53,-126 281.53,-126 278.53,-122 148.47,-122 148.47,-86 305.53,-86 305.53,-122"/>
<text text-anchor="middle" x="227" y="-99.8" font-family="Times,serif" font-size="14.00">DropdownMenusModule</text>
</g>
<!-- DropdownMenusModule&#45;&gt;AccountModule -->
<g id="edge11" class="edge">
<title>DropdownMenusModule&#45;&gt;AccountModule</title>
<path fill="none" stroke="black" d="M227,-122.28C227,-143.32 227,-175 227,-175 227,-175 923.26,-175 923.26,-175"/>
<polygon fill="black" stroke="black" points="923.26,-178.5 933.26,-175 923.26,-171.5 923.26,-178.5"/>
</g>
<!-- WidgetsModule -->
<g id="node13" class="node">
<title>WidgetsModule</title>
<polygon fill="#8dd3c7" stroke="black" points="130.2,-122 127.2,-126 106.2,-126 103.2,-122 23.8,-122 23.8,-86 130.2,-86 130.2,-122"/>
<text text-anchor="middle" x="77" y="-99.8" font-family="Times,serif" font-size="14.00">WidgetsModule</text>
</g>
<!-- WidgetsModule&#45;&gt;AccountModule -->
<g id="edge12" class="edge">
<title>WidgetsModule&#45;&gt;AccountModule</title>
<path fill="none" stroke="black" d="M77,-122.09C77,-145.13 77,-182 77,-182 77,-182 923.47,-182 923.47,-182"/>
<polygon fill="black" stroke="black" points="923.47,-185.5 933.47,-182 923.47,-178.5 923.47,-185.5"/>
</g>
</g>
</svg>
