<?xml version="1.0" encoding="UTF-8" standalone="no"?>
<!DOCTYPE svg PUBLIC "-//W3C//DTD SVG 1.1//EN"
 "http://www.w3.org/Graphics/SVG/1.1/DTD/svg11.dtd">
<!-- Generated by graphviz version 2.47.0 (20210316.0004)
 -->
<!-- Title: dependencies Pages: 1 -->
<svg width="936pt" height="211pt"
 viewBox="0.00 0.00 936.00 211.00" xmlns="http://www.w3.org/2000/svg" xmlns:xlink="http://www.w3.org/1999/xlink">
<g id="graph0" class="graph" transform="scale(1 1) rotate(0) translate(4 207)">
<title>dependencies</title>
<polygon fill="white" stroke="transparent" points="-4,4 -4,-207 932,-207 932,4 -4,4"/>
<text text-anchor="start" x="443.01" y="-42.4" font-family="Times-12" font-weight="bold" font-size="14.00">Legend</text>
<polygon fill="#ffffb3" stroke="transparent" points="230,-10 230,-30 250,-30 250,-10 230,-10"/>
<text text-anchor="start" x="253.63" y="-15.4" font-family="Times-12" font-size="14.00"> &#160;Declarations</text>
<polygon fill="#8dd3c7" stroke="transparent" points="343,-10 343,-30 363,-30 363,-10 343,-10"/>
<text text-anchor="start" x="366.73" y="-15.4" font-family="Times-12" font-size="14.00"> &#160;Module</text>
<polygon fill="#80b1d3" stroke="transparent" points="429,-10 429,-30 449,-30 449,-10 429,-10"/>
<text text-anchor="start" x="452.78" y="-15.4" font-family="Times-12" font-size="14.00"> &#160;Bootstrap</text>
<polygon fill="#fdb462" stroke="transparent" points="526,-10 526,-30 546,-30 546,-10 526,-10"/>
<text text-anchor="start" x="549.67" y="-15.4" font-family="Times-12" font-size="14.00"> &#160;Providers</text>
<polygon fill="#fb8072" stroke="transparent" points="622,-10 622,-30 642,-30 642,-10 622,-10"/>
<text text-anchor="start" x="645.73" y="-15.4" font-family="Times-12" font-size="14.00"> &#160;Exports</text>
<g id="clust1" class="cluster">
<title>cluster_AppsSharedLibModule</title>
<polygon fill="none" stroke="black" stroke-dasharray="1,5" points="8,-70 8,-195 920,-195 920,-70 8,-70"/>
</g>
<g id="clust5" class="cluster">
<title>cluster_AppsSharedLibModule_imports</title>
<polygon fill="none" stroke="black" points="397,-78 397,-130 912,-130 912,-78 397,-78"/>
</g>
<g id="clust2" class="cluster">
<title>cluster_AppsSharedLibModule_declarations</title>
<polygon fill="none" stroke="black" points="16,-78 16,-130 389,-130 389,-78 16,-78"/>
</g>
<!-- ActtachmentViewComponent -->
<g id="node1" class="node">
<title>ActtachmentViewComponent</title>
<polygon fill="#ffffb3" stroke="black" points="380.68,-122 197.32,-122 197.32,-86 380.68,-86 380.68,-122"/>
<text text-anchor="middle" x="289" y="-99.8" font-family="Times,serif" font-size="14.00">ActtachmentViewComponent</text>
</g>
<!-- AppsSharedLibModule -->
<g id="node3" class="node">
<title>AppsSharedLibModule</title>
<polygon fill="#8dd3c7" stroke="black" points="604.92,-187 601.92,-191 580.92,-191 577.92,-187 457.08,-187 457.08,-151 604.92,-151 604.92,-187"/>
<text text-anchor="middle" x="531" y="-164.8" font-family="Times,serif" font-size="14.00">AppsSharedLibModule</text>
</g>
<!-- ActtachmentViewComponent&#45;&gt;AppsSharedLibModule -->
<g id="edge1" class="edge">
<title>ActtachmentViewComponent&#45;&gt;AppsSharedLibModule</title>
<path fill="none" stroke="black" d="M289,-122.02C289,-139.37 289,-163 289,-163 289,-163 447.08,-163 447.08,-163"/>
<polygon fill="black" stroke="black" points="447.08,-166.5 457.08,-163 447.08,-159.5 447.08,-166.5"/>
</g>
<!-- LandingPageComponent -->
<g id="node2" class="node">
<title>LandingPageComponent</title>
<polygon fill="#ffffb3" stroke="black" points="179.7,-122 24.3,-122 24.3,-86 179.7,-86 179.7,-122"/>
<text text-anchor="middle" x="102" y="-99.8" font-family="Times,serif" font-size="14.00">LandingPageComponent</text>
</g>
<!-- LandingPageComponent&#45;&gt;AppsSharedLibModule -->
<g id="edge2" class="edge">
<title>LandingPageComponent&#45;&gt;AppsSharedLibModule</title>
<path fill="none" stroke="black" d="M102,-122.28C102,-143.32 102,-175 102,-175 102,-175 447.25,-175 447.25,-175"/>
<polygon fill="black" stroke="black" points="447.25,-178.5 457.25,-175 447.25,-171.5 447.25,-178.5"/>
</g>
<!-- HelpPageModule -->
<g id="node4" class="node">
<title>HelpPageModule</title>
<polygon fill="#8dd3c7" stroke="black" points="903.97,-122 900.97,-126 879.97,-126 876.97,-122 790.03,-122 790.03,-86 903.97,-86 903.97,-122"/>
<text text-anchor="middle" x="847" y="-99.8" font-family="Times,serif" font-size="14.00">HelpPageModule</text>
</g>
<!-- HelpPageModule&#45;&gt;AppsSharedLibModule -->
<g id="edge3" class="edge">
<title>HelpPageModule&#45;&gt;AppsSharedLibModule</title>
<path fill="none" stroke="black" d="M847,-122.28C847,-143.32 847,-175 847,-175 847,-175 615.09,-175 615.09,-175"/>
<polygon fill="black" stroke="black" points="615.09,-171.5 605.09,-175 615.09,-178.5 615.09,-171.5"/>
</g>
<!-- LayoutModule -->
<g id="node5" class="node">
<title>LayoutModule</title>
<polygon fill="#8dd3c7" stroke="black" points="771.71,-122 768.71,-126 747.71,-126 744.71,-122 672.29,-122 672.29,-86 771.71,-86 771.71,-122"/>
<text text-anchor="middle" x="722" y="-99.8" font-family="Times,serif" font-size="14.00">LayoutModule</text>
</g>
<!-- LayoutModule&#45;&gt;AppsSharedLibModule -->
<g id="edge4" class="edge">
<title>LayoutModule&#45;&gt;AppsSharedLibModule</title>
<path fill="none" stroke="black" d="M722,-122.02C722,-139.37 722,-163 722,-163 722,-163 614.85,-163 614.85,-163"/>
<polygon fill="black" stroke="black" points="614.85,-159.5 604.85,-163 614.85,-166.5 614.85,-159.5"/>
</g>
<!-- SequenceModule -->
<g id="node6" class="node">
<title>SequenceModule</title>
<polygon fill="#8dd3c7" stroke="black" points="654.69,-122 651.69,-126 630.69,-126 627.69,-122 541.31,-122 541.31,-86 654.69,-86 654.69,-122"/>
<text text-anchor="middle" x="598" y="-99.8" font-family="Times,serif" font-size="14.00">SequenceModule</text>
</g>
<!-- SequenceModule&#45;&gt;AppsSharedLibModule -->
<g id="edge5" class="edge">
<title>SequenceModule&#45;&gt;AppsSharedLibModule</title>
<path fill="none" stroke="black" d="M573.06,-122.11C573.06,-122.11 573.06,-140.99 573.06,-140.99"/>
<polygon fill="black" stroke="black" points="569.56,-140.99 573.06,-150.99 576.56,-140.99 569.56,-140.99"/>
</g>
<!-- SharedLibModule -->
<g id="node7" class="node">
<title>SharedLibModule</title>
<polygon fill="#8dd3c7" stroke="black" points="522.87,-122 519.87,-126 498.87,-126 495.87,-122 405.13,-122 405.13,-86 522.87,-86 522.87,-122"/>
<text text-anchor="middle" x="464" y="-99.8" font-family="Times,serif" font-size="14.00">SharedLibModule</text>
</g>
<!-- SharedLibModule&#45;&gt;AppsSharedLibModule -->
<g id="edge6" class="edge">
<title>SharedLibModule&#45;&gt;AppsSharedLibModule</title>
<path fill="none" stroke="black" d="M490.11,-122.11C490.11,-122.11 490.11,-140.99 490.11,-140.99"/>
<polygon fill="black" stroke="black" points="486.61,-140.99 490.11,-150.99 493.61,-140.99 486.61,-140.99"/>
</g>
</g>
</svg>
