<?xml version="1.0" encoding="UTF-8" standalone="no"?>
<!DOCTYPE svg PUBLIC "-//W3C//DTD SVG 1.1//EN"
 "http://www.w3.org/Graphics/SVG/1.1/DTD/svg11.dtd">
<!-- Generated by graphviz version 2.47.0 (20210316.0004)
 -->
<!-- Title: dependencies Pages: 1 -->
<svg width="1233pt" height="211pt"
 viewBox="0.00 0.00 1233.00 211.00" xmlns="http://www.w3.org/2000/svg" xmlns:xlink="http://www.w3.org/1999/xlink">
<g id="graph0" class="graph" transform="scale(1 1) rotate(0) translate(4 207)">
<title>dependencies</title>
<polygon fill="white" stroke="transparent" points="-4,4 -4,-207 1229,-207 1229,4 -4,4"/>
<text text-anchor="start" x="591.51" y="-42.4" font-family="Times-12" font-weight="bold" font-size="14.00">Legend</text>
<polygon fill="#ffffb3" stroke="transparent" points="378.5,-10 378.5,-30 398.5,-30 398.5,-10 378.5,-10"/>
<text text-anchor="start" x="402.13" y="-15.4" font-family="Times-12" font-size="14.00"> &#160;Declarations</text>
<polygon fill="#8dd3c7" stroke="transparent" points="491.5,-10 491.5,-30 511.5,-30 511.5,-10 491.5,-10"/>
<text text-anchor="start" x="515.23" y="-15.4" font-family="Times-12" font-size="14.00"> &#160;Module</text>
<polygon fill="#80b1d3" stroke="transparent" points="577.5,-10 577.5,-30 597.5,-30 597.5,-10 577.5,-10"/>
<text text-anchor="start" x="601.28" y="-15.4" font-family="Times-12" font-size="14.00"> &#160;Bootstrap</text>
<polygon fill="#fdb462" stroke="transparent" points="674.5,-10 674.5,-30 694.5,-30 694.5,-10 674.5,-10"/>
<text text-anchor="start" x="698.17" y="-15.4" font-family="Times-12" font-size="14.00"> &#160;Providers</text>
<polygon fill="#fb8072" stroke="transparent" points="770.5,-10 770.5,-30 790.5,-30 790.5,-10 770.5,-10"/>
<text text-anchor="start" x="794.23" y="-15.4" font-family="Times-12" font-size="14.00"> &#160;Exports</text>
<g id="clust1" class="cluster">
<title>cluster_ChatModule</title>
<polygon fill="none" stroke="black" stroke-dasharray="1,5" points="8,-70 8,-195 1217,-195 1217,-70 8,-70"/>
</g>
<g id="clust2" class="cluster">
<title>cluster_ChatModule_declarations</title>
<polygon fill="none" stroke="black" points="590,-78 590,-130 1209,-130 1209,-78 590,-78"/>
</g>
<g id="clust7" class="cluster">
<title>cluster_ChatModule_imports</title>
<polygon fill="none" stroke="black" points="16,-78 16,-130 582,-130 582,-78 16,-78"/>
</g>
<!-- ChatComponent -->
<g id="node1" class="node">
<title>ChatComponent</title>
<polygon fill="#ffffb3" stroke="black" points="1200.77,-122 1093.23,-122 1093.23,-86 1200.77,-86 1200.77,-122"/>
<text text-anchor="middle" x="1147" y="-99.8" font-family="Times,serif" font-size="14.00">ChatComponent</text>
</g>
<!-- ChatModule -->
<g id="node5" class="node">
<title>ChatModule</title>
<polygon fill="#8dd3c7" stroke="black" points="642.99,-187 639.99,-191 618.99,-191 615.99,-187 557.01,-187 557.01,-151 642.99,-151 642.99,-187"/>
<text text-anchor="middle" x="600" y="-164.8" font-family="Times,serif" font-size="14.00">ChatModule</text>
</g>
<!-- ChatComponent&#45;&gt;ChatModule -->
<g id="edge1" class="edge">
<title>ChatComponent&#45;&gt;ChatModule</title>
<path fill="none" stroke="black" d="M1147,-122.29C1147,-144.21 1147,-178 1147,-178 1147,-178 653.38,-178 653.38,-178"/>
<polygon fill="black" stroke="black" points="653.38,-174.5 643.38,-178 653.38,-181.5 653.38,-174.5"/>
</g>
<!-- DrawerChatComponent -->
<g id="node2" class="node">
<title>DrawerChatComponent</title>
<polygon fill="#ffffb3" stroke="black" points="1074.74,-122 925.26,-122 925.26,-86 1074.74,-86 1074.74,-122"/>
<text text-anchor="middle" x="1000" y="-99.8" font-family="Times,serif" font-size="14.00">DrawerChatComponent</text>
</g>
<!-- DrawerChatComponent&#45;&gt;ChatModule -->
<g id="edge2" class="edge">
<title>DrawerChatComponent&#45;&gt;ChatModule</title>
<path fill="none" stroke="black" d="M1000,-122.11C1000,-141.34 1000,-169 1000,-169 1000,-169 653.19,-169 653.19,-169"/>
<polygon fill="black" stroke="black" points="653.19,-165.5 643.19,-169 653.19,-172.5 653.19,-165.5"/>
</g>
<!-- GroupChatComponent -->
<g id="node3" class="node">
<title>GroupChatComponent</title>
<polygon fill="#ffffb3" stroke="black" points="906.54,-122 763.46,-122 763.46,-86 906.54,-86 906.54,-122"/>
<text text-anchor="middle" x="835" y="-99.8" font-family="Times,serif" font-size="14.00">GroupChatComponent</text>
</g>
<!-- GroupChatComponent&#45;&gt;ChatModule -->
<g id="edge3" class="edge">
<title>GroupChatComponent&#45;&gt;ChatModule</title>
<path fill="none" stroke="black" d="M835,-122.03C835,-138.4 835,-160 835,-160 835,-160 653.1,-160 653.1,-160"/>
<polygon fill="black" stroke="black" points="653.1,-156.5 643.1,-160 653.1,-163.5 653.1,-156.5"/>
</g>
<!-- PrivateChatComponent -->
<g id="node4" class="node">
<title>PrivateChatComponent</title>
<polygon fill="#ffffb3" stroke="black" points="745.93,-122 598.07,-122 598.07,-86 745.93,-86 745.93,-122"/>
<text text-anchor="middle" x="672" y="-99.8" font-family="Times,serif" font-size="14.00">PrivateChatComponent</text>
</g>
<!-- PrivateChatComponent&#45;&gt;ChatModule -->
<g id="edge4" class="edge">
<title>PrivateChatComponent&#45;&gt;ChatModule</title>
<path fill="none" stroke="black" d="M620.64,-122.11C620.64,-122.11 620.64,-140.99 620.64,-140.99"/>
<polygon fill="black" stroke="black" points="617.14,-140.99 620.64,-150.99 624.14,-140.99 617.14,-140.99"/>
</g>
<!-- CardsModule -->
<g id="node6" class="node">
<title>CardsModule</title>
<polygon fill="#8dd3c7" stroke="black" points="574.21,-122 571.21,-126 550.21,-126 547.21,-122 481.79,-122 481.79,-86 574.21,-86 574.21,-122"/>
<text text-anchor="middle" x="528" y="-99.8" font-family="Times,serif" font-size="14.00">CardsModule</text>
</g>
<!-- CardsModule&#45;&gt;ChatModule -->
<g id="edge5" class="edge">
<title>CardsModule&#45;&gt;ChatModule</title>
<path fill="none" stroke="black" d="M565.55,-122.11C565.55,-122.11 565.55,-140.99 565.55,-140.99"/>
<polygon fill="black" stroke="black" points="562.05,-140.99 565.55,-150.99 569.05,-140.99 562.05,-140.99"/>
</g>
<!-- ChatInnerModule -->
<g id="node7" class="node">
<title>ChatInnerModule</title>
<polygon fill="#8dd3c7" stroke="black" points="463.53,-122 460.53,-126 439.53,-126 436.53,-122 348.47,-122 348.47,-86 463.53,-86 463.53,-122"/>
<text text-anchor="middle" x="406" y="-99.8" font-family="Times,serif" font-size="14.00">ChatInnerModule</text>
</g>
<!-- ChatInnerModule&#45;&gt;ChatModule -->
<g id="edge6" class="edge">
<title>ChatInnerModule&#45;&gt;ChatModule</title>
<path fill="none" stroke="black" d="M406,-122.03C406,-138.4 406,-160 406,-160 406,-160 546.95,-160 546.95,-160"/>
<polygon fill="black" stroke="black" points="546.95,-163.5 556.95,-160 546.95,-156.5 546.95,-163.5"/>
</g>
<!-- ChatRoutingModule -->
<g id="node8" class="node">
<title>ChatRoutingModule</title>
<polygon fill="#8dd3c7" stroke="black" points="330.61,-122 327.61,-126 306.61,-126 303.61,-122 199.39,-122 199.39,-86 330.61,-86 330.61,-122"/>
<text text-anchor="middle" x="265" y="-99.8" font-family="Times,serif" font-size="14.00">ChatRoutingModule</text>
</g>
<!-- ChatRoutingModule&#45;&gt;ChatModule -->
<g id="edge7" class="edge">
<title>ChatRoutingModule&#45;&gt;ChatModule</title>
<path fill="none" stroke="black" d="M265,-122.11C265,-141.34 265,-169 265,-169 265,-169 546.89,-169 546.89,-169"/>
<polygon fill="black" stroke="black" points="546.89,-172.5 556.89,-169 546.89,-165.5 546.89,-172.5"/>
</g>
<!-- DropdownMenusModule -->
<g id="node9" class="node">
<title>DropdownMenusModule</title>
<polygon fill="#8dd3c7" stroke="black" points="181.53,-122 178.53,-126 157.53,-126 154.53,-122 24.47,-122 24.47,-86 181.53,-86 181.53,-122"/>
<text text-anchor="middle" x="103" y="-99.8" font-family="Times,serif" font-size="14.00">DropdownMenusModule</text>
</g>
<!-- DropdownMenusModule&#45;&gt;ChatModule -->
<g id="edge8" class="edge">
<title>DropdownMenusModule&#45;&gt;ChatModule</title>
<path fill="none" stroke="black" d="M103,-122.29C103,-144.21 103,-178 103,-178 103,-178 546.76,-178 546.76,-178"/>
<polygon fill="black" stroke="black" points="546.76,-181.5 556.76,-178 546.76,-174.5 546.76,-181.5"/>
</g>
</g>
</svg>
