<?xml version="1.0" encoding="UTF-8" standalone="no"?>
<!DOCTYPE svg PUBLIC "-//W3C//DTD SVG 1.1//EN"
 "http://www.w3.org/Graphics/SVG/1.1/DTD/svg11.dtd">
<!-- Generated by graphviz version 2.47.0 (20210316.0004)
 -->
<!-- Title: dependencies Pages: 1 -->
<svg width="4674pt" height="211pt"
 viewBox="0.00 0.00 4674.00 211.00" xmlns="http://www.w3.org/2000/svg" xmlns:xlink="http://www.w3.org/1999/xlink">
<g id="graph0" class="graph" transform="scale(1 1) rotate(0) translate(4 207)">
<title>dependencies</title>
<polygon fill="white" stroke="transparent" points="-4,4 -4,-207 4670,-207 4670,4 -4,4"/>
<text text-anchor="start" x="2312.01" y="-42.4" font-family="Times-12" font-weight="bold" font-size="14.00">Legend</text>
<polygon fill="#ffffb3" stroke="transparent" points="2099,-10 2099,-30 2119,-30 2119,-10 2099,-10"/>
<text text-anchor="start" x="2122.63" y="-15.4" font-family="Times-12" font-size="14.00"> &#160;Declarations</text>
<polygon fill="#8dd3c7" stroke="transparent" points="2212,-10 2212,-30 2232,-30 2232,-10 2212,-10"/>
<text text-anchor="start" x="2235.73" y="-15.4" font-family="Times-12" font-size="14.00"> &#160;Module</text>
<polygon fill="#80b1d3" stroke="transparent" points="2298,-10 2298,-30 2318,-30 2318,-10 2298,-10"/>
<text text-anchor="start" x="2321.78" y="-15.4" font-family="Times-12" font-size="14.00"> &#160;Bootstrap</text>
<polygon fill="#fdb462" stroke="transparent" points="2395,-10 2395,-30 2415,-30 2415,-10 2395,-10"/>
<text text-anchor="start" x="2418.67" y="-15.4" font-family="Times-12" font-size="14.00"> &#160;Providers</text>
<polygon fill="#fb8072" stroke="transparent" points="2491,-10 2491,-30 2511,-30 2511,-10 2491,-10"/>
<text text-anchor="start" x="2514.73" y="-15.4" font-family="Times-12" font-size="14.00"> &#160;Exports</text>
<g id="clust1" class="cluster">
<title>cluster_JournalEntryModule</title>
<polygon fill="none" stroke="black" stroke-dasharray="1,5" points="8,-70 8,-195 4658,-195 4658,-70 8,-70"/>
</g>
<g id="clust23" class="cluster">
<title>cluster_JournalEntryModule_imports</title>
<polygon fill="none" stroke="black" points="4516,-78 4516,-130 4650,-130 4650,-78 4516,-78"/>
</g>
<g id="clust2" class="cluster">
<title>cluster_JournalEntryModule_declarations</title>
<polygon fill="none" stroke="black" points="16,-78 16,-130 4508,-130 4508,-78 16,-78"/>
</g>
<!-- AccountStatementComponent -->
<g id="node1" class="node">
<title>AccountStatementComponent</title>
<polygon fill="#ffffb3" stroke="black" points="4500.25,-122 4315.75,-122 4315.75,-86 4500.25,-86 4500.25,-122"/>
<text text-anchor="middle" x="4408" y="-99.8" font-family="Times,serif" font-size="14.00">AccountStatementComponent</text>
</g>
<!-- JournalEntryModule -->
<g id="node21" class="node">
<title>JournalEntryModule</title>
<polygon fill="#8dd3c7" stroke="black" points="2474.86,-187 2471.86,-191 2450.86,-191 2447.86,-187 2343.14,-187 2343.14,-151 2474.86,-151 2474.86,-187"/>
<text text-anchor="middle" x="2409" y="-164.8" font-family="Times,serif" font-size="14.00">JournalEntryModule</text>
</g>
<!-- AccountStatementComponent&#45;&gt;JournalEntryModule -->
<g id="edge1" class="edge">
<title>AccountStatementComponent&#45;&gt;JournalEntryModule</title>
<path fill="none" stroke="black" d="M4408,-122.25C4408,-145.02 4408,-181 4408,-181 4408,-181 2484.94,-181 2484.94,-181"/>
<polygon fill="black" stroke="black" points="2484.94,-177.5 2474.94,-181 2484.94,-184.5 2484.94,-177.5"/>
</g>
<!-- AccountsComponent -->
<g id="node2" class="node">
<title>AccountsComponent</title>
<polygon fill="#ffffb3" stroke="black" points="4298.2,-122 4163.8,-122 4163.8,-86 4298.2,-86 4298.2,-122"/>
<text text-anchor="middle" x="4231" y="-99.8" font-family="Times,serif" font-size="14.00">AccountsComponent</text>
</g>
<!-- AccountsComponent&#45;&gt;JournalEntryModule -->
<g id="edge2" class="edge">
<title>AccountsComponent&#45;&gt;JournalEntryModule</title>
<path fill="none" stroke="black" d="M4231,-122.29C4231,-144.21 4231,-178 4231,-178 4231,-178 2484.92,-178 2484.92,-178"/>
<polygon fill="black" stroke="black" points="2484.92,-174.5 2474.92,-178 2484.92,-181.5 2484.92,-174.5"/>
</g>
<!-- AddJournalEntryOpeningBalanceComponent -->
<g id="node3" class="node">
<title>AddJournalEntryOpeningBalanceComponent</title>
<polygon fill="#ffffb3" stroke="black" points="4145.55,-122 3874.45,-122 3874.45,-86 4145.55,-86 4145.55,-122"/>
<text text-anchor="middle" x="4010" y="-99.8" font-family="Times,serif" font-size="14.00">AddJournalEntryOpeningBalanceComponent</text>
</g>
<!-- AddJournalEntryOpeningBalanceComponent&#45;&gt;JournalEntryModule -->
<g id="edge3" class="edge">
<title>AddJournalEntryOpeningBalanceComponent&#45;&gt;JournalEntryModule</title>
<path fill="none" stroke="black" d="M4010,-122.03C4010,-142.77 4010,-174 4010,-174 4010,-174 2485,-174 2485,-174"/>
<polygon fill="black" stroke="black" points="2485,-170.5 2475,-174 2485,-177.5 2485,-170.5"/>
</g>
<!-- AttachmentsComponent -->
<g id="node4" class="node">
<title>AttachmentsComponent</title>
<polygon fill="#ffffb3" stroke="black" points="3856.09,-122 3703.91,-122 3703.91,-86 3856.09,-86 3856.09,-122"/>
<text text-anchor="middle" x="3780" y="-99.8" font-family="Times,serif" font-size="14.00">AttachmentsComponent</text>
</g>
<!-- AttachmentsComponent&#45;&gt;JournalEntryModule -->
<g id="edge4" class="edge">
<title>AttachmentsComponent&#45;&gt;JournalEntryModule</title>
<path fill="none" stroke="black" d="M3780,-122.31C3780,-142.15 3780,-171 3780,-171 3780,-171 2485.13,-171 2485.13,-171"/>
<polygon fill="black" stroke="black" points="2485.13,-167.5 2475.13,-171 2485.13,-174.5 2485.13,-167.5"/>
</g>
<!-- CostCenterAllocationPopupComponent -->
<g id="node5" class="node">
<title>CostCenterAllocationPopupComponent</title>
<polygon fill="#ffffb3" stroke="black" points="3685.7,-122 3446.3,-122 3446.3,-86 3685.7,-86 3685.7,-122"/>
<text text-anchor="middle" x="3566" y="-99.8" font-family="Times,serif" font-size="14.00">CostCenterAllocationPopupComponent</text>
</g>
<!-- CostCenterAllocationPopupComponent&#45;&gt;JournalEntryModule -->
<g id="edge5" class="edge">
<title>CostCenterAllocationPopupComponent&#45;&gt;JournalEntryModule</title>
<path fill="none" stroke="black" d="M3566,-122.17C3566,-141.09 3566,-168 3566,-168 3566,-168 2484.94,-168 2484.94,-168"/>
<polygon fill="black" stroke="black" points="2484.94,-164.5 2474.94,-168 2484.94,-171.5 2484.94,-164.5"/>
</g>
<!-- CostCenterReportComponent -->
<g id="node6" class="node">
<title>CostCenterReportComponent</title>
<polygon fill="#ffffb3" stroke="black" points="3428.42,-122 3245.58,-122 3245.58,-86 3428.42,-86 3428.42,-122"/>
<text text-anchor="middle" x="3337" y="-99.8" font-family="Times,serif" font-size="14.00">CostCenterReportComponent</text>
</g>
<!-- CostCenterReportComponent&#45;&gt;JournalEntryModule -->
<g id="edge6" class="edge">
<title>CostCenterReportComponent&#45;&gt;JournalEntryModule</title>
<path fill="none" stroke="black" d="M3337,-122.3C3337,-140.27 3337,-165 3337,-165 3337,-165 2485,-165 2485,-165"/>
<polygon fill="black" stroke="black" points="2485,-161.5 2475,-165 2485,-168.5 2485,-161.5"/>
</g>
<!-- CreateJournalEntryComponent -->
<g id="node7" class="node">
<title>CreateJournalEntryComponent</title>
<polygon fill="#ffffb3" stroke="black" points="3228.18,-122 3037.82,-122 3037.82,-86 3228.18,-86 3228.18,-122"/>
<text text-anchor="middle" x="3133" y="-99.8" font-family="Times,serif" font-size="14.00">CreateJournalEntryComponent</text>
</g>
<!-- CreateJournalEntryComponent&#45;&gt;JournalEntryModule -->
<g id="edge7" class="edge">
<title>CreateJournalEntryComponent&#45;&gt;JournalEntryModule</title>
<path fill="none" stroke="black" d="M3133,-122.04C3133,-138.73 3133,-161 3133,-161 3133,-161 2485.17,-161 2485.17,-161"/>
<polygon fill="black" stroke="black" points="2485.17,-157.5 2475.17,-161 2485.17,-164.5 2485.17,-157.5"/>
</g>
<!-- EditCostCenterAllocationPopupComponent -->
<g id="node8" class="node">
<title>EditCostCenterAllocationPopupComponent</title>
<polygon fill="#ffffb3" stroke="black" points="3020.04,-122 2757.96,-122 2757.96,-86 3020.04,-86 3020.04,-122"/>
<text text-anchor="middle" x="2889" y="-99.8" font-family="Times,serif" font-size="14.00">EditCostCenterAllocationPopupComponent</text>
</g>
<!-- EditCostCenterAllocationPopupComponent&#45;&gt;JournalEntryModule -->
<g id="edge8" class="edge">
<title>EditCostCenterAllocationPopupComponent&#45;&gt;JournalEntryModule</title>
<path fill="none" stroke="black" d="M2889,-122.28C2889,-137.95 2889,-158 2889,-158 2889,-158 2484.99,-158 2484.99,-158"/>
<polygon fill="black" stroke="black" points="2484.99,-154.5 2474.99,-158 2484.99,-161.5 2484.99,-154.5"/>
</g>
<!-- EditJournalEntryComponent -->
<g id="node9" class="node">
<title>EditJournalEntryComponent</title>
<polygon fill="#ffffb3" stroke="black" points="2739.48,-122 2562.52,-122 2562.52,-86 2739.48,-86 2739.48,-122"/>
<text text-anchor="middle" x="2651" y="-99.8" font-family="Times,serif" font-size="14.00">EditJournalEntryComponent</text>
</g>
<!-- EditJournalEntryComponent&#45;&gt;JournalEntryModule -->
<g id="edge9" class="edge">
<title>EditJournalEntryComponent&#45;&gt;JournalEntryModule</title>
<path fill="none" stroke="black" d="M2651,-122.12C2651,-136.78 2651,-155 2651,-155 2651,-155 2485.13,-155 2485.13,-155"/>
<polygon fill="black" stroke="black" points="2485.13,-151.5 2475.13,-155 2485.13,-158.5 2485.13,-151.5"/>
</g>
<!-- EditJournalEntryOpeningBalanceComponent -->
<g id="node10" class="node">
<title>EditJournalEntryOpeningBalanceComponent</title>
<polygon fill="#ffffb3" stroke="black" points="2544.28,-122 2273.72,-122 2273.72,-86 2544.28,-86 2544.28,-122"/>
<text text-anchor="middle" x="2409" y="-99.8" font-family="Times,serif" font-size="14.00">EditJournalEntryOpeningBalanceComponent</text>
</g>
<!-- EditJournalEntryOpeningBalanceComponent&#45;&gt;JournalEntryModule -->
<g id="edge10" class="edge">
<title>EditJournalEntryOpeningBalanceComponent&#45;&gt;JournalEntryModule</title>
<path fill="none" stroke="black" d="M2409,-122.11C2409,-122.11 2409,-140.99 2409,-140.99"/>
<polygon fill="black" stroke="black" points="2405.5,-140.99 2409,-150.99 2412.5,-140.99 2405.5,-140.99"/>
</g>
<!-- JournalEntryListComponent -->
<g id="node11" class="node">
<title>JournalEntryListComponent</title>
<polygon fill="#ffffb3" stroke="black" points="2255.93,-122 2080.07,-122 2080.07,-86 2255.93,-86 2255.93,-122"/>
<text text-anchor="middle" x="2168" y="-99.8" font-family="Times,serif" font-size="14.00">JournalEntryListComponent</text>
</g>
<!-- JournalEntryListComponent&#45;&gt;JournalEntryModule -->
<g id="edge11" class="edge">
<title>JournalEntryListComponent&#45;&gt;JournalEntryModule</title>
<path fill="none" stroke="black" d="M2168,-122.12C2168,-136.78 2168,-155 2168,-155 2168,-155 2332.83,-155 2332.83,-155"/>
<polygon fill="black" stroke="black" points="2332.83,-158.5 2342.83,-155 2332.83,-151.5 2332.83,-158.5"/>
</g>
<!-- JournalEntryOpeningBalanceListComponent -->
<g id="node12" class="node">
<title>JournalEntryOpeningBalanceListComponent</title>
<polygon fill="#ffffb3" stroke="black" points="2062.22,-122 1793.78,-122 1793.78,-86 2062.22,-86 2062.22,-122"/>
<text text-anchor="middle" x="1928" y="-99.8" font-family="Times,serif" font-size="14.00">JournalEntryOpeningBalanceListComponent</text>
</g>
<!-- JournalEntryOpeningBalanceListComponent&#45;&gt;JournalEntryModule -->
<g id="edge12" class="edge">
<title>JournalEntryOpeningBalanceListComponent&#45;&gt;JournalEntryModule</title>
<path fill="none" stroke="black" d="M1928,-122.28C1928,-137.95 1928,-158 1928,-158 1928,-158 2333.13,-158 2333.13,-158"/>
<polygon fill="black" stroke="black" points="2333.13,-161.5 2343.13,-158 2333.13,-154.5 2333.13,-161.5"/>
</g>
<!-- JournalTemplatePopupComponent -->
<g id="node13" class="node">
<title>JournalTemplatePopupComponent</title>
<polygon fill="#ffffb3" stroke="black" points="1775.69,-122 1564.31,-122 1564.31,-86 1775.69,-86 1775.69,-122"/>
<text text-anchor="middle" x="1670" y="-99.8" font-family="Times,serif" font-size="14.00">JournalTemplatePopupComponent</text>
</g>
<!-- JournalTemplatePopupComponent&#45;&gt;JournalEntryModule -->
<g id="edge13" class="edge">
<title>JournalTemplatePopupComponent&#45;&gt;JournalEntryModule</title>
<path fill="none" stroke="black" d="M1670,-122.04C1670,-138.73 1670,-161 1670,-161 1670,-161 2333.09,-161 2333.09,-161"/>
<polygon fill="black" stroke="black" points="2333.09,-164.5 2343.09,-161 2333.09,-157.5 2333.09,-164.5"/>
</g>
<!-- MainJournalComponent -->
<g id="node14" class="node">
<title>MainJournalComponent</title>
<polygon fill="#ffffb3" stroke="black" points="1546.09,-122 1393.91,-122 1393.91,-86 1546.09,-86 1546.09,-122"/>
<text text-anchor="middle" x="1470" y="-99.8" font-family="Times,serif" font-size="14.00">MainJournalComponent</text>
</g>
<!-- MainJournalComponent&#45;&gt;JournalEntryModule -->
<g id="edge14" class="edge">
<title>MainJournalComponent&#45;&gt;JournalEntryModule</title>
<path fill="none" stroke="black" d="M1470,-122.3C1470,-140.27 1470,-165 1470,-165 1470,-165 2332.97,-165 2332.97,-165"/>
<polygon fill="black" stroke="black" points="2332.97,-168.5 2342.97,-165 2332.97,-161.5 2332.97,-168.5"/>
</g>
<!-- MainOpeningBalanceComponent -->
<g id="node15" class="node">
<title>MainOpeningBalanceComponent</title>
<polygon fill="#ffffb3" stroke="black" points="1376.18,-122 1171.82,-122 1171.82,-86 1376.18,-86 1376.18,-122"/>
<text text-anchor="middle" x="1274" y="-99.8" font-family="Times,serif" font-size="14.00">MainOpeningBalanceComponent</text>
</g>
<!-- MainOpeningBalanceComponent&#45;&gt;JournalEntryModule -->
<g id="edge15" class="edge">
<title>MainOpeningBalanceComponent&#45;&gt;JournalEntryModule</title>
<path fill="none" stroke="black" d="M1274,-122.17C1274,-141.09 1274,-168 1274,-168 1274,-168 2333.07,-168 2333.07,-168"/>
<polygon fill="black" stroke="black" points="2333.07,-171.5 2343.07,-168 2333.07,-164.5 2333.07,-171.5"/>
</g>
<!-- MultiSelectDetailedAccountsComponent -->
<g id="node16" class="node">
<title>MultiSelectDetailedAccountsComponent</title>
<polygon fill="#ffffb3" stroke="black" points="1153.45,-122 906.55,-122 906.55,-86 1153.45,-86 1153.45,-122"/>
<text text-anchor="middle" x="1030" y="-99.8" font-family="Times,serif" font-size="14.00">MultiSelectDetailedAccountsComponent</text>
</g>
<!-- MultiSelectDetailedAccountsComponent&#45;&gt;JournalEntryModule -->
<g id="edge16" class="edge">
<title>MultiSelectDetailedAccountsComponent&#45;&gt;JournalEntryModule</title>
<path fill="none" stroke="black" d="M1030,-122.31C1030,-142.15 1030,-171 1030,-171 1030,-171 2332.95,-171 2332.95,-171"/>
<polygon fill="black" stroke="black" points="2332.95,-174.5 2342.95,-171 2332.95,-167.5 2332.95,-174.5"/>
</g>
<!-- NoChildrenAccountsComponent -->
<g id="node17" class="node">
<title>NoChildrenAccountsComponent</title>
<polygon fill="#ffffb3" stroke="black" points="888.3,-122 687.7,-122 687.7,-86 888.3,-86 888.3,-122"/>
<text text-anchor="middle" x="788" y="-99.8" font-family="Times,serif" font-size="14.00">NoChildrenAccountsComponent</text>
</g>
<!-- NoChildrenAccountsComponent&#45;&gt;JournalEntryModule -->
<g id="edge17" class="edge">
<title>NoChildrenAccountsComponent&#45;&gt;JournalEntryModule</title>
<path fill="none" stroke="black" d="M788,-122.03C788,-142.77 788,-174 788,-174 788,-174 2332.94,-174 2332.94,-174"/>
<polygon fill="black" stroke="black" points="2332.94,-177.5 2342.94,-174 2332.94,-170.5 2332.94,-177.5"/>
</g>
<!-- TrialBlanceComponent -->
<g id="node18" class="node">
<title>TrialBlanceComponent</title>
<polygon fill="#ffffb3" stroke="black" points="669.91,-122 522.09,-122 522.09,-86 669.91,-86 669.91,-122"/>
<text text-anchor="middle" x="596" y="-99.8" font-family="Times,serif" font-size="14.00">TrialBlanceComponent</text>
</g>
<!-- TrialBlanceComponent&#45;&gt;JournalEntryModule -->
<g id="edge18" class="edge">
<title>TrialBlanceComponent&#45;&gt;JournalEntryModule</title>
<path fill="none" stroke="black" d="M596,-122.29C596,-144.21 596,-178 596,-178 596,-178 2333.13,-178 2333.13,-178"/>
<polygon fill="black" stroke="black" points="2333.13,-181.5 2343.13,-178 2333.13,-174.5 2333.13,-181.5"/>
</g>
<!-- ViewJournalEntryComponent -->
<g id="node19" class="node">
<title>ViewJournalEntryComponent</title>
<polygon fill="#ffffb3" stroke="black" points="503.97,-122 320.03,-122 320.03,-86 503.97,-86 503.97,-122"/>
<text text-anchor="middle" x="412" y="-99.8" font-family="Times,serif" font-size="14.00">ViewJournalEntryComponent</text>
</g>
<!-- ViewJournalEntryComponent&#45;&gt;JournalEntryModule -->
<g id="edge19" class="edge">
<title>ViewJournalEntryComponent&#45;&gt;JournalEntryModule</title>
<path fill="none" stroke="black" d="M412,-122.25C412,-145.02 412,-181 412,-181 412,-181 2333.13,-181 2333.13,-181"/>
<polygon fill="black" stroke="black" points="2333.13,-184.5 2343.13,-181 2333.13,-177.5 2333.13,-184.5"/>
</g>
<!-- ViewJournalEntryOpeningBalanceComponent -->
<g id="node20" class="node">
<title>ViewJournalEntryOpeningBalanceComponent</title>
<polygon fill="#ffffb3" stroke="black" points="301.76,-122 24.24,-122 24.24,-86 301.76,-86 301.76,-122"/>
<text text-anchor="middle" x="163" y="-99.8" font-family="Times,serif" font-size="14.00">ViewJournalEntryOpeningBalanceComponent</text>
</g>
<!-- ViewJournalEntryOpeningBalanceComponent&#45;&gt;JournalEntryModule -->
<g id="edge20" class="edge">
<title>ViewJournalEntryOpeningBalanceComponent&#45;&gt;JournalEntryModule</title>
<path fill="none" stroke="black" d="M163,-122.15C163,-145.76 163,-184 163,-184 163,-184 2333,-184 2333,-184"/>
<polygon fill="black" stroke="black" points="2333,-187.5 2343,-184 2333,-180.5 2333,-187.5"/>
</g>
<!-- SharedLibModule -->
<g id="node22" class="node">
<title>SharedLibModule</title>
<polygon fill="#8dd3c7" stroke="black" points="4641.87,-122 4638.87,-126 4617.87,-126 4614.87,-122 4524.13,-122 4524.13,-86 4641.87,-86 4641.87,-122"/>
<text text-anchor="middle" x="4583" y="-99.8" font-family="Times,serif" font-size="14.00">SharedLibModule</text>
</g>
<!-- SharedLibModule&#45;&gt;JournalEntryModule -->
<g id="edge21" class="edge">
<title>SharedLibModule&#45;&gt;JournalEntryModule</title>
<path fill="none" stroke="black" d="M4583,-122.15C4583,-145.76 4583,-184 4583,-184 4583,-184 2484.95,-184 2484.95,-184"/>
<polygon fill="black" stroke="black" points="2484.95,-180.5 2474.95,-184 2484.95,-187.5 2484.95,-180.5"/>
</g>
</g>
</svg>
