<?xml version="1.0" encoding="UTF-8" standalone="no"?>
<!DOCTYPE svg PUBLIC "-//W3C//DTD SVG 1.1//EN"
 "http://www.w3.org/Graphics/SVG/1.1/DTD/svg11.dtd">
<!-- Generated by graphviz version 2.47.0 (20210316.0004)
 -->
<!-- Title: dependencies Pages: 1 -->
<svg width="678pt" height="211pt"
 viewBox="0.00 0.00 678.00 211.00" xmlns="http://www.w3.org/2000/svg" xmlns:xlink="http://www.w3.org/1999/xlink">
<g id="graph0" class="graph" transform="scale(1 1) rotate(0) translate(4 207)">
<title>dependencies</title>
<polygon fill="white" stroke="transparent" points="-4,4 -4,-207 674,-207 674,4 -4,4"/>
<text text-anchor="start" x="314.01" y="-42.4" font-family="Times-12" font-weight="bold" font-size="14.00">Legend</text>
<polygon fill="#ffffb3" stroke="transparent" points="101,-10 101,-30 121,-30 121,-10 101,-10"/>
<text text-anchor="start" x="124.63" y="-15.4" font-family="Times-12" font-size="14.00"> &#160;Declarations</text>
<polygon fill="#8dd3c7" stroke="transparent" points="214,-10 214,-30 234,-30 234,-10 214,-10"/>
<text text-anchor="start" x="237.73" y="-15.4" font-family="Times-12" font-size="14.00"> &#160;Module</text>
<polygon fill="#80b1d3" stroke="transparent" points="300,-10 300,-30 320,-30 320,-10 300,-10"/>
<text text-anchor="start" x="323.78" y="-15.4" font-family="Times-12" font-size="14.00"> &#160;Bootstrap</text>
<polygon fill="#fdb462" stroke="transparent" points="397,-10 397,-30 417,-30 417,-10 397,-10"/>
<text text-anchor="start" x="420.67" y="-15.4" font-family="Times-12" font-size="14.00"> &#160;Providers</text>
<polygon fill="#fb8072" stroke="transparent" points="493,-10 493,-30 513,-30 513,-10 493,-10"/>
<text text-anchor="start" x="516.73" y="-15.4" font-family="Times-12" font-size="14.00"> &#160;Exports</text>
<g id="clust1" class="cluster">
<title>cluster_HelpPageModule</title>
<polygon fill="none" stroke="black" stroke-dasharray="1,5" points="8,-70 8,-195 662,-195 662,-70 8,-70"/>
</g>
<g id="clust6" class="cluster">
<title>cluster_HelpPageModule_imports</title>
<polygon fill="none" stroke="black" points="520,-78 520,-130 654,-130 654,-78 520,-78"/>
</g>
<g id="clust2" class="cluster">
<title>cluster_HelpPageModule_declarations</title>
<polygon fill="none" stroke="black" points="16,-78 16,-130 512,-130 512,-78 16,-78"/>
</g>
<!-- HelpPageComponent -->
<g id="node1" class="node">
<title>HelpPageComponent</title>
<polygon fill="#ffffb3" stroke="black" points="503.76,-122 368.24,-122 368.24,-86 503.76,-86 503.76,-122"/>
<text text-anchor="middle" x="436" y="-99.8" font-family="Times,serif" font-size="14.00">HelpPageComponent</text>
</g>
<!-- HelpPageModule -->
<g id="node4" class="node">
<title>HelpPageModule</title>
<polygon fill="#8dd3c7" stroke="black" points="406.97,-187 403.97,-191 382.97,-191 379.97,-187 293.03,-187 293.03,-151 406.97,-151 406.97,-187"/>
<text text-anchor="middle" x="350" y="-164.8" font-family="Times,serif" font-size="14.00">HelpPageModule</text>
</g>
<!-- HelpPageComponent&#45;&gt;HelpPageModule -->
<g id="edge1" class="edge">
<title>HelpPageComponent&#45;&gt;HelpPageModule</title>
<path fill="none" stroke="black" d="M387.55,-122.11C387.55,-122.11 387.55,-140.99 387.55,-140.99"/>
<polygon fill="black" stroke="black" points="384.05,-140.99 387.55,-150.99 391.05,-140.99 384.05,-140.99"/>
</g>
<!-- HomeHelpPageComponent -->
<g id="node2" class="node">
<title>HomeHelpPageComponent</title>
<polygon fill="#ffffb3" stroke="black" points="349.97,-122 180.03,-122 180.03,-86 349.97,-86 349.97,-122"/>
<text text-anchor="middle" x="265" y="-99.8" font-family="Times,serif" font-size="14.00">HomeHelpPageComponent</text>
</g>
<!-- HomeHelpPageComponent&#45;&gt;HelpPageModule -->
<g id="edge2" class="edge">
<title>HomeHelpPageComponent&#45;&gt;HelpPageModule</title>
<path fill="none" stroke="black" d="M321.5,-122.11C321.5,-122.11 321.5,-140.99 321.5,-140.99"/>
<polygon fill="black" stroke="black" points="318,-140.99 321.5,-150.99 325,-140.99 318,-140.99"/>
</g>
<!-- MainHelpComponent -->
<g id="node3" class="node">
<title>MainHelpComponent</title>
<polygon fill="#ffffb3" stroke="black" points="162.09,-122 23.91,-122 23.91,-86 162.09,-86 162.09,-122"/>
<text text-anchor="middle" x="93" y="-99.8" font-family="Times,serif" font-size="14.00">MainHelpComponent</text>
</g>
<!-- MainHelpComponent&#45;&gt;HelpPageModule -->
<g id="edge3" class="edge">
<title>MainHelpComponent&#45;&gt;HelpPageModule</title>
<path fill="none" stroke="black" d="M93,-122.11C93,-141.34 93,-169 93,-169 93,-169 282.96,-169 282.96,-169"/>
<polygon fill="black" stroke="black" points="282.96,-172.5 292.96,-169 282.96,-165.5 282.96,-172.5"/>
</g>
<!-- SharedLibModule -->
<g id="node5" class="node">
<title>SharedLibModule</title>
<polygon fill="#8dd3c7" stroke="black" points="645.87,-122 642.87,-126 621.87,-126 618.87,-122 528.13,-122 528.13,-86 645.87,-86 645.87,-122"/>
<text text-anchor="middle" x="587" y="-99.8" font-family="Times,serif" font-size="14.00">SharedLibModule</text>
</g>
<!-- SharedLibModule&#45;&gt;HelpPageModule -->
<g id="edge4" class="edge">
<title>SharedLibModule&#45;&gt;HelpPageModule</title>
<path fill="none" stroke="black" d="M587,-122.11C587,-141.34 587,-169 587,-169 587,-169 417.07,-169 417.07,-169"/>
<polygon fill="black" stroke="black" points="417.07,-165.5 407.07,-169 417.07,-172.5 417.07,-165.5"/>
</g>
</g>
</svg>
