<?xml version="1.0" encoding="UTF-8" standalone="no"?>
<!DOCTYPE svg PUBLIC "-//W3C//DTD SVG 1.1//EN"
 "http://www.w3.org/Graphics/SVG/1.1/DTD/svg11.dtd">
<!-- Generated by graphviz version 2.47.0 (20210316.0004)
 -->
<!-- Title: dependencies Pages: 1 -->
<svg width="644pt" height="284pt"
 viewBox="0.00 0.00 644.00 284.00" xmlns="http://www.w3.org/2000/svg" xmlns:xlink="http://www.w3.org/1999/xlink">
<g id="graph0" class="graph" transform="scale(1 1) rotate(0) translate(4 280)">
<title>dependencies</title>
<polygon fill="white" stroke="transparent" points="-4,4 -4,-280 640,-280 640,4 -4,4"/>
<text text-anchor="start" x="297.01" y="-42.4" font-family="Times-12" font-weight="bold" font-size="14.00">Legend</text>
<polygon fill="#ffffb3" stroke="transparent" points="84,-10 84,-30 104,-30 104,-10 84,-10"/>
<text text-anchor="start" x="107.63" y="-15.4" font-family="Times-12" font-size="14.00"> &#160;Declarations</text>
<polygon fill="#8dd3c7" stroke="transparent" points="197,-10 197,-30 217,-30 217,-10 197,-10"/>
<text text-anchor="start" x="220.73" y="-15.4" font-family="Times-12" font-size="14.00"> &#160;Module</text>
<polygon fill="#80b1d3" stroke="transparent" points="283,-10 283,-30 303,-30 303,-10 283,-10"/>
<text text-anchor="start" x="306.78" y="-15.4" font-family="Times-12" font-size="14.00"> &#160;Bootstrap</text>
<polygon fill="#fdb462" stroke="transparent" points="380,-10 380,-30 400,-30 400,-10 380,-10"/>
<text text-anchor="start" x="403.67" y="-15.4" font-family="Times-12" font-size="14.00"> &#160;Providers</text>
<polygon fill="#fb8072" stroke="transparent" points="476,-10 476,-30 496,-30 496,-10 476,-10"/>
<text text-anchor="start" x="499.73" y="-15.4" font-family="Times-12" font-size="14.00"> &#160;Exports</text>
<g id="clust1" class="cluster">
<title>cluster_DropdownMenusModule</title>
<polygon fill="none" stroke="black" stroke-dasharray="1,5" points="8,-70 8,-268 628,-268 628,-70 8,-70"/>
</g>
<g id="clust2" class="cluster">
<title>cluster_DropdownMenusModule_declarations</title>
<polygon fill="none" stroke="black" points="21,-78 21,-130 615,-130 615,-78 21,-78"/>
</g>
<g id="clust7" class="cluster">
<title>cluster_DropdownMenusModule_exports</title>
<polygon fill="none" stroke="black" points="16,-208 16,-260 620,-260 620,-208 16,-208"/>
</g>
<!-- DropdownMenu1Component -->
<g id="node1" class="node">
<title>DropdownMenu1Component</title>
<polygon fill="#ffffb3" stroke="black" points="607.37,-122 426.63,-122 426.63,-86 607.37,-86 607.37,-122"/>
<text text-anchor="middle" x="517" y="-99.8" font-family="Times,serif" font-size="14.00">DropdownMenu1Component</text>
</g>
<!-- DropdownMenusModule -->
<g id="node4" class="node">
<title>DropdownMenusModule</title>
<polygon fill="#8dd3c7" stroke="black" points="396.53,-187 393.53,-191 372.53,-191 369.53,-187 239.47,-187 239.47,-151 396.53,-151 396.53,-187"/>
<text text-anchor="middle" x="318" y="-164.8" font-family="Times,serif" font-size="14.00">DropdownMenusModule</text>
</g>
<!-- DropdownMenu1Component&#45;&gt;DropdownMenusModule -->
<g id="edge1" class="edge">
<title>DropdownMenu1Component&#45;&gt;DropdownMenusModule</title>
<path fill="none" stroke="black" d="M547.56,-122.02C547.56,-139.37 547.56,-163 547.56,-163 547.56,-163 406.68,-163 406.68,-163"/>
<polygon fill="black" stroke="black" points="406.68,-159.5 396.68,-163 406.68,-166.5 406.68,-159.5"/>
</g>
<!-- DropdownMenu2Component -->
<g id="node2" class="node">
<title>DropdownMenu2Component</title>
<polygon fill="#ffffb3" stroke="black" points="408.37,-122 227.63,-122 227.63,-86 408.37,-86 408.37,-122"/>
<text text-anchor="middle" x="318" y="-99.8" font-family="Times,serif" font-size="14.00">DropdownMenu2Component</text>
</g>
<!-- DropdownMenu2Component&#45;&gt;DropdownMenusModule -->
<g id="edge2" class="edge">
<title>DropdownMenu2Component&#45;&gt;DropdownMenusModule</title>
<path fill="none" stroke="black" d="M318,-122.11C318,-122.11 318,-140.99 318,-140.99"/>
<polygon fill="black" stroke="black" points="314.5,-140.99 318,-150.99 321.5,-140.99 314.5,-140.99"/>
</g>
<!-- DropdownMenu3Component -->
<g id="node3" class="node">
<title>DropdownMenu3Component</title>
<polygon fill="#ffffb3" stroke="black" points="209.37,-122 28.63,-122 28.63,-86 209.37,-86 209.37,-122"/>
<text text-anchor="middle" x="119" y="-99.8" font-family="Times,serif" font-size="14.00">DropdownMenu3Component</text>
</g>
<!-- DropdownMenu3Component&#45;&gt;DropdownMenusModule -->
<g id="edge3" class="edge">
<title>DropdownMenu3Component&#45;&gt;DropdownMenusModule</title>
<path fill="none" stroke="black" d="M148.31,-122.02C148.31,-139.37 148.31,-163 148.31,-163 148.31,-163 229.12,-163 229.12,-163"/>
<polygon fill="black" stroke="black" points="229.12,-166.5 239.12,-163 229.12,-159.5 229.12,-166.5"/>
</g>
<!-- DropdownMenu1Component  -->
<g id="node5" class="node">
<title>DropdownMenu1Component </title>
<polygon fill="#fb8072" stroke="black" points="612.37,-252 427.63,-252 427.63,-216 612.37,-216 612.37,-252"/>
<text text-anchor="middle" x="520" y="-229.8" font-family="Times,serif" font-size="14.00">DropdownMenu1Component </text>
</g>
<!-- DropdownMenusModule&#45;&gt;DropdownMenu1Component  -->
<g id="edge4" class="edge">
<title>DropdownMenusModule&#45;&gt;DropdownMenu1Component </title>
<path fill="none" stroke="black" stroke-dasharray="5,2" d="M396.88,-175C441.2,-175 487.69,-175 487.69,-175 487.69,-175 487.69,-205.98 487.69,-205.98"/>
<polygon fill="black" stroke="black" points="484.19,-205.98 487.69,-215.98 491.19,-205.98 484.19,-205.98"/>
</g>
<!-- DropdownMenu2Component  -->
<g id="node6" class="node">
<title>DropdownMenu2Component </title>
<polygon fill="#fb8072" stroke="black" points="410.37,-252 225.63,-252 225.63,-216 410.37,-216 410.37,-252"/>
<text text-anchor="middle" x="318" y="-229.8" font-family="Times,serif" font-size="14.00">DropdownMenu2Component </text>
</g>
<!-- DropdownMenusModule&#45;&gt;DropdownMenu2Component  -->
<g id="edge5" class="edge">
<title>DropdownMenusModule&#45;&gt;DropdownMenu2Component </title>
<path fill="none" stroke="black" stroke-dasharray="5,2" d="M318,-187.11C318,-187.11 318,-205.99 318,-205.99"/>
<polygon fill="black" stroke="black" points="314.5,-205.99 318,-215.99 321.5,-205.99 314.5,-205.99"/>
</g>
<!-- DropdownMenu3Component  -->
<g id="node7" class="node">
<title>DropdownMenu3Component </title>
<polygon fill="#fb8072" stroke="black" points="208.37,-252 23.63,-252 23.63,-216 208.37,-216 208.37,-252"/>
<text text-anchor="middle" x="116" y="-229.8" font-family="Times,serif" font-size="14.00">DropdownMenu3Component </text>
</g>
<!-- DropdownMenusModule&#45;&gt;DropdownMenu3Component  -->
<g id="edge6" class="edge">
<title>DropdownMenusModule&#45;&gt;DropdownMenu3Component </title>
<path fill="none" stroke="black" stroke-dasharray="5,2" d="M239.32,-175C172.87,-175 88.44,-175 88.44,-175 88.44,-175 88.44,-205.98 88.44,-205.98"/>
<polygon fill="black" stroke="black" points="84.94,-205.98 88.44,-215.98 91.94,-205.98 84.94,-205.98"/>
</g>
</g>
</svg>
