<?xml version="1.0" encoding="UTF-8" standalone="no"?>
<!DOCTYPE svg PUBLIC "-//W3C//DTD SVG 1.1//EN"
 "http://www.w3.org/Graphics/SVG/1.1/DTD/svg11.dtd">
<!-- Generated by graphviz version 2.47.0 (20210316.0004)
 -->
<!-- Title: dependencies Pages: 1 -->
<svg width="4122pt" height="211pt"
 viewBox="0.00 0.00 4122.00 211.00" xmlns="http://www.w3.org/2000/svg" xmlns:xlink="http://www.w3.org/1999/xlink">
<g id="graph0" class="graph" transform="scale(1 1) rotate(0) translate(4 207)">
<title>dependencies</title>
<polygon fill="white" stroke="transparent" points="-4,4 -4,-207 4118,-207 4118,4 -4,4"/>
<text text-anchor="start" x="2036.01" y="-42.4" font-family="Times-12" font-weight="bold" font-size="14.00">Legend</text>
<polygon fill="#ffffb3" stroke="transparent" points="1823,-10 1823,-30 1843,-30 1843,-10 1823,-10"/>
<text text-anchor="start" x="1846.63" y="-15.4" font-family="Times-12" font-size="14.00"> &#160;Declarations</text>
<polygon fill="#8dd3c7" stroke="transparent" points="1936,-10 1936,-30 1956,-30 1956,-10 1936,-10"/>
<text text-anchor="start" x="1959.73" y="-15.4" font-family="Times-12" font-size="14.00"> &#160;Module</text>
<polygon fill="#80b1d3" stroke="transparent" points="2022,-10 2022,-30 2042,-30 2042,-10 2022,-10"/>
<text text-anchor="start" x="2045.78" y="-15.4" font-family="Times-12" font-size="14.00"> &#160;Bootstrap</text>
<polygon fill="#fdb462" stroke="transparent" points="2119,-10 2119,-30 2139,-30 2139,-10 2119,-10"/>
<text text-anchor="start" x="2142.67" y="-15.4" font-family="Times-12" font-size="14.00"> &#160;Providers</text>
<polygon fill="#fb8072" stroke="transparent" points="2215,-10 2215,-30 2235,-30 2235,-10 2215,-10"/>
<text text-anchor="start" x="2238.73" y="-15.4" font-family="Times-12" font-size="14.00"> &#160;Exports</text>
<g id="clust1" class="cluster">
<title>cluster_PurchaseModule</title>
<polygon fill="none" stroke="black" stroke-dasharray="1,5" points="8,-70 8,-195 4106,-195 4106,-70 8,-70"/>
</g>
<g id="clust19" class="cluster">
<title>cluster_PurchaseModule_imports</title>
<polygon fill="none" stroke="black" points="3964,-78 3964,-130 4098,-130 4098,-78 3964,-78"/>
</g>
<g id="clust2" class="cluster">
<title>cluster_PurchaseModule_declarations</title>
<polygon fill="none" stroke="black" points="16,-78 16,-130 3956,-130 3956,-78 16,-78"/>
</g>
<!-- AddVendorDefinitionsComponent -->
<g id="node1" class="node">
<title>AddVendorDefinitionsComponent</title>
<polygon fill="#ffffb3" stroke="black" points="3948.41,-122 3737.59,-122 3737.59,-86 3948.41,-86 3948.41,-122"/>
<text text-anchor="middle" x="3843" y="-99.8" font-family="Times,serif" font-size="14.00">AddVendorDefinitionsComponent</text>
</g>
<!-- PurchaseModule -->
<g id="node17" class="node">
<title>PurchaseModule</title>
<polygon fill="#8dd3c7" stroke="black" points="2331.08,-187 2328.08,-191 2307.08,-191 2304.08,-187 2220.92,-187 2220.92,-151 2331.08,-151 2331.08,-187"/>
<text text-anchor="middle" x="2276" y="-164.8" font-family="Times,serif" font-size="14.00">PurchaseModule</text>
</g>
<!-- AddVendorDefinitionsComponent&#45;&gt;PurchaseModule -->
<g id="edge1" class="edge">
<title>AddVendorDefinitionsComponent&#45;&gt;PurchaseModule</title>
<path fill="none" stroke="black" d="M3843,-122.16C3843,-144.35 3843,-179 3843,-179 3843,-179 2341.31,-179 2341.31,-179"/>
<polygon fill="black" stroke="black" points="2341.31,-175.5 2331.31,-179 2341.31,-182.5 2341.31,-175.5"/>
</g>
<!-- CreateVendorCategoryComponent -->
<g id="node2" class="node">
<title>CreateVendorCategoryComponent</title>
<polygon fill="#ffffb3" stroke="black" points="3719.66,-122 3508.34,-122 3508.34,-86 3719.66,-86 3719.66,-122"/>
<text text-anchor="middle" x="3614" y="-99.8" font-family="Times,serif" font-size="14.00">CreateVendorCategoryComponent</text>
</g>
<!-- CreateVendorCategoryComponent&#45;&gt;PurchaseModule -->
<g id="edge2" class="edge">
<title>CreateVendorCategoryComponent&#45;&gt;PurchaseModule</title>
<path fill="none" stroke="black" d="M3614,-122.28C3614,-143.32 3614,-175 3614,-175 3614,-175 2341.37,-175 2341.37,-175"/>
<polygon fill="black" stroke="black" points="2341.37,-171.5 2331.37,-175 2341.37,-178.5 2341.37,-171.5"/>
</g>
<!-- EditVendorCategoryComponent -->
<g id="node3" class="node">
<title>EditVendorCategoryComponent</title>
<polygon fill="#ffffb3" stroke="black" points="3489.97,-122 3292.03,-122 3292.03,-86 3489.97,-86 3489.97,-122"/>
<text text-anchor="middle" x="3391" y="-99.8" font-family="Times,serif" font-size="14.00">EditVendorCategoryComponent</text>
</g>
<!-- EditVendorCategoryComponent&#45;&gt;PurchaseModule -->
<g id="edge3" class="edge">
<title>EditVendorCategoryComponent&#45;&gt;PurchaseModule</title>
<path fill="none" stroke="black" d="M3391,-122.31C3391,-142.15 3391,-171 3391,-171 3391,-171 2341.29,-171 2341.29,-171"/>
<polygon fill="black" stroke="black" points="2341.29,-167.5 2331.29,-171 2341.29,-174.5 2341.29,-167.5"/>
</g>
<!-- EditVendorDefinitionsComponent -->
<g id="node4" class="node">
<title>EditVendorDefinitionsComponent</title>
<polygon fill="#ffffb3" stroke="black" points="3273.64,-122 3064.36,-122 3064.36,-86 3273.64,-86 3273.64,-122"/>
<text text-anchor="middle" x="3169" y="-99.8" font-family="Times,serif" font-size="14.00">EditVendorDefinitionsComponent</text>
</g>
<!-- EditVendorDefinitionsComponent&#45;&gt;PurchaseModule -->
<g id="edge4" class="edge">
<title>EditVendorDefinitionsComponent&#45;&gt;PurchaseModule</title>
<path fill="none" stroke="black" d="M3169,-122.22C3169,-140.83 3169,-167 3169,-167 3169,-167 2341.19,-167 2341.19,-167"/>
<polygon fill="black" stroke="black" points="2341.19,-163.5 2331.19,-167 2341.19,-170.5 2341.19,-163.5"/>
</g>
<!-- MainVendorCategoryComponent -->
<g id="node5" class="node">
<title>MainVendorCategoryComponent</title>
<polygon fill="#ffffb3" stroke="black" points="3046.18,-122 2841.82,-122 2841.82,-86 3046.18,-86 3046.18,-122"/>
<text text-anchor="middle" x="2944" y="-99.8" font-family="Times,serif" font-size="14.00">MainVendorCategoryComponent</text>
</g>
<!-- MainVendorCategoryComponent&#45;&gt;PurchaseModule -->
<g id="edge5" class="edge">
<title>MainVendorCategoryComponent&#45;&gt;PurchaseModule</title>
<path fill="none" stroke="black" d="M2944,-122.02C2944,-139.37 2944,-163 2944,-163 2944,-163 2341.23,-163 2341.23,-163"/>
<polygon fill="black" stroke="black" points="2341.23,-159.5 2331.23,-163 2341.23,-166.5 2341.23,-159.5"/>
</g>
<!-- MainVendorDefintionsComponent -->
<g id="node6" class="node">
<title>MainVendorDefintionsComponent</title>
<polygon fill="#ffffb3" stroke="black" points="2823.96,-122 2612.04,-122 2612.04,-86 2823.96,-86 2823.96,-122"/>
<text text-anchor="middle" x="2718" y="-99.8" font-family="Times,serif" font-size="14.00">MainVendorDefintionsComponent</text>
</g>
<!-- MainVendorDefintionsComponent&#45;&gt;PurchaseModule -->
<g id="edge6" class="edge">
<title>MainVendorDefintionsComponent&#45;&gt;PurchaseModule</title>
<path fill="none" stroke="black" d="M2718,-122.01C2718,-138.05 2718,-159 2718,-159 2718,-159 2341.09,-159 2341.09,-159"/>
<polygon fill="black" stroke="black" points="2341.09,-155.5 2331.09,-159 2341.09,-162.5 2341.09,-155.5"/>
</g>
<!-- VendorCategoryListComponent -->
<g id="node7" class="node">
<title>VendorCategoryListComponent</title>
<polygon fill="#ffffb3" stroke="black" points="2594.41,-122 2397.59,-122 2397.59,-86 2594.41,-86 2594.41,-122"/>
<text text-anchor="middle" x="2496" y="-99.8" font-family="Times,serif" font-size="14.00">VendorCategoryListComponent</text>
</g>
<!-- VendorCategoryListComponent&#45;&gt;PurchaseModule -->
<g id="edge7" class="edge">
<title>VendorCategoryListComponent&#45;&gt;PurchaseModule</title>
<path fill="none" stroke="black" d="M2496,-122.12C2496,-136.78 2496,-155 2496,-155 2496,-155 2341.23,-155 2341.23,-155"/>
<polygon fill="black" stroke="black" points="2341.23,-151.5 2331.23,-155 2341.23,-158.5 2341.23,-151.5"/>
</g>
<!-- VendorDefinitionsListComponent -->
<g id="node8" class="node">
<title>VendorDefinitionsListComponent</title>
<polygon fill="#ffffb3" stroke="black" points="2380.08,-122 2171.92,-122 2171.92,-86 2380.08,-86 2380.08,-122"/>
<text text-anchor="middle" x="2276" y="-99.8" font-family="Times,serif" font-size="14.00">VendorDefinitionsListComponent</text>
</g>
<!-- VendorDefinitionsListComponent&#45;&gt;PurchaseModule -->
<g id="edge8" class="edge">
<title>VendorDefinitionsListComponent&#45;&gt;PurchaseModule</title>
<path fill="none" stroke="black" d="M2276,-122.11C2276,-122.11 2276,-140.99 2276,-140.99"/>
<polygon fill="black" stroke="black" points="2272.5,-140.99 2276,-150.99 2279.5,-140.99 2272.5,-140.99"/>
</g>
<!-- VendorOpeningBalanceAddComponent -->
<g id="node9" class="node">
<title>VendorOpeningBalanceAddComponent</title>
<polygon fill="#ffffb3" stroke="black" points="2154.22,-122 1913.78,-122 1913.78,-86 2154.22,-86 2154.22,-122"/>
<text text-anchor="middle" x="2034" y="-99.8" font-family="Times,serif" font-size="14.00">VendorOpeningBalanceAddComponent</text>
</g>
<!-- VendorOpeningBalanceAddComponent&#45;&gt;PurchaseModule -->
<g id="edge9" class="edge">
<title>VendorOpeningBalanceAddComponent&#45;&gt;PurchaseModule</title>
<path fill="none" stroke="black" d="M2034,-122.12C2034,-136.78 2034,-155 2034,-155 2034,-155 2210.78,-155 2210.78,-155"/>
<polygon fill="black" stroke="black" points="2210.78,-158.5 2220.78,-155 2210.78,-151.5 2210.78,-158.5"/>
</g>
<!-- VendorOpeningBalanceComponent -->
<g id="node10" class="node">
<title>VendorOpeningBalanceComponent</title>
<polygon fill="#ffffb3" stroke="black" points="1895.11,-122 1678.89,-122 1678.89,-86 1895.11,-86 1895.11,-122"/>
<text text-anchor="middle" x="1787" y="-99.8" font-family="Times,serif" font-size="14.00">VendorOpeningBalanceComponent</text>
</g>
<!-- VendorOpeningBalanceComponent&#45;&gt;PurchaseModule -->
<g id="edge10" class="edge">
<title>VendorOpeningBalanceComponent&#45;&gt;PurchaseModule</title>
<path fill="none" stroke="black" d="M1787,-122.01C1787,-138.05 1787,-159 1787,-159 1787,-159 2210.86,-159 2210.86,-159"/>
<polygon fill="black" stroke="black" points="2210.86,-162.5 2220.86,-159 2210.86,-155.5 2210.86,-162.5"/>
</g>
<!-- VendorOpeningBalanceDistributeComponent -->
<g id="node11" class="node">
<title>VendorOpeningBalanceDistributeComponent</title>
<polygon fill="#ffffb3" stroke="black" points="1660.1,-122 1387.9,-122 1387.9,-86 1660.1,-86 1660.1,-122"/>
<text text-anchor="middle" x="1524" y="-99.8" font-family="Times,serif" font-size="14.00">VendorOpeningBalanceDistributeComponent</text>
</g>
<!-- VendorOpeningBalanceDistributeComponent&#45;&gt;PurchaseModule -->
<g id="edge11" class="edge">
<title>VendorOpeningBalanceDistributeComponent&#45;&gt;PurchaseModule</title>
<path fill="none" stroke="black" d="M1524,-122.02C1524,-139.37 1524,-163 1524,-163 1524,-163 2210.7,-163 2210.7,-163"/>
<polygon fill="black" stroke="black" points="2210.7,-166.5 2220.7,-163 2210.7,-159.5 2210.7,-166.5"/>
</g>
<!-- VendorOpeningBalanceDistributeViewComponent -->
<g id="node12" class="node">
<title>VendorOpeningBalanceDistributeViewComponent</title>
<polygon fill="#ffffb3" stroke="black" points="1369.42,-122 1066.58,-122 1066.58,-86 1369.42,-86 1369.42,-122"/>
<text text-anchor="middle" x="1218" y="-99.8" font-family="Times,serif" font-size="14.00">VendorOpeningBalanceDistributeViewComponent</text>
</g>
<!-- VendorOpeningBalanceDistributeViewComponent&#45;&gt;PurchaseModule -->
<g id="edge12" class="edge">
<title>VendorOpeningBalanceDistributeViewComponent&#45;&gt;PurchaseModule</title>
<path fill="none" stroke="black" d="M1218,-122.22C1218,-140.83 1218,-167 1218,-167 1218,-167 2210.61,-167 2210.61,-167"/>
<polygon fill="black" stroke="black" points="2210.61,-170.5 2220.61,-167 2210.61,-163.5 2210.61,-170.5"/>
</g>
<!-- VendorOpeningBalanceEditComponent -->
<g id="node13" class="node">
<title>VendorOpeningBalanceEditComponent</title>
<polygon fill="#ffffb3" stroke="black" points="1048.95,-122 809.05,-122 809.05,-86 1048.95,-86 1048.95,-122"/>
<text text-anchor="middle" x="929" y="-99.8" font-family="Times,serif" font-size="14.00">VendorOpeningBalanceEditComponent</text>
</g>
<!-- VendorOpeningBalanceEditComponent&#45;&gt;PurchaseModule -->
<g id="edge13" class="edge">
<title>VendorOpeningBalanceEditComponent&#45;&gt;PurchaseModule</title>
<path fill="none" stroke="black" d="M929,-122.31C929,-142.15 929,-171 929,-171 929,-171 2210.68,-171 2210.68,-171"/>
<polygon fill="black" stroke="black" points="2210.68,-174.5 2220.68,-171 2210.68,-167.5 2210.68,-174.5"/>
</g>
<!-- VendorOpeningBalanceListComponent -->
<g id="node14" class="node">
<title>VendorOpeningBalanceListComponent</title>
<polygon fill="#ffffb3" stroke="black" points="791.39,-122 552.61,-122 552.61,-86 791.39,-86 791.39,-122"/>
<text text-anchor="middle" x="672" y="-99.8" font-family="Times,serif" font-size="14.00">VendorOpeningBalanceListComponent</text>
</g>
<!-- VendorOpeningBalanceListComponent&#45;&gt;PurchaseModule -->
<g id="edge14" class="edge">
<title>VendorOpeningBalanceListComponent&#45;&gt;PurchaseModule</title>
<path fill="none" stroke="black" d="M672,-122.28C672,-143.32 672,-175 672,-175 672,-175 2210.79,-175 2210.79,-175"/>
<polygon fill="black" stroke="black" points="2210.79,-178.5 2220.79,-175 2210.79,-171.5 2210.79,-178.5"/>
</g>
<!-- VendorOpeningBalanceMainComponent -->
<g id="node15" class="node">
<title>VendorOpeningBalanceMainComponent</title>
<polygon fill="#ffffb3" stroke="black" points="535.16,-122 288.84,-122 288.84,-86 535.16,-86 535.16,-122"/>
<text text-anchor="middle" x="412" y="-99.8" font-family="Times,serif" font-size="14.00">VendorOpeningBalanceMainComponent</text>
</g>
<!-- VendorOpeningBalanceMainComponent&#45;&gt;PurchaseModule -->
<g id="edge15" class="edge">
<title>VendorOpeningBalanceMainComponent&#45;&gt;PurchaseModule</title>
<path fill="none" stroke="black" d="M412,-122.16C412,-144.35 412,-179 412,-179 412,-179 2210.72,-179 2210.72,-179"/>
<polygon fill="black" stroke="black" points="2210.72,-182.5 2220.72,-179 2210.72,-175.5 2210.72,-182.5"/>
</g>
<!-- VendorOpeningBalanceViewComponent -->
<g id="node16" class="node">
<title>VendorOpeningBalanceViewComponent</title>
<polygon fill="#ffffb3" stroke="black" points="270.43,-122 23.57,-122 23.57,-86 270.43,-86 270.43,-122"/>
<text text-anchor="middle" x="147" y="-99.8" font-family="Times,serif" font-size="14.00">VendorOpeningBalanceViewComponent</text>
</g>
<!-- VendorOpeningBalanceViewComponent&#45;&gt;PurchaseModule -->
<g id="edge16" class="edge">
<title>VendorOpeningBalanceViewComponent&#45;&gt;PurchaseModule</title>
<path fill="none" stroke="black" d="M147,-122.32C147,-145.66 147,-183 147,-183 147,-183 2210.69,-183 2210.69,-183"/>
<polygon fill="black" stroke="black" points="2210.69,-186.5 2220.69,-183 2210.69,-179.5 2210.69,-186.5"/>
</g>
<!-- SharedLibModule -->
<g id="node18" class="node">
<title>SharedLibModule</title>
<polygon fill="#8dd3c7" stroke="black" points="4089.87,-122 4086.87,-126 4065.87,-126 4062.87,-122 3972.13,-122 3972.13,-86 4089.87,-86 4089.87,-122"/>
<text text-anchor="middle" x="4031" y="-99.8" font-family="Times,serif" font-size="14.00">SharedLibModule</text>
</g>
<!-- SharedLibModule&#45;&gt;PurchaseModule -->
<g id="edge17" class="edge">
<title>SharedLibModule&#45;&gt;PurchaseModule</title>
<path fill="none" stroke="black" d="M4031,-122.32C4031,-145.66 4031,-183 4031,-183 4031,-183 2341.42,-183 2341.42,-183"/>
<polygon fill="black" stroke="black" points="2341.42,-179.5 2331.42,-183 2341.42,-186.5 2341.42,-179.5"/>
</g>
</g>
</svg>
