<?xml version="1.0" encoding="UTF-8" standalone="no"?>
<!DOCTYPE svg PUBLIC "-//W3C//DTD SVG 1.1//EN"
 "http://www.w3.org/Graphics/SVG/1.1/DTD/svg11.dtd">
<!-- Generated by graphviz version 2.47.0 (20210316.0004)
 -->
<!-- Title: dependencies Pages: 1 -->
<svg width="3026pt" height="211pt"
 viewBox="0.00 0.00 3026.00 211.00" xmlns="http://www.w3.org/2000/svg" xmlns:xlink="http://www.w3.org/1999/xlink">
<g id="graph0" class="graph" transform="scale(1 1) rotate(0) translate(4 207)">
<title>dependencies</title>
<polygon fill="white" stroke="transparent" points="-4,4 -4,-207 3022,-207 3022,4 -4,4"/>
<text text-anchor="start" x="1488.01" y="-42.4" font-family="Times-12" font-weight="bold" font-size="14.00">Legend</text>
<polygon fill="#ffffb3" stroke="transparent" points="1275,-10 1275,-30 1295,-30 1295,-10 1275,-10"/>
<text text-anchor="start" x="1298.63" y="-15.4" font-family="Times-12" font-size="14.00"> &#160;Declarations</text>
<polygon fill="#8dd3c7" stroke="transparent" points="1388,-10 1388,-30 1408,-30 1408,-10 1388,-10"/>
<text text-anchor="start" x="1411.73" y="-15.4" font-family="Times-12" font-size="14.00"> &#160;Module</text>
<polygon fill="#80b1d3" stroke="transparent" points="1474,-10 1474,-30 1494,-30 1494,-10 1474,-10"/>
<text text-anchor="start" x="1497.78" y="-15.4" font-family="Times-12" font-size="14.00"> &#160;Bootstrap</text>
<polygon fill="#fdb462" stroke="transparent" points="1571,-10 1571,-30 1591,-30 1591,-10 1571,-10"/>
<text text-anchor="start" x="1594.67" y="-15.4" font-family="Times-12" font-size="14.00"> &#160;Providers</text>
<polygon fill="#fb8072" stroke="transparent" points="1667,-10 1667,-30 1687,-30 1687,-10 1667,-10"/>
<text text-anchor="start" x="1690.73" y="-15.4" font-family="Times-12" font-size="14.00"> &#160;Exports</text>
<g id="clust1" class="cluster">
<title>cluster_TransactionsModule</title>
<polygon fill="none" stroke="black" stroke-dasharray="1,5" points="8,-70 8,-195 3010,-195 3010,-70 8,-70"/>
</g>
<g id="clust18" class="cluster">
<title>cluster_TransactionsModule_imports</title>
<polygon fill="none" stroke="black" points="2868,-78 2868,-130 3002,-130 3002,-78 2868,-78"/>
</g>
<g id="clust2" class="cluster">
<title>cluster_TransactionsModule_declarations</title>
<polygon fill="none" stroke="black" points="16,-78 16,-130 2860,-130 2860,-78 16,-78"/>
</g>
<!-- AddStockInComponent -->
<g id="node1" class="node">
<title>AddStockInComponent</title>
<polygon fill="#ffffb3" stroke="black" points="2852.49,-122 2703.51,-122 2703.51,-86 2852.49,-86 2852.49,-122"/>
<text text-anchor="middle" x="2778" y="-99.8" font-family="Times,serif" font-size="14.00">AddStockInComponent</text>
</g>
<!-- TransactionsModule -->
<g id="node16" class="node">
<title>TransactionsModule</title>
<polygon fill="#8dd3c7" stroke="black" points="1606.58,-187 1603.58,-191 1582.58,-191 1579.58,-187 1475.42,-187 1475.42,-151 1606.58,-151 1606.58,-187"/>
<text text-anchor="middle" x="1541" y="-164.8" font-family="Times,serif" font-size="14.00">TransactionsModule</text>
</g>
<!-- AddStockInComponent&#45;&gt;TransactionsModule -->
<g id="edge1" class="edge">
<title>AddStockInComponent&#45;&gt;TransactionsModule</title>
<path fill="none" stroke="black" d="M2778,-122.29C2778,-144.21 2778,-178 2778,-178 2778,-178 1616.63,-178 1616.63,-178"/>
<polygon fill="black" stroke="black" points="1616.63,-174.5 1606.63,-178 1616.63,-181.5 1616.63,-174.5"/>
</g>
<!-- AddStockOutComponent -->
<g id="node2" class="node">
<title>AddStockOutComponent</title>
<polygon fill="#ffffb3" stroke="black" points="2685.32,-122 2526.68,-122 2526.68,-86 2685.32,-86 2685.32,-122"/>
<text text-anchor="middle" x="2606" y="-99.8" font-family="Times,serif" font-size="14.00">AddStockOutComponent</text>
</g>
<!-- AddStockOutComponent&#45;&gt;TransactionsModule -->
<g id="edge2" class="edge">
<title>AddStockOutComponent&#45;&gt;TransactionsModule</title>
<path fill="none" stroke="black" d="M2606,-122.03C2606,-142.77 2606,-174 2606,-174 2606,-174 1616.82,-174 1616.82,-174"/>
<polygon fill="black" stroke="black" points="1616.82,-170.5 1606.82,-174 1616.82,-177.5 1616.82,-170.5"/>
</g>
<!-- EditStockInComponent -->
<g id="node3" class="node">
<title>EditStockInComponent</title>
<polygon fill="#ffffb3" stroke="black" points="2509.21,-122 2360.79,-122 2360.79,-86 2509.21,-86 2509.21,-122"/>
<text text-anchor="middle" x="2435" y="-99.8" font-family="Times,serif" font-size="14.00">EditStockInComponent</text>
</g>
<!-- EditStockInComponent&#45;&gt;TransactionsModule -->
<g id="edge3" class="edge">
<title>EditStockInComponent&#45;&gt;TransactionsModule</title>
<path fill="none" stroke="black" d="M2435,-122.11C2435,-141.34 2435,-169 2435,-169 2435,-169 1616.74,-169 1616.74,-169"/>
<polygon fill="black" stroke="black" points="1616.74,-165.5 1606.74,-169 1616.74,-172.5 1616.74,-165.5"/>
</g>
<!-- EditStockOutComponent -->
<g id="node4" class="node">
<title>EditStockOutComponent</title>
<polygon fill="#ffffb3" stroke="black" points="2342.55,-122 2185.45,-122 2185.45,-86 2342.55,-86 2342.55,-122"/>
<text text-anchor="middle" x="2264" y="-99.8" font-family="Times,serif" font-size="14.00">EditStockOutComponent</text>
</g>
<!-- EditStockOutComponent&#45;&gt;TransactionsModule -->
<g id="edge4" class="edge">
<title>EditStockOutComponent&#45;&gt;TransactionsModule</title>
<path fill="none" stroke="black" d="M2264,-122.3C2264,-140.27 2264,-165 2264,-165 2264,-165 1616.76,-165 1616.76,-165"/>
<polygon fill="black" stroke="black" points="1616.76,-161.5 1606.76,-165 1616.76,-168.5 1616.76,-161.5"/>
</g>
<!-- ImportStockInComponent -->
<g id="node5" class="node">
<title>ImportStockInComponent</title>
<polygon fill="#ffffb3" stroke="black" points="2167.48,-122 2004.52,-122 2004.52,-86 2167.48,-86 2167.48,-122"/>
<text text-anchor="middle" x="2086" y="-99.8" font-family="Times,serif" font-size="14.00">ImportStockInComponent</text>
</g>
<!-- ImportStockInComponent&#45;&gt;TransactionsModule -->
<g id="edge5" class="edge">
<title>ImportStockInComponent&#45;&gt;TransactionsModule</title>
<path fill="none" stroke="black" d="M2086,-122.03C2086,-138.4 2086,-160 2086,-160 2086,-160 1616.74,-160 1616.74,-160"/>
<polygon fill="black" stroke="black" points="1616.74,-156.5 1606.74,-160 1616.74,-163.5 1616.74,-156.5"/>
</g>
<!-- MainStockInListComponentComponent -->
<g id="node6" class="node">
<title>MainStockInListComponentComponent</title>
<polygon fill="#ffffb3" stroke="black" points="1986.54,-122 1745.46,-122 1745.46,-86 1986.54,-86 1986.54,-122"/>
<text text-anchor="middle" x="1866" y="-99.8" font-family="Times,serif" font-size="14.00">MainStockInListComponentComponent</text>
</g>
<!-- MainStockInListComponentComponent&#45;&gt;TransactionsModule -->
<g id="edge6" class="edge">
<title>MainStockInListComponentComponent&#45;&gt;TransactionsModule</title>
<path fill="none" stroke="black" d="M1866,-122.19C1866,-137.18 1866,-156 1866,-156 1866,-156 1616.77,-156 1616.77,-156"/>
<polygon fill="black" stroke="black" points="1616.77,-152.5 1606.77,-156 1616.77,-159.5 1616.77,-152.5"/>
</g>
<!-- MainStockOutComponent -->
<g id="node7" class="node">
<title>MainStockOutComponent</title>
<polygon fill="#ffffb3" stroke="black" points="1726.77,-122 1563.23,-122 1563.23,-86 1726.77,-86 1726.77,-122"/>
<text text-anchor="middle" x="1645" y="-99.8" font-family="Times,serif" font-size="14.00">MainStockOutComponent</text>
</g>
<!-- MainStockOutComponent&#45;&gt;TransactionsModule -->
<g id="edge7" class="edge">
<title>MainStockOutComponent&#45;&gt;TransactionsModule</title>
<path fill="none" stroke="black" d="M1584.83,-122.11C1584.83,-122.11 1584.83,-140.99 1584.83,-140.99"/>
<polygon fill="black" stroke="black" points="1581.33,-140.99 1584.83,-150.99 1588.33,-140.99 1581.33,-140.99"/>
</g>
<!-- MultiSelectItemStockInComponent -->
<g id="node8" class="node">
<title>MultiSelectItemStockInComponent</title>
<polygon fill="#ffffb3" stroke="black" points="1544.86,-122 1329.14,-122 1329.14,-86 1544.86,-86 1544.86,-122"/>
<text text-anchor="middle" x="1437" y="-99.8" font-family="Times,serif" font-size="14.00">MultiSelectItemStockInComponent</text>
</g>
<!-- MultiSelectItemStockInComponent&#45;&gt;TransactionsModule -->
<g id="edge8" class="edge">
<title>MultiSelectItemStockInComponent&#45;&gt;TransactionsModule</title>
<path fill="none" stroke="black" d="M1510.2,-122.11C1510.2,-122.11 1510.2,-140.99 1510.2,-140.99"/>
<polygon fill="black" stroke="black" points="1506.7,-140.99 1510.2,-150.99 1513.7,-140.99 1506.7,-140.99"/>
</g>
<!-- ScanParcodeStockInComponent -->
<g id="node9" class="node">
<title>ScanParcodeStockInComponent</title>
<polygon fill="#ffffb3" stroke="black" points="1310.68,-122 1113.32,-122 1113.32,-86 1310.68,-86 1310.68,-122"/>
<text text-anchor="middle" x="1212" y="-99.8" font-family="Times,serif" font-size="14.00">ScanParcodeStockInComponent</text>
</g>
<!-- ScanParcodeStockInComponent&#45;&gt;TransactionsModule -->
<g id="edge9" class="edge">
<title>ScanParcodeStockInComponent&#45;&gt;TransactionsModule</title>
<path fill="none" stroke="black" d="M1212,-122.19C1212,-137.18 1212,-156 1212,-156 1212,-156 1465.21,-156 1465.21,-156"/>
<polygon fill="black" stroke="black" points="1465.21,-159.5 1475.21,-156 1465.21,-152.5 1465.21,-159.5"/>
</g>
<!-- SearchItemPopUpComponent -->
<g id="node10" class="node">
<title>SearchItemPopUpComponent</title>
<polygon fill="#ffffb3" stroke="black" points="1094.97,-122 911.03,-122 911.03,-86 1094.97,-86 1094.97,-122"/>
<text text-anchor="middle" x="1003" y="-99.8" font-family="Times,serif" font-size="14.00">SearchItemPopUpComponent</text>
</g>
<!-- SearchItemPopUpComponent&#45;&gt;TransactionsModule -->
<g id="edge10" class="edge">
<title>SearchItemPopUpComponent&#45;&gt;TransactionsModule</title>
<path fill="none" stroke="black" d="M1003,-122.03C1003,-138.4 1003,-160 1003,-160 1003,-160 1465.3,-160 1465.3,-160"/>
<polygon fill="black" stroke="black" points="1465.3,-163.5 1475.3,-160 1465.3,-156.5 1465.3,-163.5"/>
</g>
<!-- StockInListComponent -->
<g id="node11" class="node">
<title>StockInListComponent</title>
<polygon fill="#ffffb3" stroke="black" points="893.16,-122 746.84,-122 746.84,-86 893.16,-86 893.16,-122"/>
<text text-anchor="middle" x="820" y="-99.8" font-family="Times,serif" font-size="14.00">StockInListComponent</text>
</g>
<!-- StockInListComponent&#45;&gt;TransactionsModule -->
<g id="edge11" class="edge">
<title>StockInListComponent&#45;&gt;TransactionsModule</title>
<path fill="none" stroke="black" d="M820,-122.3C820,-140.27 820,-165 820,-165 820,-165 1465.42,-165 1465.42,-165"/>
<polygon fill="black" stroke="black" points="1465.42,-168.5 1475.42,-165 1465.42,-161.5 1465.42,-168.5"/>
</g>
<!-- StockOutListComponent -->
<g id="node12" class="node">
<title>StockOutListComponent</title>
<polygon fill="#ffffb3" stroke="black" points="729,-122 573,-122 573,-86 729,-86 729,-122"/>
<text text-anchor="middle" x="651" y="-99.8" font-family="Times,serif" font-size="14.00">StockOutListComponent</text>
</g>
<!-- StockOutListComponent&#45;&gt;TransactionsModule -->
<g id="edge12" class="edge">
<title>StockOutListComponent&#45;&gt;TransactionsModule</title>
<path fill="none" stroke="black" d="M651,-122.11C651,-141.34 651,-169 651,-169 651,-169 1465.19,-169 1465.19,-169"/>
<polygon fill="black" stroke="black" points="1465.19,-172.5 1475.19,-169 1465.19,-165.5 1465.19,-172.5"/>
</g>
<!-- TrackingStockInComponent -->
<g id="node13" class="node">
<title>TrackingStockInComponent</title>
<polygon fill="#ffffb3" stroke="black" points="554.91,-122 379.09,-122 379.09,-86 554.91,-86 554.91,-122"/>
<text text-anchor="middle" x="467" y="-99.8" font-family="Times,serif" font-size="14.00">TrackingStockInComponent</text>
</g>
<!-- TrackingStockInComponent&#45;&gt;TransactionsModule -->
<g id="edge13" class="edge">
<title>TrackingStockInComponent&#45;&gt;TransactionsModule</title>
<path fill="none" stroke="black" d="M467,-122.03C467,-142.77 467,-174 467,-174 467,-174 1465.43,-174 1465.43,-174"/>
<polygon fill="black" stroke="black" points="1465.43,-177.5 1475.43,-174 1465.43,-170.5 1465.43,-177.5"/>
</g>
<!-- ViewStockInComponent -->
<g id="node14" class="node">
<title>ViewStockInComponent</title>
<polygon fill="#ffffb3" stroke="black" points="361.7,-122 206.3,-122 206.3,-86 361.7,-86 361.7,-122"/>
<text text-anchor="middle" x="284" y="-99.8" font-family="Times,serif" font-size="14.00">ViewStockInComponent</text>
</g>
<!-- ViewStockInComponent&#45;&gt;TransactionsModule -->
<g id="edge14" class="edge">
<title>ViewStockInComponent&#45;&gt;TransactionsModule</title>
<path fill="none" stroke="black" d="M284,-122.29C284,-144.21 284,-178 284,-178 284,-178 1465.19,-178 1465.19,-178"/>
<polygon fill="black" stroke="black" points="1465.19,-181.5 1475.19,-178 1465.19,-174.5 1465.19,-181.5"/>
</g>
<!-- ViewStockOutComponent -->
<g id="node15" class="node">
<title>ViewStockOutComponent</title>
<polygon fill="#ffffb3" stroke="black" points="188.04,-122 23.96,-122 23.96,-86 188.04,-86 188.04,-122"/>
<text text-anchor="middle" x="106" y="-99.8" font-family="Times,serif" font-size="14.00">ViewStockOutComponent</text>
</g>
<!-- ViewStockOutComponent&#45;&gt;TransactionsModule -->
<g id="edge15" class="edge">
<title>ViewStockOutComponent&#45;&gt;TransactionsModule</title>
<path fill="none" stroke="black" d="M106,-122.32C106,-145.66 106,-183 106,-183 106,-183 1465.14,-183 1465.14,-183"/>
<polygon fill="black" stroke="black" points="1465.14,-186.5 1475.14,-183 1465.14,-179.5 1465.14,-186.5"/>
</g>
<!-- SharedLibModule -->
<g id="node17" class="node">
<title>SharedLibModule</title>
<polygon fill="#8dd3c7" stroke="black" points="2993.87,-122 2990.87,-126 2969.87,-126 2966.87,-122 2876.13,-122 2876.13,-86 2993.87,-86 2993.87,-122"/>
<text text-anchor="middle" x="2935" y="-99.8" font-family="Times,serif" font-size="14.00">SharedLibModule</text>
</g>
<!-- SharedLibModule&#45;&gt;TransactionsModule -->
<g id="edge16" class="edge">
<title>SharedLibModule&#45;&gt;TransactionsModule</title>
<path fill="none" stroke="black" d="M2935,-122.32C2935,-145.66 2935,-183 2935,-183 2935,-183 1616.83,-183 1616.83,-183"/>
<polygon fill="black" stroke="black" points="1616.83,-179.5 1606.83,-183 1616.83,-186.5 1616.83,-179.5"/>
</g>
</g>
</svg>
