<?xml version="1.0" encoding="UTF-8" standalone="no"?>
<!DOCTYPE svg PUBLIC "-//W3C//DTD SVG 1.1//EN"
 "http://www.w3.org/Graphics/SVG/1.1/DTD/svg11.dtd">
<!-- Generated by graphviz version 2.47.0 (20210316.0004)
 -->
<!-- Title: dependencies Pages: 1 -->
<svg width="1196pt" height="284pt"
 viewBox="0.00 0.00 1196.00 284.00" xmlns="http://www.w3.org/2000/svg" xmlns:xlink="http://www.w3.org/1999/xlink">
<g id="graph0" class="graph" transform="scale(1 1) rotate(0) translate(4 280)">
<title>dependencies</title>
<polygon fill="white" stroke="transparent" points="-4,4 -4,-280 1192,-280 1192,4 -4,4"/>
<text text-anchor="start" x="573.01" y="-42.4" font-family="Times-12" font-weight="bold" font-size="14.00">Legend</text>
<polygon fill="#ffffb3" stroke="transparent" points="360,-10 360,-30 380,-30 380,-10 360,-10"/>
<text text-anchor="start" x="383.63" y="-15.4" font-family="Times-12" font-size="14.00"> &#160;Declarations</text>
<polygon fill="#8dd3c7" stroke="transparent" points="473,-10 473,-30 493,-30 493,-10 473,-10"/>
<text text-anchor="start" x="496.73" y="-15.4" font-family="Times-12" font-size="14.00"> &#160;Module</text>
<polygon fill="#80b1d3" stroke="transparent" points="559,-10 559,-30 579,-30 579,-10 559,-10"/>
<text text-anchor="start" x="582.78" y="-15.4" font-family="Times-12" font-size="14.00"> &#160;Bootstrap</text>
<polygon fill="#fdb462" stroke="transparent" points="656,-10 656,-30 676,-30 676,-10 656,-10"/>
<text text-anchor="start" x="679.67" y="-15.4" font-family="Times-12" font-size="14.00"> &#160;Providers</text>
<polygon fill="#fb8072" stroke="transparent" points="752,-10 752,-30 772,-30 772,-10 752,-10"/>
<text text-anchor="start" x="775.73" y="-15.4" font-family="Times-12" font-size="14.00"> &#160;Exports</text>
<g id="clust1" class="cluster">
<title>cluster_AppModule</title>
<polygon fill="none" stroke="black" stroke-dasharray="1,5" points="8,-70 8,-268 1180,-268 1180,-70 8,-70"/>
</g>
<g id="clust6" class="cluster">
<title>cluster_AppModule_bootstrap</title>
<polygon fill="none" stroke="black" points="541,-208 541,-260 665,-260 665,-208 541,-208"/>
</g>
<g id="clust4" class="cluster">
<title>cluster_AppModule_imports</title>
<polygon fill="none" stroke="black" points="312,-78 312,-130 1172,-130 1172,-78 312,-78"/>
</g>
<g id="clust2" class="cluster">
<title>cluster_AppModule_declarations</title>
<polygon fill="none" stroke="black" points="182,-78 182,-130 304,-130 304,-78 182,-78"/>
</g>
<g id="clust7" class="cluster">
<title>cluster_AppModule_providers</title>
<polygon fill="none" stroke="black" points="16,-78 16,-130 174,-130 174,-78 16,-78"/>
</g>
<!-- AppComponent -->
<g id="node1" class="node">
<title>AppComponent</title>
<polygon fill="#ffffb3" stroke="black" points="295.94,-122 190.06,-122 190.06,-86 295.94,-86 295.94,-122"/>
<text text-anchor="middle" x="243" y="-99.8" font-family="Times,serif" font-size="14.00">AppComponent</text>
</g>
<!-- AppModule -->
<g id="node2" class="node">
<title>AppModule</title>
<polygon fill="#8dd3c7" stroke="black" points="644.66,-187 641.66,-191 620.66,-191 617.66,-187 561.34,-187 561.34,-151 644.66,-151 644.66,-187"/>
<text text-anchor="middle" x="603" y="-164.8" font-family="Times,serif" font-size="14.00">AppModule</text>
</g>
<!-- AppComponent&#45;&gt;AppModule -->
<g id="edge1" class="edge">
<title>AppComponent&#45;&gt;AppModule</title>
<path fill="none" stroke="black" d="M243,-122.11C243,-141.34 243,-169 243,-169 243,-169 551,-169 551,-169"/>
<polygon fill="black" stroke="black" points="551,-172.5 561,-169 551,-165.5 551,-172.5"/>
</g>
<!-- AppComponent  -->
<g id="node9" class="node">
<title>AppComponent </title>
<polygon fill="#80b1d3" stroke="black" points="657.44,-252 548.56,-252 548.56,-216 657.44,-216 657.44,-252"/>
<text text-anchor="middle" x="603" y="-229.8" font-family="Times,serif" font-size="14.00">AppComponent </text>
</g>
<!-- AppModule&#45;&gt;AppComponent  -->
<g id="edge8" class="edge">
<title>AppModule&#45;&gt;AppComponent </title>
<path fill="none" stroke="black" stroke-dasharray="1,5" d="M603,-187.11C603,-187.11 603,-205.99 603,-205.99"/>
<polygon fill="black" stroke="black" points="599.5,-205.99 603,-215.99 606.5,-205.99 599.5,-205.99"/>
</g>
<!-- AppRoutingModule -->
<g id="node3" class="node">
<title>AppRoutingModule</title>
<polygon fill="#8dd3c7" stroke="black" points="1164.27,-122 1161.27,-126 1140.27,-126 1137.27,-122 1035.73,-122 1035.73,-86 1164.27,-86 1164.27,-122"/>
<text text-anchor="middle" x="1100" y="-99.8" font-family="Times,serif" font-size="14.00">AppRoutingModule</text>
</g>
<!-- AppRoutingModule&#45;&gt;AppModule -->
<g id="edge2" class="edge">
<title>AppRoutingModule&#45;&gt;AppModule</title>
<path fill="none" stroke="black" d="M1100,-122.29C1100,-144.21 1100,-178 1100,-178 1100,-178 654.95,-178 654.95,-178"/>
<polygon fill="black" stroke="black" points="654.95,-174.5 644.95,-178 654.95,-181.5 654.95,-174.5"/>
</g>
<!-- HelpPagesModule -->
<g id="node4" class="node">
<title>HelpPagesModule</title>
<polygon fill="#8dd3c7" stroke="black" points="1017.92,-122 1014.92,-126 993.92,-126 990.92,-122 898.08,-122 898.08,-86 1017.92,-86 1017.92,-122"/>
<text text-anchor="middle" x="958" y="-99.8" font-family="Times,serif" font-size="14.00">HelpPagesModule</text>
</g>
<!-- HelpPagesModule&#45;&gt;AppModule -->
<g id="edge3" class="edge">
<title>HelpPagesModule&#45;&gt;AppModule</title>
<path fill="none" stroke="black" d="M958,-122.11C958,-141.34 958,-169 958,-169 958,-169 654.77,-169 654.77,-169"/>
<polygon fill="black" stroke="black" points="654.77,-165.5 644.77,-169 654.77,-172.5 654.77,-165.5"/>
</g>
<!-- LayoutModule -->
<g id="node5" class="node">
<title>LayoutModule</title>
<polygon fill="#8dd3c7" stroke="black" points="880.71,-122 877.71,-126 856.71,-126 853.71,-122 781.29,-122 781.29,-86 880.71,-86 880.71,-122"/>
<text text-anchor="middle" x="831" y="-99.8" font-family="Times,serif" font-size="14.00">LayoutModule</text>
</g>
<!-- LayoutModule&#45;&gt;AppModule -->
<g id="edge4" class="edge">
<title>LayoutModule&#45;&gt;AppModule</title>
<path fill="none" stroke="black" d="M831,-122.03C831,-138.4 831,-160 831,-160 831,-160 654.82,-160 654.82,-160"/>
<polygon fill="black" stroke="black" points="654.82,-156.5 644.82,-160 654.82,-163.5 654.82,-156.5"/>
</g>
<!-- MicrotecAuthLibModule -->
<g id="node6" class="node">
<title>MicrotecAuthLibModule</title>
<polygon fill="#8dd3c7" stroke="black" points="763.52,-122 760.52,-126 739.52,-126 736.52,-122 606.48,-122 606.48,-86 763.52,-86 763.52,-122"/>
<text text-anchor="middle" x="685" y="-99.8" font-family="Times,serif" font-size="14.00">MicrotecAuthLibModule</text>
</g>
<!-- MicrotecAuthLibModule&#45;&gt;AppModule -->
<g id="edge5" class="edge">
<title>MicrotecAuthLibModule&#45;&gt;AppModule</title>
<path fill="none" stroke="black" d="M625.53,-122.11C625.53,-122.11 625.53,-140.99 625.53,-140.99"/>
<polygon fill="black" stroke="black" points="622.03,-140.99 625.53,-150.99 629.03,-140.99 622.03,-140.99"/>
</g>
<!-- PrimeSharedModule -->
<g id="node7" class="node">
<title>PrimeSharedModule</title>
<polygon fill="#8dd3c7" stroke="black" points="587.86,-122 584.86,-126 563.86,-126 560.86,-122 456.14,-122 456.14,-86 587.86,-86 587.86,-122"/>
<text text-anchor="middle" x="522" y="-99.8" font-family="Times,serif" font-size="14.00">PrimeSharedModule</text>
</g>
<!-- PrimeSharedModule&#45;&gt;AppModule -->
<g id="edge6" class="edge">
<title>PrimeSharedModule&#45;&gt;AppModule</title>
<path fill="none" stroke="black" d="M574.55,-122.11C574.55,-122.11 574.55,-140.99 574.55,-140.99"/>
<polygon fill="black" stroke="black" points="571.05,-140.99 574.55,-150.99 578.05,-140.99 571.05,-140.99"/>
</g>
<!-- SharedLibModule -->
<g id="node8" class="node">
<title>SharedLibModule</title>
<polygon fill="#8dd3c7" stroke="black" points="437.87,-122 434.87,-126 413.87,-126 410.87,-122 320.13,-122 320.13,-86 437.87,-86 437.87,-122"/>
<text text-anchor="middle" x="379" y="-99.8" font-family="Times,serif" font-size="14.00">SharedLibModule</text>
</g>
<!-- SharedLibModule&#45;&gt;AppModule -->
<g id="edge7" class="edge">
<title>SharedLibModule&#45;&gt;AppModule</title>
<path fill="none" stroke="black" d="M379,-122.03C379,-138.4 379,-160 379,-160 379,-160 551.13,-160 551.13,-160"/>
<polygon fill="black" stroke="black" points="551.13,-163.5 561.13,-160 551.13,-156.5 551.13,-163.5"/>
</g>
<!-- ERPInterceptor -->
<g id="node10" class="node">
<title>ERPInterceptor</title>
<ellipse fill="#fdb462" stroke="black" cx="95" cy="-104" rx="71.2" ry="18"/>
<text text-anchor="middle" x="95" y="-99.8" font-family="Times,serif" font-size="14.00">ERPInterceptor</text>
</g>
<!-- ERPInterceptor&#45;&gt;AppModule -->
<g id="edge9" class="edge">
<title>ERPInterceptor&#45;&gt;AppModule</title>
<path fill="none" stroke="black" d="M95,-122.29C95,-144.21 95,-178 95,-178 95,-178 551,-178 551,-178"/>
<polygon fill="black" stroke="black" points="551,-181.5 561,-178 551,-174.5 551,-181.5"/>
</g>
</g>
</svg>
