<?xml version="1.0" encoding="UTF-8" standalone="no"?>
<!DOCTYPE svg PUBLIC "-//W3C//DTD SVG 1.1//EN"
 "http://www.w3.org/Graphics/SVG/1.1/DTD/svg11.dtd">
<!-- Generated by graphviz version 2.47.0 (20210316.0004)
 -->
<!-- Title: dependencies Pages: 1 -->
<svg width="872pt" height="211pt"
 viewBox="0.00 0.00 872.00 211.00" xmlns="http://www.w3.org/2000/svg" xmlns:xlink="http://www.w3.org/1999/xlink">
<g id="graph0" class="graph" transform="scale(1 1) rotate(0) translate(4 207)">
<title>dependencies</title>
<polygon fill="white" stroke="transparent" points="-4,4 -4,-207 868,-207 868,4 -4,4"/>
<text text-anchor="start" x="411.01" y="-42.4" font-family="Times-12" font-weight="bold" font-size="14.00">Legend</text>
<polygon fill="#ffffb3" stroke="transparent" points="198,-10 198,-30 218,-30 218,-10 198,-10"/>
<text text-anchor="start" x="221.63" y="-15.4" font-family="Times-12" font-size="14.00"> &#160;Declarations</text>
<polygon fill="#8dd3c7" stroke="transparent" points="311,-10 311,-30 331,-30 331,-10 311,-10"/>
<text text-anchor="start" x="334.73" y="-15.4" font-family="Times-12" font-size="14.00"> &#160;Module</text>
<polygon fill="#80b1d3" stroke="transparent" points="397,-10 397,-30 417,-30 417,-10 397,-10"/>
<text text-anchor="start" x="420.78" y="-15.4" font-family="Times-12" font-size="14.00"> &#160;Bootstrap</text>
<polygon fill="#fdb462" stroke="transparent" points="494,-10 494,-30 514,-30 514,-10 494,-10"/>
<text text-anchor="start" x="517.67" y="-15.4" font-family="Times-12" font-size="14.00"> &#160;Providers</text>
<polygon fill="#fb8072" stroke="transparent" points="590,-10 590,-30 610,-30 610,-10 590,-10"/>
<text text-anchor="start" x="613.73" y="-15.4" font-family="Times-12" font-size="14.00"> &#160;Exports</text>
<g id="clust1" class="cluster">
<title>cluster_LayoutModule</title>
<polygon fill="none" stroke="black" stroke-dasharray="1,5" points="8,-70 8,-195 856,-195 856,-70 8,-70"/>
</g>
<g id="clust2" class="cluster">
<title>cluster_LayoutModule_declarations</title>
<polygon fill="none" stroke="black" points="158,-78 158,-130 848,-130 848,-78 158,-78"/>
</g>
<g id="clust7" class="cluster">
<title>cluster_LayoutModule_imports</title>
<polygon fill="none" stroke="black" points="16,-78 16,-130 150,-130 150,-78 16,-78"/>
</g>
<!-- LayoutHeaderComponent -->
<g id="node1" class="node">
<title>LayoutHeaderComponent</title>
<polygon fill="#ffffb3" stroke="black" points="839.9,-122 678.1,-122 678.1,-86 839.9,-86 839.9,-122"/>
<text text-anchor="middle" x="759" y="-99.8" font-family="Times,serif" font-size="14.00">LayoutHeaderComponent</text>
</g>
<!-- LayoutModule -->
<g id="node5" class="node">
<title>LayoutModule</title>
<polygon fill="#8dd3c7" stroke="black" points="461.71,-187 458.71,-191 437.71,-191 434.71,-187 362.29,-187 362.29,-151 461.71,-151 461.71,-187"/>
<text text-anchor="middle" x="412" y="-164.8" font-family="Times,serif" font-size="14.00">LayoutModule</text>
</g>
<!-- LayoutHeaderComponent&#45;&gt;LayoutModule -->
<g id="edge1" class="edge">
<title>LayoutHeaderComponent&#45;&gt;LayoutModule</title>
<path fill="none" stroke="black" d="M759,-122.28C759,-143.32 759,-175 759,-175 759,-175 471.72,-175 471.72,-175"/>
<polygon fill="black" stroke="black" points="471.72,-171.5 461.72,-175 471.72,-178.5 471.72,-171.5"/>
</g>
<!-- LayoutPageComponent -->
<g id="node2" class="node">
<title>LayoutPageComponent</title>
<polygon fill="#ffffb3" stroke="black" points="660.2,-122 511.8,-122 511.8,-86 660.2,-86 660.2,-122"/>
<text text-anchor="middle" x="586" y="-99.8" font-family="Times,serif" font-size="14.00">LayoutPageComponent</text>
</g>
<!-- LayoutPageComponent&#45;&gt;LayoutModule -->
<g id="edge2" class="edge">
<title>LayoutPageComponent&#45;&gt;LayoutModule</title>
<path fill="none" stroke="black" d="M586,-122.02C586,-139.37 586,-163 586,-163 586,-163 471.86,-163 471.86,-163"/>
<polygon fill="black" stroke="black" points="471.86,-159.5 461.86,-163 471.86,-166.5 471.86,-159.5"/>
</g>
<!-- LayoutSidebarComponent -->
<g id="node3" class="node">
<title>LayoutSidebarComponent</title>
<polygon fill="#ffffb3" stroke="black" points="493.75,-122 330.25,-122 330.25,-86 493.75,-86 493.75,-122"/>
<text text-anchor="middle" x="412" y="-99.8" font-family="Times,serif" font-size="14.00">LayoutSidebarComponent</text>
</g>
<!-- LayoutSidebarComponent&#45;&gt;LayoutModule -->
<g id="edge3" class="edge">
<title>LayoutSidebarComponent&#45;&gt;LayoutModule</title>
<path fill="none" stroke="black" d="M412,-122.11C412,-122.11 412,-140.99 412,-140.99"/>
<polygon fill="black" stroke="black" points="408.5,-140.99 412,-150.99 415.5,-140.99 408.5,-140.99"/>
</g>
<!-- ModuleListComponent -->
<g id="node4" class="node">
<title>ModuleListComponent</title>
<polygon fill="#ffffb3" stroke="black" points="312.16,-122 165.84,-122 165.84,-86 312.16,-86 312.16,-122"/>
<text text-anchor="middle" x="239" y="-99.8" font-family="Times,serif" font-size="14.00">ModuleListComponent</text>
</g>
<!-- ModuleListComponent&#45;&gt;LayoutModule -->
<g id="edge4" class="edge">
<title>ModuleListComponent&#45;&gt;LayoutModule</title>
<path fill="none" stroke="black" d="M239,-122.02C239,-139.37 239,-163 239,-163 239,-163 351.96,-163 351.96,-163"/>
<polygon fill="black" stroke="black" points="351.96,-166.5 361.96,-163 351.96,-159.5 351.96,-166.5"/>
</g>
<!-- SharedLibModule -->
<g id="node6" class="node">
<title>SharedLibModule</title>
<polygon fill="#8dd3c7" stroke="black" points="141.87,-122 138.87,-126 117.87,-126 114.87,-122 24.13,-122 24.13,-86 141.87,-86 141.87,-122"/>
<text text-anchor="middle" x="83" y="-99.8" font-family="Times,serif" font-size="14.00">SharedLibModule</text>
</g>
<!-- SharedLibModule&#45;&gt;LayoutModule -->
<g id="edge5" class="edge">
<title>SharedLibModule&#45;&gt;LayoutModule</title>
<path fill="none" stroke="black" d="M83,-122.28C83,-143.32 83,-175 83,-175 83,-175 352.39,-175 352.39,-175"/>
<polygon fill="black" stroke="black" points="352.39,-178.5 362.39,-175 352.39,-171.5 352.39,-178.5"/>
</g>
</g>
</svg>
