<?xml version="1.0" encoding="UTF-8" standalone="no"?>
<!DOCTYPE svg PUBLIC "-//W3C//DTD SVG 1.1//EN"
 "http://www.w3.org/Graphics/SVG/1.1/DTD/svg11.dtd">
<!-- Generated by graphviz version 2.47.0 (20210316.0004)
 -->
<!-- Title: dependencies Pages: 1 -->
<svg width="636pt" height="211pt"
 viewBox="0.00 0.00 636.00 211.00" xmlns="http://www.w3.org/2000/svg" xmlns:xlink="http://www.w3.org/1999/xlink">
<g id="graph0" class="graph" transform="scale(1 1) rotate(0) translate(4 207)">
<title>dependencies</title>
<polygon fill="white" stroke="transparent" points="-4,4 -4,-207 632,-207 632,4 -4,4"/>
<text text-anchor="start" x="293.01" y="-42.4" font-family="Times-12" font-weight="bold" font-size="14.00">Legend</text>
<polygon fill="#ffffb3" stroke="transparent" points="80,-10 80,-30 100,-30 100,-10 80,-10"/>
<text text-anchor="start" x="103.63" y="-15.4" font-family="Times-12" font-size="14.00"> &#160;Declarations</text>
<polygon fill="#8dd3c7" stroke="transparent" points="193,-10 193,-30 213,-30 213,-10 193,-10"/>
<text text-anchor="start" x="216.73" y="-15.4" font-family="Times-12" font-size="14.00"> &#160;Module</text>
<polygon fill="#80b1d3" stroke="transparent" points="279,-10 279,-30 299,-30 299,-10 279,-10"/>
<text text-anchor="start" x="302.78" y="-15.4" font-family="Times-12" font-size="14.00"> &#160;Bootstrap</text>
<polygon fill="#fdb462" stroke="transparent" points="376,-10 376,-30 396,-30 396,-10 376,-10"/>
<text text-anchor="start" x="399.67" y="-15.4" font-family="Times-12" font-size="14.00"> &#160;Providers</text>
<polygon fill="#fb8072" stroke="transparent" points="472,-10 472,-30 492,-30 492,-10 472,-10"/>
<text text-anchor="start" x="495.73" y="-15.4" font-family="Times-12" font-size="14.00"> &#160;Exports</text>
<g id="clust1" class="cluster">
<title>cluster_ErrorsModule</title>
<polygon fill="none" stroke="black" stroke-dasharray="1,5" points="8,-70 8,-195 620,-195 620,-70 8,-70"/>
</g>
<g id="clust2" class="cluster">
<title>cluster_ErrorsModule_declarations</title>
<polygon fill="none" stroke="black" points="180,-78 180,-130 612,-130 612,-78 180,-78"/>
</g>
<g id="clust6" class="cluster">
<title>cluster_ErrorsModule_imports</title>
<polygon fill="none" stroke="black" points="16,-78 16,-130 172,-130 172,-78 16,-78"/>
</g>
<!-- Error404Component -->
<g id="node1" class="node">
<title>Error404Component</title>
<polygon fill="#ffffb3" stroke="black" points="603.87,-122 472.13,-122 472.13,-86 603.87,-86 603.87,-122"/>
<text text-anchor="middle" x="538" y="-99.8" font-family="Times,serif" font-size="14.00">Error404Component</text>
</g>
<!-- ErrorsModule -->
<g id="node4" class="node">
<title>ErrorsModule</title>
<polygon fill="#8dd3c7" stroke="black" points="364.03,-187 361.03,-191 340.03,-191 337.03,-187 269.97,-187 269.97,-151 364.03,-151 364.03,-187"/>
<text text-anchor="middle" x="317" y="-164.8" font-family="Times,serif" font-size="14.00">ErrorsModule</text>
</g>
<!-- Error404Component&#45;&gt;ErrorsModule -->
<g id="edge1" class="edge">
<title>Error404Component&#45;&gt;ErrorsModule</title>
<path fill="none" stroke="black" d="M538,-122.11C538,-141.34 538,-169 538,-169 538,-169 374.14,-169 374.14,-169"/>
<polygon fill="black" stroke="black" points="374.14,-165.5 364.14,-169 374.14,-172.5 374.14,-165.5"/>
</g>
<!-- Error500Component -->
<g id="node2" class="node">
<title>Error500Component</title>
<polygon fill="#ffffb3" stroke="black" points="453.87,-122 322.13,-122 322.13,-86 453.87,-86 453.87,-122"/>
<text text-anchor="middle" x="388" y="-99.8" font-family="Times,serif" font-size="14.00">Error500Component</text>
</g>
<!-- Error500Component&#45;&gt;ErrorsModule -->
<g id="edge2" class="edge">
<title>Error500Component&#45;&gt;ErrorsModule</title>
<path fill="none" stroke="black" d="M343.17,-122.11C343.17,-122.11 343.17,-140.99 343.17,-140.99"/>
<polygon fill="black" stroke="black" points="339.67,-140.99 343.17,-150.99 346.67,-140.99 339.67,-140.99"/>
</g>
<!-- ErrorsComponent -->
<g id="node3" class="node">
<title>ErrorsComponent</title>
<polygon fill="#ffffb3" stroke="black" points="304.31,-122 187.69,-122 187.69,-86 304.31,-86 304.31,-122"/>
<text text-anchor="middle" x="246" y="-99.8" font-family="Times,serif" font-size="14.00">ErrorsComponent</text>
</g>
<!-- ErrorsComponent&#45;&gt;ErrorsModule -->
<g id="edge3" class="edge">
<title>ErrorsComponent&#45;&gt;ErrorsModule</title>
<path fill="none" stroke="black" d="M286.95,-122.11C286.95,-122.11 286.95,-140.99 286.95,-140.99"/>
<polygon fill="black" stroke="black" points="283.45,-140.99 286.95,-150.99 290.45,-140.99 283.45,-140.99"/>
</g>
<!-- ErrorsRoutingModule -->
<g id="node5" class="node">
<title>ErrorsRoutingModule</title>
<polygon fill="#8dd3c7" stroke="black" points="163.65,-122 160.65,-126 139.65,-126 136.65,-122 24.35,-122 24.35,-86 163.65,-86 163.65,-122"/>
<text text-anchor="middle" x="94" y="-99.8" font-family="Times,serif" font-size="14.00">ErrorsRoutingModule</text>
</g>
<!-- ErrorsRoutingModule&#45;&gt;ErrorsModule -->
<g id="edge4" class="edge">
<title>ErrorsRoutingModule&#45;&gt;ErrorsModule</title>
<path fill="none" stroke="black" d="M94,-122.11C94,-141.34 94,-169 94,-169 94,-169 259.71,-169 259.71,-169"/>
<polygon fill="black" stroke="black" points="259.71,-172.5 269.71,-169 259.71,-165.5 259.71,-172.5"/>
</g>
</g>
</svg>
