<?xml version="1.0" encoding="UTF-8" standalone="no"?>
<!DOCTYPE svg PUBLIC "-//W3C//DTD SVG 1.1//EN"
 "http://www.w3.org/Graphics/SVG/1.1/DTD/svg11.dtd">
<!-- Generated by graphviz version 2.47.0 (20210316.0004)
 -->
<!-- Title: dependencies Pages: 1 -->
<svg width="5652pt" height="211pt"
 viewBox="0.00 0.00 5652.00 211.00" xmlns="http://www.w3.org/2000/svg" xmlns:xlink="http://www.w3.org/1999/xlink">
<g id="graph0" class="graph" transform="scale(1 1) rotate(0) translate(4 207)">
<title>dependencies</title>
<polygon fill="white" stroke="transparent" points="-4,4 -4,-207 5648,-207 5648,4 -4,4"/>
<text text-anchor="start" x="2801.01" y="-42.4" font-family="Times-12" font-weight="bold" font-size="14.00">Legend</text>
<polygon fill="#ffffb3" stroke="transparent" points="2588,-10 2588,-30 2608,-30 2608,-10 2588,-10"/>
<text text-anchor="start" x="2611.63" y="-15.4" font-family="Times-12" font-size="14.00"> &#160;Declarations</text>
<polygon fill="#8dd3c7" stroke="transparent" points="2701,-10 2701,-30 2721,-30 2721,-10 2701,-10"/>
<text text-anchor="start" x="2724.73" y="-15.4" font-family="Times-12" font-size="14.00"> &#160;Module</text>
<polygon fill="#80b1d3" stroke="transparent" points="2787,-10 2787,-30 2807,-30 2807,-10 2787,-10"/>
<text text-anchor="start" x="2810.78" y="-15.4" font-family="Times-12" font-size="14.00"> &#160;Bootstrap</text>
<polygon fill="#fdb462" stroke="transparent" points="2884,-10 2884,-30 2904,-30 2904,-10 2884,-10"/>
<text text-anchor="start" x="2907.67" y="-15.4" font-family="Times-12" font-size="14.00"> &#160;Providers</text>
<polygon fill="#fb8072" stroke="transparent" points="2980,-10 2980,-30 3000,-30 3000,-10 2980,-10"/>
<text text-anchor="start" x="3003.73" y="-15.4" font-family="Times-12" font-size="14.00"> &#160;Exports</text>
<g id="clust1" class="cluster">
<title>cluster_SalesModule</title>
<polygon fill="none" stroke="black" stroke-dasharray="1,5" points="8,-70 8,-195 5636,-195 5636,-70 8,-70"/>
</g>
<g id="clust2" class="cluster">
<title>cluster_SalesModule_declarations</title>
<polygon fill="none" stroke="black" points="158,-78 158,-130 5628,-130 5628,-78 158,-78"/>
</g>
<g id="clust27" class="cluster">
<title>cluster_SalesModule_imports</title>
<polygon fill="none" stroke="black" points="16,-78 16,-130 150,-130 150,-78 16,-78"/>
</g>
<!-- AddCustomerComponent -->
<g id="node1" class="node">
<title>AddCustomerComponent</title>
<polygon fill="#ffffb3" stroke="black" points="5619.88,-122 5460.12,-122 5460.12,-86 5619.88,-86 5619.88,-122"/>
<text text-anchor="middle" x="5540" y="-99.8" font-family="Times,serif" font-size="14.00">AddCustomerComponent</text>
</g>
<!-- SalesModule -->
<g id="node25" class="node">
<title>SalesModule</title>
<polygon fill="#8dd3c7" stroke="black" points="2690.6,-187 2687.6,-191 2666.6,-191 2663.6,-187 2601.4,-187 2601.4,-151 2690.6,-151 2690.6,-187"/>
<text text-anchor="middle" x="2646" y="-164.8" font-family="Times,serif" font-size="14.00">SalesModule</text>
</g>
<!-- AddCustomerComponent&#45;&gt;SalesModule -->
<g id="edge1" class="edge">
<title>AddCustomerComponent&#45;&gt;SalesModule</title>
<path fill="none" stroke="black" d="M5540,-122.38C5540,-146.28 5540,-185 5540,-185 5540,-185 2700.59,-185 2700.59,-185"/>
<polygon fill="black" stroke="black" points="2700.59,-181.5 2690.59,-185 2700.59,-188.5 2700.59,-181.5"/>
</g>
<!-- AddCustomerOpeeningBalanceComponent -->
<g id="node2" class="node">
<title>AddCustomerOpeeningBalanceComponent</title>
<polygon fill="#ffffb3" stroke="black" points="5441.89,-122 5182.11,-122 5182.11,-86 5441.89,-86 5441.89,-122"/>
<text text-anchor="middle" x="5312" y="-99.8" font-family="Times,serif" font-size="14.00">AddCustomerOpeeningBalanceComponent</text>
</g>
<!-- AddCustomerOpeeningBalanceComponent&#45;&gt;SalesModule -->
<g id="edge2" class="edge">
<title>AddCustomerOpeeningBalanceComponent&#45;&gt;SalesModule</title>
<path fill="none" stroke="black" d="M5312,-122.09C5312,-145.13 5312,-182 5312,-182 5312,-182 2700.6,-182 2700.6,-182"/>
<polygon fill="black" stroke="black" points="2700.6,-178.5 2690.6,-182 2700.6,-185.5 2700.6,-178.5"/>
</g>
<!-- AddPricePolicyComponent -->
<g id="node3" class="node">
<title>AddPricePolicyComponent</title>
<polygon fill="#ffffb3" stroke="black" points="5163.98,-122 4994.02,-122 4994.02,-86 5163.98,-86 5163.98,-122"/>
<text text-anchor="middle" x="5079" y="-99.8" font-family="Times,serif" font-size="14.00">AddPricePolicyComponent</text>
</g>
<!-- AddPricePolicyComponent&#45;&gt;SalesModule -->
<g id="edge3" class="edge">
<title>AddPricePolicyComponent&#45;&gt;SalesModule</title>
<path fill="none" stroke="black" d="M5079,-122.16C5079,-144.35 5079,-179 5079,-179 5079,-179 2700.57,-179 2700.57,-179"/>
<polygon fill="black" stroke="black" points="2700.57,-175.5 2690.57,-179 2700.57,-182.5 2700.57,-175.5"/>
</g>
<!-- CreateCustomerCategoryComponent -->
<g id="node4" class="node">
<title>CreateCustomerCategoryComponent</title>
<polygon fill="#ffffb3" stroke="black" points="4975.62,-122 4752.38,-122 4752.38,-86 4975.62,-86 4975.62,-122"/>
<text text-anchor="middle" x="4864" y="-99.8" font-family="Times,serif" font-size="14.00">CreateCustomerCategoryComponent</text>
</g>
<!-- CreateCustomerCategoryComponent&#45;&gt;SalesModule -->
<g id="edge4" class="edge">
<title>CreateCustomerCategoryComponent&#45;&gt;SalesModule</title>
<path fill="none" stroke="black" d="M4864,-122.17C4864,-143.5 4864,-176 4864,-176 4864,-176 2700.56,-176 2700.56,-176"/>
<polygon fill="black" stroke="black" points="2700.56,-172.5 2690.56,-176 2700.56,-179.5 2700.56,-172.5"/>
</g>
<!-- CustomerCategoryListComponent -->
<g id="node5" class="node">
<title>CustomerCategoryListComponent</title>
<polygon fill="#ffffb3" stroke="black" points="4734.37,-122 4525.63,-122 4525.63,-86 4734.37,-86 4734.37,-122"/>
<text text-anchor="middle" x="4630" y="-99.8" font-family="Times,serif" font-size="14.00">CustomerCategoryListComponent</text>
</g>
<!-- CustomerCategoryListComponent&#45;&gt;SalesModule -->
<g id="edge5" class="edge">
<title>CustomerCategoryListComponent&#45;&gt;SalesModule</title>
<path fill="none" stroke="black" d="M4630,-122.03C4630,-142.77 4630,-174 4630,-174 4630,-174 2700.69,-174 2700.69,-174"/>
<polygon fill="black" stroke="black" points="2700.69,-170.5 2690.69,-174 2700.69,-177.5 2700.69,-170.5"/>
</g>
<!-- CustomerListComponent -->
<g id="node6" class="node">
<title>CustomerListComponent</title>
<polygon fill="#ffffb3" stroke="black" points="4507.55,-122 4350.45,-122 4350.45,-86 4507.55,-86 4507.55,-122"/>
<text text-anchor="middle" x="4429" y="-99.8" font-family="Times,serif" font-size="14.00">CustomerListComponent</text>
</g>
<!-- CustomerListComponent&#45;&gt;SalesModule -->
<g id="edge6" class="edge">
<title>CustomerListComponent&#45;&gt;SalesModule</title>
<path fill="none" stroke="black" d="M4429,-122.31C4429,-142.15 4429,-171 4429,-171 4429,-171 2700.97,-171 2700.97,-171"/>
<polygon fill="black" stroke="black" points="2700.97,-167.5 2690.97,-171 2700.97,-174.5 2700.97,-167.5"/>
</g>
<!-- CustomerObViewDistributionComponent -->
<g id="node7" class="node">
<title>CustomerObViewDistributionComponent</title>
<polygon fill="#ffffb3" stroke="black" points="4332.36,-122 4081.64,-122 4081.64,-86 4332.36,-86 4332.36,-122"/>
<text text-anchor="middle" x="4207" y="-99.8" font-family="Times,serif" font-size="14.00">CustomerObViewDistributionComponent</text>
</g>
<!-- CustomerObViewDistributionComponent&#45;&gt;SalesModule -->
<g id="edge7" class="edge">
<title>CustomerObViewDistributionComponent&#45;&gt;SalesModule</title>
<path fill="none" stroke="black" d="M4207,-122.17C4207,-141.09 4207,-168 4207,-168 4207,-168 2700.62,-168 2700.62,-168"/>
<polygon fill="black" stroke="black" points="2700.62,-164.5 2690.62,-168 2700.62,-171.5 2700.62,-164.5"/>
</g>
<!-- CustomerOpeningBalanceDistributeComponent -->
<g id="node8" class="node">
<title>CustomerOpeningBalanceDistributeComponent</title>
<polygon fill="#ffffb3" stroke="black" points="4063.56,-122 3778.44,-122 3778.44,-86 4063.56,-86 4063.56,-122"/>
<text text-anchor="middle" x="3921" y="-99.8" font-family="Times,serif" font-size="14.00">CustomerOpeningBalanceDistributeComponent</text>
</g>
<!-- CustomerOpeningBalanceDistributeComponent&#45;&gt;SalesModule -->
<g id="edge8" class="edge">
<title>CustomerOpeningBalanceDistributeComponent&#45;&gt;SalesModule</title>
<path fill="none" stroke="black" d="M3921,-122.3C3921,-140.27 3921,-165 3921,-165 3921,-165 2700.63,-165 2700.63,-165"/>
<polygon fill="black" stroke="black" points="2700.63,-161.5 2690.63,-165 2700.63,-168.5 2700.63,-161.5"/>
</g>
<!-- CustomerOpeningBalanceListComponent -->
<g id="node9" class="node">
<title>CustomerOpeningBalanceListComponent</title>
<polygon fill="#ffffb3" stroke="black" points="3760.35,-122 3509.65,-122 3509.65,-86 3760.35,-86 3760.35,-122"/>
<text text-anchor="middle" x="3635" y="-99.8" font-family="Times,serif" font-size="14.00">CustomerOpeningBalanceListComponent</text>
</g>
<!-- CustomerOpeningBalanceListComponent&#45;&gt;SalesModule -->
<g id="edge9" class="edge">
<title>CustomerOpeningBalanceListComponent&#45;&gt;SalesModule</title>
<path fill="none" stroke="black" d="M3635,-122.02C3635,-139.37 3635,-163 3635,-163 3635,-163 2700.74,-163 2700.74,-163"/>
<polygon fill="black" stroke="black" points="2700.74,-159.5 2690.74,-163 2700.74,-166.5 2700.74,-159.5"/>
</g>
<!-- CustomerOpeningBalanceNoChildrenComponent -->
<g id="node10" class="node">
<title>CustomerOpeningBalanceNoChildrenComponent</title>
<polygon fill="#ffffb3" stroke="black" points="3491.67,-122 3196.33,-122 3196.33,-86 3491.67,-86 3491.67,-122"/>
<text text-anchor="middle" x="3344" y="-99.8" font-family="Times,serif" font-size="14.00">CustomerOpeningBalanceNoChildrenComponent</text>
</g>
<!-- CustomerOpeningBalanceNoChildrenComponent&#45;&gt;SalesModule -->
<g id="edge10" class="edge">
<title>CustomerOpeningBalanceNoChildrenComponent&#45;&gt;SalesModule</title>
<path fill="none" stroke="black" d="M3344,-122.03C3344,-138.4 3344,-160 3344,-160 3344,-160 2700.72,-160 2700.72,-160"/>
<polygon fill="black" stroke="black" points="2700.72,-156.5 2690.72,-160 2700.72,-163.5 2700.72,-156.5"/>
</g>
<!-- EditCustomerCategoryComponent -->
<g id="node11" class="node">
<title>EditCustomerCategoryComponent</title>
<polygon fill="#ffffb3" stroke="black" points="3178.42,-122 2967.58,-122 2967.58,-86 3178.42,-86 3178.42,-122"/>
<text text-anchor="middle" x="3073" y="-99.8" font-family="Times,serif" font-size="14.00">EditCustomerCategoryComponent</text>
</g>
<!-- EditCustomerCategoryComponent&#45;&gt;SalesModule -->
<g id="edge11" class="edge">
<title>EditCustomerCategoryComponent&#45;&gt;SalesModule</title>
<path fill="none" stroke="black" d="M3073,-122.24C3073,-137.57 3073,-157 3073,-157 3073,-157 2700.89,-157 2700.89,-157"/>
<polygon fill="black" stroke="black" points="2700.89,-153.5 2690.89,-157 2700.89,-160.5 2700.89,-153.5"/>
</g>
<!-- EditCustomerComponent -->
<g id="node12" class="node">
<title>EditCustomerComponent</title>
<polygon fill="#ffffb3" stroke="black" points="2949.6,-122 2790.4,-122 2790.4,-86 2949.6,-86 2949.6,-122"/>
<text text-anchor="middle" x="2870" y="-99.8" font-family="Times,serif" font-size="14.00">EditCustomerComponent</text>
</g>
<!-- EditCustomerComponent&#45;&gt;SalesModule -->
<g id="edge12" class="edge">
<title>EditCustomerComponent&#45;&gt;SalesModule</title>
<path fill="none" stroke="black" d="M2870,-122.05C2870,-136.37 2870,-154 2870,-154 2870,-154 2700.79,-154 2700.79,-154"/>
<polygon fill="black" stroke="black" points="2700.79,-150.5 2690.79,-154 2700.79,-157.5 2700.79,-150.5"/>
</g>
<!-- EditCustomerOpeningBalanceComponent -->
<g id="node13" class="node">
<title>EditCustomerOpeningBalanceComponent</title>
<polygon fill="#ffffb3" stroke="black" points="2772.4,-122 2519.6,-122 2519.6,-86 2772.4,-86 2772.4,-122"/>
<text text-anchor="middle" x="2646" y="-99.8" font-family="Times,serif" font-size="14.00">EditCustomerOpeningBalanceComponent</text>
</g>
<!-- EditCustomerOpeningBalanceComponent&#45;&gt;SalesModule -->
<g id="edge13" class="edge">
<title>EditCustomerOpeningBalanceComponent&#45;&gt;SalesModule</title>
<path fill="none" stroke="black" d="M2646,-122.11C2646,-122.11 2646,-140.99 2646,-140.99"/>
<polygon fill="black" stroke="black" points="2642.5,-140.99 2646,-150.99 2649.5,-140.99 2642.5,-140.99"/>
</g>
<!-- EditPricePolicyComponent -->
<g id="node14" class="node">
<title>EditPricePolicyComponent</title>
<polygon fill="#ffffb3" stroke="black" points="2501.71,-122 2332.29,-122 2332.29,-86 2501.71,-86 2501.71,-122"/>
<text text-anchor="middle" x="2417" y="-99.8" font-family="Times,serif" font-size="14.00">EditPricePolicyComponent</text>
</g>
<!-- EditPricePolicyComponent&#45;&gt;SalesModule -->
<g id="edge14" class="edge">
<title>EditPricePolicyComponent&#45;&gt;SalesModule</title>
<path fill="none" stroke="black" d="M2417,-122.05C2417,-136.37 2417,-154 2417,-154 2417,-154 2591.3,-154 2591.3,-154"/>
<polygon fill="black" stroke="black" points="2591.3,-157.5 2601.3,-154 2591.3,-150.5 2591.3,-157.5"/>
</g>
<!-- MainCustomerCategoryComponent -->
<g id="node15" class="node">
<title>MainCustomerCategoryComponent</title>
<polygon fill="#ffffb3" stroke="black" points="2314.14,-122 2097.86,-122 2097.86,-86 2314.14,-86 2314.14,-122"/>
<text text-anchor="middle" x="2206" y="-99.8" font-family="Times,serif" font-size="14.00">MainCustomerCategoryComponent</text>
</g>
<!-- MainCustomerCategoryComponent&#45;&gt;SalesModule -->
<g id="edge15" class="edge">
<title>MainCustomerCategoryComponent&#45;&gt;SalesModule</title>
<path fill="none" stroke="black" d="M2206,-122.24C2206,-137.57 2206,-157 2206,-157 2206,-157 2591.39,-157 2591.39,-157"/>
<polygon fill="black" stroke="black" points="2591.39,-160.5 2601.39,-157 2591.39,-153.5 2591.39,-160.5"/>
</g>
<!-- MainCustomerDefintionComponent -->
<g id="node16" class="node">
<title>MainCustomerDefintionComponent</title>
<polygon fill="#ffffb3" stroke="black" points="2079.47,-122 1860.53,-122 1860.53,-86 2079.47,-86 2079.47,-122"/>
<text text-anchor="middle" x="1970" y="-99.8" font-family="Times,serif" font-size="14.00">MainCustomerDefintionComponent</text>
</g>
<!-- MainCustomerDefintionComponent&#45;&gt;SalesModule -->
<g id="edge16" class="edge">
<title>MainCustomerDefintionComponent&#45;&gt;SalesModule</title>
<path fill="none" stroke="black" d="M1970,-122.03C1970,-138.4 1970,-160 1970,-160 1970,-160 2591.38,-160 2591.38,-160"/>
<polygon fill="black" stroke="black" points="2591.38,-163.5 2601.38,-160 2591.38,-156.5 2591.38,-163.5"/>
</g>
<!-- MainCustomerOpeningBalanceComponent -->
<g id="node17" class="node">
<title>MainCustomerOpeningBalanceComponent</title>
<polygon fill="#ffffb3" stroke="black" points="1842.12,-122 1583.88,-122 1583.88,-86 1842.12,-86 1842.12,-122"/>
<text text-anchor="middle" x="1713" y="-99.8" font-family="Times,serif" font-size="14.00">MainCustomerOpeningBalanceComponent</text>
</g>
<!-- MainCustomerOpeningBalanceComponent&#45;&gt;SalesModule -->
<g id="edge17" class="edge">
<title>MainCustomerOpeningBalanceComponent&#45;&gt;SalesModule</title>
<path fill="none" stroke="black" d="M1713,-122.02C1713,-139.37 1713,-163 1713,-163 1713,-163 2591.31,-163 2591.31,-163"/>
<polygon fill="black" stroke="black" points="2591.31,-166.5 2601.31,-163 2591.31,-159.5 2591.31,-166.5"/>
</g>
<!-- MultiSelectItemsComponent -->
<g id="node18" class="node">
<title>MultiSelectItemsComponent</title>
<polygon fill="#ffffb3" stroke="black" points="1565.76,-122 1388.24,-122 1388.24,-86 1565.76,-86 1565.76,-122"/>
<text text-anchor="middle" x="1477" y="-99.8" font-family="Times,serif" font-size="14.00">MultiSelectItemsComponent</text>
</g>
<!-- MultiSelectItemsComponent&#45;&gt;SalesModule -->
<g id="edge18" class="edge">
<title>MultiSelectItemsComponent&#45;&gt;SalesModule</title>
<path fill="none" stroke="black" d="M1477,-122.3C1477,-140.27 1477,-165 1477,-165 1477,-165 2591.25,-165 2591.25,-165"/>
<polygon fill="black" stroke="black" points="2591.25,-168.5 2601.25,-165 2591.25,-161.5 2591.25,-168.5"/>
</g>
<!-- PopupExcelComponent -->
<g id="node19" class="node">
<title>PopupExcelComponent</title>
<polygon fill="#ffffb3" stroke="black" points="1370.49,-122 1221.51,-122 1221.51,-86 1370.49,-86 1370.49,-122"/>
<text text-anchor="middle" x="1296" y="-99.8" font-family="Times,serif" font-size="14.00">PopupExcelComponent</text>
</g>
<!-- PopupExcelComponent&#45;&gt;SalesModule -->
<g id="edge19" class="edge">
<title>PopupExcelComponent&#45;&gt;SalesModule</title>
<path fill="none" stroke="black" d="M1296,-122.17C1296,-141.09 1296,-168 1296,-168 1296,-168 2591.08,-168 2591.08,-168"/>
<polygon fill="black" stroke="black" points="2591.08,-171.5 2601.08,-168 2591.08,-164.5 2591.08,-171.5"/>
</g>
<!-- PricePolicyListComponent -->
<g id="node20" class="node">
<title>PricePolicyListComponent</title>
<polygon fill="#ffffb3" stroke="black" points="1203.65,-122 1036.35,-122 1036.35,-86 1203.65,-86 1203.65,-122"/>
<text text-anchor="middle" x="1120" y="-99.8" font-family="Times,serif" font-size="14.00">PricePolicyListComponent</text>
</g>
<!-- PricePolicyListComponent&#45;&gt;SalesModule -->
<g id="edge20" class="edge">
<title>PricePolicyListComponent&#45;&gt;SalesModule</title>
<path fill="none" stroke="black" d="M1120,-122.31C1120,-142.15 1120,-171 1120,-171 1120,-171 2591.16,-171 2591.16,-171"/>
<polygon fill="black" stroke="black" points="2591.16,-174.5 2601.16,-171 2591.16,-167.5 2591.16,-174.5"/>
</g>
<!-- PricePolicyMainComponent -->
<g id="node21" class="node">
<title>PricePolicyMainComponent</title>
<polygon fill="#ffffb3" stroke="black" points="1017.92,-122 842.08,-122 842.08,-86 1017.92,-86 1017.92,-122"/>
<text text-anchor="middle" x="930" y="-99.8" font-family="Times,serif" font-size="14.00">PricePolicyMainComponent</text>
</g>
<!-- PricePolicyMainComponent&#45;&gt;SalesModule -->
<g id="edge21" class="edge">
<title>PricePolicyMainComponent&#45;&gt;SalesModule</title>
<path fill="none" stroke="black" d="M930,-122.03C930,-142.77 930,-174 930,-174 930,-174 2591.42,-174 2591.42,-174"/>
<polygon fill="black" stroke="black" points="2591.42,-177.5 2601.42,-174 2591.42,-170.5 2591.42,-177.5"/>
</g>
<!-- UpdetePricePolicyComponent -->
<g id="node22" class="node">
<title>UpdetePricePolicyComponent</title>
<polygon fill="#ffffb3" stroke="black" points="824.3,-122 637.7,-122 637.7,-86 824.3,-86 824.3,-122"/>
<text text-anchor="middle" x="731" y="-99.8" font-family="Times,serif" font-size="14.00">UpdetePricePolicyComponent</text>
</g>
<!-- UpdetePricePolicyComponent&#45;&gt;SalesModule -->
<g id="edge22" class="edge">
<title>UpdetePricePolicyComponent&#45;&gt;SalesModule</title>
<path fill="none" stroke="black" d="M731,-122.17C731,-143.5 731,-176 731,-176 731,-176 2591.02,-176 2591.02,-176"/>
<polygon fill="black" stroke="black" points="2591.02,-179.5 2601.02,-176 2591.02,-172.5 2591.02,-179.5"/>
</g>
<!-- ViewCustomerOpeningBalanceComponent -->
<g id="node23" class="node">
<title>ViewCustomerOpeningBalanceComponent</title>
<polygon fill="#ffffb3" stroke="black" points="619.89,-122 360.11,-122 360.11,-86 619.89,-86 619.89,-122"/>
<text text-anchor="middle" x="490" y="-99.8" font-family="Times,serif" font-size="14.00">ViewCustomerOpeningBalanceComponent</text>
</g>
<!-- ViewCustomerOpeningBalanceComponent&#45;&gt;SalesModule -->
<g id="edge23" class="edge">
<title>ViewCustomerOpeningBalanceComponent&#45;&gt;SalesModule</title>
<path fill="none" stroke="black" d="M490,-122.16C490,-144.35 490,-179 490,-179 490,-179 2590.97,-179 2590.97,-179"/>
<polygon fill="black" stroke="black" points="2590.97,-182.5 2600.97,-179 2590.97,-175.5 2590.97,-182.5"/>
</g>
<!-- ViewPricePolicyComponent -->
<g id="node24" class="node">
<title>ViewPricePolicyComponent</title>
<polygon fill="#ffffb3" stroke="black" points="342.19,-122 165.81,-122 165.81,-86 342.19,-86 342.19,-122"/>
<text text-anchor="middle" x="254" y="-99.8" font-family="Times,serif" font-size="14.00">ViewPricePolicyComponent</text>
</g>
<!-- ViewPricePolicyComponent&#45;&gt;SalesModule -->
<g id="edge24" class="edge">
<title>ViewPricePolicyComponent&#45;&gt;SalesModule</title>
<path fill="none" stroke="black" d="M254,-122.09C254,-145.13 254,-182 254,-182 254,-182 2591.4,-182 2591.4,-182"/>
<polygon fill="black" stroke="black" points="2591.4,-185.5 2601.4,-182 2591.4,-178.5 2591.4,-185.5"/>
</g>
<!-- SharedLibModule -->
<g id="node26" class="node">
<title>SharedLibModule</title>
<polygon fill="#8dd3c7" stroke="black" points="141.87,-122 138.87,-126 117.87,-126 114.87,-122 24.13,-122 24.13,-86 141.87,-86 141.87,-122"/>
<text text-anchor="middle" x="83" y="-99.8" font-family="Times,serif" font-size="14.00">SharedLibModule</text>
</g>
<!-- SharedLibModule&#45;&gt;SalesModule -->
<g id="edge25" class="edge">
<title>SharedLibModule&#45;&gt;SalesModule</title>
<path fill="none" stroke="black" d="M83,-122.38C83,-146.28 83,-185 83,-185 83,-185 2591.24,-185 2591.24,-185"/>
<polygon fill="black" stroke="black" points="2591.24,-188.5 2601.24,-185 2591.24,-181.5 2591.24,-188.5"/>
</g>
</g>
</svg>
