<svg width="24" height="24" viewBox="0 0 24 24" fill="none" xmlns="http://www.w3.org/2000/svg">
<g clip-path="url(#clip0_9466_147489)">
<path d="M12 24C18.6274 24 24 18.6274 24 12C24 5.37258 18.6274 0 12 0C5.37258 0 0 5.37258 0 12C0 18.6274 5.37258 24 12 24Z" fill="#F0F0F0"/>
<path d="M11.479 11.9997H24.0007C24.0007 10.9166 23.8563 9.86737 23.5873 8.86926H11.479V11.9997ZM11.479 5.73885H22.2394C21.5056 4.54222 20.5686 3.48284 19.4705 2.6084H11.479V5.73885ZM12.0007 23.9997C14.8248 23.9997 17.4206 23.0236 19.4705 21.391H4.53086C6.5807 23.0236 9.1765 23.9997 12.0007 23.9997ZM1.76195 18.2606H22.2394C22.8362 17.287 23.2901 16.2327 23.5873 15.1301H0.414062C0.711198 16.2327 1.16513 17.287 1.76195 18.2606Z" fill="#D80027"/>
<path d="M5.55863 1.87397H6.65217L5.63498 2.61295L6.02353 3.80869L5.00639 3.0697L3.98925 3.80869L4.32487 2.7757C3.42762 3.52316 2.64364 4.39691 1.99744 5.36963H2.34783L1.70034 5.84002C1.59937 6.00852 1.50256 6.17947 1.41 6.35273L1.71919 7.30434L1.14234 6.88523C0.998381 7.19004 0.86745 7.50084 0.749906 7.81678L1.09055 8.86528H2.34783L1.33064 9.60427L1.71919 10.8L0.702047 10.061L0.0927656 10.5037C0.0309857 11.0001 4.53674e-06 11.4998 0 12H12V0C9.62944 0 7.41961 0.687656 5.55863 1.87397ZM6.02353 10.8L5.00639 10.061L3.98925 10.8L4.3778 9.60427L3.36061 8.86528H4.61789L5.00639 7.66955L5.39489 8.86528H6.65217L5.63498 9.60427L6.02353 10.8ZM5.63498 6.10861L6.02353 7.30434L5.00639 6.56536L3.98925 7.30434L4.3778 6.10861L3.36061 5.36963H4.61789L5.00639 4.17389L5.39489 5.36963H6.65217L5.63498 6.10861ZM10.3279 10.8L9.31073 10.061L8.29359 10.8L8.68214 9.60427L7.66495 8.86528H8.92223L9.31073 7.66955L9.69923 8.86528H10.9565L9.93933 9.60427L10.3279 10.8ZM9.93933 6.10861L10.3279 7.30434L9.31073 6.56536L8.29359 7.30434L8.68214 6.10861L7.66495 5.36963H8.92223L9.31073 4.17389L9.69923 5.36963H10.9565L9.93933 6.10861ZM9.93933 2.61295L10.3279 3.80869L9.31073 3.0697L8.29359 3.80869L8.68214 2.61295L7.66495 1.87397H8.92223L9.31073 0.678234L9.69923 1.87397H10.9565L9.93933 2.61295Z" fill="#0052B4"/>
</g>
<defs>
<clipPath id="clip0_9466_147489">
<rect width="24" height="24" fill="white"/>
</clipPath>
</defs>
</svg>
