<?xml version="1.0" encoding="UTF-8" standalone="no"?>
<!DOCTYPE svg PUBLIC "-//W3C//DTD SVG 1.1//EN"
 "http://www.w3.org/Graphics/SVG/1.1/DTD/svg11.dtd">
<!-- Generated by graphviz version 2.47.0 (20210316.0004)
 -->
<!-- Title: dependencies Pages: 1 -->
<svg width="1410pt" height="211pt"
 viewBox="0.00 0.00 1410.00 211.00" xmlns="http://www.w3.org/2000/svg" xmlns:xlink="http://www.w3.org/1999/xlink">
<g id="graph0" class="graph" transform="scale(1 1) rotate(0) translate(4 207)">
<title>dependencies</title>
<polygon fill="white" stroke="transparent" points="-4,4 -4,-207 1406,-207 1406,4 -4,4"/>
<text text-anchor="start" x="680.01" y="-42.4" font-family="Times-12" font-weight="bold" font-size="14.00">Legend</text>
<polygon fill="#ffffb3" stroke="transparent" points="467,-10 467,-30 487,-30 487,-10 467,-10"/>
<text text-anchor="start" x="490.63" y="-15.4" font-family="Times-12" font-size="14.00"> &#160;Declarations</text>
<polygon fill="#8dd3c7" stroke="transparent" points="580,-10 580,-30 600,-30 600,-10 580,-10"/>
<text text-anchor="start" x="603.73" y="-15.4" font-family="Times-12" font-size="14.00"> &#160;Module</text>
<polygon fill="#80b1d3" stroke="transparent" points="666,-10 666,-30 686,-30 686,-10 666,-10"/>
<text text-anchor="start" x="689.78" y="-15.4" font-family="Times-12" font-size="14.00"> &#160;Bootstrap</text>
<polygon fill="#fdb462" stroke="transparent" points="763,-10 763,-30 783,-30 783,-10 763,-10"/>
<text text-anchor="start" x="786.67" y="-15.4" font-family="Times-12" font-size="14.00"> &#160;Providers</text>
<polygon fill="#fb8072" stroke="transparent" points="859,-10 859,-30 879,-30 879,-10 859,-10"/>
<text text-anchor="start" x="882.73" y="-15.4" font-family="Times-12" font-size="14.00"> &#160;Exports</text>
<g id="clust1" class="cluster">
<title>cluster_WidgetsExamplesModule</title>
<polygon fill="none" stroke="black" stroke-dasharray="1,5" points="8,-70 8,-195 1394,-195 1394,-70 8,-70"/>
</g>
<g id="clust2" class="cluster">
<title>cluster_WidgetsExamplesModule_declarations</title>
<polygon fill="none" stroke="black" points="370,-78 370,-130 1386,-130 1386,-78 370,-78"/>
</g>
<g id="clust10" class="cluster">
<title>cluster_WidgetsExamplesModule_imports</title>
<polygon fill="none" stroke="black" points="16,-78 16,-130 362,-130 362,-78 16,-78"/>
</g>
<!-- ChartsComponent -->
<g id="node1" class="node">
<title>ChartsComponent</title>
<polygon fill="#ffffb3" stroke="black" points="1377.88,-122 1260.12,-122 1260.12,-86 1377.88,-86 1377.88,-122"/>
<text text-anchor="middle" x="1319" y="-99.8" font-family="Times,serif" font-size="14.00">ChartsComponent</text>
</g>
<!-- WidgetsExamplesModule -->
<g id="node8" class="node">
<title>WidgetsExamplesModule</title>
<polygon fill="#8dd3c7" stroke="black" points="862.91,-187 859.91,-191 838.91,-191 835.91,-187 701.09,-187 701.09,-151 862.91,-151 862.91,-187"/>
<text text-anchor="middle" x="782" y="-164.8" font-family="Times,serif" font-size="14.00">WidgetsExamplesModule</text>
</g>
<!-- ChartsComponent&#45;&gt;WidgetsExamplesModule -->
<g id="edge1" class="edge">
<title>ChartsComponent&#45;&gt;WidgetsExamplesModule</title>
<path fill="none" stroke="black" d="M1319,-122.29C1319,-144.21 1319,-178 1319,-178 1319,-178 872.98,-178 872.98,-178"/>
<polygon fill="black" stroke="black" points="872.98,-174.5 862.98,-178 872.98,-181.5 872.98,-174.5"/>
</g>
<!-- FeedsComponent -->
<g id="node2" class="node">
<title>FeedsComponent</title>
<polygon fill="#ffffb3" stroke="black" points="1241.99,-122 1128.01,-122 1128.01,-86 1241.99,-86 1241.99,-122"/>
<text text-anchor="middle" x="1185" y="-99.8" font-family="Times,serif" font-size="14.00">FeedsComponent</text>
</g>
<!-- FeedsComponent&#45;&gt;WidgetsExamplesModule -->
<g id="edge2" class="edge">
<title>FeedsComponent&#45;&gt;WidgetsExamplesModule</title>
<path fill="none" stroke="black" d="M1185,-122.11C1185,-141.34 1185,-169 1185,-169 1185,-169 873.07,-169 873.07,-169"/>
<polygon fill="black" stroke="black" points="873.07,-165.5 863.07,-169 873.07,-172.5 873.07,-165.5"/>
</g>
<!-- ListsComponent -->
<g id="node3" class="node">
<title>ListsComponent</title>
<polygon fill="#ffffb3" stroke="black" points="1110.06,-122 1001.94,-122 1001.94,-86 1110.06,-86 1110.06,-122"/>
<text text-anchor="middle" x="1056" y="-99.8" font-family="Times,serif" font-size="14.00">ListsComponent</text>
</g>
<!-- ListsComponent&#45;&gt;WidgetsExamplesModule -->
<g id="edge3" class="edge">
<title>ListsComponent&#45;&gt;WidgetsExamplesModule</title>
<path fill="none" stroke="black" d="M1056,-122.03C1056,-138.4 1056,-160 1056,-160 1056,-160 872.73,-160 872.73,-160"/>
<polygon fill="black" stroke="black" points="872.73,-156.5 862.73,-160 872.73,-163.5 872.73,-156.5"/>
</g>
<!-- MixedComponent -->
<g id="node4" class="node">
<title>MixedComponent</title>
<polygon fill="#ffffb3" stroke="black" points="983.88,-122 866.12,-122 866.12,-86 983.88,-86 983.88,-122"/>
<text text-anchor="middle" x="925" y="-99.8" font-family="Times,serif" font-size="14.00">MixedComponent</text>
</g>
<!-- MixedComponent&#45;&gt;WidgetsExamplesModule -->
<g id="edge4" class="edge">
<title>MixedComponent&#45;&gt;WidgetsExamplesModule</title>
<path fill="none" stroke="black" d="M865.91,-104C859.54,-104 855.32,-104 855.32,-104 855.32,-104 855.32,-140.89 855.32,-140.89"/>
<polygon fill="black" stroke="black" points="851.82,-140.89 855.32,-150.89 858.82,-140.89 851.82,-140.89"/>
</g>
<!-- StatisticsComponent -->
<g id="node5" class="node">
<title>StatisticsComponent</title>
<polygon fill="#ffffb3" stroke="black" points="847.89,-122 716.11,-122 716.11,-86 847.89,-86 847.89,-122"/>
<text text-anchor="middle" x="782" y="-99.8" font-family="Times,serif" font-size="14.00">StatisticsComponent</text>
</g>
<!-- StatisticsComponent&#45;&gt;WidgetsExamplesModule -->
<g id="edge5" class="edge">
<title>StatisticsComponent&#45;&gt;WidgetsExamplesModule</title>
<path fill="none" stroke="black" d="M782,-122.11C782,-122.11 782,-140.99 782,-140.99"/>
<polygon fill="black" stroke="black" points="778.5,-140.99 782,-150.99 785.5,-140.99 778.5,-140.99"/>
</g>
<!-- TablesComponent -->
<g id="node6" class="node">
<title>TablesComponent</title>
<polygon fill="#ffffb3" stroke="black" points="698.15,-122 579.85,-122 579.85,-86 698.15,-86 698.15,-122"/>
<text text-anchor="middle" x="639" y="-99.8" font-family="Times,serif" font-size="14.00">TablesComponent</text>
</g>
<!-- TablesComponent&#45;&gt;WidgetsExamplesModule -->
<g id="edge6" class="edge">
<title>TablesComponent&#45;&gt;WidgetsExamplesModule</title>
<path fill="none" stroke="black" d="M698.39,-104C704.59,-104 708.68,-104 708.68,-104 708.68,-104 708.68,-140.89 708.68,-140.89"/>
<polygon fill="black" stroke="black" points="705.18,-140.89 708.68,-150.89 712.18,-140.89 705.18,-140.89"/>
</g>
<!-- WidgetsExamplesComponent -->
<g id="node7" class="node">
<title>WidgetsExamplesComponent</title>
<polygon fill="#ffffb3" stroke="black" points="561.7,-122 378.3,-122 378.3,-86 561.7,-86 561.7,-122"/>
<text text-anchor="middle" x="470" y="-99.8" font-family="Times,serif" font-size="14.00">WidgetsExamplesComponent</text>
</g>
<!-- WidgetsExamplesComponent&#45;&gt;WidgetsExamplesModule -->
<g id="edge7" class="edge">
<title>WidgetsExamplesComponent&#45;&gt;WidgetsExamplesModule</title>
<path fill="none" stroke="black" d="M470,-122.03C470,-138.4 470,-160 470,-160 470,-160 691.25,-160 691.25,-160"/>
<polygon fill="black" stroke="black" points="691.25,-163.5 701.25,-160 691.25,-156.5 691.25,-163.5"/>
</g>
<!-- WidgetsExamplesRoutingModule -->
<g id="node9" class="node">
<title>WidgetsExamplesRoutingModule</title>
<polygon fill="#8dd3c7" stroke="black" points="354.03,-122 351.03,-126 330.03,-126 327.03,-122 147.97,-122 147.97,-86 354.03,-86 354.03,-122"/>
<text text-anchor="middle" x="251" y="-99.8" font-family="Times,serif" font-size="14.00">WidgetsExamplesRoutingModule</text>
</g>
<!-- WidgetsExamplesRoutingModule&#45;&gt;WidgetsExamplesModule -->
<g id="edge8" class="edge">
<title>WidgetsExamplesRoutingModule&#45;&gt;WidgetsExamplesModule</title>
<path fill="none" stroke="black" d="M251,-122.11C251,-141.34 251,-169 251,-169 251,-169 691.06,-169 691.06,-169"/>
<polygon fill="black" stroke="black" points="691.06,-172.5 701.06,-169 691.06,-165.5 691.06,-172.5"/>
</g>
<!-- WidgetsModule -->
<g id="node10" class="node">
<title>WidgetsModule</title>
<polygon fill="#8dd3c7" stroke="black" points="130.2,-122 127.2,-126 106.2,-126 103.2,-122 23.8,-122 23.8,-86 130.2,-86 130.2,-122"/>
<text text-anchor="middle" x="77" y="-99.8" font-family="Times,serif" font-size="14.00">WidgetsModule</text>
</g>
<!-- WidgetsModule&#45;&gt;WidgetsExamplesModule -->
<g id="edge9" class="edge">
<title>WidgetsModule&#45;&gt;WidgetsExamplesModule</title>
<path fill="none" stroke="black" d="M77,-122.29C77,-144.21 77,-178 77,-178 77,-178 691.13,-178 691.13,-178"/>
<polygon fill="black" stroke="black" points="691.13,-181.5 701.13,-178 691.13,-174.5 691.13,-181.5"/>
</g>
</g>
</svg>
