<?xml version="1.0" encoding="UTF-8" standalone="no"?>
<!DOCTYPE svg PUBLIC "-//W3C//DTD SVG 1.1//EN"
 "http://www.w3.org/Graphics/SVG/1.1/DTD/svg11.dtd">
<!-- Generated by graphviz version 2.47.0 (20210316.0004)
 -->
<!-- Title: dependencies Pages: 1 -->
<svg width="762pt" height="284pt"
 viewBox="0.00 0.00 762.00 284.00" xmlns="http://www.w3.org/2000/svg" xmlns:xlink="http://www.w3.org/1999/xlink">
<g id="graph0" class="graph" transform="scale(1 1) rotate(0) translate(4 280)">
<title>dependencies</title>
<polygon fill="white" stroke="transparent" points="-4,4 -4,-280 758,-280 758,4 -4,4"/>
<text text-anchor="start" x="356.01" y="-42.4" font-family="Times-12" font-weight="bold" font-size="14.00">Legend</text>
<polygon fill="#ffffb3" stroke="transparent" points="143,-10 143,-30 163,-30 163,-10 143,-10"/>
<text text-anchor="start" x="166.63" y="-15.4" font-family="Times-12" font-size="14.00"> &#160;Declarations</text>
<polygon fill="#8dd3c7" stroke="transparent" points="256,-10 256,-30 276,-30 276,-10 256,-10"/>
<text text-anchor="start" x="279.73" y="-15.4" font-family="Times-12" font-size="14.00"> &#160;Module</text>
<polygon fill="#80b1d3" stroke="transparent" points="342,-10 342,-30 362,-30 362,-10 342,-10"/>
<text text-anchor="start" x="365.78" y="-15.4" font-family="Times-12" font-size="14.00"> &#160;Bootstrap</text>
<polygon fill="#fdb462" stroke="transparent" points="439,-10 439,-30 459,-30 459,-10 439,-10"/>
<text text-anchor="start" x="462.67" y="-15.4" font-family="Times-12" font-size="14.00"> &#160;Providers</text>
<polygon fill="#fb8072" stroke="transparent" points="535,-10 535,-30 555,-30 555,-10 535,-10"/>
<text text-anchor="start" x="558.73" y="-15.4" font-family="Times-12" font-size="14.00"> &#160;Exports</text>
<g id="clust1" class="cluster">
<title>cluster_ModalsModule</title>
<polygon fill="none" stroke="black" stroke-dasharray="1,5" points="8,-70 8,-268 746,-268 746,-70 8,-70"/>
</g>
<g id="clust8" class="cluster">
<title>cluster_ModalsModule_exports</title>
<polygon fill="none" stroke="black" points="16,-208 16,-260 738,-260 738,-208 16,-208"/>
</g>
<g id="clust2" class="cluster">
<title>cluster_ModalsModule_declarations</title>
<polygon fill="none" stroke="black" points="24,-78 24,-130 732,-130 732,-78 24,-78"/>
</g>
<!-- InviteUsersModalComponent -->
<g id="node1" class="node">
<title>InviteUsersModalComponent</title>
<polygon fill="#ffffb3" stroke="black" points="724.41,-122 541.59,-122 541.59,-86 724.41,-86 724.41,-122"/>
<text text-anchor="middle" x="633" y="-99.8" font-family="Times,serif" font-size="14.00">InviteUsersModalComponent</text>
</g>
<!-- ModalsModule -->
<g id="node5" class="node">
<title>ModalsModule</title>
<polygon fill="#8dd3c7" stroke="black" points="352.55,-187 349.55,-191 328.55,-191 325.55,-187 251.45,-187 251.45,-151 352.55,-151 352.55,-187"/>
<text text-anchor="middle" x="302" y="-164.8" font-family="Times,serif" font-size="14.00">ModalsModule</text>
</g>
<!-- InviteUsersModalComponent&#45;&gt;ModalsModule -->
<g id="edge1" class="edge">
<title>InviteUsersModalComponent&#45;&gt;ModalsModule</title>
<path fill="none" stroke="black" d="M664.15,-122.27C664.15,-140.56 664.15,-166 664.15,-166 664.15,-166 362.74,-166 362.74,-166"/>
<polygon fill="black" stroke="black" points="362.74,-162.5 352.74,-166 362.74,-169.5 362.74,-162.5"/>
</g>
<!-- MainModalComponent -->
<g id="node2" class="node">
<title>MainModalComponent</title>
<polygon fill="#ffffb3" stroke="black" points="523.93,-122 376.07,-122 376.07,-86 523.93,-86 523.93,-122"/>
<text text-anchor="middle" x="450" y="-99.8" font-family="Times,serif" font-size="14.00">MainModalComponent</text>
</g>
<!-- MainModalComponent&#45;&gt;ModalsModule -->
<g id="edge2" class="edge">
<title>MainModalComponent&#45;&gt;ModalsModule</title>
<path fill="none" stroke="black" d="M474.57,-122.01C474.57,-138.05 474.57,-159 474.57,-159 474.57,-159 362.84,-159 362.84,-159"/>
<polygon fill="black" stroke="black" points="362.84,-155.5 352.84,-159 362.84,-162.5 362.84,-155.5"/>
</g>
<!-- ModalComponent -->
<g id="node3" class="node">
<title>ModalComponent</title>
<polygon fill="#ffffb3" stroke="black" points="357.88,-122 240.12,-122 240.12,-86 357.88,-86 357.88,-122"/>
<text text-anchor="middle" x="299" y="-99.8" font-family="Times,serif" font-size="14.00">ModalComponent</text>
</g>
<!-- ModalComponent&#45;&gt;ModalsModule -->
<g id="edge3" class="edge">
<title>ModalComponent&#45;&gt;ModalsModule</title>
<path fill="none" stroke="black" d="M302,-122.11C302,-122.11 302,-140.99 302,-140.99"/>
<polygon fill="black" stroke="black" points="298.5,-140.99 302,-150.99 305.5,-140.99 298.5,-140.99"/>
</g>
<!-- UpgradePlanModalComponent -->
<g id="node4" class="node">
<title>UpgradePlanModalComponent</title>
<polygon fill="#ffffb3" stroke="black" points="222.47,-122 31.53,-122 31.53,-86 222.47,-86 222.47,-122"/>
<text text-anchor="middle" x="127" y="-99.8" font-family="Times,serif" font-size="14.00">UpgradePlanModalComponent</text>
</g>
<!-- UpgradePlanModalComponent&#45;&gt;ModalsModule -->
<g id="edge4" class="edge">
<title>UpgradePlanModalComponent&#45;&gt;ModalsModule</title>
<path fill="none" stroke="black" d="M155.99,-122.02C155.99,-139.37 155.99,-163 155.99,-163 155.99,-163 241.34,-163 241.34,-163"/>
<polygon fill="black" stroke="black" points="241.34,-166.5 251.34,-163 241.34,-159.5 241.34,-166.5"/>
</g>
<!-- InviteUsersModalComponent  -->
<g id="node6" class="node">
<title>InviteUsersModalComponent </title>
<polygon fill="#fb8072" stroke="black" points="729.91,-252 544.09,-252 544.09,-216 729.91,-216 729.91,-252"/>
<text text-anchor="middle" x="637" y="-229.8" font-family="Times,serif" font-size="14.00">InviteUsersModalComponent </text>
</g>
<!-- ModalsModule&#45;&gt;InviteUsersModalComponent  -->
<g id="edge5" class="edge">
<title>ModalsModule&#45;&gt;InviteUsersModalComponent </title>
<path fill="none" stroke="black" stroke-dasharray="5,2" d="M352.56,-173C438.56,-173 604.1,-173 604.1,-173 604.1,-173 604.1,-205.7 604.1,-205.7"/>
<polygon fill="black" stroke="black" points="600.6,-205.7 604.1,-215.7 607.6,-205.7 600.6,-205.7"/>
</g>
<!-- MainModalComponent  -->
<g id="node7" class="node">
<title>MainModalComponent </title>
<polygon fill="#fb8072" stroke="black" points="526.43,-252 375.57,-252 375.57,-216 526.43,-216 526.43,-252"/>
<text text-anchor="middle" x="451" y="-229.8" font-family="Times,serif" font-size="14.00">MainModalComponent </text>
</g>
<!-- ModalsModule&#45;&gt;MainModalComponent  -->
<g id="edge6" class="edge">
<title>ModalsModule&#45;&gt;MainModalComponent </title>
<path fill="none" stroke="black" stroke-dasharray="5,2" d="M352.56,-180C386.65,-180 425.43,-180 425.43,-180 425.43,-180 425.43,-205.72 425.43,-205.72"/>
<polygon fill="black" stroke="black" points="421.93,-205.72 425.43,-215.72 428.93,-205.72 421.93,-205.72"/>
</g>
<!-- ModalComponent  -->
<g id="node8" class="node">
<title>ModalComponent </title>
<polygon fill="#fb8072" stroke="black" points="357.88,-252 236.12,-252 236.12,-216 357.88,-216 357.88,-252"/>
<text text-anchor="middle" x="297" y="-229.8" font-family="Times,serif" font-size="14.00">ModalComponent </text>
</g>
<!-- ModalsModule&#45;&gt;ModalComponent  -->
<g id="edge7" class="edge">
<title>ModalsModule&#45;&gt;ModalComponent </title>
<path fill="none" stroke="black" stroke-dasharray="5,2" d="M302,-187.11C302,-187.11 302,-205.99 302,-205.99"/>
<polygon fill="black" stroke="black" points="298.5,-205.99 302,-215.99 305.5,-205.99 298.5,-205.99"/>
</g>
<!-- UpgradePlanModalComponent  -->
<g id="node9" class="node">
<title>UpgradePlanModalComponent </title>
<polygon fill="#fb8072" stroke="black" points="218.47,-252 23.53,-252 23.53,-216 218.47,-216 218.47,-252"/>
<text text-anchor="middle" x="121" y="-229.8" font-family="Times,serif" font-size="14.00">UpgradePlanModalComponent </text>
</g>
<!-- ModalsModule&#45;&gt;UpgradePlanModalComponent  -->
<g id="edge8" class="edge">
<title>ModalsModule&#45;&gt;UpgradePlanModalComponent </title>
<path fill="none" stroke="black" stroke-dasharray="5,2" d="M251.32,-175C189.68,-175 93.76,-175 93.76,-175 93.76,-175 93.76,-205.98 93.76,-205.98"/>
<polygon fill="black" stroke="black" points="90.26,-205.98 93.76,-215.98 97.26,-205.98 90.26,-205.98"/>
</g>
</g>
</svg>
