<?xml version="1.0" encoding="UTF-8" standalone="no"?>
<!DOCTYPE svg PUBLIC "-//W3C//DTD SVG 1.1//EN"
 "http://www.w3.org/Graphics/SVG/1.1/DTD/svg11.dtd">
<!-- Generated by graphviz version 2.47.0 (20210316.0004)
 -->
<!-- Title: dependencies Pages: 1 -->
<svg width="1214pt" height="211pt"
 viewBox="0.00 0.00 1214.00 211.00" xmlns="http://www.w3.org/2000/svg" xmlns:xlink="http://www.w3.org/1999/xlink">
<g id="graph0" class="graph" transform="scale(1 1) rotate(0) translate(4 207)">
<title>dependencies</title>
<polygon fill="white" stroke="transparent" points="-4,4 -4,-207 1210,-207 1210,4 -4,4"/>
<text text-anchor="start" x="582.01" y="-42.4" font-family="Times-12" font-weight="bold" font-size="14.00">Legend</text>
<polygon fill="#ffffb3" stroke="transparent" points="369,-10 369,-30 389,-30 389,-10 369,-10"/>
<text text-anchor="start" x="392.63" y="-15.4" font-family="Times-12" font-size="14.00"> &#160;Declarations</text>
<polygon fill="#8dd3c7" stroke="transparent" points="482,-10 482,-30 502,-30 502,-10 482,-10"/>
<text text-anchor="start" x="505.73" y="-15.4" font-family="Times-12" font-size="14.00"> &#160;Module</text>
<polygon fill="#80b1d3" stroke="transparent" points="568,-10 568,-30 588,-30 588,-10 568,-10"/>
<text text-anchor="start" x="591.78" y="-15.4" font-family="Times-12" font-size="14.00"> &#160;Bootstrap</text>
<polygon fill="#fdb462" stroke="transparent" points="665,-10 665,-30 685,-30 685,-10 665,-10"/>
<text text-anchor="start" x="688.67" y="-15.4" font-family="Times-12" font-size="14.00"> &#160;Providers</text>
<polygon fill="#fb8072" stroke="transparent" points="761,-10 761,-30 781,-30 781,-10 761,-10"/>
<text text-anchor="start" x="784.73" y="-15.4" font-family="Times-12" font-size="14.00"> &#160;Exports</text>
<g id="clust1" class="cluster">
<title>cluster_SubscriptionModule</title>
<polygon fill="none" stroke="black" stroke-dasharray="1,5" points="8,-70 8,-195 1198,-195 1198,-70 8,-70"/>
</g>
<g id="clust2" class="cluster">
<title>cluster_SubscriptionModule_declarations</title>
<polygon fill="none" stroke="black" points="451,-78 451,-130 1190,-130 1190,-78 451,-78"/>
</g>
<g id="clust7" class="cluster">
<title>cluster_SubscriptionModule_imports</title>
<polygon fill="none" stroke="black" points="16,-78 16,-130 443,-130 443,-78 16,-78"/>
</g>
<!-- AddDomainSpaceComponent -->
<g id="node1" class="node">
<title>AddDomainSpaceComponent</title>
<polygon fill="#ffffb3" stroke="black" points="1181.97,-122 998.03,-122 998.03,-86 1181.97,-86 1181.97,-122"/>
<text text-anchor="middle" x="1090" y="-99.8" font-family="Times,serif" font-size="14.00">AddDomainSpaceComponent</text>
</g>
<!-- SubscriptionModule -->
<g id="node5" class="node">
<title>SubscriptionModule</title>
<polygon fill="#8dd3c7" stroke="black" points="600.32,-187 597.32,-191 576.32,-191 573.32,-187 469.68,-187 469.68,-151 600.32,-151 600.32,-187"/>
<text text-anchor="middle" x="535" y="-164.8" font-family="Times,serif" font-size="14.00">SubscriptionModule</text>
</g>
<!-- AddDomainSpaceComponent&#45;&gt;SubscriptionModule -->
<g id="edge1" class="edge">
<title>AddDomainSpaceComponent&#45;&gt;SubscriptionModule</title>
<path fill="none" stroke="black" d="M1090,-122.29C1090,-144.21 1090,-178 1090,-178 1090,-178 610.3,-178 610.3,-178"/>
<polygon fill="black" stroke="black" points="610.3,-174.5 600.3,-178 610.3,-181.5 610.3,-174.5"/>
</g>
<!-- ManageAppsComponent -->
<g id="node2" class="node">
<title>ManageAppsComponent</title>
<polygon fill="#ffffb3" stroke="black" points="979.97,-122 824.03,-122 824.03,-86 979.97,-86 979.97,-122"/>
<text text-anchor="middle" x="902" y="-99.8" font-family="Times,serif" font-size="14.00">ManageAppsComponent</text>
</g>
<!-- ManageAppsComponent&#45;&gt;SubscriptionModule -->
<g id="edge2" class="edge">
<title>ManageAppsComponent&#45;&gt;SubscriptionModule</title>
<path fill="none" stroke="black" d="M902,-122.11C902,-141.34 902,-169 902,-169 902,-169 610.19,-169 610.19,-169"/>
<polygon fill="black" stroke="black" points="610.19,-165.5 600.19,-169 610.19,-172.5 610.19,-165.5"/>
</g>
<!-- MySubscriptionsComponent -->
<g id="node3" class="node">
<title>MySubscriptionsComponent</title>
<polygon fill="#ffffb3" stroke="black" points="806.5,-122 629.5,-122 629.5,-86 806.5,-86 806.5,-122"/>
<text text-anchor="middle" x="718" y="-99.8" font-family="Times,serif" font-size="14.00">MySubscriptionsComponent</text>
</g>
<!-- MySubscriptionsComponent&#45;&gt;SubscriptionModule -->
<g id="edge3" class="edge">
<title>MySubscriptionsComponent&#45;&gt;SubscriptionModule</title>
<path fill="none" stroke="black" d="M718,-122.03C718,-138.4 718,-160 718,-160 718,-160 610.29,-160 610.29,-160"/>
<polygon fill="black" stroke="black" points="610.29,-156.5 600.29,-160 610.29,-163.5 610.29,-156.5"/>
</g>
<!-- SubscriptionComponent -->
<g id="node4" class="node">
<title>SubscriptionComponent</title>
<polygon fill="#ffffb3" stroke="black" points="611.11,-122 458.89,-122 458.89,-86 611.11,-86 611.11,-122"/>
<text text-anchor="middle" x="535" y="-99.8" font-family="Times,serif" font-size="14.00">SubscriptionComponent</text>
</g>
<!-- SubscriptionComponent&#45;&gt;SubscriptionModule -->
<g id="edge4" class="edge">
<title>SubscriptionComponent&#45;&gt;SubscriptionModule</title>
<path fill="none" stroke="black" d="M535,-122.11C535,-122.11 535,-140.99 535,-140.99"/>
<polygon fill="black" stroke="black" points="531.5,-140.99 535,-150.99 538.5,-140.99 531.5,-140.99"/>
</g>
<!-- LayoutModule -->
<g id="node6" class="node">
<title>LayoutModule</title>
<polygon fill="#8dd3c7" stroke="black" points="434.71,-122 431.71,-126 410.71,-126 407.71,-122 335.29,-122 335.29,-86 434.71,-86 434.71,-122"/>
<text text-anchor="middle" x="385" y="-99.8" font-family="Times,serif" font-size="14.00">LayoutModule</text>
</g>
<!-- LayoutModule&#45;&gt;SubscriptionModule -->
<g id="edge5" class="edge">
<title>LayoutModule&#45;&gt;SubscriptionModule</title>
<path fill="none" stroke="black" d="M385,-122.03C385,-138.4 385,-160 385,-160 385,-160 459.64,-160 459.64,-160"/>
<polygon fill="black" stroke="black" points="459.64,-163.5 469.64,-160 459.64,-156.5 459.64,-163.5"/>
</g>
<!-- MicrotecAuthLibModule -->
<g id="node7" class="node">
<title>MicrotecAuthLibModule</title>
<polygon fill="#8dd3c7" stroke="black" points="317.52,-122 314.52,-126 293.52,-126 290.52,-122 160.48,-122 160.48,-86 317.52,-86 317.52,-122"/>
<text text-anchor="middle" x="239" y="-99.8" font-family="Times,serif" font-size="14.00">MicrotecAuthLibModule</text>
</g>
<!-- MicrotecAuthLibModule&#45;&gt;SubscriptionModule -->
<g id="edge6" class="edge">
<title>MicrotecAuthLibModule&#45;&gt;SubscriptionModule</title>
<path fill="none" stroke="black" d="M239,-122.11C239,-141.34 239,-169 239,-169 239,-169 459.68,-169 459.68,-169"/>
<polygon fill="black" stroke="black" points="459.68,-172.5 469.68,-169 459.68,-165.5 459.68,-172.5"/>
</g>
<!-- SharedLibModule -->
<g id="node8" class="node">
<title>SharedLibModule</title>
<polygon fill="#8dd3c7" stroke="black" points="141.87,-122 138.87,-126 117.87,-126 114.87,-122 24.13,-122 24.13,-86 141.87,-86 141.87,-122"/>
<text text-anchor="middle" x="83" y="-99.8" font-family="Times,serif" font-size="14.00">SharedLibModule</text>
</g>
<!-- SharedLibModule&#45;&gt;SubscriptionModule -->
<g id="edge7" class="edge">
<title>SharedLibModule&#45;&gt;SubscriptionModule</title>
<path fill="none" stroke="black" d="M83,-122.29C83,-144.21 83,-178 83,-178 83,-178 459.76,-178 459.76,-178"/>
<polygon fill="black" stroke="black" points="459.76,-181.5 469.76,-178 459.76,-174.5 459.76,-181.5"/>
</g>
</g>
</svg>
