<?xml version="1.0" encoding="UTF-8" standalone="no"?>
<!DOCTYPE svg PUBLIC "-//W3C//DTD SVG 1.1//EN"
 "http://www.w3.org/Graphics/SVG/1.1/DTD/svg11.dtd">
<!-- Generated by graphviz version 2.47.0 (20210316.0004)
 -->
<!-- Title: dependencies Pages: 1 -->
<svg width="788pt" height="211pt"
 viewBox="0.00 0.00 788.00 211.00" xmlns="http://www.w3.org/2000/svg" xmlns:xlink="http://www.w3.org/1999/xlink">
<g id="graph0" class="graph" transform="scale(1 1) rotate(0) translate(4 207)">
<title>dependencies</title>
<polygon fill="white" stroke="transparent" points="-4,4 -4,-207 784,-207 784,4 -4,4"/>
<text text-anchor="start" x="369.01" y="-42.4" font-family="Times-12" font-weight="bold" font-size="14.00">Legend</text>
<polygon fill="#ffffb3" stroke="transparent" points="156,-10 156,-30 176,-30 176,-10 156,-10"/>
<text text-anchor="start" x="179.63" y="-15.4" font-family="Times-12" font-size="14.00"> &#160;Declarations</text>
<polygon fill="#8dd3c7" stroke="transparent" points="269,-10 269,-30 289,-30 289,-10 269,-10"/>
<text text-anchor="start" x="292.73" y="-15.4" font-family="Times-12" font-size="14.00"> &#160;Module</text>
<polygon fill="#80b1d3" stroke="transparent" points="355,-10 355,-30 375,-30 375,-10 355,-10"/>
<text text-anchor="start" x="378.78" y="-15.4" font-family="Times-12" font-size="14.00"> &#160;Bootstrap</text>
<polygon fill="#fdb462" stroke="transparent" points="452,-10 452,-30 472,-30 472,-10 452,-10"/>
<text text-anchor="start" x="475.67" y="-15.4" font-family="Times-12" font-size="14.00"> &#160;Providers</text>
<polygon fill="#fb8072" stroke="transparent" points="548,-10 548,-30 568,-30 568,-10 548,-10"/>
<text text-anchor="start" x="571.73" y="-15.4" font-family="Times-12" font-size="14.00"> &#160;Exports</text>
<g id="clust1" class="cluster">
<title>cluster_CmsModule</title>
<polygon fill="none" stroke="black" stroke-dasharray="1,5" points="8,-70 8,-195 772,-195 772,-70 8,-70"/>
</g>
<g id="clust2" class="cluster">
<title>cluster_CmsModule_declarations</title>
<polygon fill="none" stroke="black" points="310,-78 310,-130 764,-130 764,-78 310,-78"/>
</g>
<g id="clust6" class="cluster">
<title>cluster_CmsModule_imports</title>
<polygon fill="none" stroke="black" points="16,-78 16,-130 302,-130 302,-78 16,-78"/>
</g>
<!-- AddCMSComponent -->
<g id="node1" class="node">
<title>AddCMSComponent</title>
<polygon fill="#ffffb3" stroke="black" points="755.5,-122 620.5,-122 620.5,-86 755.5,-86 755.5,-122"/>
<text text-anchor="middle" x="688" y="-99.8" font-family="Times,serif" font-size="14.00">AddCMSComponent</text>
</g>
<!-- CmsModule -->
<g id="node4" class="node">
<title>CmsModule</title>
<polygon fill="#8dd3c7" stroke="black" points="426.72,-187 423.72,-191 402.72,-191 399.72,-187 341.28,-187 341.28,-151 426.72,-151 426.72,-187"/>
<text text-anchor="middle" x="384" y="-164.8" font-family="Times,serif" font-size="14.00">CmsModule</text>
</g>
<!-- AddCMSComponent&#45;&gt;CmsModule -->
<g id="edge1" class="edge">
<title>AddCMSComponent&#45;&gt;CmsModule</title>
<path fill="none" stroke="black" d="M688,-122.28C688,-143.32 688,-175 688,-175 688,-175 436.91,-175 436.91,-175"/>
<polygon fill="black" stroke="black" points="436.91,-171.5 426.91,-175 436.91,-178.5 436.91,-171.5"/>
</g>
<!-- EditCMSComponent -->
<g id="node2" class="node">
<title>EditCMSComponent</title>
<polygon fill="#ffffb3" stroke="black" points="602.23,-122 467.77,-122 467.77,-86 602.23,-86 602.23,-122"/>
<text text-anchor="middle" x="535" y="-99.8" font-family="Times,serif" font-size="14.00">EditCMSComponent</text>
</g>
<!-- EditCMSComponent&#45;&gt;CmsModule -->
<g id="edge2" class="edge">
<title>EditCMSComponent&#45;&gt;CmsModule</title>
<path fill="none" stroke="black" d="M535,-122.02C535,-139.37 535,-163 535,-163 535,-163 436.87,-163 436.87,-163"/>
<polygon fill="black" stroke="black" points="436.87,-159.5 426.87,-163 436.87,-166.5 436.87,-159.5"/>
</g>
<!-- ListCMSComponent -->
<g id="node3" class="node">
<title>ListCMSComponent</title>
<polygon fill="#ffffb3" stroke="black" points="450.17,-122 317.83,-122 317.83,-86 450.17,-86 450.17,-122"/>
<text text-anchor="middle" x="384" y="-99.8" font-family="Times,serif" font-size="14.00">ListCMSComponent</text>
</g>
<!-- ListCMSComponent&#45;&gt;CmsModule -->
<g id="edge3" class="edge">
<title>ListCMSComponent&#45;&gt;CmsModule</title>
<path fill="none" stroke="black" d="M384,-122.11C384,-122.11 384,-140.99 384,-140.99"/>
<polygon fill="black" stroke="black" points="380.5,-140.99 384,-150.99 387.5,-140.99 380.5,-140.99"/>
</g>
<!-- CMSRoutingModule -->
<g id="node5" class="node">
<title>CMSRoutingModule</title>
<polygon fill="#8dd3c7" stroke="black" points="294.23,-122 291.23,-126 270.23,-126 267.23,-122 159.77,-122 159.77,-86 294.23,-86 294.23,-122"/>
<text text-anchor="middle" x="227" y="-99.8" font-family="Times,serif" font-size="14.00">CMSRoutingModule</text>
</g>
<!-- CMSRoutingModule&#45;&gt;CmsModule -->
<g id="edge4" class="edge">
<title>CMSRoutingModule&#45;&gt;CmsModule</title>
<path fill="none" stroke="black" d="M227,-122.02C227,-139.37 227,-163 227,-163 227,-163 331.1,-163 331.1,-163"/>
<polygon fill="black" stroke="black" points="331.1,-166.5 341.1,-163 331.1,-159.5 331.1,-166.5"/>
</g>
<!-- SharedLibModule -->
<g id="node6" class="node">
<title>SharedLibModule</title>
<polygon fill="#8dd3c7" stroke="black" points="141.87,-122 138.87,-126 117.87,-126 114.87,-122 24.13,-122 24.13,-86 141.87,-86 141.87,-122"/>
<text text-anchor="middle" x="83" y="-99.8" font-family="Times,serif" font-size="14.00">SharedLibModule</text>
</g>
<!-- SharedLibModule&#45;&gt;CmsModule -->
<g id="edge5" class="edge">
<title>SharedLibModule&#45;&gt;CmsModule</title>
<path fill="none" stroke="black" d="M83,-122.28C83,-143.32 83,-175 83,-175 83,-175 331.19,-175 331.19,-175"/>
<polygon fill="black" stroke="black" points="331.19,-178.5 341.19,-175 331.19,-171.5 331.19,-178.5"/>
</g>
</g>
</svg>
