<?xml version="1.0" encoding="UTF-8" standalone="no"?>
<!DOCTYPE svg PUBLIC "-//W3C//DTD SVG 1.1//EN"
 "http://www.w3.org/Graphics/SVG/1.1/DTD/svg11.dtd">
<!-- Generated by graphviz version 2.47.0 (20210316.0004)
 -->
<!-- Title: dependencies Pages: 1 -->
<svg width="568pt" height="284pt"
 viewBox="0.00 0.00 568.00 284.00" xmlns="http://www.w3.org/2000/svg" xmlns:xlink="http://www.w3.org/1999/xlink">
<g id="graph0" class="graph" transform="scale(1 1) rotate(0) translate(4 280)">
<title>dependencies</title>
<polygon fill="white" stroke="transparent" points="-4,4 -4,-280 564,-280 564,4 -4,4"/>
<text text-anchor="start" x="259.01" y="-42.4" font-family="Times-12" font-weight="bold" font-size="14.00">Legend</text>
<polygon fill="#ffffb3" stroke="transparent" points="46,-10 46,-30 66,-30 66,-10 46,-10"/>
<text text-anchor="start" x="69.63" y="-15.4" font-family="Times-12" font-size="14.00"> &#160;Declarations</text>
<polygon fill="#8dd3c7" stroke="transparent" points="159,-10 159,-30 179,-30 179,-10 159,-10"/>
<text text-anchor="start" x="182.73" y="-15.4" font-family="Times-12" font-size="14.00"> &#160;Module</text>
<polygon fill="#80b1d3" stroke="transparent" points="245,-10 245,-30 265,-30 265,-10 245,-10"/>
<text text-anchor="start" x="268.78" y="-15.4" font-family="Times-12" font-size="14.00"> &#160;Bootstrap</text>
<polygon fill="#fdb462" stroke="transparent" points="342,-10 342,-30 362,-30 362,-10 342,-10"/>
<text text-anchor="start" x="365.67" y="-15.4" font-family="Times-12" font-size="14.00"> &#160;Providers</text>
<polygon fill="#fb8072" stroke="transparent" points="438,-10 438,-30 458,-30 458,-10 438,-10"/>
<text text-anchor="start" x="461.73" y="-15.4" font-family="Times-12" font-size="14.00"> &#160;Exports</text>
<g id="clust1" class="cluster">
<title>cluster_DrawersModule</title>
<polygon fill="none" stroke="black" stroke-dasharray="1,5" points="8,-70 8,-268 552,-268 552,-70 8,-70"/>
</g>
<g id="clust2" class="cluster">
<title>cluster_DrawersModule_declarations</title>
<polygon fill="none" stroke="black" points="156,-78 156,-130 544,-130 544,-78 156,-78"/>
</g>
<g id="clust5" class="cluster">
<title>cluster_DrawersModule_imports</title>
<polygon fill="none" stroke="black" points="16,-78 16,-130 148,-130 148,-78 16,-78"/>
</g>
<g id="clust6" class="cluster">
<title>cluster_DrawersModule_exports</title>
<polygon fill="none" stroke="black" points="83,-208 83,-260 477,-260 477,-208 83,-208"/>
</g>
<!-- ActivityDrawerComponent -->
<g id="node1" class="node">
<title>ActivityDrawerComponent</title>
<polygon fill="#ffffb3" stroke="black" points="535.68,-122 366.32,-122 366.32,-86 535.68,-86 535.68,-122"/>
<text text-anchor="middle" x="451" y="-99.8" font-family="Times,serif" font-size="14.00">ActivityDrawerComponent</text>
</g>
<!-- DrawersModule -->
<g id="node3" class="node">
<title>DrawersModule</title>
<polygon fill="#8dd3c7" stroke="black" points="309.46,-187 306.46,-191 285.46,-191 282.46,-187 202.54,-187 202.54,-151 309.46,-151 309.46,-187"/>
<text text-anchor="middle" x="256" y="-164.8" font-family="Times,serif" font-size="14.00">DrawersModule</text>
</g>
<!-- ActivityDrawerComponent&#45;&gt;DrawersModule -->
<g id="edge1" class="edge">
<title>ActivityDrawerComponent&#45;&gt;DrawersModule</title>
<path fill="none" stroke="black" d="M417.88,-122.11C417.88,-141.34 417.88,-169 417.88,-169 417.88,-169 319.9,-169 319.9,-169"/>
<polygon fill="black" stroke="black" points="319.9,-165.5 309.9,-169 319.9,-172.5 319.9,-165.5"/>
</g>
<!-- MessengerDrawerComponent -->
<g id="node2" class="node">
<title>MessengerDrawerComponent</title>
<polygon fill="#ffffb3" stroke="black" points="347.93,-122 164.07,-122 164.07,-86 347.93,-86 347.93,-122"/>
<text text-anchor="middle" x="256" y="-99.8" font-family="Times,serif" font-size="14.00">MessengerDrawerComponent</text>
</g>
<!-- MessengerDrawerComponent&#45;&gt;DrawersModule -->
<g id="edge2" class="edge">
<title>MessengerDrawerComponent&#45;&gt;DrawersModule</title>
<path fill="none" stroke="black" d="M256,-122.11C256,-122.11 256,-140.99 256,-140.99"/>
<polygon fill="black" stroke="black" points="252.5,-140.99 256,-150.99 259.5,-140.99 252.5,-140.99"/>
</g>
<!-- ActivityDrawerComponent  -->
<g id="node5" class="node">
<title>ActivityDrawerComponent </title>
<polygon fill="#fb8072" stroke="black" points="469.18,-252 296.82,-252 296.82,-216 469.18,-216 469.18,-252"/>
<text text-anchor="middle" x="383" y="-229.8" font-family="Times,serif" font-size="14.00">ActivityDrawerComponent </text>
</g>
<!-- DrawersModule&#45;&gt;ActivityDrawerComponent  -->
<g id="edge4" class="edge">
<title>DrawersModule&#45;&gt;ActivityDrawerComponent </title>
<path fill="none" stroke="black" stroke-dasharray="5,2" d="M303.07,-187.11C303.07,-187.11 303.07,-205.99 303.07,-205.99"/>
<polygon fill="black" stroke="black" points="299.57,-205.99 303.07,-215.99 306.57,-205.99 299.57,-205.99"/>
</g>
<!-- MessengerDrawerComponent  -->
<g id="node6" class="node">
<title>MessengerDrawerComponent </title>
<polygon fill="#fb8072" stroke="black" points="278.93,-252 91.07,-252 91.07,-216 278.93,-216 278.93,-252"/>
<text text-anchor="middle" x="185" y="-229.8" font-family="Times,serif" font-size="14.00">MessengerDrawerComponent </text>
</g>
<!-- DrawersModule&#45;&gt;MessengerDrawerComponent  -->
<g id="edge5" class="edge">
<title>DrawersModule&#45;&gt;MessengerDrawerComponent </title>
<path fill="none" stroke="black" stroke-dasharray="5,2" d="M240.62,-187.11C240.62,-187.11 240.62,-205.99 240.62,-205.99"/>
<polygon fill="black" stroke="black" points="237.12,-205.99 240.62,-215.99 244.12,-205.99 237.12,-205.99"/>
</g>
<!-- ChatInnerModule -->
<g id="node4" class="node">
<title>ChatInnerModule</title>
<polygon fill="#8dd3c7" stroke="black" points="139.53,-122 136.53,-126 115.53,-126 112.53,-122 24.47,-122 24.47,-86 139.53,-86 139.53,-122"/>
<text text-anchor="middle" x="82" y="-99.8" font-family="Times,serif" font-size="14.00">ChatInnerModule</text>
</g>
<!-- ChatInnerModule&#45;&gt;DrawersModule -->
<g id="edge3" class="edge">
<title>ChatInnerModule&#45;&gt;DrawersModule</title>
<path fill="none" stroke="black" d="M115.52,-122.11C115.52,-141.34 115.52,-169 115.52,-169 115.52,-169 192.49,-169 192.49,-169"/>
<polygon fill="black" stroke="black" points="192.49,-172.5 202.49,-169 192.49,-165.5 192.49,-172.5"/>
</g>
</g>
</svg>
