<svg width="33" height="32" viewBox="0 0 33 32" fill="none" xmlns="http://www.w3.org/2000/svg">
<path d="M0.400391 4C0.400391 1.79086 2.19125 0 4.40039 0H28.4004C30.6095 0 32.4004 1.79086 32.4004 4V28C32.4004 30.2091 30.6095 32 28.4004 32H4.40039C2.19125 32 0.400391 30.2091 0.400391 28V4Z" fill="#D7ECEB"/>
<path d="M14.9004 18H21.4004" stroke="#36A19B" stroke-width="1.5" stroke-linecap="round"/>
<path d="M11.4004 18H11.9004" stroke="#36A19B" stroke-width="1.5" stroke-linecap="round"/>
<path d="M11.4004 14.5H11.9004" stroke="#36A19B" stroke-width="1.5" stroke-linecap="round"/>
<path d="M11.4004 21.5H11.9004" stroke="#36A19B" stroke-width="1.5" stroke-linecap="round"/>
<path d="M14.9004 14.5H21.4004" stroke="#36A19B" stroke-width="1.5" stroke-linecap="round"/>
<path d="M14.9004 21.5H21.4004" stroke="#36A19B" stroke-width="1.5" stroke-linecap="round"/>
<path d="M12.4004 7.5C12.4004 6.67157 13.072 6 13.9004 6H18.9004C19.7288 6 20.4004 6.67157 20.4004 7.5V8.5C20.4004 9.32843 19.7288 10 18.9004 10H13.9004C13.072 10 12.4004 9.32843 12.4004 8.5V7.5Z" stroke="#36A19B" stroke-width="1.5"/>
<path d="M25.4004 19.9983C25.4004 22.8267 25.4004 24.2409 24.5217 25.1196C23.643 25.9983 22.2288 25.9983 19.4004 25.9983H13.4004C10.572 25.9983 9.15775 25.9983 8.27907 25.1196C7.40039 24.2409 7.40039 22.8267 7.40039 19.9983V16.9983M20.4004 8C22.5754 8.01211 23.7533 8.10856 24.5217 8.87694C25.4004 9.75562 25.4004 11.1698 25.4004 13.9983V15.9983M12.4004 8C10.2254 8.01211 9.04745 8.10856 8.27907 8.87694C7.51071 9.6453 7.41424 10.8232 7.40213 12.998" stroke="#36A19B" stroke-width="1.5" stroke-linecap="round"/>
</svg>
