<svg width="32" height="32" viewBox="0 0 32 32" fill="none" xmlns="http://www.w3.org/2000/svg">
<path d="M0 4C0 1.79086 1.79086 0 4 0H28C30.2091 0 32 1.79086 32 4V28C32 30.2091 30.2091 32 28 32H4C1.79086 32 0 30.2091 0 28V4Z" fill="#F5D9D5"/>
<path d="M24.5001 10H7.5" stroke="#CC3F2D" stroke-width="1.5" stroke-linecap="round"/>
<path d="M10.5 10C10.5559 10 10.5838 10 10.6091 9.99936C11.4326 9.97849 12.159 9.45491 12.4392 8.68032C12.4478 8.65649 12.4567 8.62999 12.4743 8.57697L12.5714 8.28571C12.6543 8.03708 12.6957 7.91276 12.7507 7.8072C12.97 7.38607 13.3757 7.09364 13.8446 7.01877C13.9621 7 14.0932 7 14.3553 7H17.6447C17.9068 7 18.0379 7 18.1554 7.01877C18.6243 7.09364 19.03 7.38607 19.2493 7.8072C19.3043 7.91276 19.3457 8.03708 19.4286 8.28571L19.5257 8.57697C19.5433 8.62992 19.5522 8.65651 19.5608 8.68032C19.841 9.45491 20.5674 9.97849 21.3909 9.99936C21.4162 10 21.4441 10 21.5 10" stroke="#CC3F2D" stroke-width="1.5"/>
<path d="M22.3737 19.3991C22.1967 22.054 22.1082 23.3815 21.2432 24.1907C20.3782 25 19.0478 25 16.387 25H15.6136C12.9528 25 11.6224 25 10.7574 24.1907C9.89242 23.3815 9.80393 22.054 9.62693 19.3991L9.16699 12.5M22.8337 12.5L22.6337 15.5" stroke="#CC3F2D" stroke-width="1.5" stroke-linecap="round"/>
</svg>
