<svg width="32" height="32" viewBox="0 0 32 32" fill="none" xmlns="http://www.w3.org/2000/svg">
<path d="M0 4C0 1.79086 1.79086 0 4 0H28C30.2091 0 32 1.79086 32 4V28C32 30.2091 30.2091 32 28 32H4C1.79086 32 0 30.2091 0 28V4Z" fill="#F9E5D3"/>
<path d="M8 26H12M24 26H16" stroke="#E17F24" stroke-width="1.5" stroke-linecap="round"/>
<path d="M17.8881 7.66293L18.6296 6.92142C19.8581 5.69286 21.85 5.69286 23.0786 6.92142C24.3071 8.14999 24.3071 10.1419 23.0786 11.3704L22.3371 12.1119M17.8881 7.66293C17.8881 7.66293 17.9807 9.23862 19.3711 10.6289C20.7614 12.0193 22.3371 12.1119 22.3371 12.1119M17.8881 7.66293L11.0711 14.4799C10.6093 14.9416 10.3785 15.1725 10.1799 15.4271C9.94571 15.7273 9.74491 16.0522 9.58107 16.396C9.44219 16.6874 9.33894 16.9972 9.13245 17.6167L8.25745 20.2417M22.3371 12.1119L18.9286 15.5204M15.5201 18.9289C15.0584 19.3907 14.8275 19.6215 14.5729 19.8201C14.2727 20.0543 13.9478 20.2551 13.604 20.4189C13.3126 20.5578 13.0028 20.6611 12.3833 20.8675L9.75834 21.7426M9.75834 21.7426L9.11667 21.9564C8.81182 22.0581 8.47573 21.9787 8.2485 21.7515C8.02128 21.5243 7.94194 21.1882 8.04356 20.8833L8.25745 20.2417M9.75834 21.7426L8.25745 20.2417" stroke="#E17F24" stroke-width="1.5" stroke-linecap="round"/>
</svg>
